<svg width="10" height="10" viewBox="0 0 10 10" fill="none" xmlns="http://www.w3.org/2000/svg">
<path d="M1.62047 0.432793C0.100077 1.14525 -0.436531 2.95764 0.381157 4.64504C0.802777 5.51999 1.96543 6.96991 3.03864 7.96985C4.16296 9.01979 4.4696 9.20728 5.0062 9.20728C5.54281 9.20728 5.84944 9.01979 6.97377 7.96985C8.04698 6.96991 9.20963 5.51999 9.63125 4.64504C10.4873 2.87015 9.79734 0.870267 8.13642 0.332798C7.36983 0.0828133 6.1433 0.220304 5.53004 0.620281L5.0062 0.957762L4.4696 0.620281C3.7669 0.157808 2.39982 0.0703135 1.62047 0.432793ZM3.99687 1.37024C4.17574 1.48273 4.44404 1.72022 4.59736 1.89521C4.94232 2.28268 5.07009 2.28268 5.41505 1.88271C6.43716 0.745274 8.07253 0.795271 8.82634 2.0077C9.59292 3.20763 8.71135 5.02002 6.24551 7.35738C5.68335 7.89485 5.12119 8.33233 5.0062 8.33233C4.87844 8.33233 4.3035 7.86985 3.70301 7.30739C1.85044 5.53249 0.917765 4.09508 0.917765 3.02014C0.917765 1.44523 2.65535 0.520288 3.99687 1.37024Z" fill="#F1CA0A"/>
</svg>
