<svg width="146" height="22" viewBox="0 0 146 22" fill="none" xmlns="http://www.w3.org/2000/svg">
<rect y="0.377228" width="146" height="20" rx="2" fill="#FFD60A"/>
<path d="M7.66406 8.54129C7.52865 8.61942 7.46094 8.72098 7.46094 8.84598C7.46094 9.04389 7.58333 9.15848 7.82812 9.18973C8.03125 9.14806 8.13281 9.02827 8.13281 8.83035C8.08073 8.63764 8.00521 8.54129 7.90625 8.54129V8.64285C7.90625 8.66369 7.88021 8.68973 7.82812 8.72098H7.76562C7.74479 8.72098 7.71615 8.69494 7.67969 8.64285V8.54129H7.66406ZM7.67969 8.0491V7.97098C7.57552 7.97098 7.51562 7.89025 7.5 7.72879C7.52604 7.59337 7.57292 7.52567 7.64062 7.52567C7.64062 7.234 7.53125 6.97619 7.3125 6.75223C7.29167 6.80431 7.24479 6.83035 7.17188 6.83035H7.05469C6.94531 6.77306 6.89062 6.69754 6.89062 6.60379V6.56473C6.89062 6.45535 6.96354 6.38244 7.10938 6.34598H7.15625C7.28125 6.34598 7.36198 6.43192 7.39844 6.60379C7.47135 6.60379 7.5599 6.72098 7.66406 6.95535H7.67969V0.213165C7.67969 0.192332 7.70833 0.163686 7.76562 0.127228H7.82812C7.84896 0.127228 7.875 0.155874 7.90625 0.213165V7.54129C7.95833 7.59858 7.98438 7.65327 7.98438 7.70535V7.76785C7.98438 7.81473 7.95833 7.86942 7.90625 7.93192V8.0491C8.66667 8.0491 9.20573 8.05171 9.52344 8.05692L10.3906 8.0491C10.5885 8.03869 10.7448 8.0465 10.8594 8.07254C10.8906 8.07775 10.9115 8.08035 10.9219 8.08035C10.9531 8.08556 10.9792 8.09858 11 8.11942C11.0833 8.16629 11.1276 8.22619 11.1328 8.2991C11.1276 8.35639 11.125 8.40848 11.125 8.45535C11.1562 8.62202 11.1615 8.83817 11.1406 9.10379V9.28348C11.1458 9.33035 11.1484 9.38504 11.1484 9.44754C11.2057 14.8434 11.2161 17.5413 11.1797 17.5413C11.0703 17.6402 10.9583 17.6923 10.8438 17.6975C9.69271 17.734 9.11458 17.6845 9.10938 17.5491C9.07812 17.4866 9.0599 17.3955 9.05469 17.2757L9.04688 17.26C9.00521 13.7809 8.98438 11.3043 8.98438 9.83035L8.57812 9.83817C7.25521 9.7965 6.58333 9.83035 6.5625 9.93973C6.51562 10.0179 6.48958 10.0725 6.48438 10.1038L6.47656 10.1429C6.4401 11.1064 6.4401 13.5439 6.47656 17.4554L6.46875 17.4788C6.41667 17.7027 6.08333 17.7783 5.46875 17.7054C5.17188 17.7262 4.88802 17.7288 4.61719 17.7132C4.41406 17.6663 4.33594 17.4163 4.38281 16.9632C4.34635 11.2965 4.34115 8.41108 4.36719 8.30692V8.29129C4.41406 8.09337 4.7526 8.02046 5.38281 8.07254C5.5651 8.06212 6.26042 8.05431 7.46875 8.0491H7.67969ZM13.6641 0.127228H13.7266C13.7474 0.127228 13.7734 0.153269 13.8047 0.205353V7.75223C13.862 7.80952 13.8906 7.86421 13.8906 7.91629V7.97879C13.8906 8.02567 13.862 8.07775 13.8047 8.13504V8.22098C16.1536 8.46056 17.388 8.60119 17.5078 8.64285C17.8151 8.71577 18.1875 8.85639 18.625 9.06473C19.5 9.65848 19.9375 10.4762 19.9375 11.5179C19.9375 12.8147 19.4323 13.7522 18.4219 14.3304C17.9688 14.5595 17.388 14.6741 16.6797 14.6741L14.4141 14.4319C14.1589 14.4319 14.0312 14.6741 14.0312 15.1585L13.75 17.5647C13.6562 17.7001 13.526 17.7679 13.3594 17.7679C12.3073 17.6533 11.7812 17.5647 11.7812 17.5022C11.7292 17.4293 11.7031 17.3694 11.7031 17.3225C11.7188 17.0205 12.0417 14.0387 12.6719 8.37723C12.7292 8.21577 12.8438 8.13504 13.0156 8.13504C13.1354 8.13504 13.3047 8.14806 13.5234 8.1741C13.4453 8.10119 13.4062 8.02046 13.4062 7.93192C13.4323 7.80171 13.4792 7.7366 13.5469 7.7366C13.5469 7.45014 13.4375 7.19233 13.2188 6.96317C13.1979 7.01525 13.151 7.04129 13.0781 7.04129H12.9609C12.8516 6.984 12.7969 6.91108 12.7969 6.82254V6.78348C12.7969 6.66889 12.8698 6.59337 13.0156 6.55692H13.0625C13.1823 6.55692 13.263 6.64546 13.3047 6.82254C13.3776 6.82254 13.4635 6.93712 13.5625 7.16629H13.5859V0.205353C13.5859 0.184519 13.612 0.158478 13.6641 0.127228ZM13.3594 9.0491C13.3594 9.24181 13.4818 9.35639 13.7266 9.39285C13.9297 9.35119 14.0312 9.22879 14.0312 9.02567C13.9792 8.83817 13.9036 8.74442 13.8047 8.74442V8.84598C13.8047 8.86681 13.7786 8.89285 13.7266 8.9241H13.6641C13.6432 8.9241 13.6172 8.89806 13.5859 8.84598V8.74442H13.5625C13.4271 8.82254 13.3594 8.9241 13.3594 9.0491ZM14.3359 12.5257C14.3359 12.7705 14.6719 12.8929 15.3438 12.8929C15.6615 12.9449 16.0938 12.971 16.6406 12.971C17.3229 12.971 17.7396 12.5934 17.8906 11.8382C17.9062 11.76 17.9141 11.6533 17.9141 11.5179V11.4788C17.9141 10.885 17.5964 10.4788 16.9609 10.26C16.1797 10.0725 15.4792 9.97879 14.8594 9.97879H14.8359C14.6693 9.97879 14.5755 10.1272 14.5547 10.4241C14.4089 11.5804 14.3359 12.2809 14.3359 12.5257ZM24.6172 0.142853H24.6797C24.7005 0.142853 24.7292 0.171499 24.7656 0.22879V7.2366C24.8177 7.29389 24.8438 7.34858 24.8438 7.40067V7.46317C24.8438 7.51525 24.8177 7.57254 24.7656 7.63504V7.69754H25.1328C26.3151 7.69754 27.375 8.14025 28.3125 9.02567C28.8021 9.56733 29.1276 10.0647 29.2891 10.5179C29.5755 11.2835 29.7188 11.9736 29.7188 12.5882C29.7344 12.5882 29.7422 12.6298 29.7422 12.7132C29.7422 14.6819 29.0365 16.1637 27.625 17.1585C26.776 17.6689 25.8906 17.9241 24.9688 17.9241C23.3021 17.9241 21.9896 17.2887 21.0312 16.0179C20.6042 15.4293 20.3047 14.6064 20.1328 13.5491C20.1328 13.5283 20.1276 13.4293 20.1172 13.2522C20.1172 13.2418 20.1224 13.2001 20.1328 13.1272C20.1068 13.0283 20.0938 12.9267 20.0938 12.8225C20.0938 12.7444 20.1068 12.6663 20.1328 12.5882C20.1328 12.5777 20.1276 12.5361 20.1172 12.4632C20.1172 12.0361 20.2474 11.4085 20.5078 10.5804C20.6589 10.2158 20.901 9.7991 21.2344 9.33035C21.8177 8.70535 22.3568 8.2991 22.8516 8.1116C23.0495 7.9866 23.4714 7.8616 24.1172 7.7366C24.3516 7.71056 24.4896 7.69754 24.5312 7.69754V7.6741C24.4271 7.6741 24.3646 7.59077 24.3438 7.4241C24.375 7.28869 24.4245 7.22098 24.4922 7.22098C24.4922 6.9241 24.3828 6.66108 24.1641 6.43192C24.138 6.484 24.0885 6.51004 24.0156 6.51004H23.8906C23.7812 6.45275 23.7266 6.37723 23.7266 6.28348V6.24442C23.7266 6.12983 23.8021 6.05431 23.9531 6.01785H23.9922C24.1224 6.01785 24.2057 6.10639 24.2422 6.28348C24.3203 6.28348 24.4115 6.40067 24.5156 6.63504H24.5312V0.22879C24.5312 0.207957 24.5599 0.179311 24.6172 0.142853ZM24.3047 8.56473C24.3047 8.76785 24.4297 8.88504 24.6797 8.91629C24.888 8.87462 24.9922 8.75223 24.9922 8.5491C24.9401 8.35119 24.8646 8.25223 24.7656 8.25223V8.3616C24.7656 8.38244 24.737 8.40848 24.6797 8.43973H24.6172C24.5964 8.43973 24.5677 8.41369 24.5312 8.3616V8.25223H24.5156C24.375 8.33035 24.3047 8.43452 24.3047 8.56473ZM22.2344 12.7991C22.2448 13.4501 22.3672 14.0647 22.6016 14.6429C22.7839 15.0283 23.0208 15.3486 23.3125 15.6038C23.8177 15.9475 24.3073 16.1194 24.7812 16.1194H25.1328C25.5391 16.1194 26.0026 15.9475 26.5234 15.6038C26.9089 15.234 27.1875 14.8173 27.3594 14.3538C27.4688 14.0309 27.5495 13.5335 27.6016 12.8616C27.5703 12.3616 27.4948 11.8564 27.375 11.346C27.224 10.9397 27.0391 10.5934 26.8203 10.3069C26.3359 9.75483 25.6927 9.47879 24.8906 9.47879C24 9.47879 23.2995 9.859 22.7891 10.6194C22.5391 11.0517 22.375 11.5439 22.2969 12.096C22.2812 12.3668 22.2604 12.6012 22.2344 12.7991ZM31.1875 0.142853H31.25C31.2708 0.142853 31.2969 0.171499 31.3281 0.22879V6.33817C31.3854 6.39546 31.4141 6.45014 31.4141 6.50223V6.56473C31.4141 6.6116 31.3854 6.66629 31.3281 6.72879C31.3385 6.72879 31.3802 6.7366 31.4531 6.75223C32.7552 6.77306 33.4062 6.83296 33.4062 6.93192C33.4844 7.00483 33.6536 7.53348 33.9141 8.51785L35.2734 13.135C35.3099 13.1767 35.3568 13.2184 35.4141 13.26C35.5391 13.26 35.6693 13.0257 35.8047 12.5569C37.0391 9.27567 37.7161 7.48921 37.8359 7.19754C37.9714 7.10379 38.0599 7.05692 38.1016 7.05692L39.5234 7.11942L39.5 7.01785V6.99442C39.526 6.859 39.5755 6.79129 39.6484 6.79129C39.6484 6.49962 39.5391 6.23921 39.3203 6.01004C39.2943 6.06733 39.2448 6.09598 39.1719 6.09598H39.0469C38.9375 6.03348 38.8828 5.95796 38.8828 5.86942V5.82254C38.8828 5.71317 38.9583 5.63764 39.1094 5.59598H39.1484C39.2786 5.59598 39.362 5.68712 39.3984 5.86942C39.4714 5.86942 39.5547 5.97098 39.6484 6.1741H39.6641V6.1116C39.6641 5.80952 39.6589 3.84077 39.6484 0.205353L39.7266 0.142853H39.7891L39.8672 0.205353C39.8828 2.24702 39.8906 3.31994 39.8906 3.4241C39.8906 3.93973 39.8984 5.07514 39.9141 6.83035C39.9661 6.85119 39.9922 6.90067 39.9922 6.97879V7.03348L39.9766 7.14285C40.4818 7.14806 40.7344 7.18712 40.7344 7.26004C40.8021 7.31733 40.8359 7.38764 40.8359 7.47098C40.5755 13.4345 40.4245 16.5074 40.3828 16.6897C40.2943 16.7835 40.1979 16.8304 40.0938 16.8304C39.0156 16.8304 38.4766 16.747 38.4766 16.5804L38.4531 16.5022L38.7031 11.0179C38.6875 10.7054 38.6589 10.5491 38.6172 10.5491H38.5547C38.4141 10.6481 38.1953 11.1194 37.8984 11.9632C36.8047 14.6923 36.1953 16.1923 36.0703 16.4632C35.9661 16.5725 35.8359 16.6272 35.6797 16.6272C34.8307 16.6272 34.4062 16.5647 34.4062 16.4397C34.2865 16.2574 34.0755 15.5934 33.7734 14.4475C33.7057 14.2861 33.3438 13.083 32.6875 10.8382C32.5625 10.4944 32.4714 10.3225 32.4141 10.3225H32.3984C32.2734 10.3225 32.1901 11.1637 32.1484 12.846L31.9688 16.2522C31.8802 16.3772 31.7708 16.4397 31.6406 16.4397C30.5833 16.4189 30.0547 16.3512 30.0547 16.2366C30.0286 16.1168 30.0156 16.0413 30.0156 16.01C30.276 10.0934 30.4271 7.05431 30.4688 6.89285C30.5208 6.80431 30.6172 6.74181 30.7578 6.70535C30.7682 6.70535 30.7734 6.71317 30.7734 6.72879L30.875 6.70535H30.8984L31 6.72879C30.9479 6.6715 30.9219 6.60379 30.9219 6.52567C30.9479 6.38504 30.9948 6.31473 31.0625 6.31473C31.0625 6.02827 30.9531 5.77046 30.7344 5.54129C30.7135 5.59337 30.6667 5.61942 30.5938 5.61942H30.4688C30.3594 5.56212 30.3047 5.4866 30.3047 5.39285V5.35379C30.3047 5.23921 30.3802 5.16369 30.5312 5.12723H30.5703C30.6953 5.12723 30.776 5.21577 30.8125 5.39285C30.8906 5.39285 30.9818 5.51004 31.0859 5.74442H31.1016V0.22879C31.1016 0.202749 31.1302 0.174103 31.1875 0.142853ZM30.875 7.69754C30.9167 7.91629 31.0417 8.02567 31.25 8.02567C31.4062 8.02567 31.5078 7.91629 31.5547 7.69754C31.5547 7.57254 31.4922 7.46837 31.3672 7.38504H31.3281C31.3281 7.47879 31.3021 7.52567 31.25 7.52567H31.1875C31.1562 7.52567 31.1224 7.47879 31.0859 7.38504C30.9453 7.46317 30.875 7.56733 30.875 7.69754ZM39.4609 8.16629C39.5026 8.38504 39.625 8.49442 39.8281 8.49442C39.9844 8.49442 40.0885 8.38504 40.1406 8.16629C40.1406 8.04129 40.0781 7.93973 39.9531 7.8616H39.9297C39.9297 7.91369 39.8958 7.96056 39.8281 8.00223C39.75 8.00223 39.6953 7.95535 39.6641 7.8616C39.5286 7.93452 39.4609 8.03608 39.4609 8.16629ZM45.5234 0.142853H45.5859C45.6068 0.142853 45.6354 0.171499 45.6719 0.22879V7.2366C45.724 7.29389 45.75 7.34858 45.75 7.40067V7.46317C45.75 7.51525 45.724 7.57254 45.6719 7.63504V7.69754H46.0391C47.2214 7.69754 48.2812 8.14025 49.2188 9.02567C49.7083 9.56733 50.0339 10.0647 50.1953 10.5179C50.4818 11.2835 50.625 11.9736 50.625 12.5882C50.6406 12.5882 50.6484 12.6298 50.6484 12.7132C50.6484 14.6819 49.9427 16.1637 48.5312 17.1585C47.6823 17.6689 46.7969 17.9241 45.875 17.9241C44.2083 17.9241 42.8958 17.2887 41.9375 16.0179C41.5104 15.4293 41.2109 14.6064 41.0391 13.5491C41.0391 13.5283 41.0339 13.4293 41.0234 13.2522C41.0234 13.2418 41.0286 13.2001 41.0391 13.1272C41.013 13.0283 41 12.9267 41 12.8225C41 12.7444 41.013 12.6663 41.0391 12.5882C41.0391 12.5777 41.0339 12.5361 41.0234 12.4632C41.0234 12.0361 41.1536 11.4085 41.4141 10.5804C41.5651 10.2158 41.8073 9.7991 42.1406 9.33035C42.724 8.70535 43.263 8.2991 43.7578 8.1116C43.9557 7.9866 44.3776 7.8616 45.0234 7.7366C45.2578 7.71056 45.3958 7.69754 45.4375 7.69754V7.6741C45.3333 7.6741 45.2708 7.59077 45.25 7.4241C45.2812 7.28869 45.3307 7.22098 45.3984 7.22098C45.3984 6.9241 45.2891 6.66108 45.0703 6.43192C45.0443 6.484 44.9948 6.51004 44.9219 6.51004H44.7969C44.6875 6.45275 44.6328 6.37723 44.6328 6.28348V6.24442C44.6328 6.12983 44.7083 6.05431 44.8594 6.01785H44.8984C45.0286 6.01785 45.112 6.10639 45.1484 6.28348C45.2266 6.28348 45.3177 6.40067 45.4219 6.63504H45.4375V0.22879C45.4375 0.207957 45.4661 0.179311 45.5234 0.142853ZM45.2109 8.56473C45.2109 8.76785 45.3359 8.88504 45.5859 8.91629C45.7943 8.87462 45.8984 8.75223 45.8984 8.5491C45.8464 8.35119 45.7708 8.25223 45.6719 8.25223V8.3616C45.6719 8.38244 45.6432 8.40848 45.5859 8.43973H45.5234C45.5026 8.43973 45.474 8.41369 45.4375 8.3616V8.25223H45.4219C45.2812 8.33035 45.2109 8.43452 45.2109 8.56473ZM43.1406 12.7991C43.151 13.4501 43.2734 14.0647 43.5078 14.6429C43.6901 15.0283 43.9271 15.3486 44.2188 15.6038C44.724 15.9475 45.2135 16.1194 45.6875 16.1194H46.0391C46.4453 16.1194 46.9089 15.9475 47.4297 15.6038C47.8151 15.234 48.0938 14.8173 48.2656 14.3538C48.375 14.0309 48.4557 13.5335 48.5078 12.8616C48.4766 12.3616 48.401 11.8564 48.2812 11.346C48.1302 10.9397 47.9453 10.5934 47.7266 10.3069C47.2422 9.75483 46.599 9.47879 45.7969 9.47879C44.9062 9.47879 44.2057 9.859 43.6953 10.6194C43.4453 11.0517 43.2812 11.5439 43.2031 12.096C43.1875 12.3668 43.1667 12.6012 43.1406 12.7991ZM53.3594 0.127228H53.4219L53.4922 0.181915C53.5026 4.57775 53.5078 6.80431 53.5078 6.8616C53.5078 7.41889 53.5156 8.55431 53.5312 10.2679C53.5625 10.2679 53.5859 10.3173 53.6016 10.4163V10.4397C53.6016 10.5022 53.5833 10.5569 53.5469 10.6038V10.6585H54.8438C55.0938 10.6585 55.2188 10.7652 55.2188 10.9788C55.2292 11.0205 55.2344 11.0882 55.2344 11.1819V11.6585C55.2344 11.971 55.1406 12.1272 54.9531 12.1272C54.8958 12.1376 54.8177 12.1429 54.7188 12.1429H51.8828C51.6589 12.1429 51.5469 11.9814 51.5469 11.6585V11.4163C51.5469 10.9632 51.5911 10.7366 51.6797 10.7366C51.6797 10.6949 51.7578 10.6689 51.9141 10.6585H53.3047V10.6429C53.2266 10.6429 53.1771 10.5804 53.1562 10.4554V10.4163C53.1562 10.3486 53.2005 10.2887 53.2891 10.2366C53.2891 9.98139 53.1901 9.74702 52.9922 9.53348H52.9766C52.9557 9.58035 52.9115 9.60379 52.8438 9.60379H52.7891C52.6953 9.60379 52.6276 9.53608 52.5859 9.40067C52.612 9.23921 52.6849 9.15848 52.8047 9.15848C52.9661 9.1741 53.0469 9.25483 53.0469 9.40067C53.1198 9.40067 53.2057 9.50483 53.3047 9.71317H53.3281C53.3125 9.47879 53.3047 9.32514 53.3047 9.25223C53.3047 8.50744 53.2995 5.484 53.2891 0.181915L53.3594 0.127228ZM53.5469 11.0335C53.5365 11.1324 53.513 11.1819 53.4766 11.1819H53.3984C53.3516 11.1611 53.3281 11.1168 53.3281 11.0491C53.2917 11.0491 53.2526 11.1168 53.2109 11.2522C53.2422 11.4397 53.3229 11.5335 53.4531 11.5335C53.5833 11.5335 53.6641 11.4475 53.6953 11.2757C53.6953 11.1663 53.6536 11.0856 53.5703 11.0335H53.5469ZM59.6641 8.54129C59.5286 8.61942 59.4609 8.72098 59.4609 8.84598C59.4609 9.04389 59.5833 9.15848 59.8281 9.18973C60.0312 9.14806 60.1328 9.02827 60.1328 8.83035C60.0807 8.63764 60.0052 8.54129 59.9062 8.54129V8.64285C59.9062 8.66369 59.8802 8.68973 59.8281 8.72098H59.7656C59.7448 8.72098 59.7161 8.69494 59.6797 8.64285V8.54129H59.6641ZM59.6797 8.0491V7.97098C59.5755 7.97098 59.5156 7.89025 59.5 7.72879C59.526 7.59337 59.5729 7.52567 59.6406 7.52567C59.6406 7.234 59.5312 6.97619 59.3125 6.75223C59.2917 6.80431 59.2448 6.83035 59.1719 6.83035H59.0547C58.9453 6.77306 58.8906 6.69754 58.8906 6.60379V6.56473C58.8906 6.45535 58.9635 6.38244 59.1094 6.34598H59.1562C59.2812 6.34598 59.362 6.43192 59.3984 6.60379C59.4714 6.60379 59.5599 6.72098 59.6641 6.95535H59.6797V0.213165C59.6797 0.192332 59.7083 0.163686 59.7656 0.127228H59.8281C59.849 0.127228 59.875 0.155874 59.9062 0.213165V7.54129C59.9583 7.59858 59.9844 7.65327 59.9844 7.70535V7.76785C59.9844 7.81473 59.9583 7.86942 59.9062 7.93192V8.0491C60.6667 8.0491 61.2057 8.05171 61.5234 8.05692L62.3906 8.0491C62.5885 8.03869 62.7448 8.0465 62.8594 8.07254C62.8906 8.07775 62.9115 8.08035 62.9219 8.08035C62.9531 8.08556 62.9792 8.09858 63 8.11942C63.0833 8.16629 63.1276 8.22619 63.1328 8.2991C63.1276 8.35639 63.125 8.40848 63.125 8.45535C63.1562 8.62202 63.1615 8.83817 63.1406 9.10379V9.28348C63.1458 9.33035 63.1484 9.38504 63.1484 9.44754C63.2057 14.8434 63.2161 17.5413 63.1797 17.5413C63.0703 17.6402 62.9583 17.6923 62.8438 17.6975C61.6927 17.734 61.1146 17.6845 61.1094 17.5491C61.0781 17.4866 61.0599 17.3955 61.0547 17.2757L61.0469 17.26C61.0052 13.7809 60.9844 11.3043 60.9844 9.83035L60.5781 9.83817C59.2552 9.7965 58.5833 9.83035 58.5625 9.93973C58.5156 10.0179 58.4896 10.0725 58.4844 10.1038L58.4766 10.1429C58.4401 11.1064 58.4401 13.5439 58.4766 17.4554L58.4688 17.4788C58.4167 17.7027 58.0833 17.7783 57.4688 17.7054C57.1719 17.7262 56.888 17.7288 56.6172 17.7132C56.4141 17.6663 56.3359 17.4163 56.3828 16.9632C56.3464 11.2965 56.3411 8.41108 56.3672 8.30692V8.29129C56.4141 8.09337 56.7526 8.02046 57.3828 8.07254C57.5651 8.06212 58.2604 8.05431 59.4688 8.0491H59.6797ZM67.4062 8.33817C67.276 8.41629 67.2109 8.51525 67.2109 8.63504C67.2526 8.84858 67.3698 8.95535 67.5625 8.95535C67.7188 8.95535 67.8177 8.84858 67.8594 8.63504C67.8594 8.52046 67.8021 8.4215 67.6875 8.33817H67.6484C67.6484 8.43192 67.6198 8.47879 67.5625 8.47879H67.5078C67.4766 8.47879 67.4427 8.43192 67.4062 8.33817ZM67.4297 7.84598L67.6484 7.87723C70.2266 8.27827 71.6771 8.51004 72 8.57254C72.1302 8.62983 72.1953 8.74181 72.1953 8.90848C71.3411 14.4814 70.8568 17.5517 70.7422 18.1194C70.6953 18.2027 70.6042 18.2626 70.4688 18.2991C69.2708 18.1481 68.6693 18.0048 68.6641 17.8694L68.6406 17.76C69.3646 13.1559 69.724 10.8225 69.7188 10.76C69.7552 10.5621 69.7708 10.385 69.7656 10.2288C69.7604 10.0569 69.3333 9.92931 68.4844 9.84598C68.4635 9.84077 68.4427 9.83556 68.4219 9.83035C67.9375 13.1012 67.6641 14.8434 67.6016 15.0569C67.4818 15.4111 67.3854 15.6637 67.3125 15.8147C66.9635 16.5074 66.3698 16.9267 65.5312 17.0725C65.2135 17.1455 64.7318 17.1429 64.0859 17.0647L63.5469 17.0179C63.401 16.9554 63.3255 16.8746 63.3203 16.7757L63.3125 16.7132C63.349 15.8277 63.4323 15.3824 63.5625 15.3772C63.6094 15.3512 63.651 15.3356 63.6875 15.3304C63.9635 15.3564 64.2318 15.3824 64.4922 15.4085C64.8047 15.4189 65.0573 15.3616 65.25 15.2366C65.3698 15.1116 65.4609 14.9892 65.5234 14.8694C65.638 14.635 65.8151 13.6689 66.0547 11.971C66.2995 10.3616 66.4714 9.25223 66.5703 8.64285C66.638 8.18973 66.6901 7.93973 66.7266 7.89285C66.8516 7.81994 66.9375 7.78087 66.9844 7.77567C67.0208 7.78087 67.0547 7.78608 67.0859 7.79129L67.4297 7.84598ZM67.4297 7.84598C67.5026 7.85639 67.5755 7.86681 67.6484 7.87723V7.70535C67.7005 7.64806 67.7266 7.59598 67.7266 7.5491V7.4866C67.7266 7.43973 67.7005 7.38764 67.6484 7.33035V0.252228C67.612 0.200144 67.5833 0.174103 67.5625 0.174103H67.5078C67.4557 0.205353 67.4297 0.231394 67.4297 0.252228V6.76004H67.4062C67.3073 6.53087 67.2214 6.41629 67.1484 6.41629C67.112 6.24962 67.0339 6.16629 66.9141 6.16629H66.875C66.7292 6.20275 66.6562 6.27306 66.6562 6.37723V6.41629C66.6562 6.50483 66.7083 6.57775 66.8125 6.63504H66.9297C67.0026 6.63504 67.0495 6.609 67.0703 6.55692C67.2839 6.78087 67.3906 7.03348 67.3906 7.31473C67.3229 7.31473 67.276 7.37983 67.25 7.51004C67.2656 7.66629 67.3255 7.74442 67.4297 7.74442V7.84598ZM67.0859 7.79129C67.1797 7.80692 67.2214 7.81473 67.2109 7.81473C67.2005 7.80952 67.1589 7.80171 67.0859 7.79129ZM76.75 0.220978H76.8047C76.8255 0.220978 76.8542 0.247019 76.8906 0.299103V7.45535C76.9427 7.51264 76.9688 7.56733 76.9688 7.61942V7.68192C76.9688 7.71837 76.9557 7.75744 76.9297 7.7991H77.5547C77.8047 7.7991 77.9896 8.05171 78.1094 8.55692C78.8229 10.4111 79.7891 12.9996 81.0078 16.3225C81.112 16.5205 81.2057 16.7965 81.2891 17.1507C81.2891 17.2809 81.1823 17.3564 80.9688 17.3772C80.8333 17.3772 80.4948 17.3694 79.9531 17.3538C79.75 17.3694 79.6146 17.3772 79.5469 17.3772C79.2865 17.3772 79.0964 17.1064 78.9766 16.5647C78.7057 15.7574 78.5312 15.346 78.4531 15.3304C78.3906 15.2626 78.1328 15.2288 77.6797 15.2288H75.3672C75.0599 15.2288 74.8698 15.3512 74.7969 15.596C74.4531 16.6533 74.2318 17.221 74.1328 17.2991C73.987 17.3512 73.8516 17.3772 73.7266 17.3772H73.1953C73.1328 17.3772 73.0651 17.3694 72.9922 17.3538C72.9453 17.3694 72.8854 17.3772 72.8125 17.3772H72.6719C72.3594 17.3772 72.2031 17.3095 72.2031 17.1741V17.096C72.2031 16.9918 72.8047 15.3876 74.0078 12.2835C74.4141 11.1585 74.9479 9.73921 75.6094 8.02567C75.724 7.87462 75.8594 7.7991 76.0156 7.7991H76.5234C76.4974 7.75223 76.4844 7.70014 76.4844 7.64285C76.5104 7.50744 76.5573 7.43973 76.625 7.43973C76.625 7.15327 76.5156 6.89546 76.2969 6.66629C76.276 6.71837 76.2292 6.74442 76.1562 6.74442H76.0391C75.9297 6.68712 75.875 6.61421 75.875 6.52567V6.4866C75.875 6.37202 75.9505 6.2965 76.1016 6.26004H76.1406C76.2656 6.26004 76.3464 6.34858 76.3828 6.52567C76.4557 6.52567 76.5443 6.64025 76.6484 6.86942H76.6641V0.299103C76.6641 0.278269 76.6927 0.252228 76.75 0.220978ZM76.3984 8.7991C76.4401 9.01264 76.5625 9.11942 76.7656 9.11942C76.9219 9.11942 77.0234 9.01264 77.0703 8.7991C77.0703 8.6741 77.0104 8.57254 76.8906 8.49442C76.8906 8.58817 76.862 8.63504 76.8047 8.63504H76.75C76.7135 8.63504 76.6797 8.58035 76.6484 8.47098C76.4818 8.5491 76.3984 8.65848 76.3984 8.7991ZM76.7031 10.4788C76.5781 10.5569 76.4714 10.7809 76.3828 11.1507C75.8568 12.5517 75.5938 13.3095 75.5938 13.4241C75.5938 13.5856 75.7214 13.6663 75.9766 13.6663C76.0547 13.6767 76.237 13.6819 76.5234 13.6819H77.2344C77.6406 13.6819 77.8438 13.6298 77.8438 13.5257V13.4397C77.776 13.0856 77.5469 12.3772 77.1562 11.3147C76.9948 10.7574 76.8438 10.4788 76.7031 10.4788ZM85.3203 0.0959778H85.3828C85.4036 0.0959778 85.4297 0.124624 85.4609 0.181915V7.51004C85.513 7.56733 85.5391 7.62202 85.5391 7.6741V7.7366C85.5391 7.78348 85.513 7.83817 85.4609 7.90067V8.01785H88.9609C89.2318 8.01785 89.3672 8.14025 89.3672 8.38504C89.3828 8.484 89.3906 8.62202 89.3906 8.7991V9.38504C89.3906 9.64546 89.2552 9.77567 88.9844 9.77567H87.3984C86.8516 9.77567 86.5781 9.82254 86.5781 9.91629C86.526 9.91629 86.5 10.1455 86.5 10.6038V17.0647C86.5 17.4033 86.4375 17.5725 86.3125 17.5725C86.3125 17.5986 86.2318 17.6116 86.0703 17.6116H84.8516C84.5495 17.6116 84.3984 17.4892 84.3984 17.2444V10.5257C84.3984 10.4163 84.3932 10.2887 84.3828 10.1429L84.3984 10.096C84.3516 9.89285 84.224 9.79129 84.0156 9.79129C83.8646 9.78087 83.6667 9.77567 83.4219 9.77567H82.6094C82.4219 9.77567 82.1771 9.78087 81.875 9.79129C81.6458 9.76525 81.5312 9.65067 81.5312 9.44754V8.44754C81.5312 8.16108 81.6406 8.01785 81.8594 8.01785H85.2344V7.93973C85.1302 7.93973 85.0703 7.859 85.0547 7.69754C85.0807 7.56212 85.1276 7.49442 85.1953 7.49442C85.1953 7.20275 85.0859 6.94494 84.8672 6.72098C84.8464 6.77306 84.7995 6.7991 84.7266 6.7991H84.6094C84.5 6.74181 84.4453 6.66629 84.4453 6.57254V6.53348C84.4453 6.4241 84.5182 6.35119 84.6641 6.31473H84.7109C84.8359 6.31473 84.9167 6.40067 84.9531 6.57254C85.026 6.57254 85.1146 6.68973 85.2188 6.9241H85.2344V0.181915C85.2344 0.161082 85.263 0.132436 85.3203 0.0959778ZM85.0156 8.81473C85.0156 9.01264 85.138 9.12723 85.3828 9.15848C85.5859 9.11681 85.6875 8.99702 85.6875 8.7991C85.6354 8.60639 85.5599 8.51004 85.4609 8.51004V8.6116C85.4609 8.63244 85.4349 8.65848 85.3828 8.68973H85.3203C85.2995 8.68973 85.2708 8.66369 85.2344 8.6116V8.51004H85.2188C85.0833 8.58817 85.0156 8.68973 85.0156 8.81473ZM97.2422 13.9397C97.2682 14.1845 97.6172 14.2679 98.2891 14.1897C98.6068 14.2054 99.0391 14.1819 99.5859 14.1194C100.263 14.0413 100.633 13.6194 100.695 12.8538C100.701 12.458 100.695 12.0908 100.68 11.7522V11.7132C100.612 11.1194 100.25 10.7522 99.5938 10.6116C98.7969 10.5126 98.0885 10.4996 97.4688 10.5725H97.4453C97.2839 10.5934 97.2083 10.7522 97.2188 11.0491C97.2083 12.7314 97.2161 13.6949 97.2422 13.9397ZM95.1328 13.971V13.5725L95.1484 13.5335V10.7913C95.1172 10.6611 95.0469 10.5882 94.9375 10.5725H94.9141C94.2995 10.4996 93.5938 10.5126 92.7969 10.6116C92.1406 10.7522 91.7786 11.1194 91.7109 11.7132L91.7031 11.7522C91.6875 12.0908 91.6823 12.458 91.6875 12.8538C91.7552 13.6194 92.1276 14.0413 92.8047 14.1194C93.3464 14.1819 93.7786 14.2054 94.1016 14.1897C94.737 14.2626 95.0807 14.1897 95.1328 13.971ZM92.5312 9.58035C92.3854 9.65848 92.3125 9.76525 92.3125 9.90067C92.3125 10.1038 92.4401 10.2236 92.6953 10.26C92.9089 10.2184 93.0156 10.0908 93.0156 9.87723C92.9792 9.69494 92.901 9.60379 92.7812 9.60379C92.7812 9.70275 92.7526 9.75223 92.6953 9.75223H92.6328C92.5964 9.75223 92.5625 9.69494 92.5312 9.58035ZM99.7109 9.52567C99.5651 9.60379 99.4922 9.71056 99.4922 9.84598C99.5391 10.0699 99.6667 10.1819 99.875 10.1819C100.042 10.1819 100.148 10.0699 100.195 9.84598C100.195 9.71577 100.133 9.609 100.008 9.52567H99.9609C99.9609 9.64025 99.9323 9.69754 99.875 9.69754H99.8125C99.7812 9.69754 99.7474 9.64025 99.7109 9.52567ZM99.9609 8.93973C100.273 8.97619 100.656 9.07254 101.109 9.22879C102.047 9.71837 102.576 10.4814 102.695 11.5179C102.841 13.3251 102.445 14.5751 101.508 15.2679C101.086 15.5439 100.521 15.7236 99.8125 15.8069L97.5391 15.8225C97.3776 15.8434 97.2786 15.9527 97.2422 16.1507V16.9475C97.2422 17.1455 97.1536 17.2809 96.9766 17.3538C96.9141 17.3538 96.8724 17.3616 96.8516 17.3772C96.6224 17.3616 96.4453 17.3538 96.3203 17.3538H95.5703C95.2891 17.3538 95.1484 17.2184 95.1484 16.9475V16.1585C95.112 15.9554 95.0104 15.8434 94.8438 15.8225L92.5703 15.8069C91.8672 15.7236 91.3021 15.5439 90.875 15.2679C89.9375 14.5751 89.5443 13.3251 89.6953 11.5179C89.8151 10.4814 90.3411 9.71837 91.2734 9.22879C91.7318 9.07254 92.1198 8.97619 92.4375 8.93973C92.3854 8.87723 92.3594 8.80692 92.3594 8.72879C92.3854 8.58817 92.4349 8.51785 92.5078 8.51785C92.5078 8.22619 92.3932 7.95796 92.1641 7.71317C92.1068 7.77046 92.0521 7.7991 92 7.7991H91.9297C91.8255 7.7991 91.7474 7.72098 91.6953 7.56473C91.7266 7.37723 91.8125 7.28348 91.9531 7.28348H91.9766C92.0964 7.28348 92.1953 7.38504 92.2734 7.58817C92.3984 7.66629 92.4844 7.77827 92.5312 7.9241H92.5469V0.252228C92.5469 0.226186 92.5755 0.19754 92.6328 0.16629H92.6953C92.7214 0.16629 92.75 0.194936 92.7812 0.252228V8.54129C92.8385 8.59858 92.8672 8.65587 92.8672 8.71317V8.77567C92.8672 8.82254 92.8464 8.87202 92.8047 8.9241C93.2266 8.91369 94.0078 8.91629 95.1484 8.93192V8.59598C95.1484 8.4866 95.1406 8.359 95.125 8.21317C95.151 7.92671 95.2656 7.78348 95.4688 7.78348H96.9141C97.1328 7.78348 97.2422 7.96577 97.2422 8.33035V8.93192C98.4818 8.91629 99.2969 8.91369 99.6875 8.9241C99.5885 8.85119 99.5391 8.77567 99.5391 8.69754V8.65067C99.5391 8.57254 99.5885 8.50223 99.6875 8.43973C99.6875 8.15327 99.5729 7.88504 99.3438 7.63504H99.3281C99.3021 7.69233 99.2526 7.72098 99.1797 7.72098H99.1172C99.0078 7.72098 98.9297 7.64285 98.8828 7.4866C98.9089 7.2991 98.9922 7.20535 99.1328 7.20535C99.3203 7.22619 99.4141 7.31994 99.4141 7.4866C99.4974 7.4866 99.5964 7.60639 99.7109 7.84598H99.7266V0.267853C99.7266 0.247019 99.7552 0.218374 99.8125 0.181915H99.875C99.901 0.181915 99.9297 0.210561 99.9609 0.267853V8.46317C100.018 8.53608 100.047 8.59858 100.047 8.65067V8.6741C100.047 8.75744 100.018 8.82775 99.9609 8.88504V8.93973ZM107.602 0.142853H107.664C107.685 0.142853 107.714 0.171499 107.75 0.22879V7.2366C107.802 7.29389 107.828 7.34858 107.828 7.40067V7.46317C107.828 7.51525 107.802 7.57254 107.75 7.63504V7.69754H108.117C109.299 7.69754 110.359 8.14025 111.297 9.02567C111.786 9.56733 112.112 10.0647 112.273 10.5179C112.56 11.2835 112.703 11.9736 112.703 12.5882C112.719 12.5882 112.727 12.6298 112.727 12.7132C112.727 14.6819 112.021 16.1637 110.609 17.1585C109.76 17.6689 108.875 17.9241 107.953 17.9241C106.286 17.9241 104.974 17.2887 104.016 16.0179C103.589 15.4293 103.289 14.6064 103.117 13.5491C103.117 13.5283 103.112 13.4293 103.102 13.2522C103.102 13.2418 103.107 13.2001 103.117 13.1272C103.091 13.0283 103.078 12.9267 103.078 12.8225C103.078 12.7444 103.091 12.6663 103.117 12.5882C103.117 12.5777 103.112 12.5361 103.102 12.4632C103.102 12.0361 103.232 11.4085 103.492 10.5804C103.643 10.2158 103.885 9.7991 104.219 9.33035C104.802 8.70535 105.341 8.2991 105.836 8.1116C106.034 7.9866 106.456 7.8616 107.102 7.7366C107.336 7.71056 107.474 7.69754 107.516 7.69754V7.6741C107.411 7.6741 107.349 7.59077 107.328 7.4241C107.359 7.28869 107.409 7.22098 107.477 7.22098C107.477 6.9241 107.367 6.66108 107.148 6.43192C107.122 6.484 107.073 6.51004 107 6.51004H106.875C106.766 6.45275 106.711 6.37723 106.711 6.28348V6.24442C106.711 6.12983 106.786 6.05431 106.938 6.01785H106.977C107.107 6.01785 107.19 6.10639 107.227 6.28348C107.305 6.28348 107.396 6.40067 107.5 6.63504H107.516V0.22879C107.516 0.207957 107.544 0.179311 107.602 0.142853ZM107.289 8.56473C107.289 8.76785 107.414 8.88504 107.664 8.91629C107.872 8.87462 107.977 8.75223 107.977 8.5491C107.924 8.35119 107.849 8.25223 107.75 8.25223V8.3616C107.75 8.38244 107.721 8.40848 107.664 8.43973H107.602C107.581 8.43973 107.552 8.41369 107.516 8.3616V8.25223H107.5C107.359 8.33035 107.289 8.43452 107.289 8.56473ZM105.219 12.7991C105.229 13.4501 105.352 14.0647 105.586 14.6429C105.768 15.0283 106.005 15.3486 106.297 15.6038C106.802 15.9475 107.292 16.1194 107.766 16.1194H108.117C108.523 16.1194 108.987 15.9475 109.508 15.6038C109.893 15.234 110.172 14.8173 110.344 14.3538C110.453 14.0309 110.534 13.5335 110.586 12.8616C110.555 12.3616 110.479 11.8564 110.359 11.346C110.208 10.9397 110.023 10.5934 109.805 10.3069C109.32 9.75483 108.677 9.47879 107.875 9.47879C106.984 9.47879 106.284 9.859 105.773 10.6194C105.523 11.0517 105.359 11.5439 105.281 12.096C105.266 12.3668 105.245 12.6012 105.219 12.7991ZM114.961 0.127228H115.023C115.044 0.127228 115.07 0.153269 115.102 0.205353V7.75223C115.159 7.80952 115.188 7.86421 115.188 7.91629V7.97879C115.188 8.02567 115.159 8.07775 115.102 8.13504V8.22098C117.451 8.46056 118.685 8.60119 118.805 8.64285C119.112 8.71577 119.484 8.85639 119.922 9.06473C120.797 9.65848 121.234 10.4762 121.234 11.5179C121.234 12.8147 120.729 13.7522 119.719 14.3304C119.266 14.5595 118.685 14.6741 117.977 14.6741L115.711 14.4319C115.456 14.4319 115.328 14.6741 115.328 15.1585L115.047 17.5647C114.953 17.7001 114.823 17.7679 114.656 17.7679C113.604 17.6533 113.078 17.5647 113.078 17.5022C113.026 17.4293 113 17.3694 113 17.3225C113.016 17.0205 113.339 14.0387 113.969 8.37723C114.026 8.21577 114.141 8.13504 114.312 8.13504C114.432 8.13504 114.602 8.14806 114.82 8.1741C114.742 8.10119 114.703 8.02046 114.703 7.93192C114.729 7.80171 114.776 7.7366 114.844 7.7366C114.844 7.45014 114.734 7.19233 114.516 6.96317C114.495 7.01525 114.448 7.04129 114.375 7.04129H114.258C114.148 6.984 114.094 6.91108 114.094 6.82254V6.78348C114.094 6.66889 114.167 6.59337 114.312 6.55692H114.359C114.479 6.55692 114.56 6.64546 114.602 6.82254C114.674 6.82254 114.76 6.93712 114.859 7.16629H114.883V0.205353C114.883 0.184519 114.909 0.158478 114.961 0.127228ZM114.656 9.0491C114.656 9.24181 114.779 9.35639 115.023 9.39285C115.227 9.35119 115.328 9.22879 115.328 9.02567C115.276 8.83817 115.201 8.74442 115.102 8.74442V8.84598C115.102 8.86681 115.076 8.89285 115.023 8.9241H114.961C114.94 8.9241 114.914 8.89806 114.883 8.84598V8.74442H114.859C114.724 8.82254 114.656 8.9241 114.656 9.0491ZM115.633 12.5257C115.633 12.7705 115.969 12.8929 116.641 12.8929C116.958 12.9449 117.391 12.971 117.938 12.971C118.62 12.971 119.036 12.5934 119.188 11.8382C119.203 11.76 119.211 11.6533 119.211 11.5179V11.4788C119.211 10.885 118.893 10.4788 118.258 10.26C117.477 10.0725 116.776 9.97879 116.156 9.97879H116.133C115.966 9.97879 115.872 10.1272 115.852 10.4241C115.706 11.5804 115.633 12.2809 115.633 12.5257ZM122.719 0.142853H122.781C122.802 0.142853 122.828 0.171499 122.859 0.22879V6.33817C122.917 6.39546 122.945 6.45014 122.945 6.50223V6.56473C122.945 6.6116 122.917 6.66629 122.859 6.72879C122.87 6.72879 122.911 6.7366 122.984 6.75223C124.286 6.77306 124.938 6.83296 124.938 6.93192C125.016 7.00483 125.185 7.53348 125.445 8.51785L126.805 13.135C126.841 13.1767 126.888 13.2184 126.945 13.26C127.07 13.26 127.201 13.0257 127.336 12.5569C128.57 9.27567 129.247 7.48921 129.367 7.19754C129.503 7.10379 129.591 7.05692 129.633 7.05692L131.055 7.11942L131.031 7.01785V6.99442C131.057 6.859 131.107 6.79129 131.18 6.79129C131.18 6.49962 131.07 6.23921 130.852 6.01004C130.826 6.06733 130.776 6.09598 130.703 6.09598H130.578C130.469 6.03348 130.414 5.95796 130.414 5.86942V5.82254C130.414 5.71317 130.49 5.63764 130.641 5.59598H130.68C130.81 5.59598 130.893 5.68712 130.93 5.86942C131.003 5.86942 131.086 5.97098 131.18 6.1741H131.195V6.1116C131.195 5.80952 131.19 3.84077 131.18 0.205353L131.258 0.142853H131.32L131.398 0.205353C131.414 2.24702 131.422 3.31994 131.422 3.4241C131.422 3.93973 131.43 5.07514 131.445 6.83035C131.497 6.85119 131.523 6.90067 131.523 6.97879V7.03348L131.508 7.14285C132.013 7.14806 132.266 7.18712 132.266 7.26004C132.333 7.31733 132.367 7.38764 132.367 7.47098C132.107 13.4345 131.956 16.5074 131.914 16.6897C131.826 16.7835 131.729 16.8304 131.625 16.8304C130.547 16.8304 130.008 16.747 130.008 16.5804L129.984 16.5022L130.234 11.0179C130.219 10.7054 130.19 10.5491 130.148 10.5491H130.086C129.945 10.6481 129.727 11.1194 129.43 11.9632C128.336 14.6923 127.727 16.1923 127.602 16.4632C127.497 16.5725 127.367 16.6272 127.211 16.6272C126.362 16.6272 125.938 16.5647 125.938 16.4397C125.818 16.2574 125.607 15.5934 125.305 14.4475C125.237 14.2861 124.875 13.083 124.219 10.8382C124.094 10.4944 124.003 10.3225 123.945 10.3225H123.93C123.805 10.3225 123.721 11.1637 123.68 12.846L123.5 16.2522C123.411 16.3772 123.302 16.4397 123.172 16.4397C122.115 16.4189 121.586 16.3512 121.586 16.2366C121.56 16.1168 121.547 16.0413 121.547 16.01C121.807 10.0934 121.958 7.05431 122 6.89285C122.052 6.80431 122.148 6.74181 122.289 6.70535C122.299 6.70535 122.305 6.71317 122.305 6.72879L122.406 6.70535H122.43L122.531 6.72879C122.479 6.6715 122.453 6.60379 122.453 6.52567C122.479 6.38504 122.526 6.31473 122.594 6.31473C122.594 6.02827 122.484 5.77046 122.266 5.54129C122.245 5.59337 122.198 5.61942 122.125 5.61942H122C121.891 5.56212 121.836 5.4866 121.836 5.39285V5.35379C121.836 5.23921 121.911 5.16369 122.062 5.12723H122.102C122.227 5.12723 122.307 5.21577 122.344 5.39285C122.422 5.39285 122.513 5.51004 122.617 5.74442H122.633V0.22879C122.633 0.202749 122.661 0.174103 122.719 0.142853ZM122.406 7.69754C122.448 7.91629 122.573 8.02567 122.781 8.02567C122.938 8.02567 123.039 7.91629 123.086 7.69754C123.086 7.57254 123.023 7.46837 122.898 7.38504H122.859C122.859 7.47879 122.833 7.52567 122.781 7.52567H122.719C122.688 7.52567 122.654 7.47879 122.617 7.38504C122.477 7.46317 122.406 7.56733 122.406 7.69754ZM130.992 8.16629C131.034 8.38504 131.156 8.49442 131.359 8.49442C131.516 8.49442 131.62 8.38504 131.672 8.16629C131.672 8.04129 131.609 7.93973 131.484 7.8616H131.461C131.461 7.91369 131.427 7.96056 131.359 8.00223C131.281 8.00223 131.227 7.95535 131.195 7.8616C131.06 7.93452 130.992 8.03608 130.992 8.16629ZM137.078 0.220978H137.133C137.154 0.220978 137.182 0.247019 137.219 0.299103V7.45535C137.271 7.51264 137.297 7.56733 137.297 7.61942V7.68192C137.297 7.71837 137.284 7.75744 137.258 7.7991H137.883C138.133 7.7991 138.318 8.05171 138.438 8.55692C139.151 10.4111 140.117 12.9996 141.336 16.3225C141.44 16.5205 141.534 16.7965 141.617 17.1507C141.617 17.2809 141.51 17.3564 141.297 17.3772C141.161 17.3772 140.823 17.3694 140.281 17.3538C140.078 17.3694 139.943 17.3772 139.875 17.3772C139.615 17.3772 139.424 17.1064 139.305 16.5647C139.034 15.7574 138.859 15.346 138.781 15.3304C138.719 15.2626 138.461 15.2288 138.008 15.2288H135.695C135.388 15.2288 135.198 15.3512 135.125 15.596C134.781 16.6533 134.56 17.221 134.461 17.2991C134.315 17.3512 134.18 17.3772 134.055 17.3772H133.523C133.461 17.3772 133.393 17.3694 133.32 17.3538C133.273 17.3694 133.214 17.3772 133.141 17.3772H133C132.688 17.3772 132.531 17.3095 132.531 17.1741V17.096C132.531 16.9918 133.133 15.3876 134.336 12.2835C134.742 11.1585 135.276 9.73921 135.938 8.02567C136.052 7.87462 136.188 7.7991 136.344 7.7991H136.852C136.826 7.75223 136.812 7.70014 136.812 7.64285C136.839 7.50744 136.885 7.43973 136.953 7.43973C136.953 7.15327 136.844 6.89546 136.625 6.66629C136.604 6.71837 136.557 6.74442 136.484 6.74442H136.367C136.258 6.68712 136.203 6.61421 136.203 6.52567V6.4866C136.203 6.37202 136.279 6.2965 136.43 6.26004H136.469C136.594 6.26004 136.674 6.34858 136.711 6.52567C136.784 6.52567 136.872 6.64025 136.977 6.86942H136.992V0.299103C136.992 0.278269 137.021 0.252228 137.078 0.220978ZM136.727 8.7991C136.768 9.01264 136.891 9.11942 137.094 9.11942C137.25 9.11942 137.352 9.01264 137.398 8.7991C137.398 8.6741 137.339 8.57254 137.219 8.49442C137.219 8.58817 137.19 8.63504 137.133 8.63504H137.078C137.042 8.63504 137.008 8.58035 136.977 8.47098C136.81 8.5491 136.727 8.65848 136.727 8.7991ZM137.031 10.4788C136.906 10.5569 136.799 10.7809 136.711 11.1507C136.185 12.5517 135.922 13.3095 135.922 13.4241C135.922 13.5856 136.049 13.6663 136.305 13.6663C136.383 13.6767 136.565 13.6819 136.852 13.6819H137.562C137.969 13.6819 138.172 13.6298 138.172 13.5257V13.4397C138.104 13.0856 137.875 12.3772 137.484 11.3147C137.323 10.7574 137.172 10.4788 137.031 10.4788Z" fill="black"/>
</svg>
