<svg width="5" height="10" viewBox="0 0 5 10" fill="none" xmlns="http://www.w3.org/2000/svg">
<path d="M1.88352 7.18466L1.99006 7.56108C1.92732 7.58475 1.86636 7.61967 1.80717 7.66584C1.7468 7.71082 1.69709 7.77237 1.65803 7.8505C1.61896 7.92862 1.59943 8.02865 1.59943 8.15057C1.59943 8.31747 1.6379 8.45656 1.71484 8.56783C1.7906 8.67791 1.88707 8.73295 2.00426 8.73295C2.10843 8.73295 2.1907 8.69508 2.25107 8.61932C2.31143 8.54356 2.36174 8.42519 2.40199 8.2642L2.50142 7.85938C2.56061 7.61553 2.65116 7.43383 2.77308 7.31428C2.89382 7.19472 3.04948 7.13494 3.24006 7.13494C3.39631 7.13494 3.53598 7.17992 3.65909 7.26989C3.7822 7.35866 3.87926 7.48295 3.95028 7.64276C4.02131 7.80256 4.05682 7.9884 4.05682 8.20028C4.05682 8.47846 3.99645 8.70869 3.87571 8.89098C3.75497 9.07327 3.5786 9.18868 3.34659 9.23722L3.24716 8.83949C3.39394 8.80161 3.50402 8.73 3.57741 8.62464C3.6508 8.51811 3.6875 8.37902 3.6875 8.20739C3.6875 8.01207 3.64607 7.85701 3.56321 7.74219C3.47917 7.62618 3.37855 7.56818 3.26136 7.56818C3.16667 7.56818 3.08736 7.60133 3.02344 7.66761C2.95833 7.7339 2.9098 7.8357 2.87784 7.97301L2.77131 8.42756C2.71212 8.67732 2.62038 8.8608 2.49609 8.97798C2.37062 9.09399 2.21378 9.15199 2.02557 9.15199C1.87169 9.15199 1.73556 9.10878 1.61719 9.02237C1.49882 8.93478 1.40589 8.81581 1.33842 8.66548C1.27095 8.51397 1.23722 8.34233 1.23722 8.15057C1.23722 7.88068 1.2964 7.6688 1.41477 7.51491C1.53314 7.35985 1.68939 7.24976 1.88352 7.18466ZM4.06392 5.70162C4.06392 5.87444 4.03137 6.03128 3.96626 6.17214C3.89998 6.313 3.80469 6.42486 3.6804 6.50772C3.55492 6.59058 3.40341 6.63201 3.22585 6.63201C3.0696 6.63201 2.94295 6.60124 2.84588 6.53968C2.74763 6.47813 2.67069 6.39586 2.61506 6.29288C2.55942 6.1899 2.51799 6.07626 2.49077 5.95197C2.46236 5.8265 2.43987 5.70043 2.4233 5.57377C2.40199 5.40806 2.38601 5.2737 2.37536 5.17072C2.36352 5.06655 2.34399 4.9908 2.31676 4.94345C2.28954 4.89492 2.24219 4.87065 2.17472 4.87065H2.16051C1.98532 4.87065 1.8492 4.91859 1.75213 5.01447C1.65507 5.10917 1.60653 5.25299 1.60653 5.44593C1.60653 5.64598 1.65033 5.80282 1.73793 5.91646C1.82552 6.0301 1.91903 6.11 2.01847 6.15616L1.87642 6.55389C1.7107 6.48287 1.58168 6.38817 1.48935 6.2698C1.39583 6.15024 1.33073 6.02003 1.29403 5.87917C1.25616 5.73713 1.23722 5.59745 1.23722 5.46014C1.23722 5.37254 1.24787 5.27193 1.26918 5.15829C1.2893 5.04347 1.33132 4.93279 1.39524 4.82626C1.45916 4.71854 1.55563 4.62917 1.68466 4.55815C1.81368 4.48713 1.98651 4.45162 2.20313 4.45162H4V4.87065H3.63068V4.89196C3.68987 4.92037 3.7532 4.96771 3.82067 5.034C3.88814 5.10029 3.94555 5.18848 3.9929 5.29856C4.04025 5.40865 4.06392 5.543 4.06392 5.70162ZM3.6875 5.6377C3.6875 5.47198 3.65495 5.3323 3.58984 5.21866C3.52474 5.10384 3.4407 5.01743 3.33771 4.95943C3.23473 4.90024 3.12642 4.87065 3.01278 4.87065H2.62926C2.65057 4.88841 2.6701 4.92747 2.68786 4.98784C2.70443 5.04702 2.71922 5.11568 2.73224 5.1938C2.74408 5.27074 2.75473 5.34591 2.7642 5.4193C2.77249 5.49151 2.77959 5.5501 2.78551 5.59508C2.79972 5.70398 2.8228 5.80578 2.85476 5.90048C2.88554 5.99399 2.93229 6.06975 2.99503 6.12775C3.05658 6.18457 3.14062 6.21298 3.24716 6.21298C3.39276 6.21298 3.50284 6.15912 3.57741 6.0514C3.6508 5.9425 3.6875 5.8046 3.6875 5.6377ZM0.363636 3.26776H4V3.68679H0.363636V3.26776ZM4.05682 1.3568C4.05682 1.61958 3.99882 1.84627 3.88281 2.03684C3.76563 2.22624 3.60227 2.37243 3.39276 2.47541C3.18205 2.57721 2.93703 2.62811 2.65767 2.62811C2.37831 2.62811 2.1321 2.57721 1.91903 2.47541C1.70478 2.37243 1.53788 2.2292 1.41832 2.04572C1.29759 1.86106 1.23722 1.64563 1.23722 1.39941C1.23722 1.25737 1.26089 1.1171 1.30824 0.978604C1.35559 0.84011 1.43253 0.714045 1.53906 0.600408C1.64441 0.486772 1.78409 0.396218 1.9581 0.328746C2.1321 0.261275 2.34635 0.227539 2.60085 0.227539H2.77841V2.32981H2.41619V0.653675C2.26231 0.653675 2.125 0.684452 2.00426 0.746005C1.88352 0.806374 1.78823 0.892785 1.71839 1.00524C1.64856 1.11651 1.61364 1.2479 1.61364 1.39941C1.61364 1.56632 1.65507 1.71073 1.73793 1.83265C1.8196 1.95339 1.92614 2.04631 2.05753 2.11142C2.18892 2.17652 2.32978 2.20907 2.48011 2.20907H2.72159C2.92756 2.20907 3.10215 2.17356 3.24538 2.10254C3.38743 2.03033 3.49574 1.93031 3.57031 1.80247C3.6437 1.67463 3.6804 1.52607 3.6804 1.3568C3.6804 1.24672 3.66501 1.14728 3.63423 1.0585C3.60227 0.968543 3.55492 0.89101 3.49219 0.825905C3.42827 0.760801 3.34896 0.710494 3.25426 0.674982L3.3679 0.270153C3.50521 0.312766 3.62595 0.384381 3.73011 0.484996C3.8331 0.585612 3.91359 0.709902 3.97159 0.857866C4.02841 1.00583 4.05682 1.17214 4.05682 1.3568Z" fill="white"/>
</svg>
