<svg width="6" height="6" viewBox="0 0 6 6" fill="none" xmlns="http://www.w3.org/2000/svg">
<path d="M1.84408 3.98894L1.64848 4.16579C1.63618 4.13525 1.61804 4.10915 1.59405 4.08749C1.57068 4.06476 1.53869 4.05339 1.4981 4.05339C1.4575 4.05339 1.40553 4.07168 1.34218 4.10826C1.25545 4.15833 1.18318 4.22314 1.12536 4.30268C1.06816 4.38116 1.03956 4.45556 1.03956 4.52587C1.03956 4.58837 1.05924 4.62637 1.09861 4.63986C1.13797 4.65336 1.19948 4.64803 1.28313 4.62388L1.49348 4.56209C1.62019 4.52445 1.7146 4.52428 1.77673 4.56156C1.83885 4.59814 1.86991 4.6736 1.86991 4.78795C1.86991 4.8817 1.84654 4.979 1.79979 5.07985C1.75366 5.18035 1.68908 5.27587 1.60604 5.36643C1.52301 5.45698 1.42644 5.53404 1.31634 5.59761C1.1718 5.68106 1.05217 5.71391 0.957447 5.69615C0.862726 5.67839 0.802756 5.60719 0.777538 5.48255L0.984203 5.30357C1.00389 5.38028 1.0411 5.42484 1.09584 5.43727C1.1512 5.44935 1.22347 5.42964 1.31265 5.37815C1.41414 5.31955 1.49472 5.24817 1.55438 5.16401C1.61465 5.07879 1.64479 5.00102 1.64479 4.9307C1.64479 4.87388 1.62757 4.83624 1.59313 4.81778C1.55868 4.7986 1.50579 4.80002 1.43444 4.82204L1.19825 4.89448C1.06847 4.9339 0.973132 4.9339 0.912239 4.89448C0.851962 4.854 0.821823 4.77729 0.821823 4.66437C0.821823 4.57204 0.844273 4.4774 0.889174 4.38045C0.934689 4.28315 0.996505 4.19171 1.07462 4.10613C1.15335 4.02019 1.24253 3.94846 1.34218 3.89093C1.48241 3.80996 1.59251 3.78191 1.67247 3.80677C1.75305 3.83127 1.81025 3.892 1.84408 3.98894ZM2.61469 4.85227C2.52489 4.90411 2.44339 4.93164 2.3702 4.93483C2.297 4.93732 2.23888 4.9137 2.19582 4.86399C2.15277 4.81356 2.13124 4.73508 2.13124 4.62855C2.13124 4.5348 2.14723 4.44957 2.17922 4.37286C2.2112 4.29545 2.25395 4.2246 2.30746 4.16033C2.36097 4.09605 2.42002 4.0371 2.4846 3.98348C2.5498 3.92879 2.6153 3.87748 2.68112 3.82954C2.76723 3.76704 2.83704 3.71715 2.89055 3.67986C2.94468 3.64151 2.98404 3.60706 3.00865 3.57652C3.03386 3.54563 3.04647 3.50994 3.04647 3.46945L3.04647 3.46093C3.04647 3.35582 3.02156 3.28852 2.97174 3.25905C2.92253 3.22922 2.8478 3.24325 2.74755 3.30113C2.6436 3.36114 2.5621 3.43448 2.50305 3.52112C2.44401 3.60777 2.40249 3.68785 2.3785 3.76136L2.17184 3.79545C2.20874 3.67471 2.25795 3.56889 2.31945 3.47798C2.38158 3.386 2.44923 3.30788 2.52243 3.2436C2.59624 3.17826 2.66882 3.12499 2.74016 3.0838C2.78568 3.05752 2.83796 3.03373 2.89701 3.01242C2.95667 2.99005 3.01418 2.98206 3.06954 2.98845C3.12551 2.99449 3.17195 3.02556 3.20885 3.08167C3.24576 3.13778 3.26421 3.23082 3.26421 3.36079L3.26421 4.43891L3.04647 4.56463L3.04647 4.34303L3.0354 4.34943C3.02064 4.39346 2.99604 4.44566 2.96159 4.50603C2.92715 4.5664 2.88132 4.6273 2.82412 4.68874C2.76692 4.75017 2.69711 4.80468 2.61469 4.85227ZM2.6479 4.60724C2.73401 4.55752 2.80659 4.49609 2.86564 4.42293C2.9253 4.34943 2.9702 4.27308 3.00034 4.19389C3.0311 4.11434 3.04647 4.04048 3.04647 3.9723L3.04647 3.74218C3.03725 3.76029 3.01695 3.78373 2.98558 3.81249C2.95483 3.84019 2.91915 3.86967 2.87856 3.90092C2.83858 3.9311 2.79952 3.96004 2.76138 3.98774C2.72387 4.01438 2.69342 4.03622 2.67005 4.05326C2.61346 4.09445 2.56056 4.13884 2.51136 4.18643C2.46277 4.23295 2.4234 4.28373 2.39326 4.33877C2.36374 4.39275 2.34898 4.4517 2.34898 4.51562C2.34898 4.60298 2.37696 4.65287 2.43293 4.6653C2.48952 4.67666 2.56118 4.65731 2.6479 4.60724ZM3.87936 1.90194L3.87936 4.08376L3.66162 4.20947L3.66162 2.02765L3.87936 1.90194ZM4.87232 3.54456C4.73578 3.6234 4.61799 3.6566 4.51896 3.64417C4.42055 3.63068 4.34459 3.57652 4.29108 3.48171C4.23818 3.38583 4.21173 3.25408 4.21173 3.08646C4.21173 2.91885 4.23818 2.75585 4.29108 2.59747C4.34459 2.43803 4.41901 2.29492 4.51435 2.16814C4.6103 2.0403 4.72224 1.93945 4.85018 1.86558C4.92399 1.82297 4.99687 1.79509 5.06884 1.78195C5.1408 1.76882 5.20631 1.77716 5.26535 1.80699C5.3244 1.83611 5.37146 1.89275 5.40651 1.97691C5.44157 2.06107 5.4591 2.1795 5.4591 2.3322L5.4591 2.43874L4.36673 3.06942L4.36673 2.85209L5.23768 2.34925C5.23768 2.25692 5.22168 2.18377 5.1897 2.12979C5.15833 2.07546 5.11343 2.04421 5.055 2.03604C4.99718 2.02752 4.92891 2.04598 4.85018 2.09144C4.76345 2.14151 4.68841 2.20969 4.62506 2.29598C4.56232 2.38121 4.51404 2.47301 4.48021 2.57137C4.44638 2.66974 4.42947 2.76402 4.42947 2.85422L4.42947 2.99911C4.42947 3.12269 4.44792 3.21679 4.48482 3.28142C4.52234 3.34499 4.57432 3.37997 4.64075 3.38636C4.70717 3.39204 4.78437 3.36949 4.87232 3.31871C4.92952 3.28568 4.98119 3.24662 5.02732 3.20152C5.07407 3.15536 5.11435 3.10369 5.14818 3.04651C5.18201 2.98863 5.20815 2.92595 5.2266 2.85848L5.43696 2.80521C5.41482 2.90039 5.37761 2.99431 5.32532 3.087C5.27304 3.17897 5.20846 3.26455 5.13158 3.34374C5.05469 3.42222 4.96827 3.48916 4.87232 3.54456Z" fill="#FF8080"/>
</svg>
