<svg width="11" height="10" viewBox="0 0 11 10" fill="none" xmlns="http://www.w3.org/2000/svg">
<path fill-rule="evenodd" clip-rule="evenodd" d="M3.14604 1.16001C3.25367 1.10218 3.36266 1.05174 3.47321 1.00863C3.47322 1.00862 3.47323 1.00862 3.47323 1.00862C4.11058 0.760092 4.79981 0.755363 5.57782 0.984824C5.91044 1.0829 6.23693 1.2715 6.53517 1.52034C7.09822 1.99013 7.5606 2.67466 7.77352 3.37027C7.85506 3.63668 7.90001 3.90471 7.90001 4.16293C7.90001 4.63072 7.78116 5.09052 7.57347 5.51239C7.22232 6.22567 6.61718 6.83051 5.90306 7.18221C5.47898 7.39106 5.01646 7.51065 4.54587 7.51065C4.22522 7.51065 3.88947 7.44173 3.56043 7.31978C2.80723 7.04063 2.08923 6.48358 1.66818 5.83917C1.53199 5.63074 1.42687 5.41317 1.36167 5.19291C1.09402 4.28865 1.14198 3.51118 1.52377 2.79079C1.69399 2.4696 1.93058 2.15976 2.23514 1.85509C2.53033 1.55984 2.83238 1.32856 3.14604 1.16001ZM6.25656 7.94913C5.7179 8.18536 5.131 8.30407 4.54587 8.30508C4.12087 8.30582 3.69681 8.24446 3.29284 8.12093C3.09059 8.05909 2.89338 7.98167 2.7036 7.88866C1.87426 7.48218 1.2711 6.87908 0.887465 6.18341C0.754024 5.94144 0.647141 5.68826 0.566536 5.42827C0.566535 5.42827 0.566534 5.42826 0.566532 5.42826C0.260102 4.43986 0.333441 3.3529 0.77112 2.40796C1.15724 1.57434 1.82693 0.851253 2.76958 0.403908C2.90561 0.339351 3.04733 0.280536 3.19471 0.22796C4.0546 -0.0788356 4.9711 -0.0660279 5.80727 0.206722C5.80728 0.206726 5.80729 0.206731 5.80731 0.206735C6.25626 0.353186 6.68206 0.574575 7.0635 0.861667C7.61246 1.27485 8.06954 1.82412 8.37154 2.48195C8.46659 2.68906 8.53996 2.91781 8.5919 3.15969C8.66021 3.47781 8.69146 3.81866 8.68622 4.16293C8.67724 4.75214 8.56136 5.35136 8.34145 5.86372C8.31779 5.91884 8.29293 5.97295 8.26687 6.02593L7.86507 6.84264L9.15418 8.13458C9.41453 8.39558 9.63195 8.62201 9.80827 8.81617C9.92336 8.9429 10.0209 9.05588 10.1015 9.15575C10.3167 9.42244 10.4106 9.59564 10.3928 9.6875C10.3159 10.0863 10.0883 10.1169 9.55163 9.70106C9.45025 9.6225 9.33785 9.52801 9.21335 9.41705C9.01581 9.24099 8.78783 9.02348 8.52514 8.76241L7.23072 7.47577L6.41245 7.8768C6.36097 7.90203 6.30899 7.92614 6.25656 7.94913Z" fill="#BCB8B8"/>
</svg>
