<svg width="130" height="143" viewBox="0 0 130 143" fill="none" xmlns="http://www.w3.org/2000/svg">
<g filter="url(#filter0_dd_2_2597)">
<path d="M16.26 79V67.18H19.92C20.6 67.18 21.1467 67.34 21.56 67.66C21.9733 67.9667 22.18 68.46 22.18 69.14V71.32C22.18 71.7733 22.1133 72.2 21.98 72.6C21.8467 72.9867 21.6 73.3 21.24 73.54C20.88 73.78 20.36 73.9 19.68 73.9H17.56V79H16.26ZM17.56 73.16H19.3C19.8333 73.16 20.2333 73 20.5 72.68C20.78 72.3467 20.92 71.84 20.92 71.16V69.62C20.92 69.0333 20.7933 68.6067 20.54 68.34C20.2867 68.06 19.98 67.92 19.62 67.92H17.56V73.16ZM23.0344 79L25.6544 67.18H27.2744L29.8544 79H28.4944L27.8544 76.26H24.9544L24.3544 79H23.0344ZM24.9944 75.56H27.8344L26.4344 68.72L24.9944 75.56ZM34.2163 79.24C33.6296 79.24 33.1096 79.1733 32.6562 79.04C32.2163 78.9067 31.8629 78.6333 31.5963 78.22C31.3429 77.7933 31.2163 77.1533 31.2163 76.3V69.64C31.2163 68.8933 31.3429 68.3333 31.5963 67.96C31.8629 67.5867 32.2229 67.34 32.6763 67.22C33.1429 67.0867 33.6629 67.02 34.2363 67.02C34.8229 67.02 35.3363 67.0867 35.7763 67.22C36.2163 67.3533 36.5629 67.6067 36.8163 67.98C37.0696 68.3533 37.1963 68.9067 37.1963 69.64V71.72H35.9363V69.62C35.9363 69.1 35.8629 68.7133 35.7163 68.46C35.5696 68.1933 35.3629 68.02 35.0963 67.94C34.8429 67.86 34.5496 67.82 34.2163 67.82C33.8829 67.82 33.5829 67.86 33.3163 67.94C33.0629 68.02 32.8629 68.1933 32.7163 68.46C32.5829 68.7133 32.5163 69.1 32.5163 69.62V76.64C32.5163 77.1733 32.5829 77.5733 32.7163 77.84C32.8629 78.0933 33.0629 78.26 33.3163 78.34C33.5829 78.42 33.8829 78.46 34.2163 78.46C34.5629 78.46 34.8629 78.42 35.1163 78.34C35.3696 78.26 35.5696 78.0933 35.7163 77.84C35.8629 77.5733 35.9363 77.1733 35.9363 76.64V74.86H37.1963V76.28C37.1963 77.1467 37.0696 77.7933 36.8163 78.22C36.5629 78.6333 36.2163 78.9067 35.7763 79.04C35.3363 79.1733 34.8163 79.24 34.2163 79.24ZM39.4045 79V67.18H45.1845V79H43.8645V68.1H40.7245V79H39.4045ZM47.7053 79V67.18H51.3653C52.0453 67.18 52.592 67.34 53.0053 67.66C53.4186 67.9667 53.6253 68.46 53.6253 69.14V71.32C53.6253 71.7733 53.5586 72.2 53.4253 72.6C53.292 72.9867 53.0453 73.3 52.6853 73.54C52.3253 73.78 51.8053 73.9 51.1253 73.9H49.0053V79H47.7053ZM49.0053 73.16H50.7453C51.2786 73.16 51.6786 73 51.9453 72.68C52.2253 72.3467 52.3653 71.84 52.3653 71.16V69.62C52.3653 69.0333 52.2386 68.6067 51.9853 68.34C51.732 68.06 51.4253 67.92 51.0653 67.92H49.0053V73.16ZM58.1997 79.24C57.6264 79.24 57.1197 79.1733 56.6797 79.04C56.2397 78.9067 55.8864 78.6333 55.6197 78.22C55.3664 77.7933 55.2397 77.1533 55.2397 76.3V69.64C55.2397 68.8933 55.3664 68.3333 55.6197 67.96C55.8864 67.5867 56.2464 67.34 56.6997 67.22C57.153 67.0867 57.6664 67.02 58.2397 67.02C58.813 67.02 59.3197 67.0867 59.7597 67.22C60.213 67.3533 60.5664 67.6067 60.8197 67.98C61.0864 68.3533 61.2197 68.9067 61.2197 69.64V76.28C61.2197 77.1467 61.0864 77.7933 60.8197 78.22C60.5664 78.6333 60.213 78.9067 59.7597 79.04C59.3197 79.1733 58.7997 79.24 58.1997 79.24ZM58.2197 78.46C58.5664 78.46 58.8664 78.42 59.1197 78.34C59.3864 78.2467 59.593 78.0733 59.7397 77.82C59.8864 77.5533 59.9597 77.16 59.9597 76.64V69.64C59.9597 69.12 59.8864 68.7333 59.7397 68.48C59.593 68.2133 59.3864 68.04 59.1197 67.96C58.853 67.8667 58.553 67.82 58.2197 67.82C57.873 67.82 57.5664 67.8667 57.2997 67.96C57.0464 68.04 56.8464 68.2133 56.6997 68.48C56.553 68.7333 56.4797 69.12 56.4797 69.64V76.64C56.4797 77.16 56.553 77.5533 56.6997 77.82C56.8464 78.0733 57.0464 78.2467 57.2997 78.34C57.5664 78.42 57.873 78.46 58.2197 78.46ZM62.5447 81.14V78.16H63.5247C63.818 78.1333 64.0647 77.9867 64.2647 77.72C64.4647 77.4533 64.5914 77.02 64.6447 76.42C64.6847 75.8733 64.7314 75.2867 64.7847 74.66C64.838 74.0333 64.8914 73.4 64.9447 72.76C64.998 72.1067 65.0447 71.46 65.0847 70.82C65.138 70.1667 65.1847 69.5333 65.2247 68.92C65.2647 68.2933 65.3047 67.7133 65.3447 67.18H70.5647V78.16H72.3247V81.14H71.2447V79.2H63.6247V81.14H62.5447ZM65.3647 78.16H69.3047V68.1H66.5447C66.438 69.4733 66.338 70.8333 66.2447 72.18C66.1514 73.5267 66.0514 74.88 65.9447 76.24C65.918 76.56 65.8714 76.9133 65.8047 77.3C65.738 77.6867 65.5914 77.9733 65.3647 78.16ZM73.0344 79L75.6544 67.18H77.2744L79.8544 79H78.4944L77.8544 76.26H74.9544L74.3544 79H73.0344ZM74.9944 75.56H77.8344L76.4344 68.72L74.9944 75.56ZM80.2763 79L83.3963 72.88L80.3763 67.18H81.8163L84.4963 72.52H85.0763V67.2H86.3563V72.52H86.9363L89.5963 67.18H91.0563L88.0363 72.88L91.1563 79H89.7163L86.9563 73.28H86.3563V79H85.0763V73.28H84.4763L81.6963 79H80.2763ZM91.5695 79L94.1895 67.18H95.8095L98.3895 79H97.0295L96.3895 76.26H93.4895L92.8895 79H91.5695ZM93.5295 75.56H96.3695L94.9695 68.72L93.5295 75.56Z" fill="white"/>
</g>
<path d="M28.4014 0.605469H28.5967C28.6618 0.605469 28.7513 0.694987 28.8652 0.874023V20.1123C29.0443 20.3076 29.1338 20.4867 29.1338 20.6494V20.8447C29.1338 21.0075 29.0443 21.1865 28.8652 21.3818V21.8457H29.1338C34.8467 21.8457 38.6878 23.8314 40.6572 27.8027C41.1455 29.0723 41.3896 30 41.3896 30.5859V30.6592C41.3896 31.4567 40.9502 31.8555 40.0713 31.8555H36.0918C35.1966 31.7904 34.749 31.4323 34.749 30.7812C34.2119 29.3164 33.5527 28.4131 32.7715 28.0713C31.8763 27.4528 30.5742 27.1436 28.8652 27.1436H28.3281C26.1797 27.1436 24.7637 28.0225 24.0801 29.7803C23.9987 30.1872 23.958 30.4801 23.958 30.6592V31.0498C23.958 32.4658 25.6344 33.5482 28.9873 34.2969C29.3779 34.4759 31.3473 34.9805 34.8955 35.8105C36.6859 36.2988 38.1833 37.0557 39.3877 38.0811C41.471 39.7087 42.5127 41.849 42.5127 44.502C42.5127 48.3594 40.6572 51.2077 36.9463 53.0469C34.9118 54.0234 32.4134 54.5117 29.4512 54.5117C26.9609 54.5117 24.5358 54.0072 22.1758 52.998C21.0202 52.5098 19.7344 51.5332 18.3184 50.0684C17.179 48.5221 16.4954 46.7562 16.2676 44.7705V44.3799C16.2676 43.8265 16.707 43.5173 17.5859 43.4521H21.7119C22.4606 43.4521 22.9001 44.0055 23.0303 45.1123C23.5999 46.6585 24.5033 47.7409 25.7402 48.3594C27.14 48.9779 28.5316 49.2871 29.915 49.2871C31.7542 49.2871 33.4144 48.75 34.8955 47.6758C35.5628 46.7318 35.8965 45.9587 35.8965 45.3564C35.8965 43.2406 33.6829 41.7432 29.2559 40.8643C25.8704 40.0505 23.2174 39.1634 21.2969 38.2031C18.6113 36.5592 17.2686 34.1748 17.2686 31.0498C17.2686 28.4619 18.4811 26.1833 20.9062 24.2139C22.1595 23.2048 23.7952 22.5212 25.8135 22.1631C25.8135 22.1143 26.5622 22.0085 28.0596 21.8457C28.0596 21.8783 28.084 21.8945 28.1328 21.8945V21.5039C27.791 21.5039 27.5876 21.2435 27.5225 20.7227C27.6201 20.2669 27.7747 20.0391 27.9863 20.0391C27.9863 19.1113 27.6364 18.2731 26.9365 17.5244C26.8714 17.7035 26.7168 17.793 26.4727 17.793H26.082C25.724 17.5977 25.5449 17.3535 25.5449 17.0605V16.9385C25.5449 16.5641 25.7891 16.32 26.2773 16.2061H26.3994C26.8063 16.2061 27.0749 16.4909 27.2051 17.0605C27.4492 17.0605 27.734 17.4349 28.0596 18.1836H28.1328V0.874023C28.1328 0.808919 28.2223 0.719401 28.4014 0.605469ZM27.4004 24.3604C27.4004 24.9951 27.7992 25.3695 28.5967 25.4834C29.264 25.3369 29.5977 24.9382 29.5977 24.2871C29.4186 23.6686 29.1745 23.3594 28.8652 23.3594V23.7012C28.8652 23.7663 28.7757 23.8558 28.5967 23.9697H28.4014C28.3363 23.9697 28.2467 23.8802 28.1328 23.7012V23.3594H28.0596C27.6201 23.6035 27.4004 23.9372 27.4004 24.3604ZM58.1133 0.898438H58.2842C58.3493 0.898438 58.4388 0.979818 58.5527 1.14258V30.6104C58.7155 30.7894 58.7969 30.9603 58.7969 31.123V31.3184C58.7969 31.4648 58.7155 31.6276 58.5527 31.8066V31.8799C59.8223 32.238 60.8558 33.1006 61.6533 34.4678C62.109 35.9163 63.0612 40.4167 64.5098 47.9688C65.1771 49.9382 65.5107 50.9961 65.5107 51.1426C65.5107 51.6309 64.4365 52.0052 62.2881 52.2656C61.8812 52.4447 61.3766 52.5342 60.7744 52.5342C60.4489 52.5342 59.9606 52.2168 59.3096 51.582H58.8701C56.4775 53.8607 53.6211 55 50.3008 55H49.9346C48.5348 55 47.1839 54.4303 45.8818 53.291C44.6611 51.7448 44.0508 50.2067 44.0508 48.6768C44.0508 45.4215 46.2887 43.1592 50.7646 41.8896C52.4085 41.3363 53.8652 40.7829 55.1348 40.2295C56.0137 39.611 56.4531 39.0251 56.4531 38.4717C56.4531 37.137 55.8835 36.2256 54.7441 35.7373C54.3698 35.6559 54.0931 35.6152 53.9141 35.6152H53.3525C52.0342 35.6152 50.8542 36.014 49.8125 36.8115C49.2917 37.2184 48.9092 38.0892 48.665 39.4238C48.665 39.7819 47.0374 40.2051 43.7822 40.6934C43.359 40.6934 43.1068 40.3923 43.0254 39.79C43.0254 36.7627 44.653 34.5085 47.9082 33.0273C50.4961 31.9206 53.0514 31.3672 55.5742 31.3672C55.8509 31.3672 56.4368 31.4079 57.332 31.4893L57.2832 31.3672V31.1719C57.3646 30.7487 57.5111 30.5371 57.7227 30.5371C57.7227 29.6745 57.3809 28.877 56.6973 28.1445C56.5345 28.3073 56.3717 28.3887 56.209 28.3887H56.0137C55.6882 28.3887 55.4521 28.1608 55.3057 27.7051C55.4033 27.1517 55.6637 26.875 56.0869 26.875H56.1357C56.4938 26.875 56.7868 27.168 57.0146 27.7539C57.389 27.998 57.6494 28.3398 57.7959 28.7793H57.8447V1.14258C57.8447 1.07747 57.9342 0.996094 58.1133 0.898438ZM57.1611 34.6631C57.1611 35.2816 57.5355 35.6396 58.2842 35.7373C58.9189 35.6071 59.2363 35.2327 59.2363 34.6143C59.0736 34.012 58.8457 33.7109 58.5527 33.7109V34.0283C58.5527 34.0934 58.4632 34.1829 58.2842 34.2969H58.1133C58.0319 34.2969 57.9424 34.2074 57.8447 34.0283V33.7109H57.7959C57.3727 33.9551 57.1611 34.2725 57.1611 34.6631ZM49.9346 47.5293V47.8955C50.1299 49.6696 50.8867 50.5566 52.2051 50.5566C52.2051 50.6055 52.4004 50.6299 52.791 50.6299H53.4258C54.679 50.6299 55.9242 50.0602 57.1611 48.9209C57.6982 47.9932 57.9668 47.1468 57.9668 46.3818C57.9668 45.0146 57.7552 43.9811 57.332 43.2812C57.1693 43.1999 57.0228 43.1592 56.8926 43.1592C54.1582 44.1195 52.262 44.9007 51.2041 45.5029C50.3577 46.2842 49.9346 46.9596 49.9346 47.5293ZM68.5625 1.02051H68.7578C68.8229 1.02051 68.9124 1.11003 69.0264 1.28906V18.9648C69.3519 18.7207 69.6611 18.3301 69.9541 17.793C70.1169 17.6465 70.2715 17.5732 70.418 17.5732H70.54C71.0283 17.6546 71.2725 17.8988 71.2725 18.3057V18.6475C71.0934 19.0055 70.8737 19.1846 70.6133 19.1846H70.418C70.2552 19.1846 70.0599 19.0951 69.832 18.916C69.2949 19.5833 69.0264 20.1367 69.0264 20.5762V21.5039C69.2054 21.6829 69.2949 21.8538 69.2949 22.0166V22.2119C69.2949 22.3747 69.2054 22.5537 69.0264 22.749V23.4082H69.0996C70.9062 23.4082 71.8096 23.6117 71.8096 24.0186C71.891 24.3441 71.9316 24.6533 71.9316 24.9463L72.0293 53.2666C72.1595 56.3916 71.7363 57.7588 70.7598 57.3682V57.4414L69.9541 57.3682H67.708C66.4222 57.3682 65.7793 57.0182 65.7793 56.3184V24.6045C65.7793 23.807 66.3734 23.4082 67.5615 23.4082H68.2939V22.8955C68.001 22.8955 67.8057 22.6676 67.708 22.2119V22.0898C67.8057 21.6016 68.001 21.3574 68.2939 21.3574V1.28906C68.2939 1.22396 68.3835 1.13444 68.5625 1.02051ZM67.5615 25.7275C67.5615 26.3623 67.9603 26.7367 68.7578 26.8506C69.4251 26.7204 69.7588 26.3298 69.7588 25.6787C69.5798 25.0602 69.3356 24.751 69.0264 24.751V25.0684C69.0264 25.1335 68.9368 25.223 68.7578 25.3369H68.5625C68.4974 25.3369 68.4079 25.2474 68.2939 25.0684V24.751H68.2207C67.7812 24.9951 67.5615 25.3206 67.5615 25.7275ZM84.8955 0.874023H85.0908C85.1559 0.874023 85.2454 0.963542 85.3594 1.14258V27.0703C85.6849 26.8262 85.9941 26.4355 86.2871 25.8984C86.4336 25.7682 86.5801 25.7031 86.7266 25.7031H86.873C87.3451 25.7682 87.5811 26.0042 87.5811 26.4111V26.7529C87.402 27.0947 87.1904 27.2656 86.9463 27.2656H86.7266C86.5801 27.2656 86.3848 27.1761 86.1406 26.9971C85.6198 27.6807 85.3594 28.234 85.3594 28.6572V29.585C85.5384 29.764 85.6279 29.9349 85.6279 30.0977V30.293C85.6279 30.4557 85.5384 30.6348 85.3594 30.8301V31.2939C86.8405 31.2939 88.5495 31.888 90.4863 33.0762C92.2279 34.541 93.4404 36.0059 94.124 37.4707C94.5309 38.0241 94.946 39.1878 95.3691 40.9619V41.1084C95.3691 41.7432 94.1403 42.2884 91.6826 42.7441C85.0583 44.502 81.3717 45.5111 80.623 45.7715C80.3952 46.0156 80.2812 46.2842 80.2812 46.5771V46.7725C80.7695 48.1396 81.5345 49.1243 82.5762 49.7266C83.276 50.0846 83.8538 50.2637 84.3096 50.2637H84.749C87.3369 50.2637 89.2249 49.1895 90.4131 47.041C90.8037 46.0319 91.4466 45.5273 92.3418 45.5273C93.3021 45.2181 94.1566 44.9984 94.9053 44.8682C95.4749 44.8682 95.7598 45.153 95.7598 45.7227C95.7598 47.0247 95.1901 48.6035 94.0508 50.459C92.6999 52.2819 90.7874 53.5514 88.3135 54.2676C86.9788 54.7559 85.5059 55 83.8945 55C82.2181 54.8372 80.9242 54.5524 80.0127 54.1455C77.5876 53.0225 75.8135 51.2891 74.6904 48.9453C73.6813 47.0247 73.1768 44.8682 73.1768 42.4756V42.2803C73.1768 42.1826 73.1523 42.1012 73.1035 42.0361C73.2988 39.8389 73.9824 37.8613 75.1543 36.1035C76.5866 34.0202 78.6455 32.5716 81.3311 31.7578C82.568 31.3997 83.6667 31.2207 84.627 31.2207V30.9521C84.334 30.9521 84.1387 30.7324 84.041 30.293V30.1709C84.1387 29.6826 84.334 29.4385 84.627 29.4385V1.14258C84.627 1.07747 84.7165 0.987956 84.8955 0.874023ZM83.8945 33.7842C83.8945 34.4189 84.2933 34.7933 85.0908 34.9072C85.7419 34.777 86.0674 34.3864 86.0674 33.7354C85.9046 33.1169 85.6686 32.8076 85.3594 32.8076V33.125C85.3594 33.2064 85.2699 33.2959 85.0908 33.3936H84.8955C84.8304 33.3936 84.7409 33.304 84.627 33.125V32.8076H84.5537C84.1143 33.0518 83.8945 33.3773 83.8945 33.7842ZM78.8408 40.7666C78.8408 41.2386 79.0361 41.5885 79.4268 41.8164H79.7441C80.2975 41.8164 82.9993 41.1165 87.8496 39.7168C88.0775 39.4889 88.1914 39.2936 88.1914 39.1309V38.9355C88.1914 38.2682 87.5078 37.4544 86.1406 36.4941C85.4896 36.1361 84.8304 35.957 84.1631 35.957C82.0472 35.957 80.4277 36.8848 79.3047 38.7402C78.9954 39.5378 78.8408 40.2132 78.8408 40.7666Z" fill="white"/>
<g filter="url(#filter1_d_2_2597)">
<path d="M4.24 111.14V108.16H5.22C5.51333 108.133 5.76 107.987 5.96 107.72C6.16 107.453 6.28667 107.02 6.34 106.42C6.38 105.873 6.42667 105.287 6.48 104.66C6.53333 104.033 6.58667 103.4 6.64 102.76C6.69333 102.107 6.74 101.46 6.78 100.82C6.83333 100.167 6.88 99.5333 6.92 98.92C6.96 98.2933 7 97.7133 7.04 97.18H12.26V108.16H14.02V111.14H12.94V109.2H5.32V111.14H4.24ZM7.06 108.16H11V98.1H8.24C8.13333 99.4733 8.03333 100.833 7.94 102.18C7.84667 103.527 7.74667 104.88 7.64 106.24C7.61333 106.56 7.56667 106.913 7.5 107.3C7.43333 107.687 7.28667 107.973 7.06 108.16ZM18.4497 109.24C17.8764 109.24 17.3697 109.173 16.9297 109.04C16.4897 108.907 16.1364 108.633 15.8697 108.22C15.6164 107.793 15.4897 107.153 15.4897 106.3V99.64C15.4897 98.8933 15.6164 98.3333 15.8697 97.96C16.1364 97.5867 16.4964 97.34 16.9497 97.22C17.403 97.0867 17.9164 97.02 18.4897 97.02C19.063 97.02 19.5697 97.0867 20.0097 97.22C20.463 97.3533 20.8164 97.6067 21.0697 97.98C21.3364 98.3533 21.4697 98.9067 21.4697 99.64V106.28C21.4697 107.147 21.3364 107.793 21.0697 108.22C20.8164 108.633 20.463 108.907 20.0097 109.04C19.5697 109.173 19.0497 109.24 18.4497 109.24ZM18.4697 108.46C18.8164 108.46 19.1164 108.42 19.3697 108.34C19.6364 108.247 19.843 108.073 19.9897 107.82C20.1364 107.553 20.2097 107.16 20.2097 106.64V99.64C20.2097 99.12 20.1364 98.7333 19.9897 98.48C19.843 98.2133 19.6364 98.04 19.3697 97.96C19.103 97.8667 18.803 97.82 18.4697 97.82C18.123 97.82 17.8164 97.8667 17.5497 97.96C17.2964 98.04 17.0964 98.2133 16.9497 98.48C16.803 98.7333 16.7297 99.12 16.7297 99.64V106.64C16.7297 107.16 16.803 107.553 16.9497 107.82C17.0964 108.073 17.2964 108.247 17.5497 108.34C17.8164 108.42 18.123 108.46 18.4697 108.46Z" fill="white"/>
</g>
<g filter="url(#filter2_d_2_2597)">
<path d="M35.3389 78.5684H35.4561C35.4951 78.5684 35.5488 78.6221 35.6172 78.7295V90.4043H35.6611C35.6611 90.2578 35.8271 90.0381 36.1592 89.7451C36.2275 89.4326 36.3838 89.2764 36.6279 89.2764H36.6572C36.9209 89.2764 37.0771 89.4473 37.126 89.7891C37.0479 90.0723 36.9062 90.2139 36.7012 90.2139H36.584C36.4961 90.2139 36.3936 90.1602 36.2764 90.0527C35.8857 90.4824 35.6904 90.9365 35.6904 91.415V91.4883C35.8467 91.6543 35.9248 91.7861 35.9248 91.8838V92.001C35.9248 92.1768 35.8223 92.3037 35.6172 92.3818C35.6172 92.4307 35.9395 92.5234 36.584 92.6602C38.0586 93.2363 39.2402 94.3252 40.1289 95.9268C41.1348 98.0654 41.6377 100.316 41.6377 102.68V103.456C41.5303 104.667 41.335 105.668 41.0518 106.459C40.4463 108.217 39.4648 109.457 38.1074 110.18C37.8828 110.404 37.1016 110.663 35.7637 110.956C35.6367 110.985 35.5098 111 35.3828 111H34.3721C33.6787 111 32.8389 110.766 31.8525 110.297C30.7393 109.613 29.9727 108.632 29.5527 107.353V107.235C29.5527 106.933 29.8359 106.752 30.4023 106.693L32.1162 106.459H32.2334C32.6045 106.459 32.9561 106.757 33.2881 107.353C33.874 107.968 34.5186 108.275 35.2217 108.275C36.1006 108.275 36.8525 107.787 37.4775 106.811C37.9463 105.814 38.1807 104.726 38.1807 103.544C38.1807 103.202 38.0781 103.031 37.873 103.031H37.7559C36.6035 104.125 35.71 104.672 35.0752 104.672C34.9482 104.75 34.4795 104.828 33.6689 104.906C31.9404 104.906 30.4512 104.179 29.2012 102.724C28.4297 101.513 28.0439 100.219 28.0439 98.8418C28.0146 98.8418 28 98.8125 28 98.7539C28 97.1133 28.5566 95.6387 29.6699 94.3301C30.9688 93.0117 32.6387 92.3525 34.6797 92.3525C34.8555 92.3721 35.0264 92.3818 35.1924 92.3818V92.3525C35.0557 92.2158 34.9873 92.0986 34.9873 92.001V91.9277C34.9873 91.8105 35.0557 91.6787 35.1924 91.5322V78.7295C35.1924 78.6904 35.2412 78.6367 35.3389 78.5684ZM34.7676 94.0664C34.7676 94.4375 34.9971 94.6572 35.4561 94.7256C35.8467 94.6377 36.042 94.4033 36.042 94.0225C35.9443 93.6611 35.8027 93.4805 35.6172 93.4805V93.6709C35.6172 93.71 35.5635 93.7637 35.4561 93.832H35.3389C35.2998 93.832 35.251 93.7783 35.1924 93.6709V93.4805H35.1484C34.8945 93.627 34.7676 93.8223 34.7676 94.0664ZM31.6182 98.4902C31.6182 99.3008 31.877 100.131 32.3945 100.98C32.9512 101.674 33.6738 102.021 34.5625 102.021H34.7676C35.373 101.972 35.9541 101.688 36.5107 101.171C37.0576 100.575 37.3311 99.7451 37.3311 98.6807C37.3311 97.5479 36.7354 96.5371 35.5439 95.6484C35.1826 95.4922 34.8555 95.4141 34.5625 95.4141H33.9033C33.5322 95.4727 33.1562 95.6191 32.7754 95.8535C32.0039 96.5078 31.6182 97.3867 31.6182 98.4902ZM48.4639 78.5244H48.5811C48.6201 78.5244 48.6738 78.5732 48.7422 78.6709V91.9424C48.8398 92.0498 48.8887 92.1523 48.8887 92.25V92.3672C48.8887 92.4551 48.8398 92.5527 48.7422 92.6602C50.7637 92.6602 52.3652 93.5537 53.5469 95.3408C54.2598 96.7275 54.6162 97.7334 54.6162 98.3584C54.7139 98.3584 54.8311 99.3398 54.9678 101.303V102.211C54.9678 105.082 54.3037 107.387 52.9756 109.125C52.1846 109.926 51.418 110.438 50.6758 110.663C49.7676 110.888 49.0938 111 48.6543 111C45.5781 111 43.5664 109.511 42.6191 106.532C42.2188 105.097 42.0186 103.72 42.0186 102.401C41.9893 102.401 41.9746 102.392 41.9746 102.372C42.0039 102.235 42.0186 102.118 42.0186 102.021V101.684C42.0186 101.596 42.0039 101.532 41.9746 101.493C42.0723 99.6768 42.2529 98.2998 42.5166 97.3623C42.8682 96.2686 43.376 95.3262 44.04 94.5352C44.4404 94.0469 44.8359 93.7051 45.2266 93.5098C46.2129 92.9434 47.1797 92.6602 48.127 92.6602C48.0195 92.5625 47.9658 92.4355 47.9658 92.2793C48.0244 92.0254 48.1172 91.8984 48.2441 91.8984C48.2441 91.3711 48.0391 90.8877 47.6289 90.4482C47.5215 90.5557 47.4189 90.6094 47.3213 90.6094H47.2041C47.0186 90.6094 46.8818 90.4678 46.7939 90.1846C46.8428 89.8525 46.9941 89.6865 47.248 89.6865H47.2773C47.4922 89.6865 47.6729 89.8672 47.8193 90.2285C48.0439 90.3652 48.1953 90.5654 48.2734 90.8291H48.3174V78.6709C48.3174 78.6318 48.3662 78.583 48.4639 78.5244ZM47.8926 94.0811C47.8926 94.4521 48.1221 94.667 48.5811 94.7256C48.9619 94.6475 49.1523 94.418 49.1523 94.0371C49.0547 93.6855 48.918 93.5098 48.7422 93.5098V93.7002C48.7422 93.7393 48.6885 93.7881 48.5811 93.8467H48.4639C48.4248 93.8467 48.376 93.7979 48.3174 93.7002V93.5098H48.2734C48.0195 93.6465 47.8926 93.8369 47.8926 94.0811ZM45.5635 102.021L45.6074 102.562L45.5635 102.709C45.6416 104.154 45.7686 105.16 45.9443 105.727C46.2373 106.723 46.7109 107.411 47.3652 107.792C47.8242 107.997 48.1807 108.1 48.4346 108.1C49.0693 108.1 49.6797 107.831 50.2656 107.294C51.0273 106.298 51.4082 104.477 51.4082 101.83V101.449C51.4082 97.582 50.4414 95.6484 48.5078 95.6484H48.083C47.751 95.6484 47.3311 95.8535 46.8232 96.2637C46.1396 97.1523 45.7979 98.0166 45.7979 98.8564C45.6709 99.0322 45.5928 100.087 45.5635 102.021ZM67.375 78.4951H67.5215C67.5703 78.4951 67.6338 78.5586 67.7119 78.6855V95.2383C67.8389 95.375 67.9023 95.502 67.9023 95.6191V95.7656C67.9023 95.8828 67.8389 96.0098 67.7119 96.1465V96.5273C70.2412 96.5273 72.6436 97.5771 74.9189 99.6768C76.8623 101.815 77.834 104.125 77.834 106.605V106.986C77.834 110.57 76.1152 113.495 72.6777 115.761C70.9004 116.688 69.2598 117.152 67.7559 117.152H66.9941C63.8984 117.152 61.1787 115.751 58.835 112.948C57.4971 111.073 56.8281 109.052 56.8281 106.884V106.796C56.8281 103.407 58.3223 100.604 61.3105 98.3877C63.1758 97.1475 65.1338 96.5273 67.1846 96.5273V96.249C66.9404 96.249 66.7988 96.0537 66.7598 95.6631C66.8184 95.3506 66.9307 95.1943 67.0967 95.1943C67.0967 94.54 66.8428 93.9346 66.335 93.3779C66.1982 93.5049 66.0664 93.5684 65.9395 93.5684H65.8076C65.5635 93.5684 65.3877 93.3926 65.2803 93.041C65.3389 92.6309 65.5293 92.4258 65.8516 92.4258H65.8955C66.1592 92.4258 66.3838 92.6455 66.5693 93.085C66.8428 93.2705 67.0332 93.5293 67.1406 93.8613H67.1846V78.6855C67.1846 78.6367 67.248 78.5732 67.375 78.4951ZM67.7119 97.1426C67.7119 97.4648 67.6484 97.626 67.5215 97.626H67.375C67.2578 97.626 67.1943 97.499 67.1846 97.2451C67.0967 97.2451 67.0039 97.4209 66.9062 97.7725C66.9746 98.251 67.1797 98.4902 67.5215 98.4902C67.8535 98.4902 68.0586 98.2656 68.1367 97.8164C68.1367 97.5039 67.9951 97.2793 67.7119 97.1426Z" fill="white"/>
</g>
<g filter="url(#filter3_d_2_2597)">
<path d="M80.06 132.24C79.4733 132.24 78.9533 132.173 78.5 132.04C78.06 131.907 77.7067 131.633 77.44 131.22C77.1867 130.793 77.06 130.153 77.06 129.3V122.64C77.06 121.893 77.1867 121.333 77.44 120.96C77.7067 120.587 78.0667 120.34 78.52 120.22C78.9867 120.087 79.5067 120.02 80.08 120.02C80.6667 120.02 81.18 120.087 81.62 120.22C82.06 120.353 82.4067 120.607 82.66 120.98C82.9133 121.353 83.04 121.907 83.04 122.64V124.72H81.78V122.62C81.78 122.1 81.7067 121.713 81.56 121.46C81.4133 121.193 81.2067 121.02 80.94 120.94C80.6867 120.86 80.3933 120.82 80.06 120.82C79.7267 120.82 79.4267 120.86 79.16 120.94C78.9067 121.02 78.7067 121.193 78.56 121.46C78.4267 121.713 78.36 122.1 78.36 122.62V129.64C78.36 130.173 78.4267 130.573 78.56 130.84C78.7067 131.093 78.9067 131.26 79.16 131.34C79.4267 131.42 79.7267 131.46 80.06 131.46C80.4067 131.46 80.7067 131.42 80.96 131.34C81.2133 131.26 81.4133 131.093 81.56 130.84C81.7067 130.573 81.78 130.173 81.78 129.64V127.86H83.04V129.28C83.04 130.147 82.9133 130.793 82.66 131.22C82.4067 131.633 82.06 131.907 81.62 132.04C81.18 132.173 80.66 132.24 80.06 132.24ZM85.2483 132V120.18H86.5083V125.54H87.2483L90.0283 120.18H91.4083L88.4283 125.88L91.5083 132H90.0883L87.3283 126.44H86.5083V132H85.2483ZM92.7678 132V120.18H93.9078V129.42L97.6078 120.18H98.7478V132H97.6078V123.08L93.9278 132H92.7678ZM100.244 134.14V131.16H101.224C101.517 131.133 101.764 130.987 101.964 130.72C102.164 130.453 102.291 130.02 102.344 129.42C102.384 128.873 102.431 128.287 102.484 127.66C102.537 127.033 102.591 126.4 102.644 125.76C102.697 125.107 102.744 124.46 102.784 123.82C102.837 123.167 102.884 122.533 102.924 121.92C102.964 121.293 103.004 120.713 103.044 120.18H108.264V131.16H110.024V134.14H108.944V132.2H101.324V134.14H100.244ZM103.064 131.16H107.004V121.1H104.244C104.137 122.473 104.037 123.833 103.944 125.18C103.851 126.527 103.751 127.88 103.644 129.24C103.617 129.56 103.571 129.913 103.504 130.3C103.437 130.687 103.291 130.973 103.064 131.16ZM111.694 132V120.18H112.954V125.54H113.694L116.474 120.18H117.854L114.874 125.88L117.954 132H116.534L113.774 126.44H112.954V132H111.694ZM119.213 132V120.18H120.353V129.42L124.053 120.18H125.193V132H124.053V123.08L120.373 132H119.213Z" fill="white"/>
</g>
<defs>
<filter id="filter0_dd_2_2597" x="12.26" y="67.02" width="90.1295" height="22.12" filterUnits="userSpaceOnUse" color-interpolation-filters="sRGB">
<feFlood flood-opacity="0" result="BackgroundImageFix"/>
<feColorMatrix in="SourceAlpha" type="matrix" values="0 0 0 0 0 0 0 0 0 0 0 0 0 0 0 0 0 0 127 0" result="hardAlpha"/>
<feOffset dy="4"/>
<feGaussianBlur stdDeviation="2"/>
<feComposite in2="hardAlpha" operator="out"/>
<feColorMatrix type="matrix" values="0 0 0 0 0 0 0 0 0 0 0 0 0 0 0 0 0 0 0.25 0"/>
<feBlend mode="normal" in2="BackgroundImageFix" result="effect1_dropShadow_2_2597"/>
<feColorMatrix in="SourceAlpha" type="matrix" values="0 0 0 0 0 0 0 0 0 0 0 0 0 0 0 0 0 0 127 0" result="hardAlpha"/>
<feOffset dy="4"/>
<feGaussianBlur stdDeviation="2"/>
<feComposite in2="hardAlpha" operator="out"/>
<feColorMatrix type="matrix" values="0 0 0 0 0 0 0 0 0 0 0 0 0 0 0 0 0 0 0.25 0"/>
<feBlend mode="normal" in2="effect1_dropShadow_2_2597" result="effect2_dropShadow_2_2597"/>
<feBlend mode="normal" in="SourceGraphic" in2="effect2_dropShadow_2_2597" result="shape"/>
</filter>
<filter id="filter1_d_2_2597" x="0.240005" y="97.02" width="25.2297" height="22.12" filterUnits="userSpaceOnUse" color-interpolation-filters="sRGB">
<feFlood flood-opacity="0" result="BackgroundImageFix"/>
<feColorMatrix in="SourceAlpha" type="matrix" values="0 0 0 0 0 0 0 0 0 0 0 0 0 0 0 0 0 0 127 0" result="hardAlpha"/>
<feOffset dy="4"/>
<feGaussianBlur stdDeviation="2"/>
<feComposite in2="hardAlpha" operator="out"/>
<feColorMatrix type="matrix" values="0 0 0 0 0 0 0 0 0 0 0 0 0 0 0 0 0 0 0.25 0"/>
<feBlend mode="normal" in2="BackgroundImageFix" result="effect1_dropShadow_2_2597"/>
<feBlend mode="normal" in="SourceGraphic" in2="effect1_dropShadow_2_2597" result="shape"/>
</filter>
<filter id="filter2_d_2_2597" x="24" y="78.4951" width="57.834" height="46.6572" filterUnits="userSpaceOnUse" color-interpolation-filters="sRGB">
<feFlood flood-opacity="0" result="BackgroundImageFix"/>
<feColorMatrix in="SourceAlpha" type="matrix" values="0 0 0 0 0 0 0 0 0 0 0 0 0 0 0 0 0 0 127 0" result="hardAlpha"/>
<feOffset dy="4"/>
<feGaussianBlur stdDeviation="2"/>
<feComposite in2="hardAlpha" operator="out"/>
<feColorMatrix type="matrix" values="0 0 0 0 0 0 0 0 0 0 0 0 0 0 0 0 0 0 0.25 0"/>
<feBlend mode="normal" in2="BackgroundImageFix" result="effect1_dropShadow_2_2597"/>
<feBlend mode="normal" in="SourceGraphic" in2="effect1_dropShadow_2_2597" result="shape"/>
</filter>
<filter id="filter3_d_2_2597" x="73.06" y="120.02" width="56.1331" height="22.12" filterUnits="userSpaceOnUse" color-interpolation-filters="sRGB">
<feFlood flood-opacity="0" result="BackgroundImageFix"/>
<feColorMatrix in="SourceAlpha" type="matrix" values="0 0 0 0 0 0 0 0 0 0 0 0 0 0 0 0 0 0 127 0" result="hardAlpha"/>
<feOffset dy="4"/>
<feGaussianBlur stdDeviation="2"/>
<feComposite in2="hardAlpha" operator="out"/>
<feColorMatrix type="matrix" values="0 0 0 0 0 0 0 0 0 0 0 0 0 0 0 0 0 0 0.25 0"/>
<feBlend mode="normal" in2="BackgroundImageFix" result="effect1_dropShadow_2_2597"/>
<feBlend mode="normal" in="SourceGraphic" in2="effect1_dropShadow_2_2597" result="shape"/>
</filter>
</defs>
</svg>
