<svg width="166" height="26" viewBox="0 0 166 26" fill="none" xmlns="http://www.w3.org/2000/svg">
<path d="M4.53125 0.378906H4.60938C4.63542 0.378906 4.66797 0.411458 4.70703 0.476562V9.1582C4.77865 9.22982 4.81445 9.29818 4.81445 9.36328V9.44141C4.81445 9.5 4.77865 9.56836 4.70703 9.64648V9.74414C5.47526 9.91992 5.85938 10.1152 5.85938 10.3301C5.85938 10.3496 5.86589 10.3757 5.87891 10.4082C5.08464 12.9993 4.6875 14.3242 4.6875 14.3828V14.4609C4.72656 14.5586 4.80143 14.6074 4.91211 14.6074C5.00977 14.6074 5.98633 14.0736 7.8418 13.0059C8.12174 12.8626 8.62956 12.5827 9.36523 12.166C9.9707 11.7949 10.3711 11.6094 10.5664 11.6094C10.7747 11.6354 11.6146 11.8893 13.0859 12.3711C13.1706 12.4362 13.2129 12.5046 13.2129 12.5762V12.625C13.1868 12.7422 12.9232 12.9115 12.4219 13.1328L7.99805 15.4961C7.87435 15.6328 7.8125 15.7435 7.8125 15.8281V15.8574C7.8125 15.9486 8.62956 18.5299 10.2637 23.6016L10.2832 23.7773C10.2832 23.875 10.1921 23.9336 10.0098 23.9531C8.23893 23.4518 7.35352 23.1556 7.35352 23.0645C7.17773 22.7389 6.91732 21.9154 6.57227 20.5938C6.33138 19.8516 5.98958 18.7383 5.54688 17.2539C5.47526 17.1172 5.37435 17.0488 5.24414 17.0488C5.08789 17.0488 4.55404 17.332 3.64258 17.8984C3.55143 17.8984 3.27799 18.6699 2.82227 20.2129C2.5944 21.0462 2.39909 21.4629 2.23633 21.4629H2.16797C1.95312 21.4629 1.28255 21.2578 0.15625 20.8477C0.0520833 20.7695 0 20.6914 0 20.6133V20.5156C0.201823 19.7799 1.33789 16.1471 3.4082 9.61719C3.49284 9.51953 3.61328 9.4707 3.76953 9.4707C3.79557 9.4707 3.94857 9.50326 4.22852 9.56836L4.19922 9.39258C4.23177 9.22331 4.29036 9.13867 4.375 9.13867C4.375 8.77409 4.24154 8.45182 3.97461 8.17188C3.94206 8.23698 3.88021 8.26953 3.78906 8.26953H3.64258C3.50586 8.19792 3.4375 8.10352 3.4375 7.98633V7.9375C3.4375 7.80078 3.5319 7.70638 3.7207 7.6543H3.76953C3.92578 7.6543 4.02669 7.76497 4.07227 7.98633C4.16992 7.98633 4.2806 8.13281 4.4043 8.42578H4.43359V0.476562C4.43359 0.450521 4.46615 0.417969 4.53125 0.378906ZM4.15039 10.8379C4.20247 11.1113 4.35547 11.248 4.60938 11.248C4.80469 11.248 4.93164 11.1113 4.99023 10.8379C4.99023 10.6882 4.91536 10.5612 4.76562 10.457H4.70703C4.70703 10.5742 4.67448 10.6328 4.60938 10.6328H4.53125C4.49219 10.6328 4.44987 10.5742 4.4043 10.457C4.23503 10.5547 4.15039 10.6816 4.15039 10.8379ZM18.6719 0.359375H18.7402C18.7663 0.359375 18.8021 0.391927 18.8477 0.457031V12.2441C18.9128 12.3158 18.9453 12.3841 18.9453 12.4492V12.5273C18.9453 12.5859 18.9128 12.651 18.8477 12.7227V12.752C19.3555 12.8952 19.7689 13.2402 20.0879 13.7871C20.2702 14.3665 20.651 16.1667 21.2305 19.1875C21.4974 19.9753 21.6309 20.3984 21.6309 20.457C21.6309 20.6523 21.2012 20.8021 20.3418 20.9062C20.179 20.9779 19.9772 21.0137 19.7363 21.0137C19.6061 21.0137 19.4108 20.8867 19.1504 20.6328H18.9746C18.0176 21.5443 16.875 22 15.5469 22H15.4004C14.8405 22 14.3001 21.7721 13.7793 21.3164C13.291 20.6979 13.0469 20.0827 13.0469 19.4707C13.0469 18.1686 13.9421 17.2637 15.7324 16.7559C16.39 16.5345 16.9727 16.3132 17.4805 16.0918C17.832 15.8444 18.0078 15.61 18.0078 15.3887C18.0078 14.8548 17.7799 14.4902 17.3242 14.2949C17.1745 14.2624 17.0638 14.2461 16.9922 14.2461H16.7676C16.2402 14.2461 15.7682 14.4056 15.3516 14.7246C15.1432 14.8874 14.9902 15.2357 14.8926 15.7695C14.8926 15.9128 14.2415 16.082 12.9395 16.2773C12.7702 16.2773 12.6693 16.1569 12.6367 15.916C12.6367 14.7051 13.2878 13.8034 14.5898 13.2109C15.625 12.7682 16.6471 12.5469 17.6562 12.5469C17.7669 12.5469 18.0013 12.5632 18.3594 12.5957L18.3398 12.5469V12.4688C18.3724 12.2995 18.431 12.2148 18.5156 12.2148C18.5156 11.8698 18.3789 11.5508 18.1055 11.2578C18.0404 11.3229 17.9753 11.3555 17.9102 11.3555H17.832C17.7018 11.3555 17.6074 11.2643 17.5488 11.082C17.5879 10.8607 17.6921 10.75 17.8613 10.75H17.8809C18.0241 10.75 18.1413 10.8672 18.2324 11.1016C18.3822 11.1992 18.4863 11.3359 18.5449 11.5117H18.5645V0.457031C18.5645 0.43099 18.6003 0.398438 18.6719 0.359375ZM18.291 13.8652C18.291 14.1126 18.4408 14.2559 18.7402 14.2949C18.9941 14.2428 19.1211 14.0931 19.1211 13.8457C19.056 13.6048 18.9648 13.4844 18.8477 13.4844V13.6113C18.8477 13.6374 18.8118 13.6732 18.7402 13.7188H18.6719C18.6393 13.7188 18.6035 13.6829 18.5645 13.6113V13.4844H18.5449C18.3757 13.582 18.291 13.709 18.291 13.8652ZM15.4004 19.0117V19.1582C15.4785 19.8678 15.7812 20.2227 16.3086 20.2227C16.3086 20.2422 16.3867 20.252 16.543 20.252H16.7969C17.2982 20.252 17.7962 20.0241 18.291 19.5684C18.5059 19.1973 18.6133 18.8587 18.6133 18.5527C18.6133 18.0059 18.5286 17.5924 18.3594 17.3125C18.2943 17.2799 18.2357 17.2637 18.1836 17.2637C17.0898 17.6478 16.3314 17.9603 15.9082 18.2012C15.5697 18.5137 15.4004 18.7839 15.4004 19.0117ZM32.5684 0.359375H32.6465C32.6725 0.359375 32.7051 0.391927 32.7441 0.457031V11.3652H32.7637C32.7637 11.3197 32.8451 11.2285 33.0078 11.0918C33.0273 10.916 33.1185 10.8281 33.2812 10.8281H33.3008C33.4635 10.8281 33.5612 10.9323 33.5938 11.1406C33.5417 11.3229 33.4538 11.4141 33.3301 11.4141H33.252C33.1934 11.4141 33.1283 11.3815 33.0566 11.3164C32.8548 11.5378 32.7507 11.7396 32.7441 11.9219V12.2637C32.8092 12.3548 32.8418 12.4297 32.8418 12.4883V12.6055L32.7441 12.752V12.8301L33.1543 13.0449C34.0983 13.5007 34.5703 14.5749 34.5703 16.2676C34.5833 16.3132 34.7038 17.7357 34.9316 20.5352C34.9316 20.8802 34.7363 21.0527 34.3457 21.0527C33.8118 21.0983 33.3984 21.1211 33.1055 21.1211H33.0371C32.7767 21.1211 32.6465 20.8444 32.6465 20.291C32.3926 16.9772 32.2038 15.3203 32.0801 15.3203C31.9889 15.0599 31.8197 14.8548 31.5723 14.7051C31.429 14.6074 31.1361 14.5586 30.6934 14.5586C30.4525 14.5846 30.1758 14.6986 29.8633 14.9004C29.5508 15.265 29.3945 15.6393 29.3945 16.0234V16.5605C29.3945 16.9577 29.5085 18.4714 29.7363 21.1016C29.7363 21.3229 29.5182 21.4531 29.082 21.4922C28.4896 21.5378 28.0729 21.5605 27.832 21.5605C27.5781 21.5605 27.4512 21.3099 27.4512 20.8086C27.2168 17.8789 27.0443 16.196 26.9336 15.7598C26.6862 15.252 26.3118 14.998 25.8105 14.998H25.5957C25.2702 14.998 24.9349 15.1608 24.5898 15.4863C24.3164 15.7858 24.1797 16.1667 24.1797 16.6289V16.873C24.1797 17.0944 24.2936 18.6504 24.5215 21.541C24.5215 21.8145 24.1374 21.9512 23.3691 21.9512C23.0957 21.9837 22.8451 22 22.6172 22C22.3698 22 22.2461 21.7721 22.2461 21.3164C22.2135 21.0951 22.0117 18.696 21.6406 14.1191C21.6406 13.8132 21.9336 13.6602 22.5195 13.6602V13.6309C22.4089 13.6309 22.334 13.5495 22.2949 13.3867V13.3379C22.334 13.1621 22.4089 13.0742 22.5195 13.0742V0.525391C22.5195 0.499349 22.5521 0.466797 22.6172 0.427734H22.6855C22.7116 0.427734 22.7441 0.460286 22.7832 0.525391V12.1953C22.9069 12.1042 23.0208 11.9577 23.125 11.7559C23.1901 11.7038 23.2487 11.6777 23.3008 11.6777H23.3496C23.5254 11.7038 23.6133 11.7949 23.6133 11.9512V12.0684C23.5482 12.1986 23.4668 12.2637 23.3691 12.2637H23.3008C23.2422 12.2637 23.1673 12.2311 23.0762 12.166C22.8809 12.4199 22.7832 12.625 22.7832 12.7812V13.123C22.8483 13.1882 22.8809 13.2533 22.8809 13.3184V13.3867C22.8809 13.4453 22.8483 13.5104 22.7832 13.582V13.6309C23.0306 13.6178 23.2096 13.6113 23.3203 13.6113C23.6133 13.6113 23.7598 13.7318 23.7598 13.9727C23.8314 14.181 23.89 14.2884 23.9355 14.2949H23.9844C24.1081 14.2949 24.2708 14.1712 24.4727 13.9238C25.0911 13.39 25.7975 13.123 26.5918 13.123H26.6895C27.4967 13.123 28.1543 13.416 28.6621 14.002C28.7598 14.0475 28.8184 14.0703 28.8379 14.0703C28.9421 14.0703 29.1862 13.8587 29.5703 13.4355C30.1693 12.9473 30.804 12.7031 31.4746 12.7031H31.4941C31.9238 12.7031 32.2168 12.7292 32.373 12.7812H32.4023V12.752C32.3242 12.752 32.2754 12.6803 32.2559 12.5371V12.4883C32.2559 12.4036 32.3275 12.306 32.4707 12.1953V0.457031C32.4707 0.43099 32.5033 0.398438 32.5684 0.359375ZM32.207 13.8555C32.2526 14.1159 32.3991 14.2461 32.6465 14.2461C32.8288 14.2461 32.9492 14.1159 33.0078 13.8555C33.0078 13.7057 32.9362 13.582 32.793 13.4844H32.7441C32.7441 13.6146 32.7116 13.6797 32.6465 13.6797H32.5684C32.5293 13.6797 32.4902 13.6146 32.4512 13.4844C32.2884 13.5755 32.207 13.6992 32.207 13.8555ZM22.2461 14.6855C22.2461 14.9199 22.3926 15.0566 22.6855 15.0957C22.9329 15.0436 23.0566 14.8971 23.0566 14.6562C22.9915 14.4284 22.9004 14.3145 22.7832 14.3145V14.4414C22.7832 14.4674 22.7507 14.5 22.6855 14.5391H22.6172C22.5911 14.5391 22.5586 14.5065 22.5195 14.4414V14.3145H22.4902C22.3275 14.4056 22.2461 14.5293 22.2461 14.6855ZM39.6973 0.349609H39.7754C39.8014 0.349609 39.8372 0.385417 39.8828 0.457031V10.8281C40.013 10.7305 40.1367 10.5742 40.2539 10.3594C40.3125 10.3073 40.3711 10.2812 40.4297 10.2812H40.4883C40.6771 10.3073 40.7715 10.4017 40.7715 10.5645V10.7012C40.6999 10.8379 40.6152 10.9062 40.5176 10.9062H40.4297C40.3711 10.9062 40.293 10.8704 40.1953 10.7988C39.987 11.0723 39.8828 11.2936 39.8828 11.4629V11.834C39.9544 11.9056 39.9902 11.974 39.9902 12.0391V12.1172C39.9902 12.1823 39.9544 12.2539 39.8828 12.332V12.5176C40.4753 12.5176 41.1589 12.7552 41.9336 13.2305C42.6302 13.8164 43.1152 14.4023 43.3887 14.9883C43.5514 15.2096 43.7174 15.6751 43.8867 16.3848V16.4434C43.8867 16.6973 43.3952 16.9154 42.4121 17.0977C39.7624 17.8008 38.2878 18.2044 37.9883 18.3086C37.8971 18.4062 37.8516 18.5137 37.8516 18.6309V18.709C38.0469 19.2559 38.3529 19.6497 38.7695 19.8906C39.0495 20.0339 39.2806 20.1055 39.4629 20.1055H39.6387C40.6738 20.1055 41.429 19.6758 41.9043 18.8164C42.0605 18.4128 42.3177 18.2109 42.6758 18.2109C43.0599 18.0872 43.4017 17.9993 43.7012 17.9473C43.929 17.9473 44.043 18.0612 44.043 18.2891C44.043 18.8099 43.8151 19.4414 43.3594 20.1836C42.819 20.9128 42.054 21.4206 41.0645 21.707C40.5306 21.9023 39.9414 22 39.2969 22C38.6263 21.9349 38.1087 21.821 37.7441 21.6582C36.7741 21.209 36.0645 20.5156 35.6152 19.5781C35.2116 18.8099 35.0098 17.9473 35.0098 16.9902V16.9121C35.0098 16.873 35 16.8405 34.9805 16.8145C35.0586 15.9355 35.332 15.1445 35.8008 14.4414C36.3737 13.6081 37.1973 13.0286 38.2715 12.7031C38.7663 12.5599 39.2057 12.4883 39.5898 12.4883V12.3809C39.4727 12.3809 39.3945 12.293 39.3555 12.1172V12.0684C39.3945 11.873 39.4727 11.7754 39.5898 11.7754V0.457031C39.5898 0.43099 39.6257 0.395182 39.6973 0.349609ZM39.2969 13.5137C39.2969 13.7676 39.4564 13.9173 39.7754 13.9629C40.0358 13.9108 40.166 13.7546 40.166 13.4941C40.1009 13.2467 40.0065 13.123 39.8828 13.123V13.25C39.8828 13.2826 39.847 13.3184 39.7754 13.3574H39.6973C39.6712 13.3574 39.6354 13.3216 39.5898 13.25V13.123H39.5605C39.3848 13.2207 39.2969 13.3509 39.2969 13.5137ZM37.2754 16.3066C37.2754 16.4954 37.3535 16.6354 37.5098 16.7266H37.6367C37.8581 16.7266 38.9388 16.4466 40.8789 15.8867C40.9701 15.7956 41.0156 15.7174 41.0156 15.6523V15.5742C41.0156 15.3073 40.7422 14.9818 40.1953 14.5977C39.9349 14.4544 39.6712 14.3828 39.4043 14.3828C38.5579 14.3828 37.9102 14.7539 37.4609 15.4961C37.3372 15.8151 37.2754 16.0853 37.2754 16.3066ZM48.2812 13.8652C48.2812 14.1257 48.444 14.2786 48.7695 14.3242C49.0365 14.2656 49.1699 14.1029 49.1699 13.8359C49.1048 13.5885 49.0072 13.4648 48.877 13.4648V13.5918C48.877 13.6243 48.8411 13.6634 48.7695 13.709H48.6816C48.6556 13.709 48.6198 13.6699 48.5742 13.5918V13.4648H48.5449C48.3691 13.5625 48.2812 13.696 48.2812 13.8652ZM48.9258 13.0938H48.9453C49.2578 13.0938 49.707 13.1654 50.293 13.3086C51.1849 13.5951 51.7871 13.9987 52.0996 14.5195C52.2689 14.7995 52.3958 15.278 52.4805 15.9551C52.4805 16.5801 52.2559 17.1172 51.8066 17.5664C51.4941 17.8854 50.7292 18.2012 49.5117 18.5137C47.6432 18.8197 46.709 19.2786 46.709 19.8906V19.9199C46.709 20.265 46.8522 20.5514 47.1387 20.7793C47.5423 21.0007 47.9199 21.1113 48.2715 21.1113C48.7207 21.1113 49.1243 21.0202 49.4824 20.8379C49.8665 20.623 50.1107 20.3431 50.2148 19.998C50.3255 19.7116 50.4948 19.5684 50.7227 19.5684H52.2363C52.4902 19.6009 52.6172 19.7083 52.6172 19.8906V19.9492C52.6172 20.0208 52.6074 20.1185 52.5879 20.2422C52.2949 21.1667 51.8652 21.7786 51.2988 22.0781C50.3483 22.5469 49.4466 22.7812 48.5938 22.7812C46.9792 22.7812 45.765 22.4199 44.9512 21.6973C44.4108 21.0658 44.1406 20.3822 44.1406 19.6465C44.1406 18.8327 44.4824 18.1849 45.166 17.7031C45.752 17.3646 46.4974 17.1042 47.4023 16.9219C49.082 16.6549 49.9219 16.2318 49.9219 15.6523V15.6035L49.8926 15.4082C49.7428 14.9785 49.2383 14.7637 48.3789 14.7637C47.9297 14.7637 47.5163 14.9069 47.1387 15.1934C46.8652 15.7533 46.5853 16.0332 46.2988 16.0332C46.1751 16.0137 46.0775 16.0039 46.0059 16.0039H44.8926C44.6257 16.0039 44.4922 15.8867 44.4922 15.6523V15.6035C44.4922 15.4408 44.5638 15.1966 44.707 14.8711C45.293 13.6862 46.4974 13.0938 48.3203 13.0938H48.4961C48.4245 13.0156 48.3887 12.9408 48.3887 12.8691V12.8203C48.4212 12.638 48.4831 12.5469 48.5742 12.5469V0.457031C48.5742 0.424479 48.61 0.388672 48.6816 0.349609H48.7695C48.7956 0.349609 48.8314 0.385417 48.877 0.457031V11.6582H48.8965C48.8965 11.4889 49.1862 11.2839 49.7656 11.043C49.9805 11.082 50.0879 11.1797 50.0879 11.3359V11.4141C50.0879 11.5768 49.9707 11.6777 49.7363 11.7168C49.6257 11.7168 49.528 11.6257 49.4434 11.4434C49.0658 11.6712 48.877 12.013 48.877 12.4688V12.5273C48.9811 12.6315 49.0332 12.7194 49.0332 12.791V12.8691C49.0332 12.9342 48.9974 13.0091 48.9258 13.0938ZM57.4512 0.359375H57.5293C57.5553 0.359375 57.5911 0.395182 57.6367 0.466797V11.7754H57.666C57.666 11.6712 57.7799 11.5182 58.0078 11.3164C58.0599 11.1081 58.1673 11.0039 58.3301 11.0039H58.3594C58.5352 11.0039 58.6393 11.1178 58.6719 11.3457C58.6198 11.541 58.5221 11.6387 58.3789 11.6387H58.3008C58.2357 11.6387 58.1641 11.6029 58.0859 11.5312C57.8255 11.8242 57.6953 12.1367 57.6953 12.4688V12.5176C57.7995 12.6283 57.8516 12.7161 57.8516 12.7812V12.8594C57.8516 12.9831 57.7799 13.0742 57.6367 13.1328V13.3965C58.7891 13.3965 59.7917 13.7773 60.6445 14.5391C61.263 15.1966 61.6699 15.8704 61.8652 16.5605C62.028 17.1139 62.1094 17.5664 62.1094 17.918C62.1289 18.2435 62.1387 18.4583 62.1387 18.5625C62.1387 20.112 61.4453 21.3359 60.0586 22.2344C59.3294 22.625 58.8053 22.8203 58.4863 22.8203C58.3366 22.8854 57.9818 22.9375 57.4219 22.9766C55.3516 22.9766 53.916 22.0456 53.1152 20.1836C52.8483 19.4674 52.7148 18.7057 52.7148 17.8984V17.7324C52.7148 16.9186 52.9883 16.0951 53.5352 15.2617C54.1667 14.513 54.5866 14.1387 54.7949 14.1387C55.6283 13.6439 56.4779 13.3965 57.3438 13.3965V13.1035C57.2591 13.0124 57.2168 12.931 57.2168 12.8594V12.8105C57.2168 12.7324 57.2591 12.6445 57.3438 12.5469V0.466797C57.3438 0.440755 57.3796 0.404948 57.4512 0.359375ZM57.0508 14.2754C57.0508 14.5293 57.2103 14.679 57.5293 14.7246C57.7962 14.6725 57.9297 14.513 57.9297 14.2461C57.8646 13.9987 57.7669 13.875 57.6367 13.875V14.0117C57.6367 14.0378 57.6009 14.0736 57.5293 14.1191H57.4512C57.4251 14.1191 57.3893 14.0833 57.3438 14.0117V13.875H57.3145C57.1387 13.9727 57.0508 14.1061 57.0508 14.2754ZM55.1855 17.8105C55.1855 19.0215 55.5339 19.972 56.2305 20.6621C56.6341 20.9486 57.0052 21.0918 57.3438 21.0918H57.666C58.1999 21.0918 58.7044 20.8314 59.1797 20.3105C59.4987 19.8939 59.6582 19.3275 59.6582 18.6113C59.6582 17.0293 59.1634 15.9648 58.1738 15.418C57.9525 15.3464 57.6758 15.2943 57.3438 15.2617C56.888 15.2617 56.4193 15.431 55.9375 15.7695C55.4362 16.2188 55.1855 16.8991 55.1855 17.8105ZM67.9883 0.378906H68.0664C68.0924 0.378906 68.125 0.411458 68.1641 0.476562V11.1602H68.1934C68.1934 11.0625 68.304 10.916 68.5254 10.7207C68.5775 10.5189 68.6816 10.418 68.8379 10.418H68.8574C69.0332 10.418 69.1374 10.5286 69.1699 10.75C69.1178 10.9388 69.0234 11.0332 68.8867 11.0332H68.8086C68.75 11.0332 68.6816 10.9974 68.6035 10.9258C68.3496 11.2122 68.2227 11.5117 68.2227 11.8242V11.873C68.3203 11.9772 68.3691 12.0651 68.3691 12.1367V12.2148C68.3691 12.3255 68.3008 12.4102 68.1641 12.4688V12.6738C68.6328 12.6738 69.2513 12.9473 70.0195 13.4941C70.612 14.0866 71.0221 14.6855 71.25 15.291C71.5365 16.1764 71.6797 16.9023 71.6797 17.4688C71.6667 17.5794 71.6602 17.6999 71.6602 17.8301C71.6602 17.8691 71.6667 17.9049 71.6797 17.9375C71.6797 18.5495 71.4746 19.2754 71.0645 20.1152C70.3353 21.2611 69.2578 21.834 67.832 21.834C67.2461 21.834 66.6146 21.6289 65.9375 21.2188C65.9049 21.1992 65.8626 21.1895 65.8105 21.1895C65.7259 21.2871 65.6836 21.349 65.6836 21.375C65.6836 21.388 65.6901 21.3945 65.7031 21.3945L65.6836 21.5801V21.5996L66.3281 25.3203C66.3281 25.6393 65.9798 25.7988 65.2832 25.7988C64.8926 25.8704 64.5996 25.9062 64.4043 25.9062H64.3848C64.1309 25.9062 63.9844 25.7272 63.9453 25.3691L62.2656 13.9043C62.2656 13.6309 62.5488 13.4779 63.1152 13.4453C63.1934 13.4453 63.5352 13.403 64.1406 13.3184C64.3359 13.3184 64.4987 13.5137 64.6289 13.9043L64.7559 13.9336C64.86 13.9336 65.0391 13.7871 65.293 13.4941C65.9049 12.9993 66.4518 12.752 66.9336 12.752C66.9336 12.6999 67.181 12.6641 67.6758 12.6445H67.8906V12.4395C67.7995 12.3548 67.7539 12.2799 67.7539 12.2148V12.1562C67.7539 12.0846 67.7995 12 67.8906 11.9023V0.476562C67.8906 0.450521 67.9232 0.417969 67.9883 0.378906ZM67.6074 13.5723C67.6074 13.8197 67.7604 13.9661 68.0664 14.0117C68.3203 13.9531 68.4473 13.7969 68.4473 13.543C68.3822 13.3086 68.2878 13.1914 68.1641 13.1914V13.3184C68.1641 13.3444 68.1315 13.377 68.0664 13.416H67.9883C67.9622 13.416 67.9297 13.3835 67.8906 13.3184V13.1914H67.8613C67.6921 13.2826 67.6074 13.4095 67.6074 13.5723ZM65.0391 17.0586C65.0391 18.1849 65.3711 19.0768 66.0352 19.7344C66.4648 20.0078 66.8066 20.1445 67.0605 20.1445C68.0632 20.1445 68.724 19.7669 69.043 19.0117C69.1927 18.7122 69.2676 18.2923 69.2676 17.752C69.235 16.2155 68.776 15.2064 67.8906 14.7246C67.6237 14.6074 67.347 14.5488 67.0605 14.5488C66.0449 14.5488 65.4036 15.0534 65.1367 16.0625C65.0716 16.3164 65.0391 16.6484 65.0391 17.0586ZM78.291 13.2891C78.291 13.5365 78.444 13.6797 78.75 13.7188C78.9974 13.6667 79.1211 13.5169 79.1211 13.2695C79.056 13.0286 78.9648 12.9082 78.8477 12.9082V13.0352C78.8477 13.0612 78.8151 13.097 78.75 13.1426H78.6719C78.6458 13.1426 78.61 13.1068 78.5645 13.0352V12.9082H78.5449C78.3757 13.0059 78.291 13.1328 78.291 13.2891ZM72.8906 13.25C72.7279 13.3411 72.6465 13.4648 72.6465 13.6211C72.6465 13.8555 72.793 13.9922 73.0859 14.0312C73.3333 13.9792 73.457 13.8327 73.457 13.5918C73.3919 13.3639 73.3008 13.25 73.1836 13.25V13.377C73.1836 13.403 73.151 13.4355 73.0859 13.4746H73.0176C72.9915 13.4746 72.959 13.4421 72.9199 13.377V13.25H72.8906ZM73.1738 12.7031C73.278 12.6901 73.5059 12.6836 73.8574 12.6836H73.877C74.1634 12.6836 74.3066 13.1198 74.3066 13.9922C74.541 17.2214 74.7624 18.8359 74.9707 18.8359C75.2181 19.2591 75.5599 19.4707 75.9961 19.4707H76.2988C76.8197 19.4707 77.2754 19.2266 77.666 18.7383C77.8353 18.4714 77.9199 18.084 77.9199 17.5762V17.4785C77.9199 16.9512 77.8092 15.3789 77.5879 12.7617C77.5879 12.4557 77.8255 12.3027 78.3008 12.3027C78.3854 12.2897 78.4733 12.2799 78.5645 12.2734V12.2441C78.4863 12.153 78.4473 12.0749 78.4473 12.0098V11.9609C78.4473 11.8893 78.4863 11.8047 78.5645 11.707V0.496094C78.5645 0.470052 78.6003 0.4375 78.6719 0.398438H78.75C78.776 0.398438 78.8086 0.43099 78.8477 0.496094V10.9746H78.8672C78.8672 10.877 78.9779 10.737 79.1992 10.5547C79.2448 10.3529 79.3457 10.252 79.502 10.252H79.5312C79.694 10.252 79.7949 10.3594 79.834 10.5742C79.7754 10.763 79.681 10.8574 79.5508 10.8574H79.4727C79.4141 10.8574 79.349 10.8216 79.2773 10.75C79.0234 11.0299 78.8965 11.3262 78.8965 11.6387V11.6875C79.0007 11.7852 79.0527 11.8698 79.0527 11.9414V12.0098C79.0527 12.0749 79.0104 12.153 78.9258 12.2441C79.1146 12.2246 79.3164 12.2116 79.5312 12.2051C79.8372 12.2051 79.9902 12.5501 79.9902 13.2402C79.9902 13.3379 80.1823 15.7077 80.5664 20.3496C80.5664 20.6686 80.2734 20.8281 79.6875 20.8281C79.2904 20.8672 78.9681 20.8867 78.7207 20.8867H78.7012C78.4863 20.8867 78.3529 20.6849 78.3008 20.2812C78.2422 20.1966 78.1738 20.1543 78.0957 20.1543C78.0241 20.1543 77.8288 20.3203 77.5098 20.6523C76.9303 21.0755 76.4779 21.2871 76.1523 21.2871C75.9701 21.3522 75.778 21.3848 75.5762 21.3848V21.4043L75.2148 21.4141C73.9388 21.4141 73.0827 20.877 72.6465 19.8027C72.4447 19.5293 72.2754 18.2663 72.1387 16.0137C71.9889 14.4707 71.9141 13.5039 71.9141 13.1133C71.9141 12.8789 72.2461 12.752 72.9102 12.7324V12.7227C72.7995 12.7227 72.7246 12.6413 72.6855 12.4785V12.4297C72.7246 12.2539 72.7995 12.166 72.9102 12.166V0.496094C72.9102 0.470052 72.9427 0.4375 73.0078 0.398438H73.0762C73.1022 0.398438 73.1348 0.43099 73.1738 0.496094V11.2871C73.2975 11.196 73.4115 11.0495 73.5156 10.8477C73.5807 10.7956 73.6393 10.7695 73.6914 10.7695H73.7402C73.916 10.7956 74.0039 10.8867 74.0039 11.043V11.1602C73.9388 11.2904 73.8574 11.3555 73.7598 11.3555H73.6914C73.6328 11.3555 73.5579 11.3229 73.4668 11.2578C73.2715 11.5117 73.1738 11.7168 73.1738 11.873V12.2148C73.2389 12.2799 73.2715 12.3451 73.2715 12.4102V12.4785C73.2715 12.5371 73.2389 12.6022 73.1738 12.6738V12.7031ZM87.2363 13.2891C87.2363 13.5365 87.3893 13.6797 87.6953 13.7188C87.9427 13.6667 88.0664 13.5169 88.0664 13.2695C88.0013 13.0286 87.9102 12.9082 87.793 12.9082V13.0352C87.793 13.0612 87.7604 13.097 87.6953 13.1426H87.6172C87.5911 13.1426 87.5553 13.1068 87.5098 13.0352V12.9082H87.4902C87.321 13.0059 87.2363 13.1328 87.2363 13.2891ZM81.8359 13.25C81.6732 13.3411 81.5918 13.4648 81.5918 13.6211C81.5918 13.8555 81.7383 13.9922 82.0312 14.0312C82.2786 13.9792 82.4023 13.8327 82.4023 13.5918C82.3372 13.3639 82.2461 13.25 82.1289 13.25V13.377C82.1289 13.403 82.0964 13.4355 82.0312 13.4746H81.9629C81.9368 13.4746 81.9043 13.4421 81.8652 13.377V13.25H81.8359ZM82.1191 12.7031C82.2233 12.6901 82.4512 12.6836 82.8027 12.6836H82.8223C83.1087 12.6836 83.252 13.1198 83.252 13.9922C83.4863 17.2214 83.7077 18.8359 83.916 18.8359C84.1634 19.2591 84.5052 19.4707 84.9414 19.4707H85.2441C85.765 19.4707 86.2207 19.2266 86.6113 18.7383C86.7806 18.4714 86.8652 18.084 86.8652 17.5762V17.4785C86.8652 16.9512 86.7546 15.3789 86.5332 12.7617C86.5332 12.4557 86.7708 12.3027 87.2461 12.3027C87.3307 12.2897 87.4186 12.2799 87.5098 12.2734V12.2441C87.4316 12.153 87.3926 12.0749 87.3926 12.0098V11.9609C87.3926 11.8893 87.4316 11.8047 87.5098 11.707V0.496094C87.5098 0.470052 87.5456 0.4375 87.6172 0.398438H87.6953C87.7214 0.398438 87.7539 0.43099 87.793 0.496094V10.9746H87.8125C87.8125 10.877 87.9232 10.737 88.1445 10.5547C88.1901 10.3529 88.291 10.252 88.4473 10.252H88.4766C88.6393 10.252 88.7402 10.3594 88.7793 10.5742C88.7207 10.763 88.6263 10.8574 88.4961 10.8574H88.418C88.3594 10.8574 88.2943 10.8216 88.2227 10.75C87.9688 11.0299 87.8418 11.3262 87.8418 11.6387V11.6875C87.946 11.7852 87.998 11.8698 87.998 11.9414V12.0098C87.998 12.0749 87.9557 12.153 87.8711 12.2441C88.0599 12.2246 88.2617 12.2116 88.4766 12.2051C88.7826 12.2051 88.9355 12.5501 88.9355 13.2402C88.9355 13.3379 89.1276 15.7077 89.5117 20.3496C89.5117 20.6686 89.2188 20.8281 88.6328 20.8281C88.2357 20.8672 87.9134 20.8867 87.666 20.8867H87.6465C87.4316 20.8867 87.2982 20.6849 87.2461 20.2812C87.1875 20.1966 87.1191 20.1543 87.041 20.1543C86.9694 20.1543 86.7741 20.3203 86.4551 20.6523C85.8757 21.0755 85.4232 21.2871 85.0977 21.2871C84.9154 21.3522 84.7233 21.3848 84.5215 21.3848V21.4043L84.1602 21.4141C82.8841 21.4141 82.028 20.877 81.5918 19.8027C81.39 19.5293 81.2207 18.2663 81.084 16.0137C80.9342 14.4707 80.8594 13.5039 80.8594 13.1133C80.8594 12.8789 81.1914 12.752 81.8555 12.7324V12.7227C81.7448 12.7227 81.6699 12.6413 81.6309 12.4785V12.4297C81.6699 12.2539 81.7448 12.166 81.8555 12.166V0.496094C81.8555 0.470052 81.888 0.4375 81.9531 0.398438H82.0215C82.0475 0.398438 82.0801 0.43099 82.1191 0.496094V11.2871C82.2428 11.196 82.3568 11.0495 82.4609 10.8477C82.526 10.7956 82.5846 10.7695 82.6367 10.7695H82.6855C82.8613 10.7956 82.9492 10.8867 82.9492 11.043V11.1602C82.8841 11.2904 82.8027 11.3555 82.7051 11.3555H82.6367C82.5781 11.3555 82.5033 11.3229 82.4121 11.2578C82.2168 11.5117 82.1191 11.7168 82.1191 11.873V12.2148C82.1842 12.2799 82.2168 12.3451 82.2168 12.4102V12.4785C82.2168 12.5371 82.1842 12.6022 82.1191 12.6738V12.7031ZM105.693 0.359375H105.771C105.798 0.359375 105.83 0.391927 105.869 0.457031V11.3652H105.889C105.889 11.3197 105.97 11.2285 106.133 11.0918C106.152 10.916 106.243 10.8281 106.406 10.8281H106.426C106.589 10.8281 106.686 10.9323 106.719 11.1406C106.667 11.3229 106.579 11.4141 106.455 11.4141H106.377C106.318 11.4141 106.253 11.3815 106.182 11.3164C105.98 11.5378 105.876 11.7396 105.869 11.9219V12.2637C105.934 12.3548 105.967 12.4297 105.967 12.4883V12.6055L105.869 12.752V12.8301L106.279 13.0449C107.223 13.5007 107.695 14.5749 107.695 16.2676C107.708 16.3132 107.829 17.7357 108.057 20.5352C108.057 20.8802 107.861 21.0527 107.471 21.0527C106.937 21.0983 106.523 21.1211 106.23 21.1211H106.162C105.902 21.1211 105.771 20.8444 105.771 20.291C105.518 16.9772 105.329 15.3203 105.205 15.3203C105.114 15.0599 104.945 14.8548 104.697 14.7051C104.554 14.6074 104.261 14.5586 103.818 14.5586C103.577 14.5846 103.301 14.6986 102.988 14.9004C102.676 15.265 102.52 15.6393 102.52 16.0234V16.5605C102.52 16.9577 102.633 18.4714 102.861 21.1016C102.861 21.3229 102.643 21.4531 102.207 21.4922C101.615 21.5378 101.198 21.5605 100.957 21.5605C100.703 21.5605 100.576 21.3099 100.576 20.8086C100.342 17.8789 100.169 16.196 100.059 15.7598C99.8112 15.252 99.4368 14.998 98.9355 14.998H98.7207C98.3952 14.998 98.0599 15.1608 97.7148 15.4863C97.4414 15.7858 97.3047 16.1667 97.3047 16.6289V16.873C97.3047 17.0944 97.4186 18.6504 97.6465 21.541C97.6465 21.8145 97.2624 21.9512 96.4941 21.9512C96.2207 21.9837 95.9701 22 95.7422 22C95.4948 22 95.3711 21.7721 95.3711 21.3164C95.3385 21.0951 95.1367 18.696 94.7656 14.1191C94.7656 13.8132 95.0586 13.6602 95.6445 13.6602V13.6309C95.5339 13.6309 95.459 13.5495 95.4199 13.3867V13.3379C95.459 13.1621 95.5339 13.0742 95.6445 13.0742V0.525391C95.6445 0.499349 95.6771 0.466797 95.7422 0.427734H95.8105C95.8366 0.427734 95.8691 0.460286 95.9082 0.525391V12.1953C96.0319 12.1042 96.1458 11.9577 96.25 11.7559C96.3151 11.7038 96.3737 11.6777 96.4258 11.6777H96.4746C96.6504 11.7038 96.7383 11.7949 96.7383 11.9512V12.0684C96.6732 12.1986 96.5918 12.2637 96.4941 12.2637H96.4258C96.3672 12.2637 96.2923 12.2311 96.2012 12.166C96.0059 12.4199 95.9082 12.625 95.9082 12.7812V13.123C95.9733 13.1882 96.0059 13.2533 96.0059 13.3184V13.3867C96.0059 13.4453 95.9733 13.5104 95.9082 13.582V13.6309C96.1556 13.6178 96.3346 13.6113 96.4453 13.6113C96.7383 13.6113 96.8848 13.7318 96.8848 13.9727C96.9564 14.181 97.015 14.2884 97.0605 14.2949H97.1094C97.2331 14.2949 97.3958 14.1712 97.5977 13.9238C98.2161 13.39 98.9225 13.123 99.7168 13.123H99.8145C100.622 13.123 101.279 13.416 101.787 14.002C101.885 14.0475 101.943 14.0703 101.963 14.0703C102.067 14.0703 102.311 13.8587 102.695 13.4355C103.294 12.9473 103.929 12.7031 104.6 12.7031H104.619C105.049 12.7031 105.342 12.7292 105.498 12.7812H105.527V12.752C105.449 12.752 105.4 12.6803 105.381 12.5371V12.4883C105.381 12.4036 105.452 12.306 105.596 12.1953V0.457031C105.596 0.43099 105.628 0.398438 105.693 0.359375ZM105.332 13.8555C105.378 14.1159 105.524 14.2461 105.771 14.2461C105.954 14.2461 106.074 14.1159 106.133 13.8555C106.133 13.7057 106.061 13.582 105.918 13.4844H105.869C105.869 13.6146 105.837 13.6797 105.771 13.6797H105.693C105.654 13.6797 105.615 13.6146 105.576 13.4844C105.413 13.5755 105.332 13.6992 105.332 13.8555ZM95.3711 14.6855C95.3711 14.9199 95.5176 15.0566 95.8105 15.0957C96.0579 15.0436 96.1816 14.8971 96.1816 14.6562C96.1165 14.4284 96.0254 14.3145 95.9082 14.3145V14.4414C95.9082 14.4674 95.8757 14.5 95.8105 14.5391H95.7422C95.7161 14.5391 95.6836 14.5065 95.6445 14.4414V14.3145H95.6152C95.4525 14.4056 95.3711 14.5293 95.3711 14.6855ZM112.842 0.359375H112.92C112.946 0.359375 112.982 0.395182 113.027 0.466797V11.7754H113.057C113.057 11.6712 113.171 11.5182 113.398 11.3164C113.451 11.1081 113.558 11.0039 113.721 11.0039H113.75C113.926 11.0039 114.03 11.1178 114.062 11.3457C114.01 11.541 113.913 11.6387 113.77 11.6387H113.691C113.626 11.6387 113.555 11.6029 113.477 11.5312C113.216 11.8242 113.086 12.1367 113.086 12.4688V12.5176C113.19 12.6283 113.242 12.7161 113.242 12.7812V12.8594C113.242 12.9831 113.171 13.0742 113.027 13.1328V13.3965C114.18 13.3965 115.182 13.7773 116.035 14.5391C116.654 15.1966 117.061 15.8704 117.256 16.5605C117.419 17.1139 117.5 17.5664 117.5 17.918C117.52 18.2435 117.529 18.4583 117.529 18.5625C117.529 20.112 116.836 21.3359 115.449 22.2344C114.72 22.625 114.196 22.8203 113.877 22.8203C113.727 22.8854 113.372 22.9375 112.812 22.9766C110.742 22.9766 109.307 22.0456 108.506 20.1836C108.239 19.4674 108.105 18.7057 108.105 17.8984V17.7324C108.105 16.9186 108.379 16.0951 108.926 15.2617C109.557 14.513 109.977 14.1387 110.186 14.1387C111.019 13.6439 111.868 13.3965 112.734 13.3965V13.1035C112.65 13.0124 112.607 12.931 112.607 12.8594V12.8105C112.607 12.7324 112.65 12.6445 112.734 12.5469V0.466797C112.734 0.440755 112.77 0.404948 112.842 0.359375ZM112.441 14.2754C112.441 14.5293 112.601 14.679 112.92 14.7246C113.187 14.6725 113.32 14.513 113.32 14.2461C113.255 13.9987 113.158 13.875 113.027 13.875V14.0117C113.027 14.0378 112.992 14.0736 112.92 14.1191H112.842C112.816 14.1191 112.78 14.0833 112.734 14.0117V13.875H112.705C112.529 13.9727 112.441 14.1061 112.441 14.2754ZM110.576 17.8105C110.576 19.0215 110.924 19.972 111.621 20.6621C112.025 20.9486 112.396 21.0918 112.734 21.0918H113.057C113.59 21.0918 114.095 20.8314 114.57 20.3105C114.889 19.8939 115.049 19.3275 115.049 18.6113C115.049 17.0293 114.554 15.9648 113.564 15.418C113.343 15.3464 113.066 15.2943 112.734 15.2617C112.279 15.2617 111.81 15.431 111.328 15.7695C110.827 16.2188 110.576 16.8991 110.576 17.8105ZM121.211 12.6152C121.263 12.8887 121.416 13.0254 121.67 13.0254C121.872 13.0254 122.002 12.8887 122.061 12.6152C122.061 12.459 121.982 12.3288 121.826 12.2246C121.826 12.3483 121.794 12.4102 121.729 12.4102H121.65C121.605 12.4102 121.562 12.3418 121.523 12.2051C121.315 12.2962 121.211 12.4329 121.211 12.6152ZM121.953 15.3984C121.934 15.5417 121.989 15.6491 122.119 15.7207C123.037 16.0723 123.633 16.2741 123.906 16.3262C124.329 16.3978 124.691 16.3099 124.99 16.0625C125.133 15.8542 125.215 15.6556 125.234 15.4668C125.293 14.9329 124.814 14.5065 123.799 14.1875L122.842 13.8555C122.607 13.8294 122.428 13.9987 122.305 14.3633C122.09 14.8711 121.973 15.2161 121.953 15.3984ZM120.41 19.207C120.371 19.4089 120.765 19.6237 121.592 19.8516C121.833 19.9622 122.106 20.0469 122.412 20.1055L122.695 20.1445C123.333 20.2682 123.792 20.0859 124.072 19.5977C124.118 19.4935 124.147 19.4089 124.16 19.3438L124.18 19.1973C124.264 18.696 124.004 18.2956 123.398 17.9961C123.229 17.8984 122.627 17.6673 121.592 17.3027H121.543L121.465 17.2734C121.25 17.2344 121.087 17.3711 120.977 17.6836C120.612 18.6016 120.423 19.1094 120.41 19.207ZM121.807 11.7266L121.992 11.7949C124.167 12.5762 125.531 13.097 126.084 13.3574C126.39 13.5267 126.738 13.7839 127.129 14.1289C127.454 14.5326 127.62 14.8906 127.627 15.2031C127.653 15.457 127.66 15.61 127.646 15.6621C127.484 16.7298 126.908 17.3581 125.918 17.5469C125.827 17.599 125.771 17.6543 125.752 17.7129C125.739 17.804 125.872 17.9831 126.152 18.25C126.543 18.7839 126.696 19.334 126.611 19.9004L126.602 19.9883C126.452 20.9193 125.931 21.5736 125.039 21.9512C124.375 22.14 123.743 22.1758 123.145 22.0586L122.822 22C122.523 21.9414 122.324 21.8796 122.227 21.8145C122.194 21.8275 122.171 21.834 122.158 21.834C119.548 20.8639 118.112 20.3268 117.852 20.2227C117.721 20.1315 117.666 20.0241 117.686 19.9004V19.8906C117.699 19.819 118.724 17.0586 120.762 11.6094C120.866 11.5117 120.986 11.4759 121.123 11.502C121.175 11.5085 121.243 11.5247 121.328 11.5508L121.309 11.4629V11.4336C121.348 11.2643 121.41 11.1797 121.494 11.1797C121.494 10.8151 121.357 10.4896 121.084 10.2031C121.051 10.2682 120.99 10.3008 120.898 10.3008H120.742C120.605 10.2292 120.537 10.1348 120.537 10.0176V9.96875C120.537 9.82552 120.632 9.73112 120.82 9.68555H120.879C121.035 9.68555 121.136 9.79622 121.182 10.0176C121.279 10.0176 121.393 10.1641 121.523 10.457H121.543V0.710938C121.543 0.684896 121.579 0.649089 121.65 0.603516H121.729C121.755 0.603516 121.787 0.639323 121.826 0.710938V11.209C121.898 11.2806 121.934 11.349 121.934 11.4141V11.4922C121.934 11.5508 121.891 11.6224 121.807 11.707V11.7266ZM133.789 0.359375H133.857C133.883 0.359375 133.919 0.391927 133.965 0.457031V12.2441C134.03 12.3158 134.062 12.3841 134.062 12.4492V12.5273C134.062 12.5859 134.03 12.651 133.965 12.7227V12.752C134.473 12.8952 134.886 13.2402 135.205 13.7871C135.387 14.3665 135.768 16.1667 136.348 19.1875C136.615 19.9753 136.748 20.3984 136.748 20.457C136.748 20.6523 136.318 20.8021 135.459 20.9062C135.296 20.9779 135.094 21.0137 134.854 21.0137C134.723 21.0137 134.528 20.8867 134.268 20.6328H134.092C133.135 21.5443 131.992 22 130.664 22H130.518C129.958 22 129.417 21.7721 128.896 21.3164C128.408 20.6979 128.164 20.0827 128.164 19.4707C128.164 18.1686 129.059 17.2637 130.85 16.7559C131.507 16.5345 132.09 16.3132 132.598 16.0918C132.949 15.8444 133.125 15.61 133.125 15.3887C133.125 14.8548 132.897 14.4902 132.441 14.2949C132.292 14.2624 132.181 14.2461 132.109 14.2461H131.885C131.357 14.2461 130.885 14.4056 130.469 14.7246C130.26 14.8874 130.107 15.2357 130.01 15.7695C130.01 15.9128 129.359 16.082 128.057 16.2773C127.887 16.2773 127.786 16.1569 127.754 15.916C127.754 14.7051 128.405 13.8034 129.707 13.2109C130.742 12.7682 131.764 12.5469 132.773 12.5469C132.884 12.5469 133.118 12.5632 133.477 12.5957L133.457 12.5469V12.4688C133.49 12.2995 133.548 12.2148 133.633 12.2148C133.633 11.8698 133.496 11.5508 133.223 11.2578C133.158 11.3229 133.092 11.3555 133.027 11.3555H132.949C132.819 11.3555 132.725 11.2643 132.666 11.082C132.705 10.8607 132.809 10.75 132.979 10.75H132.998C133.141 10.75 133.258 10.8672 133.35 11.1016C133.499 11.1992 133.604 11.3359 133.662 11.5117H133.682V0.457031C133.682 0.43099 133.717 0.398438 133.789 0.359375ZM133.408 13.8652C133.408 14.1126 133.558 14.2559 133.857 14.2949C134.111 14.2428 134.238 14.0931 134.238 13.8457C134.173 13.6048 134.082 13.4844 133.965 13.4844V13.6113C133.965 13.6374 133.929 13.6732 133.857 13.7188H133.789C133.757 13.7188 133.721 13.6829 133.682 13.6113V13.4844H133.662C133.493 13.582 133.408 13.709 133.408 13.8652ZM130.518 19.0117V19.1582C130.596 19.8678 130.898 20.2227 131.426 20.2227C131.426 20.2422 131.504 20.252 131.66 20.252H131.914C132.415 20.252 132.913 20.0241 133.408 19.5684C133.623 19.1973 133.73 18.8587 133.73 18.5527C133.73 18.0059 133.646 17.5924 133.477 17.3125C133.411 17.2799 133.353 17.2637 133.301 17.2637C132.207 17.6478 131.449 17.9603 131.025 18.2012C130.687 18.5137 130.518 18.7839 130.518 19.0117ZM142.48 0.378906H142.559C142.585 0.378906 142.617 0.411458 142.656 0.476562V11.1602H142.686C142.686 11.0625 142.796 10.916 143.018 10.7207C143.07 10.5189 143.174 10.418 143.33 10.418H143.35C143.525 10.418 143.63 10.5286 143.662 10.75C143.61 10.9388 143.516 11.0332 143.379 11.0332H143.301C143.242 11.0332 143.174 10.9974 143.096 10.9258C142.842 11.2122 142.715 11.5117 142.715 11.8242V11.873C142.812 11.9772 142.861 12.0651 142.861 12.1367V12.2148C142.861 12.3255 142.793 12.4102 142.656 12.4688V12.6738C143.125 12.6738 143.743 12.9473 144.512 13.4941C145.104 14.0866 145.514 14.6855 145.742 15.291C146.029 16.1764 146.172 16.9023 146.172 17.4688C146.159 17.5794 146.152 17.6999 146.152 17.8301C146.152 17.8691 146.159 17.9049 146.172 17.9375C146.172 18.5495 145.967 19.2754 145.557 20.1152C144.827 21.2611 143.75 21.834 142.324 21.834C141.738 21.834 141.107 21.6289 140.43 21.2188C140.397 21.1992 140.355 21.1895 140.303 21.1895C140.218 21.2871 140.176 21.349 140.176 21.375C140.176 21.388 140.182 21.3945 140.195 21.3945L140.176 21.5801V21.5996L140.82 25.3203C140.82 25.6393 140.472 25.7988 139.775 25.7988C139.385 25.8704 139.092 25.9062 138.896 25.9062H138.877C138.623 25.9062 138.477 25.7272 138.438 25.3691L136.758 13.9043C136.758 13.6309 137.041 13.4779 137.607 13.4453C137.686 13.4453 138.027 13.403 138.633 13.3184C138.828 13.3184 138.991 13.5137 139.121 13.9043L139.248 13.9336C139.352 13.9336 139.531 13.7871 139.785 13.4941C140.397 12.9993 140.944 12.752 141.426 12.752C141.426 12.6999 141.673 12.6641 142.168 12.6445H142.383V12.4395C142.292 12.3548 142.246 12.2799 142.246 12.2148V12.1562C142.246 12.0846 142.292 12 142.383 11.9023V0.476562C142.383 0.450521 142.415 0.417969 142.48 0.378906ZM142.1 13.5723C142.1 13.8197 142.253 13.9661 142.559 14.0117C142.812 13.9531 142.939 13.7969 142.939 13.543C142.874 13.3086 142.78 13.1914 142.656 13.1914V13.3184C142.656 13.3444 142.624 13.377 142.559 13.416H142.48C142.454 13.416 142.422 13.3835 142.383 13.3184V13.1914H142.354C142.184 13.2826 142.1 13.4095 142.1 13.5723ZM139.531 17.0586C139.531 18.1849 139.863 19.0768 140.527 19.7344C140.957 20.0078 141.299 20.1445 141.553 20.1445C142.555 20.1445 143.216 19.7669 143.535 19.0117C143.685 18.7122 143.76 18.2923 143.76 17.752C143.727 16.2155 143.268 15.2064 142.383 14.7246C142.116 14.6074 141.839 14.5488 141.553 14.5488C140.537 14.5488 139.896 15.0534 139.629 16.0625C139.564 16.3164 139.531 16.6484 139.531 17.0586ZM151.143 0.359375H151.221C151.247 0.359375 151.283 0.395182 151.328 0.466797V11.7754H151.357C151.357 11.6712 151.471 11.5182 151.699 11.3164C151.751 11.1081 151.859 11.0039 152.021 11.0039H152.051C152.227 11.0039 152.331 11.1178 152.363 11.3457C152.311 11.541 152.214 11.6387 152.07 11.6387H151.992C151.927 11.6387 151.855 11.6029 151.777 11.5312C151.517 11.8242 151.387 12.1367 151.387 12.4688V12.5176C151.491 12.6283 151.543 12.7161 151.543 12.7812V12.8594C151.543 12.9831 151.471 13.0742 151.328 13.1328V13.3965C152.48 13.3965 153.483 13.7773 154.336 14.5391C154.954 15.1966 155.361 15.8704 155.557 16.5605C155.719 17.1139 155.801 17.5664 155.801 17.918C155.82 18.2435 155.83 18.4583 155.83 18.5625C155.83 20.112 155.137 21.3359 153.75 22.2344C153.021 22.625 152.497 22.8203 152.178 22.8203C152.028 22.8854 151.673 22.9375 151.113 22.9766C149.043 22.9766 147.607 22.0456 146.807 20.1836C146.54 19.4674 146.406 18.7057 146.406 17.8984V17.7324C146.406 16.9186 146.68 16.0951 147.227 15.2617C147.858 14.513 148.278 14.1387 148.486 14.1387C149.32 13.6439 150.169 13.3965 151.035 13.3965V13.1035C150.951 13.0124 150.908 12.931 150.908 12.8594V12.8105C150.908 12.7324 150.951 12.6445 151.035 12.5469V0.466797C151.035 0.440755 151.071 0.404948 151.143 0.359375ZM150.742 14.2754C150.742 14.5293 150.902 14.679 151.221 14.7246C151.488 14.6725 151.621 14.513 151.621 14.2461C151.556 13.9987 151.458 13.875 151.328 13.875V14.0117C151.328 14.0378 151.292 14.0736 151.221 14.1191H151.143C151.117 14.1191 151.081 14.0833 151.035 14.0117V13.875H151.006C150.83 13.9727 150.742 14.1061 150.742 14.2754ZM148.877 17.8105C148.877 19.0215 149.225 19.972 149.922 20.6621C150.326 20.9486 150.697 21.0918 151.035 21.0918H151.357C151.891 21.0918 152.396 20.8314 152.871 20.3105C153.19 19.8939 153.35 19.3275 153.35 18.6113C153.35 17.0293 152.855 15.9648 151.865 15.418C151.644 15.3464 151.367 15.2943 151.035 15.2617C150.579 15.2617 150.111 15.431 149.629 15.7695C149.128 16.2188 148.877 16.8991 148.877 17.8105ZM159.512 12.6152C159.564 12.8887 159.717 13.0254 159.971 13.0254C160.173 13.0254 160.303 12.8887 160.361 12.6152C160.361 12.459 160.283 12.3288 160.127 12.2246C160.127 12.3483 160.094 12.4102 160.029 12.4102H159.951C159.906 12.4102 159.863 12.3418 159.824 12.2051C159.616 12.2962 159.512 12.4329 159.512 12.6152ZM160.254 15.3984C160.234 15.5417 160.29 15.6491 160.42 15.7207C161.338 16.0723 161.934 16.2741 162.207 16.3262C162.63 16.3978 162.992 16.3099 163.291 16.0625C163.434 15.8542 163.516 15.6556 163.535 15.4668C163.594 14.9329 163.115 14.5065 162.1 14.1875L161.143 13.8555C160.908 13.8294 160.729 13.9987 160.605 14.3633C160.391 14.8711 160.273 15.2161 160.254 15.3984ZM158.711 19.207C158.672 19.4089 159.066 19.6237 159.893 19.8516C160.133 19.9622 160.407 20.0469 160.713 20.1055L160.996 20.1445C161.634 20.2682 162.093 20.0859 162.373 19.5977C162.419 19.4935 162.448 19.4089 162.461 19.3438L162.48 19.1973C162.565 18.696 162.305 18.2956 161.699 17.9961C161.53 17.8984 160.928 17.6673 159.893 17.3027H159.844L159.766 17.2734C159.551 17.2344 159.388 17.3711 159.277 17.6836C158.913 18.6016 158.724 19.1094 158.711 19.207ZM160.107 11.7266L160.293 11.7949C162.467 12.5762 163.831 13.097 164.385 13.3574C164.691 13.5267 165.039 13.7839 165.43 14.1289C165.755 14.5326 165.921 14.8906 165.928 15.2031C165.954 15.457 165.96 15.61 165.947 15.6621C165.785 16.7298 165.208 17.3581 164.219 17.5469C164.128 17.599 164.072 17.6543 164.053 17.7129C164.04 17.804 164.173 17.9831 164.453 18.25C164.844 18.7839 164.997 19.334 164.912 19.9004L164.902 19.9883C164.753 20.9193 164.232 21.5736 163.34 21.9512C162.676 22.14 162.044 22.1758 161.445 22.0586L161.123 22C160.824 21.9414 160.625 21.8796 160.527 21.8145C160.495 21.8275 160.472 21.834 160.459 21.834C157.848 20.8639 156.413 20.3268 156.152 20.2227C156.022 20.1315 155.967 20.0241 155.986 19.9004V19.8906C155.999 19.819 157.025 17.0586 159.062 11.6094C159.167 11.5117 159.287 11.4759 159.424 11.502C159.476 11.5085 159.544 11.5247 159.629 11.5508L159.609 11.4629V11.4336C159.648 11.2643 159.71 11.1797 159.795 11.1797C159.795 10.8151 159.658 10.4896 159.385 10.2031C159.352 10.2682 159.29 10.3008 159.199 10.3008H159.043C158.906 10.2292 158.838 10.1348 158.838 10.0176V9.96875C158.838 9.82552 158.932 9.73112 159.121 9.68555H159.18C159.336 9.68555 159.437 9.79622 159.482 10.0176C159.58 10.0176 159.694 10.1641 159.824 10.457H159.844V0.710938C159.844 0.684896 159.88 0.649089 159.951 0.603516H160.029C160.055 0.603516 160.088 0.639323 160.127 0.710938V11.209C160.199 11.2806 160.234 11.349 160.234 11.4141V11.4922C160.234 11.5508 160.192 11.6224 160.107 11.707V11.7266Z" fill="black"/>
</svg>
