<svg width="20" height="18" viewBox="0 0 20 18" fill="none" xmlns="http://www.w3.org/2000/svg">
<path d="M4.9028 0.133222C4.45548 0.332227 4.53003 2.42179 5.12646 5.03374L5.35012 6.10339H10.1216H14.893L15.1167 4.6606C15.8249 0.531233 15.8249 0.207849 15.1167 0.0834699C13.9984 -0.115536 13.4765 0.133222 13.4765 0.77999C13.4765 1.62576 12.8428 2.37204 12.0972 2.37204C11.7617 2.37204 11.1653 2.54617 10.7925 2.79492C10.1588 3.16806 10.0843 3.16806 9.45057 2.79492C9.07781 2.54617 8.48138 2.37204 8.14589 2.37204C7.40035 2.37204 6.76664 1.62576 6.76664 0.804866C6.76664 0.158097 5.72289 -0.215039 4.9028 0.133222Z" fill="url(#paint0_linear_411_54)"/>
<path d="M4.00823 8.41684C1.99528 10.1581 0.20599 13.7402 0.0196062 16.3771C-0.0549476 17.0238 0.0941599 17.6706 0.280544 17.795C0.541482 17.9691 4.23189 18.0189 10.3453 17.994L20 17.9194L19.9627 16.1532C19.9627 14.0139 18.4717 10.7303 16.7196 8.93923L15.5268 7.72032L10.2335 7.6457L4.94015 7.57107L4.00823 8.41684Z" fill="url(#paint1_linear_411_54)"/>
<defs>
<linearGradient id="paint0_linear_411_54" x1="10.1315" y1="6.10339" x2="10.1315" y2="-6.67572e-06" gradientUnits="userSpaceOnUse">
<stop offset="0.704286" stop-color="#A94FDF"/>
<stop offset="0.876164" stop-color="#A94FDF" stop-opacity="0.498244"/>
<stop offset="1" stop-color="#A94FDF" stop-opacity="0"/>
</linearGradient>
<linearGradient id="paint1_linear_411_54" x1="10" y1="18" x2="10" y2="7.57107" gradientUnits="userSpaceOnUse">
<stop offset="0.704286" stop-color="#A94FDF"/>
<stop offset="0.876164" stop-color="#A94FDF" stop-opacity="0.498244"/>
<stop offset="1" stop-color="#A94FDF" stop-opacity="0"/>
</linearGradient>
</defs>
</svg>
