<svg width="20" height="18" viewBox="0 0 20 18" fill="none" xmlns="http://www.w3.org/2000/svg">
<path d="M8.75154 1.48485C7.19407 2.82122 6.8974 2.96971 5.88381 2.96971C5.26576 2.96971 4.54883 3.14294 4.27689 3.34092C4.02967 3.5389 3.51051 3.71213 3.1644 3.71213C2.24969 3.71213 1.33498 4.5288 0.618047 5.93942C0.0988875 7.00356 0 7.47376 0 9.80003V12.4233L1.5822 14.0071C3.01607 15.4425 3.26329 15.591 4.15328 15.591H5.16687V16.6799C5.16687 17.7935 5.5377 18.1895 6.27936 17.9172C6.5513 17.7935 6.65019 17.3728 6.65019 16.3086C6.65019 14.8485 6.65019 14.8485 7.39184 14.8485H8.1335V16.3334V17.8182H13.0284C16.5142 17.8182 17.9975 17.744 18.22 17.5213C18.4178 17.3233 18.5167 15.8879 18.5167 12.6955V8.1667H19.2583C19.9011 8.1667 20 8.06771 20 7.52326C20 7.1273 19.7281 6.65709 19.2583 6.26113C18.5661 5.69194 18.5167 5.54345 18.5167 3.93486V2.22728H17.4289C16.3906 2.22728 16.3164 2.27678 16.2423 2.99446L16.1681 3.73688L13.8937 1.88082C12.4845 0.692932 11.3968 0 11.0507 0C10.7293 0.0247478 9.74042 0.643436 8.75154 1.48485ZM7.09518 5.44446C7.39184 5.96416 7.71323 6.18689 8.15822 6.18689C8.99876 6.18689 9.36959 6.6076 9.36959 7.57275C9.36959 7.99346 9.54265 8.48841 9.74042 8.66165C9.9382 8.83488 10.1112 9.30508 10.1112 9.70105C10.1112 10.2455 9.9382 10.5177 9.36959 10.8394C8.85043 11.1364 8.62794 11.4581 8.62794 11.8788C8.62794 12.25 8.50433 12.646 8.33127 12.8192C7.96045 13.1905 7.02101 13.2152 6.40297 12.8687C6.05686 12.6708 5.88381 12.7697 5.5377 13.2647C5.01854 14.0814 3.70828 14.0319 3.28801 13.141C3.11496 12.8192 2.74413 12.448 2.42274 12.2748C1.68109 11.9036 1.50803 10.7652 2.10136 10.1218C2.49691 9.6763 2.49691 9.6268 2.12608 9.20609C1.60692 8.6369 1.5822 7.5975 2.07664 7.17679C2.27441 7.00356 2.44747 6.68184 2.44747 6.45911C2.44747 5.81568 2.96663 5.44446 3.83189 5.44446C4.25216 5.44446 4.7466 5.27123 4.91965 5.07325C5.09271 4.87527 5.56242 4.70204 5.95797 4.70204C6.50185 4.70204 6.7738 4.87527 7.09518 5.44446ZM16.2917 12.6213V14.1061H14.8084H13.3251V12.6213V11.1364H14.8084H16.2917V12.6213Z" fill="url(#paint0_linear_411_55)"/>
<defs>
<linearGradient id="paint0_linear_411_55" x1="18" y1="18" x2="10" y2="6.94725e-07" gradientUnits="userSpaceOnUse">
<stop offset="0.417822" stop-color="#EF77A5"/>
<stop offset="1" stop-color="#CA84F3" stop-opacity="0.66"/>
</linearGradient>
</defs>
</svg>
