<svg width="15" height="19" viewBox="0 0 15 19" fill="none" xmlns="http://www.w3.org/2000/svg">
<path d="M3.63909 1.57484C2.51585 2.43159 1.95424 3.31088 1.46001 5.02436C1.12304 6.2193 1.12304 6.37712 1.43755 6.73785C1.90931 7.25641 1.88684 7.39168 1.30276 7.48187C0.875929 7.52696 0.763605 7.70733 0.718676 8.3837C0.651282 9.19536 0.673746 9.2179 1.57234 9.46591C2.98761 9.84919 3.63909 9.69137 3.84127 8.94735C3.97606 8.49643 3.93113 8.27097 3.68402 8.18079C3.21226 8.00042 3.30212 7.43678 3.81881 7.43678C4.42535 7.43678 5.05437 5.36255 4.65 4.73127C4.44782 4.39308 4.47028 3.91962 4.73986 2.58941C5.12176 0.65046 5.0319 0.560276 3.63909 1.57484Z" fill="url(#paint0_linear_411_61)"/>
<path d="M5.88566 6.44476C5.72841 7.03095 5.68348 7.57206 5.77334 7.66224C6.04291 7.91024 11.9961 9.46591 12.6475 9.46591C13.2541 9.46591 13.4787 9.10518 13.4787 8.11316C13.4787 7.36914 13.5686 7.41423 9.32276 6.28694C7.86256 5.90366 6.53714 5.54293 6.40235 5.49783C6.26756 5.4302 6.04291 5.88111 5.88566 6.44476Z" fill="url(#paint1_linear_411_61)"/>
<path d="M3.36963 14.5387V16.2297H4.60519C5.50378 16.2297 5.84075 16.3199 5.84075 16.5453C5.84075 16.9511 5.41392 17.2893 4.67258 17.4697C4.02111 17.6275 3.75153 18.0559 3.95371 18.597C4.06604 18.845 4.44794 18.9352 5.50378 18.9352C6.29004 18.9352 7.00891 18.8225 7.07631 18.7097C7.1437 18.5744 7.45821 18.4843 7.75025 18.4843C8.04229 18.4843 8.3568 18.5744 8.42419 18.7097C8.49158 18.8225 9.21045 18.9352 9.99672 18.9352C11.0526 18.9352 11.4345 18.845 11.5468 18.597C11.749 18.0559 11.4794 17.6275 10.8279 17.4697C9.30031 17.0864 9.27785 16.3199 10.7605 16.1846C12.7374 15.9817 14.8266 14.6064 14.8266 13.4791V12.8478H9.09813H3.36963V14.5387Z" fill="url(#paint2_linear_411_61)"/>
<path d="M0 14.1554C0 14.6064 0.179718 14.8769 0.651477 15.17C1.75225 15.8238 2.02182 15.6886 2.02182 14.5387V13.5242H1.01091C0.0449294 13.5242 0 13.5692 0 14.1554Z" fill="url(#paint3_linear_411_61)"/>
<defs>
<linearGradient id="paint0_linear_411_61" x1="2.81483" y1="9.66756" x2="2.81483" y2="0.935186" gradientUnits="userSpaceOnUse">
<stop offset="0.532408" stop-color="#AF9305"/>
<stop offset="1" stop-color="#605417" stop-opacity="0.14"/>
</linearGradient>
<linearGradient id="paint1_linear_411_61" x1="9.60321" y1="9.46591" x2="9.60321" y2="5.4911" gradientUnits="userSpaceOnUse">
<stop offset="0.532408" stop-color="#AF9305"/>
<stop offset="1" stop-color="#605417" stop-opacity="0.14"/>
</linearGradient>
<linearGradient id="paint2_linear_411_61" x1="9.09813" y1="18.9352" x2="9.09813" y2="12.8478" gradientUnits="userSpaceOnUse">
<stop offset="0.532408" stop-color="#AF9305"/>
<stop offset="1" stop-color="#605417" stop-opacity="0.14"/>
</linearGradient>
<linearGradient id="paint3_linear_411_61" x1="1.01091" y1="15.5616" x2="1.01091" y2="13.5242" gradientUnits="userSpaceOnUse">
<stop offset="0.532408" stop-color="#AF9305"/>
<stop offset="1" stop-color="#605417" stop-opacity="0.14"/>
</linearGradient>
</defs>
</svg>
