<svg width="17" height="18" viewBox="0 0 17 18" fill="none" xmlns="http://www.w3.org/2000/svg">
<path d="M0.294231 0.276922C-0.0980769 0.66923 -0.0980769 17.3308 0.294231 17.7231C0.501923 17.9308 2.30192 18 6.96346 18C12.5019 18 13.3788 17.9538 13.6558 17.6308C13.9788 17.2385 14.2558 13.4308 14.0019 12.7846C13.8865 12.4615 13.5404 12.6923 12.2712 13.9385C11.325 14.8385 10.4712 15.4615 10.1942 15.4615C9.91731 15.4615 9.34038 15.6 8.925 15.7846C8.23269 16.0615 8.07115 16.0615 7.65577 15.7846C7.07885 15.3692 7.03269 14.8154 7.51731 14.1692C7.70192 13.9385 7.86346 13.4308 7.86346 13.0615C7.86346 12.5077 8.41731 11.8154 11.0019 9.25385C14.8558 5.4 14.8327 5.7 11.4865 2.35385L9.13269 0H4.86346C1.84038 0 0.478846 0.092308 0.294231 0.276922ZM10.9327 5.49231C8.60192 5.60769 8.55577 5.58461 8.55577 3.53077V1.73077L10.4019 3.57692L12.2712 5.42308L10.9327 5.49231ZM7.03269 9.13846C7.51731 9.32308 7.51731 10.0615 7.03269 10.2462C6.57115 10.4308 2.46346 10.4308 2.00192 10.2462C1.56346 10.0846 1.51731 9.32308 1.93269 9.16154C2.34808 8.97692 6.59423 8.97692 7.03269 9.13846ZM4.95577 11.9077C5.44038 12.0923 5.44038 12.8308 4.95577 13.0154C4.49423 13.2 2.46346 13.2 2.00192 13.0154C1.56346 12.8538 1.51731 12.0923 1.93269 11.9308C2.34808 11.7462 4.54038 11.7462 4.95577 11.9077Z" fill="url(#paint0_linear_411_65)"/>
<path d="M13.1482 8.23845C12.4097 8.95384 11.7866 9.64614 11.7866 9.80768C11.7866 9.94614 12.1559 10.4077 12.5943 10.8461L13.402 11.6308L14.902 10.1538C16.2174 8.83845 16.402 8.56153 16.402 7.79999C16.402 6.92307 16.402 6.92307 15.4559 6.92307C14.6251 6.92307 14.3482 7.08461 13.1482 8.23845Z" fill="url(#paint1_linear_411_65)"/>
<path d="M9.77904 11.5846C8.78673 12.6462 7.93289 14.7 8.34827 15.0923C8.48673 15.2308 8.64827 15.2308 8.83289 15.0462C8.99443 14.8846 9.36366 14.7692 9.66366 14.7692C10.0098 14.7692 10.679 14.3077 11.5098 13.5231L12.8252 12.2538L12.0406 11.4462C11.6021 10.9846 11.1175 10.6154 10.979 10.6154C10.8406 10.6154 10.3098 11.0538 9.77904 11.5846Z" fill="url(#paint2_linear_411_65)"/>
<defs>
<linearGradient id="paint0_linear_411_65" x1="7.05051" y1="18" x2="7.05051" y2="0" gradientUnits="userSpaceOnUse">
<stop offset="0.479238" stop-color="#1795E4"/>
<stop offset="1" stop-color="#3C90C5" stop-opacity="0.27"/>
</linearGradient>
<linearGradient id="paint1_linear_411_65" x1="14.0943" y1="11.6308" x2="14.0943" y2="6.92307" gradientUnits="userSpaceOnUse">
<stop offset="0.479238" stop-color="#1795E4"/>
<stop offset="1" stop-color="#3C90C5" stop-opacity="0.27"/>
</linearGradient>
<linearGradient id="paint2_linear_411_65" x1="10.533" y1="15.191" x2="10.533" y2="10.6154" gradientUnits="userSpaceOnUse">
<stop offset="0.479238" stop-color="#1795E4"/>
<stop offset="1" stop-color="#3C90C5" stop-opacity="0.27"/>
</linearGradient>
</defs>
</svg>
