<svg width="26" height="18" viewBox="0 0 26 18" fill="none" xmlns="http://www.w3.org/2000/svg">
<path d="M15.3923 0.857143C15.3923 1.34286 15.5923 2.2 15.8209 2.77143C16.0494 3.31429 16.2494 3.88571 16.2494 4.02857C16.2494 4.17143 14.6494 4.28571 12.7066 4.28571C9.90658 4.28571 9.10658 4.2 8.82087 3.85714C8.50658 3.48571 8.5923 3.42857 9.33515 3.42857C10.2209 3.42857 10.6494 2.91429 10.3637 2.17143C10.078 1.42857 5.27801 1.4 4.9923 2.17143C4.76373 2.77143 5.10658 3.42857 5.67801 3.42857C5.96373 3.42857 6.44944 3.85714 6.73515 4.37143C7.27801 5.25714 7.27801 5.34286 6.7923 6.45714C6.30658 7.62857 6.27801 7.65714 4.5923 7.77143C1.44944 8 -0.207702 10 0.0208691 13.2857C0.220869 16.3143 2.04944 18 5.16373 18C7.36373 18 8.76373 17.1143 9.67801 15.2286L10.3923 13.7429L12.1923 13.7143H13.9923L15.6494 10.2C17.1066 7.17143 17.3352 6.8 17.5066 7.42857C17.678 8.02857 17.5066 8.37143 16.7066 9.22857C15.5923 10.4286 15.2494 11.6 15.4494 13.7143C15.7352 16.5143 17.8494 18.1429 20.9637 17.9429C23.9637 17.7429 25.678 15.9143 25.678 12.8571C25.678 9.94286 23.9923 8 21.278 7.77143L19.7352 7.65714L18.7923 4.91429C18.2494 3.4 17.7923 2.05714 17.7352 1.94286C17.678 1.82857 18.078 1.71428 18.6209 1.71428C19.6494 1.71428 20.078 1.22857 19.7923 0.428572C19.6494 0.114286 19.1066 0 17.5066 0H15.3923V0.857143ZM14.2209 8.34286L13.0494 10.6571L12.278 9.4C11.8494 8.71429 11.2209 7.65714 10.8494 7.05714L10.1923 6H12.7923H15.3923L14.2209 8.34286ZM10.7923 10.9143C11.4209 11.9714 11.4209 12 10.878 12C10.5066 12 10.2494 11.7429 10.1066 11.2C10.0209 10.7714 9.56373 9.94286 9.07801 9.37143C8.5923 8.74286 8.33515 8.14286 8.42087 7.85714C8.5923 7.42857 8.7923 7.65714 10.7923 10.9143ZM4.82087 10.9143C4.50658 11.6 4.24944 12.4857 4.24944 12.9143C4.24944 13.6857 4.27801 13.6857 6.33515 13.7714L8.3923 13.8571L7.36373 14.9143C6.47801 15.8286 6.10658 16 5.10658 16C4.13515 16 3.73515 15.8286 2.93515 15.0286C2.13515 14.2286 1.96373 13.8286 1.96373 12.8571C1.96373 11.8857 2.13515 11.4857 2.93515 10.6857C3.53515 10.0857 4.1923 9.71429 4.64944 9.71429H5.36373L4.82087 10.9143ZM22.7066 10.6857C23.5066 11.4857 23.678 11.8857 23.678 12.8571C23.678 13.8286 23.5066 14.2286 22.7066 15.0286C21.9066 15.8286 21.5066 16 20.5352 16C18.9066 16 17.3923 14.5714 17.3923 13.0286C17.3923 12.0857 18.0494 10.2857 18.3923 10.2857C18.4494 10.2857 18.7923 11.0571 19.1352 11.9714C19.7352 13.6857 20.1637 14.1143 20.9352 13.8286C21.5923 13.5714 21.6209 12.8286 21.0494 11.2857C20.7637 10.4857 20.5352 9.82857 20.5352 9.77143C20.5352 9.74286 20.7923 9.71429 21.1352 9.71429C21.478 9.71429 22.1637 10.1429 22.7066 10.6857ZM7.67801 11.9429C6.87801 12.0857 6.73515 11.9143 6.96373 11.1143L7.1923 10.4571L7.76373 11.1714L8.30658 11.8571L7.67801 11.9429Z" fill="url(#paint0_linear_411_56)"/>
<defs>
<linearGradient id="paint0_linear_411_56" x1="12.839" y1="18" x2="12.839" y2="0" gradientUnits="userSpaceOnUse">
<stop stop-color="#90CBFD"/>
<stop offset="1" stop-color="#4EAEFF" stop-opacity="0.99"/>
</linearGradient>
</defs>
</svg>
