<svg width="64" height="12" viewBox="0 0 64 12" fill="none" xmlns="http://www.w3.org/2000/svg">
<path d="M5.24 10V7.72L5.5 7.96H3.31C2.74333 7.96 2.25333 7.86333 1.84 7.67C1.43333 7.47667 1.12 7.2 0.9 6.84C0.686667 6.47333 0.58 6.03333 0.58 5.52C0.58 4.98667 0.696667 4.53333 0.93 4.16C1.16333 3.78 1.49333 3.49333 1.92 3.3C2.34667 3.1 2.84333 3 3.41 3H6.22V10H5.24ZM0.58 10L2.31 7.52H3.33L1.64 10H0.58ZM5.24 7.4V3.58L5.5 3.87H3.45C2.85 3.87 2.39 4.01 2.07 4.29C1.75 4.56333 1.59 4.97 1.59 5.51C1.59 6.02333 1.74 6.42 2.04 6.7C2.34667 6.98 2.79667 7.12 3.39 7.12H5.5L5.24 7.4ZM9.79445 10.07C9.39445 10.07 9.00112 10.02 8.61445 9.92C8.23445 9.81333 7.89445 9.66333 7.59445 9.47L7.88445 8.74C8.13779 8.9 8.42779 9.02667 8.75445 9.12C9.08112 9.20667 9.41112 9.25 9.74445 9.25C10.0511 9.25 10.3145 9.21333 10.5345 9.14C10.7611 9.06667 10.9345 8.96667 11.0545 8.84C11.1745 8.70667 11.2345 8.55333 11.2345 8.38C11.2345 8.13333 11.1245 7.94333 10.9045 7.81C10.6845 7.67667 10.3778 7.61 9.98445 7.61H9.02445V6.92H9.92445C10.1578 6.92 10.3611 6.89333 10.5345 6.84C10.7078 6.78667 10.8411 6.70667 10.9345 6.6C11.0345 6.48667 11.0845 6.35667 11.0845 6.21C11.0845 6.05 11.0278 5.91333 10.9145 5.8C10.8011 5.68667 10.6411 5.6 10.4345 5.54C10.2345 5.48 9.99779 5.45 9.72445 5.45C9.45779 5.45667 9.18445 5.49333 8.90445 5.56C8.63112 5.62667 8.35112 5.73 8.06445 5.87L7.80445 5.12C8.12445 4.96667 8.43779 4.85 8.74445 4.77C9.05779 4.68333 9.36779 4.63667 9.67445 4.63C10.1345 4.61667 10.5445 4.67 10.9045 4.79C11.2645 4.90333 11.5478 5.07 11.7545 5.29C11.9678 5.51 12.0745 5.77 12.0745 6.07C12.0745 6.32333 11.9945 6.55 11.8345 6.75C11.6745 6.94333 11.4611 7.09667 11.1945 7.21C10.9278 7.32333 10.6211 7.38 10.2745 7.38L10.3145 7.15C10.9078 7.15 11.3745 7.26667 11.7145 7.5C12.0545 7.73333 12.2245 8.05 12.2245 8.45C12.2245 8.77 12.1178 9.05333 11.9045 9.3C11.6911 9.54 11.4011 9.73 11.0345 9.87C10.6745 10.0033 10.2611 10.07 9.79445 10.07ZM18.9239 10V4.7H19.8839V10H18.9239ZM16.0739 6.5C16.7472 6.50667 17.2572 6.66 17.6039 6.96C17.9572 7.26 18.1339 7.68333 18.1339 8.23C18.1339 8.80333 17.9406 9.24667 17.5539 9.56C17.1739 9.86667 16.6272 10.0167 15.9139 10.01L13.6839 10V4.7H14.6439V6.49L16.0739 6.5ZM15.8439 9.28C16.2706 9.28667 16.5972 9.2 16.8239 9.02C17.0506 8.84 17.1639 8.57333 17.1639 8.22C17.1639 7.87333 17.0506 7.62 16.8239 7.46C16.6039 7.3 16.2772 7.21667 15.8439 7.21L14.6439 7.19V9.27L15.8439 9.28ZM25.5903 10L23.5403 7.42L24.3303 6.94L26.7203 10H25.5903ZM21.7503 10V4.7H22.7103V10H21.7503ZM22.4203 7.76V6.94H24.1703V7.76H22.4203ZM24.4103 7.46L23.5203 7.34L25.5503 4.7H26.5803L24.4103 7.46Z" fill="black"/>
<g filter="url(#filter0_i_0_107)">
<rect x="33.8551" y="2" width="29" height="9" rx="4.5" fill="black"/>
</g>
<rect x="34.3551" y="2.5" width="28" height="8" rx="4" stroke="black"/>
<rect x="28.3551" y="2.5" width="34" height="8" rx="4" fill="black" stroke="black"/>
<g filter="url(#filter1_if_0_107)">
<rect x="43.8551" y="2" width="19" height="9" rx="4.5" fill="white"/>
</g>
<g filter="url(#filter2_i_0_107)">
<rect x="44.8551" y="3" width="17" height="7" rx="3.5" fill="url(#paint0_linear_0_107)"/>
</g>
<path d="M47.3201 8V5.35H47.8151L48.9551 7.31H48.7551L49.9251 5.35H50.3751V8H49.9401V5.89L50.0201 5.935L48.9501 7.7H48.7401L47.6651 5.9L47.7601 5.88V8H47.3201ZM52.4444 8.03C52.1777 8.03 51.941 7.97167 51.7344 7.855C51.5277 7.73833 51.3644 7.57833 51.2444 7.375C51.1244 7.16833 51.0644 6.935 51.0644 6.675C51.0644 6.41167 51.1244 6.17833 51.2444 5.975C51.3644 5.77167 51.5277 5.61333 51.7344 5.5C51.941 5.38333 52.1777 5.325 52.4444 5.325C52.7077 5.325 52.9427 5.38333 53.1494 5.5C53.3594 5.61333 53.5227 5.77167 53.6394 5.975C53.7594 6.175 53.8194 6.40833 53.8194 6.675C53.8194 6.93833 53.7594 7.17167 53.6394 7.375C53.5227 7.57833 53.3594 7.73833 53.1494 7.855C52.9427 7.97167 52.7077 8.03 52.4444 8.03ZM52.4444 7.61C52.6144 7.61 52.766 7.57167 52.8994 7.495C53.036 7.41833 53.1427 7.31 53.2194 7.17C53.296 7.02667 53.3344 6.86167 53.3344 6.675C53.3344 6.485 53.296 6.32167 53.2194 6.185C53.1427 6.045 53.036 5.93667 52.8994 5.86C52.766 5.78333 52.6144 5.745 52.4444 5.745C52.2744 5.745 52.1227 5.78333 51.9894 5.86C51.856 5.93667 51.7494 6.045 51.6694 6.185C51.5894 6.32167 51.5494 6.485 51.5494 6.675C51.5494 6.86167 51.5894 7.02667 51.6694 7.17C51.7494 7.31 51.856 7.41833 51.9894 7.495C52.1227 7.57167 52.2744 7.61 52.4444 7.61ZM54.5125 8V5.35H55.7425C56.0525 5.35 56.2958 5.41 56.4725 5.53C56.6525 5.64667 56.7425 5.81333 56.7425 6.03C56.7425 6.24667 56.6575 6.415 56.4875 6.535C56.3208 6.65167 56.0992 6.71 55.8225 6.71L55.8975 6.58C56.2142 6.58 56.4492 6.63833 56.6025 6.755C56.7558 6.87167 56.8325 7.04333 56.8325 7.27C56.8325 7.5 56.7458 7.68 56.5725 7.81C56.4025 7.93667 56.1408 8 55.7875 8H54.5125ZM54.9825 7.63H55.7525C55.9525 7.63 56.1025 7.6 56.2025 7.54C56.3025 7.47667 56.3525 7.37667 56.3525 7.24C56.3525 7.1 56.3058 6.99833 56.2125 6.935C56.1225 6.86833 55.9792 6.835 55.7825 6.835H54.9825V7.63ZM54.9825 6.49H55.7025C55.8858 6.49 56.0242 6.45667 56.1175 6.39C56.2142 6.32 56.2625 6.22333 56.2625 6.1C56.2625 5.97333 56.2142 5.87833 56.1175 5.815C56.0242 5.75167 55.8858 5.72 55.7025 5.72H54.9825V6.49ZM59.2088 8V7.44L59.1838 7.335V6.38C59.1838 6.17667 59.1238 6.02 59.0038 5.91C58.8871 5.79667 58.7104 5.74 58.4738 5.74C58.3171 5.74 58.1638 5.76667 58.0138 5.82C57.8638 5.87 57.7371 5.93833 57.6338 6.025L57.4338 5.665C57.5704 5.555 57.7338 5.47167 57.9238 5.415C58.1171 5.355 58.3188 5.325 58.5288 5.325C58.8921 5.325 59.1721 5.41333 59.3688 5.59C59.5654 5.76667 59.6638 6.03667 59.6638 6.4V8H59.2088ZM58.3388 8.03C58.1421 8.03 57.9688 7.99667 57.8188 7.93C57.6721 7.86333 57.5588 7.77167 57.4788 7.655C57.3988 7.535 57.3588 7.4 57.3588 7.25C57.3588 7.10667 57.3921 6.97667 57.4588 6.86C57.5288 6.74333 57.6404 6.65 57.7938 6.58C57.9504 6.51 58.1604 6.475 58.4238 6.475H59.2638V6.82H58.4438C58.2038 6.82 58.0421 6.86 57.9588 6.94C57.8754 7.02 57.8338 7.11667 57.8338 7.23C57.8338 7.36 57.8854 7.465 57.9888 7.545C58.0921 7.62167 58.2354 7.66 58.4188 7.66C58.5988 7.66 58.7554 7.62 58.8888 7.54C59.0254 7.46 59.1238 7.34333 59.1838 7.19L59.2788 7.52C59.2154 7.67667 59.1038 7.80167 58.9438 7.895C58.7838 7.985 58.5821 8.03 58.3388 8.03Z" fill="black"/>
<path d="M32.0151 8V7.07L32.0901 7.16H31.2451C30.8918 7.16 30.6151 7.085 30.4151 6.935C30.2184 6.785 30.1201 6.56667 30.1201 6.28C30.1201 5.97333 30.2251 5.74167 30.4351 5.585C30.6484 5.42833 30.9318 5.35 31.2851 5.35H32.4451V8H32.0151ZM30.0951 8L30.8151 6.985H31.3101L30.6101 8H30.0951ZM32.0151 6.92V5.635L32.0901 5.77H31.3001C31.0801 5.77 30.9101 5.81167 30.7901 5.895C30.6701 5.975 30.6101 6.10833 30.6101 6.295C30.6101 6.64167 30.8334 6.815 31.2801 6.815H32.0901L32.0151 6.92ZM34.1127 8.035C33.9127 8.035 33.716 8.01 33.5227 7.96C33.3327 7.90667 33.1627 7.83167 33.0127 7.735L33.1577 7.37C33.2843 7.45 33.4293 7.51333 33.5927 7.56C33.756 7.60333 33.921 7.625 34.0877 7.625C34.241 7.625 34.3727 7.60667 34.4827 7.57C34.596 7.53333 34.6827 7.48333 34.7427 7.42C34.8027 7.35333 34.8327 7.27667 34.8327 7.19C34.8327 7.06667 34.7777 6.97167 34.6677 6.905C34.5577 6.83833 34.4043 6.805 34.2077 6.805H33.7277V6.46H34.1777C34.2943 6.46 34.396 6.44667 34.4827 6.42C34.5693 6.39333 34.636 6.35333 34.6827 6.3C34.7327 6.24333 34.7577 6.17833 34.7577 6.105C34.7577 6.025 34.7293 5.95667 34.6727 5.9C34.616 5.84333 34.536 5.8 34.4327 5.77C34.3327 5.74 34.2143 5.725 34.0777 5.725C33.9443 5.72833 33.8077 5.74667 33.6677 5.78C33.531 5.81333 33.391 5.865 33.2477 5.935L33.1177 5.56C33.2777 5.48333 33.4343 5.425 33.5877 5.385C33.7443 5.34167 33.8993 5.31833 34.0527 5.315C34.2827 5.30833 34.4877 5.335 34.6677 5.395C34.8477 5.45167 34.9893 5.535 35.0927 5.645C35.1993 5.755 35.2527 5.885 35.2527 6.035C35.2527 6.16167 35.2127 6.275 35.1327 6.375C35.0527 6.47167 34.946 6.54833 34.8127 6.605C34.6793 6.66167 34.526 6.69 34.3527 6.69L34.3727 6.575C34.6693 6.575 34.9027 6.63333 35.0727 6.75C35.2427 6.86667 35.3277 7.025 35.3277 7.225C35.3277 7.385 35.2743 7.52667 35.1677 7.65C35.061 7.77 34.916 7.865 34.7327 7.935C34.5527 8.00167 34.346 8.035 34.1127 8.035ZM38.6774 8V5.35H39.1574V8H38.6774ZM37.2524 6.25C37.5891 6.25333 37.8441 6.33 38.0174 6.48C38.1941 6.63 38.2824 6.84167 38.2824 7.115C38.2824 7.40167 38.1857 7.62333 37.9924 7.78C37.8024 7.93333 37.5291 8.00833 37.1724 8.005L36.0574 8V5.35H36.5374V6.245L37.2524 6.25ZM37.1374 7.64C37.3507 7.64333 37.5141 7.6 37.6274 7.51C37.7407 7.42 37.7974 7.28667 37.7974 7.11C37.7974 6.93667 37.7407 6.81 37.6274 6.73C37.5174 6.65 37.3541 6.60833 37.1374 6.605L36.5374 6.595V7.635L37.1374 7.64ZM42.0106 8L40.9856 6.71L41.3806 6.47L42.5756 8H42.0106ZM40.0906 8V5.35H40.5706V8H40.0906ZM40.4256 6.88V6.47H41.3006V6.88H40.4256ZM41.4206 6.73L40.9756 6.67L41.9906 5.35H42.5056L41.4206 6.73Z" fill="white"/>
<defs>
<filter id="filter0_i_0_107" x="33.8551" y="2" width="29" height="9" filterUnits="userSpaceOnUse" color-interpolation-filters="sRGB">
<feFlood flood-opacity="0" result="BackgroundImageFix"/>
<feBlend mode="normal" in="SourceGraphic" in2="BackgroundImageFix" result="shape"/>
<feColorMatrix in="SourceAlpha" type="matrix" values="0 0 0 0 0 0 0 0 0 0 0 0 0 0 0 0 0 0 127 0" result="hardAlpha"/>
<feOffset/>
<feGaussianBlur stdDeviation="15"/>
<feComposite in2="hardAlpha" operator="arithmetic" k2="-1" k3="1"/>
<feColorMatrix type="matrix" values="0 0 0 0 0 0 0 0 0 0 0 0 0 0 0 0 0 0 0.5 0"/>
<feBlend mode="normal" in2="shape" result="effect1_innerShadow_0_107"/>
</filter>
<filter id="filter1_if_0_107" x="42.8551" y="1" width="21" height="11" filterUnits="userSpaceOnUse" color-interpolation-filters="sRGB">
<feFlood flood-opacity="0" result="BackgroundImageFix"/>
<feBlend mode="normal" in="SourceGraphic" in2="BackgroundImageFix" result="shape"/>
<feColorMatrix in="SourceAlpha" type="matrix" values="0 0 0 0 0 0 0 0 0 0 0 0 0 0 0 0 0 0 127 0" result="hardAlpha"/>
<feOffset/>
<feGaussianBlur stdDeviation="10"/>
<feComposite in2="hardAlpha" operator="arithmetic" k2="-1" k3="1"/>
<feColorMatrix type="matrix" values="0 0 0 0 0 0 0 0 0 0 0 0 0 0 0 0 0 0 0.2 0"/>
<feBlend mode="normal" in2="shape" result="effect1_innerShadow_0_107"/>
<feGaussianBlur stdDeviation="0.5" result="effect2_foregroundBlur_0_107"/>
</filter>
<filter id="filter2_i_0_107" x="44.8551" y="3" width="17" height="17" filterUnits="userSpaceOnUse" color-interpolation-filters="sRGB">
<feFlood flood-opacity="0" result="BackgroundImageFix"/>
<feBlend mode="normal" in="SourceGraphic" in2="BackgroundImageFix" result="shape"/>
<feColorMatrix in="SourceAlpha" type="matrix" values="0 0 0 0 0 0 0 0 0 0 0 0 0 0 0 0 0 0 127 0" result="hardAlpha"/>
<feOffset dy="10"/>
<feGaussianBlur stdDeviation="5"/>
<feComposite in2="hardAlpha" operator="arithmetic" k2="-1" k3="1"/>
<feColorMatrix type="matrix" values="0 0 0 0 0 0 0 0 0 0 0 0 0 0 0 0 0 0 0.25 0"/>
<feBlend mode="normal" in2="shape" result="effect1_innerShadow_0_107"/>
</filter>
<linearGradient id="paint0_linear_0_107" x1="53.3551" y1="3" x2="53.3551" y2="10" gradientUnits="userSpaceOnUse">
<stop offset="0.329279" stop-color="#FFD60A"/>
<stop offset="0.449073" stop-color="#FFDC2D" stop-opacity="0.855965"/>
<stop offset="0.553242" stop-color="#FFDD36" stop-opacity="0.818633"/>
<stop offset="0.667827" stop-color="#FFE14C" stop-opacity="0.731567"/>
<stop offset="0.739623" stop-color="#FFE358" stop-opacity="0.679972"/>
<stop offset="0.864626" stop-color="#FFEC8F" stop-opacity="0.455981"/>
<stop offset="1" stop-color="white" stop-opacity="0"/>
</linearGradient>
</defs>
</svg>
