<svg width="129" height="24" viewBox="0 0 129 24" fill="none" xmlns="http://www.w3.org/2000/svg">
<path d="M5.6543 0.834229H5.73242C5.75846 0.834229 5.79427 0.870036 5.83984 0.94165V9.70142C5.90495 9.77303 5.9375 9.84139 5.9375 9.90649V9.98462C5.9375 10.0497 5.90495 10.1213 5.83984 10.1995V10.2776H6.29883C7.77669 10.2776 9.10156 10.831 10.2734 11.9377C10.8854 12.6148 11.2923 13.2366 11.4941 13.803C11.8522 14.76 12.0312 15.6226 12.0312 16.3909C12.0508 16.3909 12.0605 16.443 12.0605 16.5471C12.0605 19.0081 11.1784 20.8603 9.41406 22.1038C8.35286 22.7418 7.24609 23.0608 6.09375 23.0608C4.01042 23.0608 2.36979 22.2665 1.17188 20.678C0.638021 19.9423 0.263672 18.9137 0.0488281 17.592C0.0488281 17.566 0.0423177 17.4423 0.0292969 17.2209C0.0292969 17.2079 0.0358073 17.1558 0.0488281 17.0647C0.016276 16.941 0 16.814 0 16.6838C0 16.5862 0.016276 16.4885 0.0488281 16.3909C0.0488281 16.3778 0.0423177 16.3258 0.0292969 16.2346C0.0292969 15.7008 0.192057 14.9163 0.517578 13.8811C0.70638 13.4254 1.00911 12.9045 1.42578 12.3186C2.15495 11.5374 2.82878 11.0295 3.44727 10.7952C3.69466 10.6389 4.22201 10.4827 5.0293 10.3264C5.32227 10.2939 5.49479 10.2776 5.54688 10.2776V10.2483C5.41667 10.2483 5.33854 10.1441 5.3125 9.93579C5.35156 9.76652 5.41341 9.68188 5.49805 9.68188C5.49805 9.31079 5.36133 8.98201 5.08789 8.69556C5.05534 8.76066 4.99349 8.79321 4.90234 8.79321H4.74609C4.60938 8.7216 4.54102 8.6272 4.54102 8.51001V8.46118C4.54102 8.31795 4.63542 8.22355 4.82422 8.17798H4.87305C5.03581 8.17798 5.13997 8.28866 5.18555 8.51001C5.2832 8.51001 5.39714 8.65649 5.52734 8.94946H5.54688V0.94165C5.54688 0.915609 5.58268 0.879801 5.6543 0.834229ZM5.26367 11.3616C5.26367 11.6155 5.41992 11.762 5.73242 11.801C5.99284 11.7489 6.12305 11.5959 6.12305 11.342C6.05794 11.0946 5.96354 10.9709 5.83984 10.9709V11.1077C5.83984 11.1337 5.80404 11.1663 5.73242 11.2053H5.6543C5.62826 11.2053 5.59245 11.1728 5.54688 11.1077V10.9709H5.52734C5.35156 11.0686 5.26367 11.1988 5.26367 11.3616ZM2.67578 16.6545C2.6888 17.4683 2.8418 18.2366 3.13477 18.9592C3.36263 19.441 3.65885 19.8414 4.02344 20.1604C4.65495 20.5901 5.26693 20.8049 5.85938 20.8049H6.29883C6.80664 20.8049 7.38607 20.5901 8.03711 20.1604C8.51888 19.6982 8.86719 19.1773 9.08203 18.5979C9.21875 18.1943 9.31966 17.5725 9.38477 16.7327C9.3457 16.1077 9.2513 15.4762 9.10156 14.8381C8.91276 14.3303 8.68164 13.8974 8.4082 13.5393C7.80273 12.8492 6.9987 12.5042 5.99609 12.5042C4.88281 12.5042 4.00716 12.9794 3.36914 13.9299C3.05664 14.4703 2.85156 15.0855 2.75391 15.7756C2.73438 16.1142 2.70833 16.4071 2.67578 16.6545ZM13.3594 14.0569C13.4115 14.3499 13.5742 14.4963 13.8477 14.4963C14.056 14.4963 14.1895 14.3499 14.248 14.0569C14.248 13.8941 14.1667 13.7607 14.0039 13.6565H13.9551C13.9551 13.7476 13.9258 13.7932 13.8672 13.7932H13.7598C13.7467 13.7932 13.7012 13.7476 13.623 13.6565C13.4473 13.7542 13.3594 13.8876 13.3594 14.0569ZM18.9844 14.0569C19.0365 14.3499 19.1992 14.4963 19.4727 14.4963C19.681 14.4963 19.8145 14.3499 19.873 14.0569C19.873 13.8941 19.7917 13.7607 19.6289 13.6565H19.5801C19.5801 13.7476 19.5508 13.7932 19.4922 13.7932H19.3848C19.3717 13.7932 19.3262 13.7476 19.248 13.6565C19.0723 13.7542 18.9844 13.8876 18.9844 14.0569ZM15.1172 18.6174V21.7815C15.1172 22.1786 14.9544 22.3772 14.6289 22.3772H13.1934C12.7962 22.3772 12.5977 22.1982 12.5977 21.8401V13.5979C12.5977 13.2919 12.7865 13.1389 13.1641 13.1389H13.3789V13.0315C13.3789 12.9273 13.444 12.8264 13.5742 12.7288C13.5742 12.4944 13.4928 12.3772 13.3301 12.3772C13.0957 12.3772 12.9785 12.2795 12.9785 12.0842V12.0256C12.9785 11.8759 13.0762 11.7782 13.2715 11.7327H13.3301C13.5254 11.7587 13.623 11.8564 13.623 12.0256V12.0842L13.6035 12.2209L13.6523 12.2405V11.6741L13.623 0.892822C13.623 0.866781 13.6621 0.830973 13.7402 0.7854H13.8184C13.8444 0.7854 13.8802 0.821208 13.9258 0.892822L13.9551 11.6741V12.8167C14.0072 12.8818 14.0332 12.9436 14.0332 13.0022V13.1389H14.6289C14.9544 13.1389 15.1172 13.318 15.1172 13.676V16.8401H18.2324L18.2227 13.5979C18.2227 13.2919 18.4115 13.1389 18.7891 13.1389H19.0039V13.0315C19.0039 12.9273 19.069 12.8264 19.1992 12.7288C19.1992 12.4944 19.1178 12.3772 18.9551 12.3772C18.7207 12.3772 18.6035 12.2795 18.6035 12.0842V12.0256C18.6035 11.8759 18.7012 11.7782 18.8965 11.7327H18.9551C19.1504 11.7587 19.248 11.8564 19.248 12.0256V12.0842L19.2285 12.2209L19.2773 12.2405V11.6741L19.248 0.892822C19.248 0.866781 19.2871 0.830973 19.3652 0.7854H19.4434C19.4694 0.7854 19.5052 0.821208 19.5508 0.892822L19.5801 11.6741V12.8167C19.6322 12.8818 19.6582 12.9436 19.6582 13.0022V13.1389H20.2539C20.5794 13.1389 20.7422 13.318 20.7422 13.676V21.7815C20.7422 22.1786 20.5794 22.3772 20.2539 22.3772H18.8184C18.4212 22.3772 18.2227 22.1982 18.2227 21.8401V18.6174H15.1172ZM26.1914 14.6428C26.1914 14.8772 26.3379 15.0139 26.6309 15.053C26.8783 15.0009 27.002 14.8544 27.002 14.6135C26.9368 14.3857 26.8457 14.2717 26.7285 14.2717V14.3987C26.7285 14.4247 26.696 14.4573 26.6309 14.4963H26.5625C26.5365 14.4963 26.5039 14.4638 26.4648 14.3987V14.2717H26.4355C26.2728 14.3629 26.1914 14.4866 26.1914 14.6428ZM26.7188 13.8616C27.0573 13.9592 27.5358 14.1122 28.1543 14.3206C28.3171 14.3206 28.3984 14.7763 28.3984 15.6877L28.418 15.9124L28.3984 15.9612C28.5286 19.2164 28.6003 21.482 28.6133 22.7581C28.6133 22.8948 28.5091 22.9827 28.3008 23.0217C28.1641 23.0087 27.959 22.9534 27.6855 22.8557V22.8752L27.4219 22.8167V22.8069C27.4219 22.7808 27.1517 22.6832 26.6113 22.5139C26.4355 22.4032 26.3477 22.2568 26.3477 22.0745V18.3245C26.3477 18.025 26.3379 17.6083 26.3184 17.0745C26.3184 17.0224 26.263 16.967 26.1523 16.9084C26.0612 16.9084 25.8919 17.0875 25.6445 17.4456C25.4362 17.7841 24.5833 19.0341 23.0859 21.1956C22.9818 21.2607 22.8516 21.2997 22.6953 21.3127C21.7969 21.0523 21.2598 20.8765 21.084 20.7854C21.0449 20.7268 21.0124 20.6617 20.9863 20.5901C20.9863 20.4599 21.6048 19.5745 22.8418 17.9338C23.0632 17.5823 23.8509 16.4853 25.2051 14.6428C25.3809 14.3368 25.6152 14.0439 25.9082 13.7639C25.9668 13.7314 26.0319 13.7151 26.1035 13.7151H26.1328C26.1784 13.7151 26.2858 13.7379 26.4551 13.7834V13.7053C26.3704 13.6207 26.3281 13.5491 26.3281 13.4905V13.4417C26.3281 13.37 26.3704 13.2887 26.4551 13.1975V0.922119C26.4551 0.896077 26.4876 0.863525 26.5527 0.824463H26.6211C26.6471 0.824463 26.6797 0.857015 26.7188 0.922119V12.4846H26.748C26.748 12.3935 26.8522 12.2568 27.0605 12.0745C27.1061 11.8792 27.2038 11.7815 27.3535 11.7815H27.3828C27.5456 11.7815 27.6432 11.8857 27.6758 12.094C27.6237 12.2763 27.5326 12.3674 27.4023 12.3674H27.334C27.2754 12.3674 27.2103 12.3349 27.1387 12.2698C26.8913 12.5367 26.7676 12.8199 26.7676 13.1194V13.1682C26.8652 13.2659 26.9141 13.3472 26.9141 13.4124V13.4905C26.9141 13.5946 26.849 13.6728 26.7188 13.7249V13.8616ZM34.9414 0.736572H35.0098C35.0358 0.736572 35.0716 0.769124 35.1172 0.834229V12.6213C35.1823 12.693 35.2148 12.7613 35.2148 12.8264V12.9045C35.2148 12.9631 35.1823 13.0282 35.1172 13.0999V13.1292C35.625 13.2724 36.0384 13.6174 36.3574 14.1643C36.5397 14.7437 36.9206 16.5439 37.5 19.5647C37.7669 20.3525 37.9004 20.7756 37.9004 20.8342C37.9004 21.0295 37.4707 21.1793 36.6113 21.2834C36.4486 21.3551 36.2467 21.3909 36.0059 21.3909C35.8757 21.3909 35.6803 21.2639 35.4199 21.01H35.2441C34.2871 21.9215 33.1445 22.3772 31.8164 22.3772H31.6699C31.11 22.3772 30.5697 22.1493 30.0488 21.6936C29.5605 21.0751 29.3164 20.4599 29.3164 19.8479C29.3164 18.5458 30.2116 17.6409 32.002 17.1331C32.6595 16.9117 33.2422 16.6903 33.75 16.469C34.1016 16.2216 34.2773 15.9872 34.2773 15.7659C34.2773 15.232 34.0495 14.8674 33.5938 14.6721C33.444 14.6396 33.3333 14.6233 33.2617 14.6233H33.0371C32.5098 14.6233 32.0378 14.7828 31.6211 15.1018C31.4128 15.2646 31.2598 15.6129 31.1621 16.1467C31.1621 16.29 30.5111 16.4592 29.209 16.6545C29.0397 16.6545 28.9388 16.5341 28.9062 16.2932C28.9062 15.0823 29.5573 14.1806 30.8594 13.5881C31.8945 13.1454 32.9167 12.9241 33.9258 12.9241C34.0365 12.9241 34.2708 12.9403 34.6289 12.9729L34.6094 12.9241V12.8459C34.6419 12.6767 34.7005 12.592 34.7852 12.592C34.7852 12.247 34.6484 11.928 34.375 11.635C34.3099 11.7001 34.2448 11.7327 34.1797 11.7327H34.1016C33.9714 11.7327 33.877 11.6415 33.8184 11.4592C33.8574 11.2379 33.9616 11.1272 34.1309 11.1272H34.1504C34.2936 11.1272 34.4108 11.2444 34.502 11.4788C34.6517 11.5764 34.7559 11.7131 34.8145 11.8889H34.834V0.834229C34.834 0.808187 34.8698 0.775635 34.9414 0.736572ZM34.5605 14.2424C34.5605 14.4898 34.7103 14.6331 35.0098 14.6721C35.2637 14.62 35.3906 14.4703 35.3906 14.2229C35.3255 13.982 35.2344 13.8616 35.1172 13.8616V13.9885C35.1172 14.0146 35.0814 14.0504 35.0098 14.0959H34.9414C34.9089 14.0959 34.873 14.0601 34.834 13.9885V13.8616H34.8145C34.6452 13.9592 34.5605 14.0862 34.5605 14.2424ZM31.6699 19.3889V19.5354C31.748 20.245 32.0508 20.5999 32.5781 20.5999C32.5781 20.6194 32.6562 20.6292 32.8125 20.6292H33.0664C33.5677 20.6292 34.0658 20.4013 34.5605 19.9456C34.7754 19.5745 34.8828 19.2359 34.8828 18.9299C34.8828 18.3831 34.7982 17.9696 34.6289 17.6897C34.5638 17.6571 34.5052 17.6409 34.4531 17.6409C33.3594 18.025 32.6009 18.3375 32.1777 18.5784C31.8392 18.8909 31.6699 19.1611 31.6699 19.3889ZM44.2871 13.6663C44.2871 13.9137 44.4401 14.0569 44.7461 14.0959C44.9935 14.0439 45.1172 13.8941 45.1172 13.6467C45.0521 13.4058 44.9609 13.2854 44.8438 13.2854V13.4124C44.8438 13.4384 44.8112 13.4742 44.7461 13.5198H44.668C44.6419 13.5198 44.6061 13.484 44.5605 13.4124V13.2854H44.541C44.3717 13.3831 44.2871 13.51 44.2871 13.6663ZM38.8867 13.6272C38.724 13.7183 38.6426 13.842 38.6426 13.9983C38.6426 14.2327 38.7891 14.3694 39.082 14.4084C39.3294 14.3564 39.4531 14.2099 39.4531 13.969C39.388 13.7411 39.2969 13.6272 39.1797 13.6272V13.7542C39.1797 13.7802 39.1471 13.8127 39.082 13.8518H39.0137C38.9876 13.8518 38.9551 13.8193 38.916 13.7542V13.6272H38.8867ZM39.1699 13.0803C39.2741 13.0673 39.502 13.0608 39.8535 13.0608H39.873C40.1595 13.0608 40.3027 13.497 40.3027 14.3694C40.5371 17.5986 40.7585 19.2131 40.9668 19.2131C41.2142 19.6363 41.556 19.8479 41.9922 19.8479H42.2949C42.8158 19.8479 43.2715 19.6038 43.6621 19.1155C43.8314 18.8486 43.916 18.4612 43.916 17.9534V17.8557C43.916 17.3284 43.8053 15.7561 43.584 13.1389C43.584 12.8329 43.8216 12.6799 44.2969 12.6799C44.3815 12.6669 44.4694 12.6571 44.5605 12.6506V12.6213C44.4824 12.5302 44.4434 12.4521 44.4434 12.387V12.3381C44.4434 12.2665 44.4824 12.1819 44.5605 12.0842V0.873291C44.5605 0.847249 44.5964 0.814697 44.668 0.775635H44.7461C44.7721 0.775635 44.8047 0.808187 44.8438 0.873291V11.3518H44.8633C44.8633 11.2542 44.974 11.1142 45.1953 10.9319C45.2409 10.7301 45.3418 10.6292 45.498 10.6292H45.5273C45.6901 10.6292 45.791 10.7366 45.8301 10.9514C45.7715 11.1402 45.6771 11.2346 45.5469 11.2346H45.4688C45.4102 11.2346 45.3451 11.1988 45.2734 11.1272C45.0195 11.4071 44.8926 11.7034 44.8926 12.0159V12.0647C44.9967 12.1624 45.0488 12.247 45.0488 12.3186V12.387C45.0488 12.4521 45.0065 12.5302 44.9219 12.6213C45.1107 12.6018 45.3125 12.5888 45.5273 12.5823C45.8333 12.5823 45.9863 12.9273 45.9863 13.6174C45.9863 13.7151 46.1784 16.0849 46.5625 20.7268C46.5625 21.0458 46.2695 21.2053 45.6836 21.2053C45.2865 21.2444 44.9642 21.2639 44.7168 21.2639H44.6973C44.4824 21.2639 44.349 21.0621 44.2969 20.6584C44.2383 20.5738 44.1699 20.5315 44.0918 20.5315C44.0202 20.5315 43.8249 20.6975 43.5059 21.0295C42.9264 21.4527 42.474 21.6643 42.1484 21.6643C41.9661 21.7294 41.7741 21.762 41.5723 21.762V21.7815L41.2109 21.7913C39.9349 21.7913 39.0788 21.2542 38.6426 20.1799C38.4408 19.9065 38.2715 18.6435 38.1348 16.3909C37.985 14.8479 37.9102 13.8811 37.9102 13.4905C37.9102 13.2561 38.2422 13.1292 38.9062 13.1096V13.0999C38.7956 13.0999 38.7207 13.0185 38.6816 12.8557V12.8069C38.7207 12.6311 38.7956 12.5432 38.9062 12.5432V0.873291C38.9062 0.847249 38.9388 0.814697 39.0039 0.775635H39.0723C39.0983 0.775635 39.1309 0.808187 39.1699 0.873291V11.6643C39.2936 11.5732 39.4076 11.4267 39.5117 11.2249C39.5768 11.1728 39.6354 11.1467 39.6875 11.1467H39.7363C39.9121 11.1728 40 11.2639 40 11.4202V11.5374C39.9349 11.6676 39.8535 11.7327 39.7559 11.7327H39.6875C39.6289 11.7327 39.554 11.7001 39.4629 11.635C39.2676 11.8889 39.1699 12.094 39.1699 12.2502V12.592C39.235 12.6571 39.2676 12.7222 39.2676 12.7874V12.8557C39.2676 12.9143 39.235 12.9794 39.1699 13.051V13.0803ZM42.0215 0.804932C41.9499 0.850505 41.9141 0.886312 41.9141 0.912354V9.04712H41.8945C41.7643 8.75415 41.6536 8.60767 41.5625 8.60767C41.5169 8.39282 41.416 8.2854 41.2598 8.2854H41.2012C41.0189 8.33097 40.9277 8.42212 40.9277 8.55884V8.60767C40.9277 8.72485 40.9961 8.81925 41.1328 8.89087H41.2793C41.3704 8.89087 41.429 8.85832 41.4551 8.79321C41.7285 9.07316 41.8652 9.39543 41.8652 9.76001C41.7806 9.76001 41.722 9.84465 41.6895 10.0139C41.709 10.2157 41.7839 10.3167 41.9141 10.3167V10.4143H40.8203C40.5469 10.4143 40.4102 10.5933 40.4102 10.9514V11.7131C40.4102 11.967 40.5534 12.1103 40.8398 12.1428C41.2174 12.1298 41.5234 12.1233 41.7578 12.1233H41.7969H43.2812C43.6198 12.1233 43.7891 11.9605 43.7891 11.635V11.3909C43.7891 11.1695 43.7793 10.997 43.7598 10.8733C43.7598 10.5673 43.5905 10.4143 43.252 10.4143H42.1973V10.2678C42.2624 10.1897 42.2949 10.1213 42.2949 10.0627V9.98462C42.2949 9.91951 42.2624 9.85116 42.1973 9.77954V0.912354C42.1582 0.840739 42.1257 0.804932 42.0996 0.804932H42.0215ZM41.6406 11.2151C41.6406 11.0588 41.7253 10.9319 41.8945 10.8342H41.9141V10.9612C41.9596 11.0263 41.9954 11.0588 42.0215 11.0588H42.0996C42.1647 11.0198 42.1973 10.9872 42.1973 10.9612V10.8342C42.321 10.8342 42.4154 10.9547 42.4805 11.1956C42.4805 11.443 42.3535 11.5927 42.0996 11.6448C41.7936 11.6057 41.6406 11.4625 41.6406 11.2151ZM48.0078 14.0569C48.0599 14.3499 48.2227 14.4963 48.4961 14.4963C48.7044 14.4963 48.8379 14.3499 48.8965 14.0569C48.8965 13.8941 48.8151 13.7607 48.6523 13.6565H48.6035C48.6035 13.7476 48.5742 13.7932 48.5156 13.7932H48.4082C48.3952 13.7932 48.3496 13.7476 48.2715 13.6565C48.0957 13.7542 48.0078 13.8876 48.0078 14.0569ZM53.6328 14.0569C53.6849 14.3499 53.8477 14.4963 54.1211 14.4963C54.3294 14.4963 54.4629 14.3499 54.5215 14.0569C54.5215 13.8941 54.4401 13.7607 54.2773 13.6565H54.2285C54.2285 13.7476 54.1992 13.7932 54.1406 13.7932H54.0332C54.0202 13.7932 53.9746 13.7476 53.8965 13.6565C53.7207 13.7542 53.6328 13.8876 53.6328 14.0569ZM49.7656 18.6174V21.7815C49.7656 22.1786 49.6029 22.3772 49.2773 22.3772H47.8418C47.4447 22.3772 47.2461 22.1982 47.2461 21.8401V13.5979C47.2461 13.2919 47.4349 13.1389 47.8125 13.1389H48.0273V13.0315C48.0273 12.9273 48.0924 12.8264 48.2227 12.7288C48.2227 12.4944 48.1413 12.3772 47.9785 12.3772C47.7441 12.3772 47.627 12.2795 47.627 12.0842V12.0256C47.627 11.8759 47.7246 11.7782 47.9199 11.7327H47.9785C48.1738 11.7587 48.2715 11.8564 48.2715 12.0256V12.0842L48.252 12.2209L48.3008 12.2405V11.6741L48.2715 0.892822C48.2715 0.866781 48.3105 0.830973 48.3887 0.7854H48.4668C48.4928 0.7854 48.5286 0.821208 48.5742 0.892822L48.6035 11.6741V12.8167C48.6556 12.8818 48.6816 12.9436 48.6816 13.0022V13.1389H49.2773C49.6029 13.1389 49.7656 13.318 49.7656 13.676V16.8401H52.8809L52.8711 13.5979C52.8711 13.2919 53.0599 13.1389 53.4375 13.1389H53.6523V13.0315C53.6523 12.9273 53.7174 12.8264 53.8477 12.7288C53.8477 12.4944 53.7663 12.3772 53.6035 12.3772C53.3691 12.3772 53.252 12.2795 53.252 12.0842V12.0256C53.252 11.8759 53.3496 11.7782 53.5449 11.7327H53.6035C53.7988 11.7587 53.8965 11.8564 53.8965 12.0256V12.0842L53.877 12.2209L53.9258 12.2405V11.6741L53.8965 0.892822C53.8965 0.866781 53.9355 0.830973 54.0137 0.7854H54.0918C54.1178 0.7854 54.1536 0.821208 54.1992 0.892822L54.2285 11.6741V12.8167C54.2806 12.8818 54.3066 12.9436 54.3066 13.0022V13.1389H54.9023C55.2279 13.1389 55.3906 13.318 55.3906 13.676V21.7815C55.3906 22.1786 55.2279 22.3772 54.9023 22.3772H53.4668C53.0697 22.3772 52.8711 22.1982 52.8711 21.8401V18.6174H49.7656ZM72.6367 15.0237C72.6823 15.2841 72.8288 15.4143 73.0762 15.4143C73.2585 15.4143 73.3789 15.2841 73.4375 15.0237C73.4375 14.8739 73.3659 14.7502 73.2227 14.6526H73.1738C73.1738 14.7828 73.1413 14.8479 73.0762 14.8479H72.998C72.959 14.8479 72.9199 14.7828 72.8809 14.6526C72.7181 14.7437 72.6367 14.8674 72.6367 15.0237ZM62.1582 14.2815C62.1582 14.5159 62.3047 14.6526 62.5977 14.6917C62.8451 14.6396 62.9688 14.4931 62.9688 14.2522C62.9036 14.0243 62.8125 13.9104 62.6953 13.9104V14.0374C62.6953 14.0634 62.6628 14.0959 62.5977 14.135H62.5293C62.5033 14.135 62.4707 14.1025 62.4316 14.0374V13.9104H62.4023C62.2396 14.0015 62.1582 14.1252 62.1582 14.2815ZM72.8906 14.0862V14.0471C72.7865 14.0341 72.7246 13.956 72.7051 13.8127V13.7639C72.7051 13.6793 72.7767 13.5816 72.9199 13.4709V0.951416C72.9199 0.925374 72.9525 0.892822 73.0176 0.85376H73.0957C73.1217 0.85376 73.1543 0.886312 73.1934 0.951416V12.6409H73.2129C73.2129 12.5953 73.2943 12.5042 73.457 12.3674C73.4766 12.1917 73.5677 12.1038 73.7305 12.1038H73.75C73.9128 12.1038 74.0104 12.2079 74.043 12.4163C73.9909 12.5986 73.903 12.6897 73.7793 12.6897H73.7012C73.6426 12.6897 73.5775 12.6571 73.5059 12.592C73.304 12.8134 73.1999 13.0152 73.1934 13.1975V13.5393C73.2585 13.6305 73.291 13.7053 73.291 13.7639V13.8811L73.1641 14.0471V14.1155C73.418 14.122 73.6523 14.1448 73.8672 14.1838C74.1081 14.2229 74.1927 14.467 74.1211 14.9163C74.1211 15.1441 73.9355 17.5465 73.5645 22.1233C73.5189 22.4228 73.2064 22.5269 72.627 22.4358L72.3633 22.4163C72.1159 22.3902 71.9368 22.3674 71.8262 22.3479C71.5397 22.3023 71.416 22.1624 71.4551 21.928C71.416 21.7066 71.3737 21.5894 71.3281 21.5764L71.2793 21.5667C71.1556 21.5471 70.9766 21.6448 70.7422 21.8596C70.0456 22.2893 69.3034 22.439 68.5156 22.3088L68.4277 22.2991C67.627 22.1689 67.0247 21.7717 66.6211 21.1077C66.5299 21.0491 66.4746 21.0198 66.4551 21.0198C66.3509 21.0002 66.0742 21.1695 65.625 21.5276C64.9609 21.9117 64.2969 22.0517 63.6328 21.9475L63.6133 21.9377C63.1901 21.8726 62.9036 21.801 62.7539 21.7229L62.7344 21.7131L62.7246 21.7229L62.4023 21.6252V21.6155L62.0312 21.342C61.1719 20.7366 60.8789 19.6005 61.1523 17.9338C61.1458 17.8818 61.2533 16.456 61.4746 13.6565C61.5267 13.318 61.748 13.1812 62.1387 13.2463C62.2428 13.2528 62.3405 13.2594 62.4316 13.2659V13.2366C62.321 13.2366 62.2461 13.1552 62.207 12.9924V12.9436C62.2461 12.7678 62.321 12.6799 62.4316 12.6799V0.902588C62.4316 0.876546 62.4642 0.843994 62.5293 0.804932H62.5977C62.6237 0.804932 62.6562 0.837484 62.6953 0.902588V11.801C62.819 11.7099 62.9329 11.5634 63.0371 11.3616C63.1022 11.3095 63.1608 11.2834 63.2129 11.2834H63.2617C63.4375 11.3095 63.5254 11.4006 63.5254 11.5569V11.6741C63.4603 11.8043 63.3789 11.8694 63.2812 11.8694H63.2129C63.1543 11.8694 63.0794 11.8368 62.9883 11.7717C62.793 12.0256 62.6953 12.2307 62.6953 12.387V12.7288C62.7604 12.7939 62.793 12.859 62.793 12.9241V12.9924C62.793 13.051 62.7604 13.1161 62.6953 13.1877V13.2952C62.9688 13.3212 63.1934 13.3472 63.3691 13.3733L63.4375 13.3831C63.6979 13.4221 63.7826 13.7151 63.6914 14.262C63.4115 17.5758 63.3333 19.2424 63.457 19.262C63.5026 19.5354 63.6361 19.7665 63.8574 19.9553C63.9811 20.0725 64.2611 20.1669 64.6973 20.2385C64.9447 20.2515 65.2376 20.1832 65.5762 20.0334C65.9408 19.7209 66.1556 19.3759 66.2207 18.9983L66.2988 18.4709C66.3639 18.0803 66.4941 16.5667 66.6895 13.9299C66.7285 13.7151 66.9661 13.6207 67.4023 13.6467C67.9948 13.6988 68.4082 13.7444 68.6426 13.7834C68.8965 13.8225 68.9844 14.0894 68.9062 14.5842C68.6654 17.5139 68.5645 19.2034 68.6035 19.6526C68.7663 20.193 69.0951 20.5022 69.5898 20.5803L69.8047 20.6194C70.1237 20.6715 70.4818 20.564 70.8789 20.2971C71.1914 20.0432 71.3867 19.6884 71.4648 19.2327L71.5039 18.9983C71.5365 18.7769 71.6732 17.2209 71.9141 14.3303C71.9466 14.0894 72.2721 14.0081 72.8906 14.0862ZM79.1699 0.736572H79.248C79.2741 0.736572 79.3099 0.77238 79.3555 0.843994V12.1526H79.3848C79.3848 12.0484 79.4987 11.8954 79.7266 11.6936C79.7786 11.4853 79.8861 11.3811 80.0488 11.3811H80.0781C80.2539 11.3811 80.3581 11.495 80.3906 11.7229C80.3385 11.9182 80.2409 12.0159 80.0977 12.0159H80.0195C79.9544 12.0159 79.8828 11.9801 79.8047 11.9084C79.5443 12.2014 79.4141 12.5139 79.4141 12.8459V12.8948C79.5182 13.0055 79.5703 13.0933 79.5703 13.1584V13.2366C79.5703 13.3603 79.4987 13.4514 79.3555 13.51V13.7737C80.5078 13.7737 81.5104 14.1545 82.3633 14.9163C82.9818 15.5738 83.3887 16.2476 83.584 16.9377C83.7467 17.4911 83.8281 17.9436 83.8281 18.2952C83.8477 18.6207 83.8574 18.8355 83.8574 18.9397C83.8574 20.4892 83.1641 21.7131 81.7773 22.6116C81.0482 23.0022 80.5241 23.1975 80.2051 23.1975C80.0553 23.2626 79.7005 23.3147 79.1406 23.3538C77.0703 23.3538 75.6348 22.4228 74.834 20.5608C74.5671 19.8446 74.4336 19.0829 74.4336 18.2756V18.1096C74.4336 17.2958 74.707 16.4722 75.2539 15.6389C75.8854 14.8902 76.3053 14.5159 76.5137 14.5159C77.347 14.0211 78.1966 13.7737 79.0625 13.7737V13.4807C78.9779 13.3896 78.9355 13.3082 78.9355 13.2366V13.1877C78.9355 13.1096 78.9779 13.0217 79.0625 12.9241V0.843994C79.0625 0.817952 79.0983 0.782145 79.1699 0.736572ZM78.7695 14.6526C78.7695 14.9065 78.929 15.0562 79.248 15.1018C79.515 15.0497 79.6484 14.8902 79.6484 14.6233C79.5833 14.3759 79.4857 14.2522 79.3555 14.2522V14.3889C79.3555 14.415 79.3197 14.4508 79.248 14.4963H79.1699C79.1439 14.4963 79.1081 14.4605 79.0625 14.3889V14.2522H79.0332C78.8574 14.3499 78.7695 14.4833 78.7695 14.6526ZM76.9043 18.1877C76.9043 19.3987 77.2526 20.3492 77.9492 21.0393C78.3529 21.3258 78.724 21.469 79.0625 21.469H79.3848C79.9186 21.469 80.4232 21.2086 80.8984 20.6877C81.2174 20.2711 81.377 19.7047 81.377 18.9885C81.377 17.4065 80.8822 16.342 79.8926 15.7952C79.6712 15.7236 79.3945 15.6715 79.0625 15.6389C78.6068 15.6389 78.138 15.8082 77.6562 16.1467C77.1549 16.5959 76.9043 17.2763 76.9043 18.1877ZM89.082 0.775635H89.1602C89.1862 0.775635 89.2188 0.808187 89.2578 0.873291V11.2932H89.2773C89.2773 11.1956 89.388 11.0556 89.6094 10.8733C89.6549 10.6715 89.7559 10.5706 89.9121 10.5706H89.9414C90.1042 10.5706 90.2051 10.678 90.2441 10.8928C90.1855 11.0816 90.0911 11.176 89.9609 11.176H89.8828C89.8242 11.176 89.7591 11.1402 89.6875 11.0686C89.4336 11.3486 89.3066 11.6448 89.3066 11.9573V12.0061C89.4108 12.1038 89.4629 12.1884 89.4629 12.26V12.3284C89.4629 12.4 89.4108 12.4846 89.3066 12.5823H89.3359C90.612 12.5823 91.4681 13.1194 91.9043 14.1936C92.1061 14.467 92.2754 15.7301 92.4121 17.9827C92.5618 19.5256 92.6367 20.4924 92.6367 20.8831C92.6367 21.137 92.2428 21.2639 91.4551 21.2639C91.4551 21.2965 91.2012 21.3127 90.6934 21.3127H90.6738C90.3874 21.3127 90.2441 20.8765 90.2441 20.0042C90.0098 16.775 89.7884 15.1604 89.5801 15.1604C89.3327 14.7372 88.9909 14.5256 88.5547 14.5256H88.252C87.7311 14.5256 87.2754 14.7698 86.8848 15.2581C86.7155 15.525 86.6309 15.9124 86.6309 16.4202V16.5178C86.6309 17.0452 86.7415 18.6174 86.9629 21.2346C86.9629 21.5406 86.7253 21.6936 86.25 21.6936C85.8984 21.7392 85.4883 21.7717 85.0195 21.7913C84.7135 21.7913 84.5605 21.4462 84.5605 20.7561C84.5605 20.6584 84.3685 18.2887 83.9844 13.6467C83.9844 13.3277 84.2773 13.1682 84.8633 13.1682C85.2604 13.1292 85.5827 13.1096 85.8301 13.1096H85.8496C86.0645 13.1096 86.1979 13.3114 86.25 13.7151C86.3086 13.7997 86.377 13.842 86.4551 13.842C86.5267 13.842 86.722 13.676 87.041 13.344C87.6204 12.9208 88.0729 12.7092 88.3984 12.7092C88.5807 12.6441 88.7728 12.6116 88.9746 12.6116V12.5627C88.8965 12.4716 88.8574 12.3935 88.8574 12.3284V12.2795C88.8574 12.2079 88.8965 12.1233 88.9746 12.0256V0.873291C88.9746 0.847249 89.0104 0.814697 89.082 0.775635ZM88.7012 13.6663C88.7012 13.9137 88.8542 14.0569 89.1602 14.0959C89.4076 14.0439 89.5312 13.8941 89.5312 13.6467C89.4661 13.4058 89.375 13.2854 89.2578 13.2854V13.4124C89.2578 13.4384 89.2253 13.4742 89.1602 13.5198H89.082C89.056 13.5198 89.0202 13.484 88.9746 13.4124V13.2854H88.9551C88.7858 13.3831 88.7012 13.51 88.7012 13.6663ZM98.0664 0.775635H98.1445C98.1706 0.775635 98.2031 0.808187 98.2422 0.873291V11.2932H98.2617C98.2617 11.1956 98.3724 11.0556 98.5938 10.8733C98.6393 10.6715 98.7402 10.5706 98.8965 10.5706H98.9258C99.0885 10.5706 99.1895 10.678 99.2285 10.8928C99.1699 11.0816 99.0755 11.176 98.9453 11.176H98.8672C98.8086 11.176 98.7435 11.1402 98.6719 11.0686C98.418 11.3486 98.291 11.6448 98.291 11.9573V12.0061C98.3952 12.1038 98.4473 12.1884 98.4473 12.26V12.3284C98.4473 12.4 98.3952 12.4846 98.291 12.5823H98.3203C99.5964 12.5823 100.452 13.1194 100.889 14.1936C101.09 14.467 101.26 15.7301 101.396 17.9827C101.546 19.5256 101.621 20.4924 101.621 20.8831C101.621 21.137 101.227 21.2639 100.439 21.2639C100.439 21.2965 100.186 21.3127 99.6777 21.3127H99.6582C99.3717 21.3127 99.2285 20.8765 99.2285 20.0042C98.9941 16.775 98.7728 15.1604 98.5645 15.1604C98.3171 14.7372 97.9753 14.5256 97.5391 14.5256H97.2363C96.7155 14.5256 96.2598 14.7698 95.8691 15.2581C95.6999 15.525 95.6152 15.9124 95.6152 16.4202V16.5178C95.6152 17.0452 95.7259 18.6174 95.9473 21.2346C95.9473 21.5406 95.7096 21.6936 95.2344 21.6936C94.8828 21.7392 94.4727 21.7717 94.0039 21.7913C93.6979 21.7913 93.5449 21.4462 93.5449 20.7561C93.5449 20.6584 93.3529 18.2887 92.9688 13.6467C92.9688 13.3277 93.2617 13.1682 93.8477 13.1682C94.2448 13.1292 94.5671 13.1096 94.8145 13.1096H94.834C95.0488 13.1096 95.1823 13.3114 95.2344 13.7151C95.293 13.7997 95.3613 13.842 95.4395 13.842C95.5111 13.842 95.7064 13.676 96.0254 13.344C96.6048 12.9208 97.0573 12.7092 97.3828 12.7092C97.5651 12.6441 97.7572 12.6116 97.959 12.6116V12.5627C97.8809 12.4716 97.8418 12.3935 97.8418 12.3284V12.2795C97.8418 12.2079 97.8809 12.1233 97.959 12.0256V0.873291C97.959 0.847249 97.9948 0.814697 98.0664 0.775635ZM97.6855 13.6663C97.6855 13.9137 97.8385 14.0569 98.1445 14.0959C98.3919 14.0439 98.5156 13.8941 98.5156 13.6467C98.4505 13.4058 98.3594 13.2854 98.2422 13.2854V13.4124C98.2422 13.4384 98.2096 13.4742 98.1445 13.5198H98.0664C98.0404 13.5198 98.0046 13.484 97.959 13.4124V13.2854H97.9395C97.7702 13.3831 97.6855 13.51 97.6855 13.6663ZM108.33 13.6663C108.33 13.9137 108.483 14.0569 108.789 14.0959C109.036 14.0439 109.16 13.8941 109.16 13.6467C109.095 13.4058 109.004 13.2854 108.887 13.2854V13.4124C108.887 13.4384 108.854 13.4742 108.789 13.5198H108.711C108.685 13.5198 108.649 13.484 108.604 13.4124V13.2854H108.584C108.415 13.3831 108.33 13.51 108.33 13.6663ZM102.93 13.6272C102.767 13.7183 102.686 13.842 102.686 13.9983C102.686 14.2327 102.832 14.3694 103.125 14.4084C103.372 14.3564 103.496 14.2099 103.496 13.969C103.431 13.7411 103.34 13.6272 103.223 13.6272V13.7542C103.223 13.7802 103.19 13.8127 103.125 13.8518H103.057C103.031 13.8518 102.998 13.8193 102.959 13.7542V13.6272H102.93ZM103.213 13.0803C103.317 13.0673 103.545 13.0608 103.896 13.0608H103.916C104.202 13.0608 104.346 13.497 104.346 14.3694C104.58 17.5986 104.801 19.2131 105.01 19.2131C105.257 19.6363 105.599 19.8479 106.035 19.8479H106.338C106.859 19.8479 107.314 19.6038 107.705 19.1155C107.874 18.8486 107.959 18.4612 107.959 17.9534V17.8557C107.959 17.3284 107.848 15.7561 107.627 13.1389C107.627 12.8329 107.865 12.6799 108.34 12.6799C108.424 12.6669 108.512 12.6571 108.604 12.6506V12.6213C108.525 12.5302 108.486 12.4521 108.486 12.387V12.3381C108.486 12.2665 108.525 12.1819 108.604 12.0842V0.873291C108.604 0.847249 108.639 0.814697 108.711 0.775635H108.789C108.815 0.775635 108.848 0.808187 108.887 0.873291V11.3518H108.906C108.906 11.2542 109.017 11.1142 109.238 10.9319C109.284 10.7301 109.385 10.6292 109.541 10.6292H109.57C109.733 10.6292 109.834 10.7366 109.873 10.9514C109.814 11.1402 109.72 11.2346 109.59 11.2346H109.512C109.453 11.2346 109.388 11.1988 109.316 11.1272C109.062 11.4071 108.936 11.7034 108.936 12.0159V12.0647C109.04 12.1624 109.092 12.247 109.092 12.3186V12.387C109.092 12.4521 109.049 12.5302 108.965 12.6213C109.154 12.6018 109.355 12.5888 109.57 12.5823C109.876 12.5823 110.029 12.9273 110.029 13.6174C110.029 13.7151 110.221 16.0849 110.605 20.7268C110.605 21.0458 110.312 21.2053 109.727 21.2053C109.329 21.2444 109.007 21.2639 108.76 21.2639H108.74C108.525 21.2639 108.392 21.0621 108.34 20.6584C108.281 20.5738 108.213 20.5315 108.135 20.5315C108.063 20.5315 107.868 20.6975 107.549 21.0295C106.969 21.4527 106.517 21.6643 106.191 21.6643C106.009 21.7294 105.817 21.762 105.615 21.762V21.7815L105.254 21.7913C103.978 21.7913 103.122 21.2542 102.686 20.1799C102.484 19.9065 102.314 18.6435 102.178 16.3909C102.028 14.8479 101.953 13.8811 101.953 13.4905C101.953 13.2561 102.285 13.1292 102.949 13.1096V13.0999C102.839 13.0999 102.764 13.0185 102.725 12.8557V12.8069C102.764 12.6311 102.839 12.5432 102.949 12.5432V0.873291C102.949 0.847249 102.982 0.814697 103.047 0.775635H103.115C103.141 0.775635 103.174 0.808187 103.213 0.873291V11.6643C103.337 11.5732 103.451 11.4267 103.555 11.2249C103.62 11.1728 103.678 11.1467 103.73 11.1467H103.779C103.955 11.1728 104.043 11.2639 104.043 11.4202V11.5374C103.978 11.6676 103.896 11.7327 103.799 11.7327H103.73C103.672 11.7327 103.597 11.7001 103.506 11.635C103.311 11.8889 103.213 12.094 103.213 12.2502V12.592C103.278 12.6571 103.311 12.7222 103.311 12.7874V12.8557C103.311 12.9143 103.278 12.9794 103.213 13.051V13.0803ZM112.051 14.0569C112.103 14.3499 112.266 14.4963 112.539 14.4963C112.747 14.4963 112.881 14.3499 112.939 14.0569C112.939 13.8941 112.858 13.7607 112.695 13.6565H112.646C112.646 13.7476 112.617 13.7932 112.559 13.7932H112.451C112.438 13.7932 112.393 13.7476 112.314 13.6565C112.139 13.7542 112.051 13.8876 112.051 14.0569ZM117.676 14.0569C117.728 14.3499 117.891 14.4963 118.164 14.4963C118.372 14.4963 118.506 14.3499 118.564 14.0569C118.564 13.8941 118.483 13.7607 118.32 13.6565H118.271C118.271 13.7476 118.242 13.7932 118.184 13.7932H118.076C118.063 13.7932 118.018 13.7476 117.939 13.6565C117.764 13.7542 117.676 13.8876 117.676 14.0569ZM113.809 18.6174V21.7815C113.809 22.1786 113.646 22.3772 113.32 22.3772H111.885C111.488 22.3772 111.289 22.1982 111.289 21.8401V13.5979C111.289 13.2919 111.478 13.1389 111.855 13.1389H112.07V13.0315C112.07 12.9273 112.135 12.8264 112.266 12.7288C112.266 12.4944 112.184 12.3772 112.021 12.3772C111.787 12.3772 111.67 12.2795 111.67 12.0842V12.0256C111.67 11.8759 111.768 11.7782 111.963 11.7327H112.021C112.217 11.7587 112.314 11.8564 112.314 12.0256V12.0842L112.295 12.2209L112.344 12.2405V11.6741L112.314 0.892822C112.314 0.866781 112.354 0.830973 112.432 0.7854H112.51C112.536 0.7854 112.572 0.821208 112.617 0.892822L112.646 11.6741V12.8167C112.699 12.8818 112.725 12.9436 112.725 13.0022V13.1389H113.32C113.646 13.1389 113.809 13.318 113.809 13.676V16.8401H116.924L116.914 13.5979C116.914 13.2919 117.103 13.1389 117.48 13.1389H117.695V13.0315C117.695 12.9273 117.76 12.8264 117.891 12.7288C117.891 12.4944 117.809 12.3772 117.646 12.3772C117.412 12.3772 117.295 12.2795 117.295 12.0842V12.0256C117.295 11.8759 117.393 11.7782 117.588 11.7327H117.646C117.842 11.7587 117.939 11.8564 117.939 12.0256V12.0842L117.92 12.2209L117.969 12.2405V11.6741L117.939 0.892822C117.939 0.866781 117.979 0.830973 118.057 0.7854H118.135C118.161 0.7854 118.197 0.821208 118.242 0.892822L118.271 11.6741V12.8167C118.324 12.8818 118.35 12.9436 118.35 13.0022V13.1389H118.945C119.271 13.1389 119.434 13.318 119.434 13.676V21.7815C119.434 22.1786 119.271 22.3772 118.945 22.3772H117.51C117.113 22.3772 116.914 22.1982 116.914 21.8401V18.6174H113.809ZM123.965 14.2424C123.965 14.5028 124.128 14.6558 124.453 14.7014C124.72 14.6428 124.854 14.4801 124.854 14.2131C124.788 13.9657 124.691 13.842 124.561 13.842V13.969C124.561 14.0015 124.525 14.0406 124.453 14.0862H124.365C124.339 14.0862 124.303 14.0471 124.258 13.969V13.842H124.229C124.053 13.9397 123.965 14.0732 123.965 14.2424ZM124.609 13.4709H124.629C124.941 13.4709 125.391 13.5426 125.977 13.6858C126.868 13.9722 127.471 14.3759 127.783 14.8967C127.952 15.1767 128.079 15.6552 128.164 16.3323C128.164 16.9573 127.939 17.4944 127.49 17.9436C127.178 18.2626 126.413 18.5784 125.195 18.8909C123.327 19.1969 122.393 19.6558 122.393 20.2678V20.2971C122.393 20.6422 122.536 20.9286 122.822 21.1565C123.226 21.3778 123.604 21.4885 123.955 21.4885C124.404 21.4885 124.808 21.3974 125.166 21.2151C125.55 21.0002 125.794 20.7203 125.898 20.3752C126.009 20.0888 126.178 19.9456 126.406 19.9456H127.92C128.174 19.9781 128.301 20.0855 128.301 20.2678V20.3264C128.301 20.398 128.291 20.4957 128.271 20.6194C127.979 21.5439 127.549 22.1558 126.982 22.4553C126.032 22.9241 125.13 23.1584 124.277 23.1584C122.663 23.1584 121.449 22.7971 120.635 22.0745C120.094 21.443 119.824 20.7594 119.824 20.0237C119.824 19.2099 120.166 18.5621 120.85 18.0803C121.436 17.7418 122.181 17.4814 123.086 17.2991C124.766 17.0321 125.605 16.609 125.605 16.0295V15.9807L125.576 15.7854C125.426 15.3557 124.922 15.1409 124.062 15.1409C123.613 15.1409 123.2 15.2841 122.822 15.5706C122.549 16.1305 122.269 16.4104 121.982 16.4104C121.859 16.3909 121.761 16.3811 121.689 16.3811H120.576C120.309 16.3811 120.176 16.2639 120.176 16.0295V15.9807C120.176 15.818 120.247 15.5738 120.391 15.2483C120.977 14.0634 122.181 13.4709 124.004 13.4709H124.18C124.108 13.3928 124.072 13.318 124.072 13.2463V13.1975C124.105 13.0152 124.167 12.9241 124.258 12.9241V0.834229C124.258 0.801676 124.294 0.765869 124.365 0.726807H124.453C124.479 0.726807 124.515 0.762614 124.561 0.834229V12.0354H124.58C124.58 11.8661 124.87 11.6611 125.449 11.4202C125.664 11.4592 125.771 11.5569 125.771 11.7131V11.7913C125.771 11.954 125.654 12.0549 125.42 12.094C125.309 12.094 125.212 12.0028 125.127 11.8206C124.749 12.0484 124.561 12.3902 124.561 12.8459V12.9045C124.665 13.0087 124.717 13.0966 124.717 13.1682V13.2463C124.717 13.3114 124.681 13.3863 124.609 13.4709Z" fill="black"/>
</svg>
