<svg width="25" height="25" viewBox="0 0 25 25" fill="none" xmlns="http://www.w3.org/2000/svg">
<path d="M8.00865 0.625216C7.66833 0.972555 7.4301 1.70197 7.4301 2.18824C7.4301 2.70925 7.29398 3.12606 7.08978 3.12606C6.44318 3.12606 5.38818 4.51541 5.38818 5.38376C5.38818 6.07844 5.55834 6.25211 6.23898 6.25211C6.71543 6.25211 7.36204 5.97423 7.70236 5.6269C8.11074 5.21009 8.68929 5.07115 9.77831 5.14062C11.7522 5.27956 12.5349 4.55015 12.5349 2.60505C12.5349 1.6325 12.3307 0.972555 11.9223 0.590482C11.0375 -0.208397 8.72332 -0.173664 8.00865 0.625216Z" fill="#D7FFFF"/>
<path d="M16.1081 4.16807C14.7809 8.3014 14.7809 8.33614 13.7259 8.33614C13.1814 8.33614 12.3986 8.093 12.0583 7.81513C11.2075 7.15518 8.75721 7.15518 7.90641 7.81513C7.42996 8.16247 6.30691 8.3014 3.82257 8.33614C0.21518 8.33614 -0.329332 8.57927 0.147116 9.89916C0.453404 10.698 24.6161 10.698 24.9224 9.89916C25.1606 9.23922 24.8203 8.33614 24.3098 8.33614C24.1056 8.33614 23.7313 7.53726 23.4931 6.52997C23.2889 5.52269 22.7103 4.13334 22.2339 3.43866C21.3831 2.08404 18.7286 2.86102e-06 17.9118 2.86102e-06C17.6055 2.86102e-06 16.9589 1.52829 16.1081 4.16807Z" fill="#D7FFFF"/>
<path d="M1.3042 12.8168C1.3042 13.6852 2.69951 16.3249 3.51628 16.9501C4.43514 17.6796 4.77546 17.7143 12.5348 17.7143C20.2941 17.7143 20.6344 17.6796 21.5532 16.9501C22.37 16.3249 23.7653 13.6852 23.7653 12.8168C23.7653 12.6431 19.1029 12.5042 12.5348 12.5042C5.96658 12.5042 1.3042 12.6431 1.3042 12.8168Z" fill="#D7FFFF"/>
<path d="M5.9668 20.4235C5.18406 21.3266 5.21809 23.6885 6.00083 24.4179C6.88566 25.2168 9.19984 25.1821 9.91451 24.3832C10.6972 23.4801 10.6632 21.1182 9.88048 20.3888C8.99565 19.5899 6.68147 19.6246 5.9668 20.4235Z" fill="#D7FFFF"/>
<path d="M15.1553 20.4235C14.3725 21.3266 14.4066 23.6885 15.1893 24.4179C16.0741 25.2168 18.3883 25.1821 19.103 24.3832C19.8857 23.4801 19.8517 21.1182 19.069 20.3888C18.1841 19.5899 15.8699 19.6246 15.1553 20.4235Z" fill="#D7FFFF"/>
</svg>
