<svg width="25" height="25" viewBox="0 0 25 25" fill="none" xmlns="http://www.w3.org/2000/svg">
<path d="M10.9394 2.0623C8.99258 3.91836 8.62176 4.12459 7.35476 4.12459C6.5822 4.12459 5.68603 4.36519 5.34611 4.64017C5.03708 4.91514 4.38813 5.15574 3.9555 5.15574C2.81211 5.15574 1.66873 6.29001 0.772559 8.24919C0.123609 9.72717 0 10.3802 0 13.6112V17.2546L1.97775 19.4543C3.77009 21.4479 4.07911 21.6541 5.19159 21.6541H6.45859V23.1665C6.45859 24.7132 6.92213 25.2631 7.8492 24.885C8.18912 24.7132 8.31273 24.1289 8.31273 22.6509C8.31273 20.623 8.31273 20.623 9.2398 20.623H10.1669V22.6853V24.7476H16.2855C20.6428 24.7476 22.4969 24.6444 22.775 24.3351C23.0222 24.0601 23.1459 22.0666 23.1459 17.6326V11.3426H24.0729C24.8764 11.3426 25 11.2051 25 10.449C25 9.89903 24.6601 9.24597 24.0729 8.69602C23.2077 7.90547 23.1459 7.69924 23.1459 5.46509V3.09344H21.7862C20.4883 3.09344 20.3955 3.16219 20.3028 4.15897L20.2101 5.19011L17.3671 2.61224C15.6057 0.962406 14.246 0 13.8133 0C13.4116 0.0343723 12.1755 0.893663 10.9394 2.0623ZM8.86897 7.56176C9.2398 8.28356 9.64153 8.59291 10.1978 8.59291C11.2485 8.59291 11.712 9.17722 11.712 10.5177C11.712 11.102 11.9283 11.7895 12.1755 12.0301C12.4227 12.2707 12.6391 12.9237 12.6391 13.4737C12.6391 14.2298 12.4227 14.6079 11.712 15.0548C11.063 15.4672 10.7849 15.9141 10.7849 16.4984C10.7849 17.0139 10.6304 17.5639 10.4141 17.8045C9.95056 18.3201 8.77627 18.3544 8.00371 17.8732C7.57108 17.5983 7.35476 17.7358 6.92213 18.4232C6.27318 19.5574 4.63535 19.4887 4.11001 18.2513C3.8937 17.8045 3.43016 17.2889 3.02843 17.0483C2.10136 16.5327 1.88504 14.9517 2.6267 14.058C3.12114 13.4393 3.12114 13.3706 2.6576 12.7862C2.00865 11.9957 1.97775 10.5521 2.5958 9.96777C2.84302 9.72717 3.05933 9.28034 3.05933 8.97099C3.05933 8.07733 3.70828 7.56176 4.78986 7.56176C5.3152 7.56176 5.93325 7.32115 6.14957 7.04618C6.36588 6.77121 6.95303 6.53061 7.44747 6.53061C8.12732 6.53061 8.46724 6.77121 8.86897 7.56176ZM20.3646 17.5295V19.5918H18.5105H16.6564V17.5295V15.4672H18.5105H20.3646V17.5295Z" fill="#FFDE6B"/>
</svg>
