<svg width="25" height="25" viewBox="0 0 25 25" fill="none" xmlns="http://www.w3.org/2000/svg">
<path d="M7.64563 0.767616C4.97573 1.80838 1.78571 5.03474 0.780166 7.74072C-0.260055 10.4814 -0.260055 14.5057 0.780166 17.2463C1.78571 20.0217 4.97573 23.2134 7.74965 24.2194C10.4889 25.2602 14.5111 25.2602 17.2503 24.2194C20.0243 23.2134 23.2143 20.0217 24.2198 17.2463C25.2601 14.5057 25.2601 10.4814 24.2198 7.74072C23.2143 4.96535 20.0243 1.77369 17.2503 0.767616C14.5458 -0.273144 10.3155 -0.238453 7.64563 0.767616ZM11.4598 6.42242C11.4598 7.46318 11.3211 8.33048 11.1477 8.33048C10.9743 8.33048 10.3849 8.71209 9.8301 9.16309C8.85922 9.96101 8.85922 9.96101 6.95215 9.40593L5.07975 8.85086L6.43204 7.32441C7.71498 5.93673 9.96879 4.54905 11.0437 4.51436C11.3211 4.51436 11.4598 5.13881 11.4598 6.42242ZM15.794 5.1735C16.5569 5.52043 17.8051 6.4918 18.568 7.32441L19.9202 8.85086L18.0478 9.40593C16.1408 9.96101 16.1408 9.96101 15.1699 9.16309C14.6151 8.71209 14.0257 8.33048 13.8523 8.33048C13.6789 8.33048 13.5402 7.46318 13.5402 6.42242C13.5402 4.27151 13.6789 4.20213 15.794 5.1735ZM8.37379 13.4302C8.47781 13.9853 8.68585 14.6097 8.78988 14.8179C8.92857 14.9913 8.51248 15.824 7.9577 16.6219C7.0215 17.8361 6.81345 18.0096 6.32802 17.6279C5.42649 16.8647 4.52497 14.471 4.52497 12.7711V11.1405L6.32802 11.765C7.88835 12.2854 8.16574 12.5282 8.37379 13.4302ZM19.9549 15.477C19.6429 16.275 19.1227 17.1769 18.776 17.4892C18.1519 18.0442 18.0825 18.0096 17.077 16.6219C16.4875 15.824 16.0714 14.9913 16.2101 14.8179C16.3141 14.6097 16.5222 13.9853 16.6262 13.4302C16.8343 12.5282 17.1117 12.2854 18.568 11.7997L20.3017 11.2099L20.4057 12.5976C20.475 13.3955 20.267 14.6791 19.9549 15.477ZM13.1935 12.4935C13.1935 12.9445 12.9508 13.1874 12.5 13.1874C12.0492 13.1874 11.8065 12.9445 11.8065 12.4935C11.8065 12.0425 12.0492 11.7997 12.5 11.7997C12.9508 11.7997 13.1935 12.0425 13.1935 12.4935ZM15.0312 18.1136C16.3488 19.987 15.9674 20.2992 12.5 20.2992C9.03259 20.2992 8.65118 19.987 9.96879 18.1136C10.8703 16.7953 11.0784 16.6913 12.5 16.6913C13.9216 16.6913 14.1297 16.7953 15.0312 18.1136Z" fill="#FEDEA0"/>
</svg>
