<svg width="25" height="25" viewBox="0 0 25 25" fill="none" xmlns="http://www.w3.org/2000/svg">
<path d="M8.77366 0.109741C8.53044 0.208906 8.32197 0.671673 8.32197 1.20055C8.32197 2.68801 7.52281 3.18384 5.12535 3.18384C2.76262 3.18384 1.44228 3.77882 0.538887 5.16713C-0.156031 6.32404 -0.190777 8.53871 0.504141 9.7948C1.12957 10.9517 2.62364 12.1086 3.49229 12.1086C4.11771 12.1086 4.15246 12.4722 4.15246 18.5543V25H5.19484H6.23721V22.4217C6.27196 18.9179 6.68891 17.3974 7.97451 16.3066C10.094 14.4886 13.3949 15.5794 14.2288 18.3229C14.4025 18.984 14.5762 20.769 14.5762 22.2565V25H15.6186H16.661V21.2318C16.661 17.0338 16.8 16.4058 17.7034 16.4058C18.6068 16.4058 18.7457 17.0338 18.7457 21.2318V25H19.7881H20.8305V19.6121V14.2241L22.0466 13.8275C22.672 13.5961 23.6102 12.935 24.1314 12.4061C24.9305 11.4475 25 11.1831 25 7.77845C25 4.63825 24.9305 4.17548 24.4093 4.17548C24.0966 4.17548 23.5407 4.40686 23.1932 4.70436C22.3246 5.49767 17.2517 5.49767 16.383 4.70436C15.0627 3.61355 14.5762 4.01021 14.5762 6.12571V8.109L13.3601 7.61318C11.866 7.01819 8.98214 7.01819 7.52281 7.61318C6.89739 7.84456 6.02874 8.43955 5.57704 8.93537C5.0906 9.39814 4.46517 9.7948 4.15246 9.7948C3.28381 9.7948 2.41517 8.70399 2.41517 7.58013C2.41517 6.0596 3.3533 5.49767 6.41094 5.20018C9.7118 4.90269 10.4067 4.3077 10.4067 1.86165C10.4067 0.275017 9.92028 -0.25386 8.77366 0.109741ZM18.3983 9.1337C18.3983 9.56341 18.1551 9.7948 17.7034 9.7948C17.2517 9.7948 17.0084 9.56341 17.0084 9.1337C17.0084 8.70399 17.2517 8.4726 17.7034 8.4726C18.1551 8.4726 18.3983 8.70399 18.3983 9.1337ZM22.5678 9.1337C22.5678 9.56341 22.3246 9.7948 21.8729 9.7948C21.4212 9.7948 21.178 9.56341 21.178 9.1337C21.178 8.70399 21.4212 8.4726 21.8729 8.4726C22.3246 8.4726 22.5678 8.70399 22.5678 9.1337Z" fill="#FFCDF8"/>
<path d="M8.73873 17.4635C8.46076 17.7279 8.32178 19.0832 8.32178 21.4301V25H9.36415H10.4065V21.0334C10.4065 17.4305 10.337 17.0669 9.7811 17.0669C9.43365 17.0669 8.98195 17.2321 8.73873 17.4635Z" fill="#FFCDF8"/>
</svg>
