<svg width="25" height="25" viewBox="0 0 25 25" fill="none" xmlns="http://www.w3.org/2000/svg">
<path d="M16.4103 0.520264C14.6474 1.38652 13.6859 2.95861 13.5256 5.20446L13.3974 7.19364L10.3526 10.2737L7.30769 13.3858L5.28846 13.5141C1.89103 13.7387 0 15.792 0 19.2891C0 22.0804 0.352564 22.2087 2.30769 20.2837C4.07051 18.5512 5.19231 18.1341 6.02564 18.9683C6.85897 19.8025 6.44231 20.9254 4.71154 22.69C2.78846 24.6471 2.91667 25 5.70513 25C9.19872 25 11.25 23.1071 11.4744 19.7062L11.6026 17.685L14.7115 14.637L17.7885 11.5891L19.7756 11.4607C23.109 11.2362 25 9.15073 25 5.68571C25 2.89445 24.6474 2.76611 22.6923 4.69112C20.9295 6.42363 19.8077 6.84072 18.9744 6.00655C18.141 5.17238 18.5577 4.04945 20.2885 2.28486C21.6346 0.905266 21.859 0.552347 21.4744 0.295679C20.7051 -0.185574 17.5641 -0.0572395 16.4103 0.520264Z" fill="#D2FFBD"/>
</svg>
