<svg width="25" height="25" viewBox="0 0 25 25" fill="none" xmlns="http://www.w3.org/2000/svg">
<path d="M6.80066 0.834857C6.16618 1.43594 5.96582 2.00363 5.96582 3.00544C5.96582 4.87548 7.1012 6.01086 8.97124 6.01086C10.8413 6.01086 11.9767 4.87548 11.9767 3.00544C11.9767 2.00363 11.7763 1.43594 11.1418 0.834857C10.5407 0.200379 9.97305 1.7643e-05 8.97124 1.7643e-05C7.96944 1.7643e-05 7.40174 0.200379 6.80066 0.834857Z" fill="#D5C6E0"/>
<path d="M14.4478 0.467476C13.5462 0.868198 13.446 1.03517 13.5796 2.13716C13.6463 2.80503 13.7465 3.33932 13.8133 3.33932C13.8467 3.33932 14.4812 3.10557 15.149 2.80503C19.0895 1.16874 22.6626 3.23914 22.6626 7.17959C22.6292 14.0253 13.112 18.8673 9.77268 13.7581C9.1382 12.7897 8.97123 10.4856 9.40535 8.74909C9.6725 7.68049 9.6725 7.68049 8.50372 7.68049C7.86925 7.68049 7.23477 7.84746 7.13459 8.04782C7.00101 8.24818 6.80065 10.1516 6.63368 12.3222C6.46671 15.2274 6.23296 16.5298 5.76545 17.3312C5.16436 18.3664 5.16436 18.3664 5.89902 19.1011C6.63368 19.8358 6.63368 19.8358 7.66888 19.2347C8.47033 18.7672 9.77268 18.5334 12.6111 18.333C17.2195 18.0325 18.8891 17.4314 21.3937 15.1273C23.7646 12.8899 25.0002 10.2184 25.0002 7.27977C25.0002 6.0442 24.8332 4.64167 24.6328 4.10738C24.1653 2.83842 22.3955 1.03517 21.0931 0.467476C19.724 -0.13361 15.8169 -0.100216 14.4478 0.467476Z" fill="#D5C6E0"/>
<path d="M1.65788 20.8376C0.121775 22.3737 -0.0785867 22.7744 0.0215941 23.7428C0.121775 24.778 0.221956 24.8782 1.25716 24.9784C2.22557 25.0786 2.62629 24.8782 4.1624 23.3421C5.16421 22.3403 5.96565 21.4053 5.96565 21.2049C5.96565 20.7374 4.22919 19.0343 3.76168 19.0343C3.59471 19.0343 2.65969 19.8358 1.65788 20.8376Z" fill="#D5C6E0"/>
</svg>
