<svg width="25" height="25" viewBox="0 0 25 25" fill="none" xmlns="http://www.w3.org/2000/svg">
<path d="M4.76783 0.833333C4.06302 1.36667 3.73134 2 3.73134 2.83333C3.73134 3.86667 3.60696 4 2.69486 4C1.36816 4 0 5.1 0 6.16667C0 6.83333 0.207297 7 1.03648 7C2.28027 7 3.73134 5.93333 3.73134 5C3.73134 4.4 3.81426 4.43333 4.76783 5.16667C5.5141 5.8 6.2189 6 7.46269 6C9.78441 6 11.194 4.86667 11.194 3C11.194 1.13333 9.78441 -4.76837e-07 7.46269 -4.76837e-07C6.2189 -4.76837e-07 5.5141 0.2 4.76783 0.833333Z" fill="#C3BDF9"/>
<path d="M19.1957 2.9C18.8226 3 18.6567 3.83333 18.6567 5.53333V8H11.2769C4.02156 8 3.85572 8 2.94361 8.8C1.94859 9.63333 0.0414594 14.9667 0 16.9C0 17.9 0.124378 18 1.24378 18C2.32172 18 2.48756 17.8333 2.90216 16.5667C3.15091 15.8 3.44113 15 3.52405 14.8333C3.60696 14.6333 3.68988 16.8667 3.68988 19.7333L3.73134 25H4.97512C6.38474 25 6.50912 24.7333 6.75788 21.4333C7.00663 18.0333 7.91874 18.0333 8.16749 21.4333C8.41625 24.7333 8.54063 25 9.95025 25H11.194V22V19H12.4378C13.5572 19 13.6816 18.9 13.6816 17.9C13.6816 17.3333 13.2255 15.4667 12.6451 13.8333C12.0647 12.1667 11.6086 10.6333 11.6086 10.4C11.6086 10.1 12.6036 10 15.1327 10H18.6567V11.5C18.6567 12.5667 18.4909 13 18.0763 13C17.3715 13 16.9154 13.8 17.2471 14.5C17.4544 14.8667 18.1592 15 19.9005 15C21.6418 15 22.3466 14.8667 22.5539 14.5C22.8856 13.8 22.4295 13 21.7247 13C21.2687 13 21.1443 12.0667 21.1443 8.03333C21.1443 3.6 21.0614 3.06667 20.4395 2.93333C20.0249 2.83333 19.4444 2.83333 19.1957 2.9Z" fill="#C3BDF9"/>
<path d="M16.086 18.5667C15.63 19.4667 15.1325 21.2 15.0081 22.5667L14.8008 25H19.9003H24.9998L24.7925 22.5667C24.6681 21.2 24.1706 19.4667 23.7145 18.5667L22.8439 17H19.9003H16.9567L16.086 18.5667Z" fill="#C3BDF9"/>
</svg>
