<svg width="25" height="25" viewBox="0 0 25 25" fill="none" xmlns="http://www.w3.org/2000/svg">
<path d="M2.07307 1.04246C1.11246 1.96228 0.984375 2.26888 0.984375 3.67926C0.984375 5.9788 2.4253 7.35852 4.82683 7.35852C6.29978 7.35852 6.61998 7.23588 7.5806 6.31606C8.54121 5.39625 8.66929 5.08965 8.66929 3.67926C8.66929 2.26888 8.54121 1.96228 7.5806 1.04246C6.61998 0.122648 6.29978 6.19888e-06 4.82683 6.19888e-06C3.35389 6.19888e-06 3.03369 0.122648 2.07307 1.04246ZM5.46724 3.67926C5.46724 4.07785 5.2431 4.29247 4.82683 4.29247C4.41057 4.29247 4.18642 4.07785 4.18642 3.67926C4.18642 3.28068 4.41057 3.06605 4.82683 3.06605C5.2431 3.06605 5.46724 3.28068 5.46724 3.67926Z" fill="#B6D2FD"/>
<path d="M11.3913 2.60615C10.7829 3.15804 10.5908 3.67926 10.5908 4.59908C10.5908 5.51889 10.7829 6.04012 11.3913 6.59201C11.9677 7.17456 12.512 7.35852 13.4727 7.35852C15.2658 7.35852 16.3545 6.31606 16.3545 4.59908C16.3545 2.88209 15.2658 1.83963 13.4727 1.83963C12.512 1.83963 11.9677 2.0236 11.3913 2.60615ZM14.1131 4.59908C14.1131 4.99766 13.8889 5.21229 13.4727 5.21229C13.0564 5.21229 12.8323 4.99766 12.8323 4.59908C12.8323 4.20049 13.0564 3.98587 13.4727 3.98587C13.8889 3.98587 14.1131 4.20049 14.1131 4.59908Z" fill="#B6D2FD"/>
<path d="M0.408261 8.64625C-0.136087 9.16748 -0.136087 20.2666 0.408261 20.7878C0.632405 21.0024 1.36888 21.1557 2.10535 21.1557C3.83445 21.1557 4.76305 22.0755 4.0586 23.0567C3.61031 23.6699 3.70637 24.4977 4.28274 24.8656C4.89113 25.2642 5.65962 24.7737 6.5562 23.4246C7.35671 22.2288 7.58085 22.0755 8.66955 22.0755C9.75825 22.0755 9.98239 22.2288 10.7829 23.4246C11.6795 24.7737 12.448 25.2642 13.0564 24.8656C13.6327 24.4977 13.7288 23.6699 13.2805 23.0567C12.576 22.0755 13.5046 21.1557 15.2338 21.1557C15.9702 21.1557 16.7067 21.0024 16.9308 20.7878C17.4752 20.2666 17.4752 9.16748 16.9308 8.64625C16.3865 8.12503 0.95261 8.12503 0.408261 8.64625Z" fill="#B6D2FD"/>
<path d="M21.2536 10.4552L19.2363 11.7123V14.717V17.7217L21.3177 18.9788C22.4384 19.684 23.7512 20.2359 24.1995 20.2359H25V14.717V9.19813L24.1355 9.22879C23.6231 9.22879 22.3423 9.78068 21.2536 10.4552Z" fill="#B6D2FD"/>
</svg>
