<svg width="25" height="25" viewBox="0 0 25 25" fill="none" xmlns="http://www.w3.org/2000/svg">
<path d="M0.407869 0.5C-0.135956 1.20833 -0.135956 23.7917 0.407869 24.5C0.919706 25.1667 6.80582 25.1667 7.31766 24.5C7.86148 23.7917 7.86148 1.20833 7.31766 0.5C6.80582 -0.166668 0.919706 -0.166668 0.407869 0.5ZM4.50256 18.75C4.50256 19.2917 4.27863 19.5833 3.86276 19.5833C3.4469 19.5833 3.22297 19.2917 3.22297 18.75C3.22297 18.2083 3.4469 17.9167 3.86276 17.9167C4.27863 17.9167 4.50256 18.2083 4.50256 18.75Z" fill="#F6D5D5"/>
<path d="M9.62109 1.25V2.5H16.3389H23.0568V8.75V15H16.3389H9.62109V17.5V20H16.9148C22.1611 20 24.3044 19.875 24.5923 19.5C25.1361 18.7917 25.1361 1.20833 24.5923 0.5C24.3044 0.125 22.1611 0 16.9148 0H9.62109V1.25ZM15.0594 17.5C15.0594 18.0417 14.8354 18.3333 14.4196 18.3333C14.0037 18.3333 13.7798 18.0417 13.7798 17.5C13.7798 16.9583 14.0037 16.6667 14.4196 16.6667C14.8354 16.6667 15.0594 16.9583 15.0594 17.5Z" fill="#F6D5D5"/>
<path d="M9.62109 23.75V25H14.8994H20.1777V23.75V22.5H14.8994H9.62109V23.75Z" fill="#F6D5D5"/>
</svg>
