<svg width="25" height="25" viewBox="0 0 25 25" fill="none" xmlns="http://www.w3.org/2000/svg">
<path d="M8.45974 0.737665C5.12351 2.36491 3.93199 4.40939 3.54475 8.95733C3.4256 10.7097 3.21708 12.2953 3.12772 12.5039C3.00857 12.7542 2.26387 13.4218 1.4596 13.9642C0.208515 14.8822 0 15.1742 0 16.3008C0 17.928 1.01279 18.5539 4.31923 18.9711C7.23844 19.3467 8.42995 19.9725 9.97892 22.0587C12.1236 24.9794 12.6002 25.1463 17.8429 24.9377C21.6855 24.8125 22.6983 24.6456 23.6813 23.978C25.2303 22.8932 25.409 21.2242 24.2473 18.4705C23.5622 16.8015 23.443 15.9253 23.2643 11.6694C23.0856 7.24664 22.9664 6.57905 22.2515 5.03526C21.2387 2.8656 19.1834 1.02973 17.2471 0.445595C14.8939 -0.263716 10.2172 -0.0968189 8.45974 0.737665ZM16.3237 9.66664C16.5322 9.95871 16.6812 10.668 16.6812 11.2522C16.6812 11.8363 16.5322 12.5456 16.3237 12.8377C16.1152 13.1298 15.6088 13.3384 15.1918 13.3384C14.2088 13.3384 13.7024 12.6291 13.7024 11.2522C13.7024 10.668 13.8513 9.95871 14.0599 9.66664C14.2684 9.37457 14.7748 9.16595 15.1918 9.16595C15.6088 9.16595 16.1152 9.37457 16.3237 9.66664Z" fill="#D8B196"/>
</svg>
