<svg width="25" height="25" viewBox="0 0 25 25" fill="none" xmlns="http://www.w3.org/2000/svg">
<path d="M6.1285 0.185022C5.56935 0.461419 5.66254 3.36359 6.40807 6.9913L6.68765 8.47693H12.6519H18.6162L18.8958 6.47305C19.7811 0.737816 19.7811 0.288671 18.8958 0.115923C17.4979 -0.160474 16.8456 0.185022 16.8456 1.08331C16.8456 2.258 16.0535 3.29449 15.1215 3.29449C14.7022 3.29449 13.9566 3.53633 13.4907 3.88183C12.6985 4.40007 12.6054 4.40007 11.8132 3.88183C11.3473 3.53633 10.6017 3.29449 10.1824 3.29449C9.25044 3.29449 8.4583 2.258 8.4583 1.11786C8.4583 0.219572 7.15361 -0.298672 6.1285 0.185022Z" fill="#F4A09E"/>
<path d="M5.01029 11.6901C2.4941 14.1085 0.257488 19.0837 0.0245077 22.7459C-0.0686844 23.6442 0.1177 24.5425 0.35068 24.7153C0.676853 24.9571 5.28986 25.0262 12.9316 24.9917L25 24.888L24.9534 22.435C24.9534 19.4637 23.0896 14.9032 20.8995 12.4156L19.4085 10.7227L12.7918 10.619L6.17519 10.5154L5.01029 11.6901Z" fill="#F4A09E"/>
</svg>
