<svg width="25" height="25" viewBox="0 0 25 25" fill="none" xmlns="http://www.w3.org/2000/svg">
<path d="M0.0709779 0.520813C-0.0236593 0.798591 -0.0236593 1.2847 0.0709779 1.56248C0.35489 2.36109 24.6451 2.36109 24.929 1.56248C25.0237 1.2847 25.0237 0.798591 24.929 0.520813C24.7713 0.0694242 23.0994 -2.02656e-05 12.5 -2.02656e-05C1.90063 -2.02656e-05 0.228707 0.0694242 0.0709779 0.520813Z" fill="#BEC89E"/>
<path d="M1.14355 14.5833V25H6.3486H11.5536V15.0694C11.5536 6.94444 11.459 5.06944 11.112 4.65278C10.5757 4.09722 9.34545 3.99306 9.34545 4.51389C9.34545 4.6875 9.06154 4.86111 8.71453 4.86111C8.36753 4.86111 8.08362 4.6875 8.08362 4.51389C8.08362 4.30556 7.73661 4.16667 7.29497 4.16667C6.85333 4.16667 6.50633 4.30556 6.50633 4.51389C6.50633 4.6875 6.22242 4.86111 5.87542 4.86111C5.52841 4.86111 5.2445 4.6875 5.2445 4.51389C5.2445 4.30556 4.8975 4.16667 4.45586 4.16667C4.01422 4.16667 3.66721 4.30556 3.66721 4.51389C3.66721 4.6875 3.3833 4.86111 3.0363 4.86111C2.6893 4.86111 2.40538 4.6875 2.40538 4.51389C2.40538 4.30556 2.12147 4.16667 1.77447 4.16667C1.14355 4.16667 1.14355 4.40972 1.14355 14.5833Z" fill="#BEC89E"/>
<path d="M13.8564 4.6875C13.5409 5.06944 13.4463 7.63889 13.4463 15.1042V25H18.6513H23.8564V14.5833C23.8564 4.40972 23.8564 4.16667 23.2255 4.16667C22.8785 4.16667 22.5946 4.30556 22.5946 4.51389C22.5946 4.6875 22.3106 4.86111 21.9636 4.86111C21.6166 4.86111 21.3327 4.6875 21.3327 4.51389C21.3327 4.30556 20.9857 4.16667 20.5441 4.16667C20.1024 4.16667 19.7554 4.30556 19.7554 4.51389C19.7554 4.6875 19.4715 4.86111 19.1245 4.86111C18.7775 4.86111 18.4936 4.6875 18.4936 4.51389C18.4936 4.30556 18.1466 4.16667 17.705 4.16667C17.2633 4.16667 16.9163 4.30556 16.9163 4.51389C16.9163 4.6875 16.6324 4.86111 16.2854 4.86111C15.9384 4.86111 15.6545 4.6875 15.6545 4.51389C15.6545 3.99306 14.298 4.13194 13.8564 4.6875Z" fill="#BEC89E"/>
</svg>
