<svg width="25" height="25" viewBox="0 0 25 25" fill="none" xmlns="http://www.w3.org/2000/svg">
<path d="M11.4115 0.286598C11.1897 0.511267 10.4964 0.735933 9.85857 0.735933C8.52745 0.735933 6.75263 2.44341 5.06101 5.45395C4.11814 7.07155 3.72989 7.47595 2.98114 7.47595C1.78869 7.47595 0.873544 9.18342 0.873544 11.3402C0.873544 12.4186 0.734886 12.868 0.457571 12.868C-0.152524 12.868 -0.152524 19.2485 0.457571 20.0573C0.679423 20.3719 0.873544 21.3155 0.873544 22.1243C0.873544 23.2027 1.0122 23.652 1.28952 23.652C1.51137 23.652 1.70549 23.9665 1.70549 24.326C1.70549 24.8652 2.12146 25 3.78536 25C5.44925 25 5.86522 24.8652 5.86522 24.326C5.86522 23.8317 6.17027 23.652 6.91902 23.652C7.50139 23.652 8.22241 23.3375 8.52745 22.978C9.27621 22.0344 15.7654 22.0344 16.5141 22.978C16.8192 23.3375 17.5402 23.652 18.1226 23.652C18.8713 23.652 19.1764 23.8317 19.1764 24.326C19.1764 24.8652 19.5923 25 21.2562 25C22.9201 25 23.3361 24.8652 23.3361 24.326C23.3361 23.9665 23.5302 23.652 23.7521 23.652C24.0294 23.652 24.1681 23.2027 24.1681 22.1243C24.1681 21.3155 24.3622 20.3719 24.584 20.0573C24.8891 19.6529 25 18.5745 25 16.193C25 13.542 24.9168 12.868 24.584 12.868C24.3067 12.868 24.1681 12.4186 24.1681 11.3402C24.1681 9.18342 23.2529 7.47595 22.0882 7.47595C21.3117 7.47595 20.8957 7.07155 19.8419 5.22928C18.1503 2.30861 16.8747 1.05047 15.1553 0.646067C14.4065 0.466333 13.325 0.196732 12.7981 0.0619316C12.2712 -0.0728683 11.6334 0.0169983 11.4115 0.286598ZM15.7377 4.28568C16.3478 4.73501 17.3461 5.81341 17.9285 6.62222L18.9823 8.14995L17.6234 8.46449C15.8763 8.82396 9.16528 8.82396 7.41819 8.46449L6.05935 8.14995L7.11314 6.62222C8.80477 4.24074 10.1359 3.43194 12.5208 3.43194C13.9628 3.43194 14.9612 3.70154 15.7377 4.28568ZM3.92402 11.3402C4.53411 11.7446 5.31059 12.6433 5.61564 13.3622C6.14254 14.5754 6.14254 14.6653 5.6711 14.6653C3.97948 14.6653 2.26012 12.9129 2.26012 11.2054C2.26012 10.4416 2.56517 10.4865 3.92402 11.3402ZM22.7815 11.2054C22.7815 12.9129 21.0621 14.6653 19.3705 14.6653C18.8991 14.6653 18.8991 14.6204 19.3705 13.497C19.8142 12.3737 21.6722 10.6662 22.4487 10.6213C22.6151 10.6213 22.7815 10.8909 22.7815 11.2054ZM6.41986 17.9904C6.41986 18.4397 5.86522 18.7992 4.83916 19.1587C3.95175 19.4283 3.06434 19.7428 2.89795 19.8327C2.42651 20.1023 2.45424 19.5631 2.98114 18.3498C3.31392 17.541 3.67443 17.3613 4.92235 17.3613C6.03161 17.3613 6.41986 17.541 6.41986 17.9904ZM22.0605 18.3498C22.5874 19.5631 22.6151 20.1023 22.1714 19.8327C21.9773 19.7428 21.0898 19.4283 20.2302 19.1587C19.1764 18.7992 18.6217 18.4397 18.6217 17.9904C18.6217 17.541 19.01 17.3613 20.1192 17.3613C21.3672 17.3613 21.7277 17.541 22.0605 18.3498Z" fill="#D2E494"/>
</svg>
