<svg width="10" height="10" viewBox="0 0 10 10" fill="none" xmlns="http://www.w3.org/2000/svg">
<path d="M4.37577 0.824919C3.59703 1.56735 3.4487 1.64984 2.9419 1.64984C2.63288 1.64984 2.27441 1.74608 2.13844 1.85607C2.01483 1.96606 1.75525 2.0623 1.5822 2.0623C1.12485 2.0623 0.667491 2.516 0.309023 3.29967C0.0494438 3.89087 0 4.15209 0 5.44446V6.90182L0.7911 7.78173C1.50803 8.57915 1.63164 8.66165 2.07664 8.66165H2.58344V9.26659C2.58344 9.88528 2.76885 10.1053 3.13968 9.95402C3.27565 9.88528 3.32509 9.65155 3.32509 9.06036C3.32509 8.24919 3.32509 8.24919 3.69592 8.24919H4.06675V9.07411V9.89902H6.51422C8.25711 9.89902 8.99876 9.85778 9.11001 9.73404C9.2089 9.62405 9.25834 8.82663 9.25834 7.05306V4.53705H9.62917C9.95056 4.53705 10 4.48206 10 4.17959C10 3.95961 9.86403 3.69839 9.62917 3.47841C9.28307 3.16219 9.25834 3.0797 9.25834 2.18603V1.23738H8.71446C8.1953 1.23738 8.15822 1.26488 8.12114 1.66359L8.08405 2.07605L6.94685 1.0449C6.24227 0.384962 5.69839 0 5.52534 0C5.36465 0.0137482 4.87021 0.357465 4.37577 0.824919ZM3.54759 3.0247C3.69592 3.31342 3.85661 3.43716 4.07911 3.43716C4.49938 3.43716 4.6848 3.67089 4.6848 4.20709C4.6848 4.44081 4.77132 4.71579 4.87021 4.81203C4.9691 4.90827 5.05562 5.16949 5.05562 5.38947C5.05562 5.69194 4.9691 5.84317 4.6848 6.02191C4.42522 6.18689 4.31397 6.36562 4.31397 6.59935C4.31397 6.80558 4.25216 7.02556 4.16564 7.1218C3.98022 7.32803 3.51051 7.34178 3.20148 7.1493C3.02843 7.03931 2.9419 7.0943 2.76885 7.36927C2.50927 7.82298 1.85414 7.79548 1.644 7.30053C1.55748 7.1218 1.37206 6.91557 1.21137 6.81933C0.840544 6.6131 0.754017 5.98066 1.05068 5.6232C1.24845 5.37572 1.24845 5.34822 1.06304 5.1145C0.803461 4.79828 0.7911 4.22083 1.03832 3.98711C1.13721 3.89087 1.22373 3.71213 1.22373 3.5884C1.22373 3.23093 1.48331 3.0247 1.91595 3.0247C2.12608 3.0247 2.3733 2.92846 2.45983 2.81847C2.54635 2.70848 2.78121 2.61224 2.97899 2.61224C3.25093 2.61224 3.3869 2.70848 3.54759 3.0247ZM8.14586 7.01181V7.83673H7.4042H6.66255V7.01181V6.18689H7.4042H8.14586V7.01181Z" fill="url(#paint0_linear_106_85)"/>
<defs>
<linearGradient id="paint0_linear_106_85" x1="9" y1="10" x2="4.24568" y2="0.372504" gradientUnits="userSpaceOnUse">
<stop offset="0.417822" stop-color="#EF77A5"/>
<stop offset="1" stop-color="#CA84F3" stop-opacity="0.66"/>
</linearGradient>
</defs>
</svg>
