<svg width="15" height="10" viewBox="0 0 15 10" fill="none" xmlns="http://www.w3.org/2000/svg">
<path d="M8.99152 0.476191C8.99152 0.746032 9.10836 1.22222 9.24188 1.53968C9.3754 1.84127 9.49223 2.15873 9.49223 2.2381C9.49223 2.31746 8.55758 2.38095 7.42264 2.38095C5.787 2.38095 5.31968 2.33333 5.15278 2.14286C4.96918 1.93651 5.01925 1.90476 5.4532 1.90476C5.9706 1.90476 6.22095 1.61905 6.05405 1.20635C5.88715 0.793652 3.08319 0.777779 2.91629 1.20635C2.78277 1.53968 2.98305 1.90476 3.31685 1.90476C3.48375 1.90476 3.76749 2.14286 3.93439 2.42857C4.2515 2.92064 4.2515 2.96825 3.96777 3.5873C3.68404 4.2381 3.66735 4.25397 2.68262 4.31746C0.846702 4.44444 -0.121331 5.55556 0.0121909 7.38095C0.129022 9.06349 1.1972 10 3.01643 10C4.30158 10 5.1194 9.50794 5.65348 8.46032L6.07074 7.63492L7.12222 7.61905H8.1737L9.14174 5.66667C9.99294 3.98413 10.1265 3.77778 10.2266 4.12698C10.3267 4.46032 10.2266 4.65079 9.75927 5.12698C9.10836 5.79365 8.90807 6.44444 9.02491 7.61905C9.19181 9.1746 10.4269 10.0794 12.2461 9.96825C13.9986 9.85714 15 8.84127 15 7.14286C15 5.52381 14.0153 4.44444 12.4297 4.31746L11.5284 4.25397L10.9777 2.73016C10.6605 1.88889 10.3935 1.14286 10.3601 1.07937C10.3267 1.01587 10.5604 0.952381 10.8775 0.952381C11.4784 0.952381 11.7287 0.68254 11.5618 0.238095C11.4784 0.063493 11.1613 2.38419e-07 10.2266 2.38419e-07H8.99152V0.476191ZM8.30723 4.63492L7.62293 5.92064L7.17229 5.22222C6.92194 4.84127 6.55475 4.25397 6.33778 3.92064L5.95391 3.33333H7.47272H8.99152L8.30723 4.63492ZM6.3044 6.06349C6.67159 6.65079 6.67159 6.66667 6.35447 6.66667C6.1375 6.66667 5.98729 6.52381 5.90384 6.22222C5.85376 5.98413 5.58672 5.52381 5.30299 5.20635C5.01925 4.85714 4.86904 4.52381 4.91911 4.36508C5.01925 4.12698 5.13609 4.25397 6.3044 6.06349ZM2.81615 6.06349C2.63255 6.44444 2.48234 6.93651 2.48234 7.1746C2.48234 7.60317 2.49903 7.60317 3.70073 7.65079L4.90242 7.69841L4.30158 8.28571C3.78418 8.79365 3.56721 8.88889 2.98305 8.88889C2.41558 8.88889 2.18192 8.79365 1.71459 8.34921C1.24727 7.90476 1.14713 7.68254 1.14713 7.14286C1.14713 6.60317 1.24727 6.38095 1.71459 5.93651C2.06509 5.60317 2.44896 5.39683 2.71601 5.39683H3.13326L2.81615 6.06349ZM13.2642 5.93651C13.7315 6.38095 13.8317 6.60317 13.8317 7.14286C13.8317 7.68254 13.7315 7.90476 13.2642 8.34921C12.7969 8.79365 12.5632 8.88889 11.9958 8.88889C11.0444 8.88889 10.1598 8.09524 10.1598 7.2381C10.1598 6.71429 10.5437 5.71429 10.744 5.71429C10.7774 5.71429 10.9777 6.14286 11.1779 6.65079C11.5284 7.60317 11.7788 7.84127 12.2294 7.68254C12.6133 7.53968 12.63 7.12698 12.2962 6.26984C12.1293 5.8254 11.9958 5.46032 11.9958 5.42857C11.9958 5.4127 12.146 5.39683 12.3463 5.39683C12.5465 5.39683 12.9471 5.63492 13.2642 5.93651ZM4.48517 6.63492C4.01784 6.71429 3.93439 6.61905 4.06791 6.1746L4.20143 5.80952L4.53524 6.20635L4.85235 6.5873L4.48517 6.63492Z" fill="url(#paint0_linear_106_86)"/>
<defs>
<linearGradient id="paint0_linear_106_86" x1="7.5" y1="10" x2="7.5" y2="0" gradientUnits="userSpaceOnUse">
<stop stop-color="#90CBFD"/>
<stop offset="1" stop-color="#4EAEFF" stop-opacity="0.99"/>
</linearGradient>
</defs>
</svg>
