<svg width="60" height="26" viewBox="0 0 60 26" fill="none" xmlns="http://www.w3.org/2000/svg">
<path d="M4.83398 0.398438H4.91211C4.93815 0.398438 4.9707 0.434245 5.00977 0.505859V9.66602C5.07487 9.73763 5.10742 9.80599 5.10742 9.87109V9.94922C5.10742 10.0078 5.07487 10.0762 5.00977 10.1543V10.3008H9.38477C9.72331 10.3008 9.89258 10.4538 9.89258 10.7598C9.91211 10.8835 9.92188 11.056 9.92188 11.2773V12.0098C9.92188 12.3353 9.7526 12.498 9.41406 12.498H7.43164C6.74805 12.498 6.40625 12.5566 6.40625 12.6738C6.34115 12.6738 6.30859 12.9603 6.30859 13.5332V21.6094C6.30859 22.0326 6.23047 22.2441 6.07422 22.2441C6.07422 22.2767 5.97331 22.293 5.77148 22.293H4.24805C3.87044 22.293 3.68164 22.14 3.68164 21.834V13.4355C3.68164 13.2988 3.67513 13.1393 3.66211 12.957L3.68164 12.8984C3.62305 12.6445 3.46354 12.5176 3.20312 12.5176C3.01432 12.5046 2.76693 12.498 2.46094 12.498H1.44531C1.21094 12.498 0.904948 12.5046 0.527344 12.5176C0.240885 12.485 0.0976562 12.3418 0.0976562 12.0879V10.8379C0.0976562 10.4798 0.234375 10.3008 0.507812 10.3008H4.72656V10.2031C4.59635 10.2031 4.52148 10.1022 4.50195 9.90039C4.53451 9.73112 4.5931 9.64648 4.67773 9.64648C4.67773 9.2819 4.54102 8.95964 4.26758 8.67969C4.24154 8.74479 4.18294 8.77734 4.0918 8.77734H3.94531C3.80859 8.70573 3.74023 8.61133 3.74023 8.49414V8.44531C3.74023 8.30859 3.83138 8.21745 4.01367 8.17188H4.07227C4.22852 8.17188 4.32943 8.2793 4.375 8.49414C4.46615 8.49414 4.57682 8.64062 4.70703 8.93359H4.72656V0.505859C4.72656 0.479818 4.76237 0.44401 4.83398 0.398438ZM4.45312 11.2969C4.45312 11.5443 4.60612 11.6875 4.91211 11.7266C5.16602 11.6745 5.29297 11.5247 5.29297 11.2773C5.22786 11.0365 5.13346 10.916 5.00977 10.916V11.043C5.00977 11.069 4.97721 11.1016 4.91211 11.1406H4.83398C4.80794 11.1406 4.77214 11.1081 4.72656 11.043V10.916H4.70703C4.53776 11.0137 4.45312 11.1406 4.45312 11.2969ZM14.7559 0.359375H14.834C14.86 0.359375 14.8958 0.395182 14.9414 0.466797V11.7754H14.9707C14.9707 11.6712 15.0846 11.5182 15.3125 11.3164C15.3646 11.1081 15.472 11.0039 15.6348 11.0039H15.6641C15.8398 11.0039 15.944 11.1178 15.9766 11.3457C15.9245 11.541 15.8268 11.6387 15.6836 11.6387H15.6055C15.5404 11.6387 15.4688 11.6029 15.3906 11.5312C15.1302 11.8242 15 12.1367 15 12.4688V12.5176C15.1042 12.6283 15.1562 12.7161 15.1562 12.7812V12.8594C15.1562 12.9831 15.0846 13.0742 14.9414 13.1328V13.3965C16.0938 13.3965 17.0964 13.7773 17.9492 14.5391C18.5677 15.1966 18.9746 15.8704 19.1699 16.5605C19.3327 17.1139 19.4141 17.5664 19.4141 17.918C19.4336 18.2435 19.4434 18.4583 19.4434 18.5625C19.4434 20.112 18.75 21.3359 17.3633 22.2344C16.6341 22.625 16.11 22.8203 15.791 22.8203C15.6413 22.8854 15.2865 22.9375 14.7266 22.9766C12.6562 22.9766 11.2207 22.0456 10.4199 20.1836C10.153 19.4674 10.0195 18.7057 10.0195 17.8984V17.7324C10.0195 16.9186 10.293 16.0951 10.8398 15.2617C11.4714 14.513 11.8913 14.1387 12.0996 14.1387C12.9329 13.6439 13.7826 13.3965 14.6484 13.3965V13.1035C14.5638 13.0124 14.5215 12.931 14.5215 12.8594V12.8105C14.5215 12.7324 14.5638 12.6445 14.6484 12.5469V0.466797C14.6484 0.440755 14.6842 0.404948 14.7559 0.359375ZM14.3555 14.2754C14.3555 14.5293 14.515 14.679 14.834 14.7246C15.1009 14.6725 15.2344 14.513 15.2344 14.2461C15.1693 13.9987 15.0716 13.875 14.9414 13.875V14.0117C14.9414 14.0378 14.9056 14.0736 14.834 14.1191H14.7559C14.7298 14.1191 14.694 14.0833 14.6484 14.0117V13.875H14.6191C14.4434 13.9727 14.3555 14.1061 14.3555 14.2754ZM12.4902 17.8105C12.4902 19.0215 12.8385 19.972 13.5352 20.6621C13.9388 20.9486 14.3099 21.0918 14.6484 21.0918H14.9707C15.5046 21.0918 16.0091 20.8314 16.4844 20.3105C16.8034 19.8939 16.9629 19.3275 16.9629 18.6113C16.9629 17.0293 16.4681 15.9648 15.4785 15.418C15.2572 15.3464 14.9805 15.2943 14.6484 15.2617C14.1927 15.2617 13.724 15.431 13.2422 15.7695C12.7409 16.2188 12.4902 16.8991 12.4902 17.8105ZM23.125 12.6152C23.1771 12.8887 23.3301 13.0254 23.584 13.0254C23.7858 13.0254 23.916 12.8887 23.9746 12.6152C23.9746 12.459 23.8965 12.3288 23.7402 12.2246C23.7402 12.3483 23.7077 12.4102 23.6426 12.4102H23.5645C23.5189 12.4102 23.4766 12.3418 23.4375 12.2051C23.2292 12.2962 23.125 12.4329 23.125 12.6152ZM23.8672 15.3984C23.8477 15.5417 23.903 15.6491 24.0332 15.7207C24.9512 16.0723 25.5469 16.2741 25.8203 16.3262C26.2435 16.3978 26.6048 16.3099 26.9043 16.0625C27.0475 15.8542 27.1289 15.6556 27.1484 15.4668C27.207 14.9329 26.7285 14.5065 25.7129 14.1875L24.7559 13.8555C24.5215 13.8294 24.3424 13.9987 24.2188 14.3633C24.0039 14.8711 23.8867 15.2161 23.8672 15.3984ZM22.3242 19.207C22.2852 19.4089 22.679 19.6237 23.5059 19.8516C23.7467 19.9622 24.0202 20.0469 24.3262 20.1055L24.6094 20.1445C25.2474 20.2682 25.7064 20.0859 25.9863 19.5977C26.0319 19.4935 26.0612 19.4089 26.0742 19.3438L26.0938 19.1973C26.1784 18.696 25.918 18.2956 25.3125 17.9961C25.1432 17.8984 24.541 17.6673 23.5059 17.3027H23.457L23.3789 17.2734C23.1641 17.2344 23.0013 17.3711 22.8906 17.6836C22.526 18.6016 22.3372 19.1094 22.3242 19.207ZM23.7207 11.7266L23.9062 11.7949C26.0807 12.5762 27.4447 13.097 27.998 13.3574C28.304 13.5267 28.6523 13.7839 29.043 14.1289C29.3685 14.5326 29.5345 14.8906 29.541 15.2031C29.5671 15.457 29.5736 15.61 29.5605 15.6621C29.3978 16.7298 28.8216 17.3581 27.832 17.5469C27.7409 17.599 27.6855 17.6543 27.666 17.7129C27.653 17.804 27.7865 17.9831 28.0664 18.25C28.457 18.7839 28.61 19.334 28.5254 19.9004L28.5156 19.9883C28.3659 20.9193 27.8451 21.5736 26.9531 21.9512C26.2891 22.14 25.6576 22.1758 25.0586 22.0586L24.7363 22C24.4368 21.9414 24.2383 21.8796 24.1406 21.8145C24.1081 21.8275 24.0853 21.834 24.0723 21.834C21.4616 20.8639 20.026 20.3268 19.7656 20.2227C19.6354 20.1315 19.5801 20.0241 19.5996 19.9004V19.8906C19.6126 19.819 20.638 17.0586 22.6758 11.6094C22.7799 11.5117 22.9004 11.4759 23.0371 11.502C23.0892 11.5085 23.1576 11.5247 23.2422 11.5508L23.2227 11.4629V11.4336C23.2617 11.2643 23.3236 11.1797 23.4082 11.1797C23.4082 10.8151 23.2715 10.4896 22.998 10.2031C22.9655 10.2682 22.9036 10.3008 22.8125 10.3008H22.6562C22.5195 10.2292 22.4512 10.1348 22.4512 10.0176V9.96875C22.4512 9.82552 22.5456 9.73112 22.7344 9.68555H22.793C22.9492 9.68555 23.0501 9.79622 23.0957 10.0176C23.1934 10.0176 23.3073 10.1641 23.4375 10.457H23.457V0.710938C23.457 0.684896 23.4928 0.649089 23.5645 0.603516H23.6426C23.6686 0.603516 23.7012 0.639323 23.7402 0.710938V11.209C23.8118 11.2806 23.8477 11.349 23.8477 11.4141V11.4922C23.8477 11.5508 23.8053 11.6224 23.7207 11.707V11.7266ZM35.7031 0.359375H35.7715C35.7975 0.359375 35.8333 0.391927 35.8789 0.457031V12.2441C35.944 12.3158 35.9766 12.3841 35.9766 12.4492V12.5273C35.9766 12.5859 35.944 12.651 35.8789 12.7227V12.752C36.3867 12.8952 36.8001 13.2402 37.1191 13.7871C37.3014 14.3665 37.6823 16.1667 38.2617 19.1875C38.5286 19.9753 38.6621 20.3984 38.6621 20.457C38.6621 20.6523 38.2324 20.8021 37.373 20.9062C37.2103 20.9779 37.0085 21.0137 36.7676 21.0137C36.6374 21.0137 36.4421 20.8867 36.1816 20.6328H36.0059C35.0488 21.5443 33.9062 22 32.5781 22H32.4316C31.8717 22 31.3314 21.7721 30.8105 21.3164C30.3223 20.6979 30.0781 20.0827 30.0781 19.4707C30.0781 18.1686 30.9733 17.2637 32.7637 16.7559C33.4212 16.5345 34.0039 16.3132 34.5117 16.0918C34.8633 15.8444 35.0391 15.61 35.0391 15.3887C35.0391 14.8548 34.8112 14.4902 34.3555 14.2949C34.2057 14.2624 34.0951 14.2461 34.0234 14.2461H33.7988C33.2715 14.2461 32.7995 14.4056 32.3828 14.7246C32.1745 14.8874 32.0215 15.2357 31.9238 15.7695C31.9238 15.9128 31.2728 16.082 29.9707 16.2773C29.8014 16.2773 29.7005 16.1569 29.668 15.916C29.668 14.7051 30.319 13.8034 31.6211 13.2109C32.6562 12.7682 33.6784 12.5469 34.6875 12.5469C34.7982 12.5469 35.0326 12.5632 35.3906 12.5957L35.3711 12.5469V12.4688C35.4036 12.2995 35.4622 12.2148 35.5469 12.2148C35.5469 11.8698 35.4102 11.5508 35.1367 11.2578C35.0716 11.3229 35.0065 11.3555 34.9414 11.3555H34.8633C34.7331 11.3555 34.6387 11.2643 34.5801 11.082C34.6191 10.8607 34.7233 10.75 34.8926 10.75H34.9121C35.0553 10.75 35.1725 10.8672 35.2637 11.1016C35.4134 11.1992 35.5176 11.3359 35.5762 11.5117H35.5957V0.457031C35.5957 0.43099 35.6315 0.398438 35.7031 0.359375ZM35.3223 13.8652C35.3223 14.1126 35.472 14.2559 35.7715 14.2949C36.0254 14.2428 36.1523 14.0931 36.1523 13.8457C36.0872 13.6048 35.9961 13.4844 35.8789 13.4844V13.6113C35.8789 13.6374 35.8431 13.6732 35.7715 13.7188H35.7031C35.6706 13.7188 35.6348 13.6829 35.5957 13.6113V13.4844H35.5762C35.4069 13.582 35.3223 13.709 35.3223 13.8652ZM32.4316 19.0117V19.1582C32.5098 19.8678 32.8125 20.2227 33.3398 20.2227C33.3398 20.2422 33.418 20.252 33.5742 20.252H33.8281C34.3294 20.252 34.8275 20.0241 35.3223 19.5684C35.5371 19.1973 35.6445 18.8587 35.6445 18.5527C35.6445 18.0059 35.5599 17.5924 35.3906 17.3125C35.3255 17.2799 35.2669 17.2637 35.2148 17.2637C34.1211 17.6478 33.3626 17.9603 32.9395 18.2012C32.6009 18.5137 32.4316 18.7839 32.4316 19.0117ZM44.3945 0.378906H44.4727C44.4987 0.378906 44.5312 0.411458 44.5703 0.476562V11.1602H44.5996C44.5996 11.0625 44.7103 10.916 44.9316 10.7207C44.9837 10.5189 45.0879 10.418 45.2441 10.418H45.2637C45.4395 10.418 45.5436 10.5286 45.5762 10.75C45.5241 10.9388 45.4297 11.0332 45.293 11.0332H45.2148C45.1562 11.0332 45.0879 10.9974 45.0098 10.9258C44.7559 11.2122 44.6289 11.5117 44.6289 11.8242V11.873C44.7266 11.9772 44.7754 12.0651 44.7754 12.1367V12.2148C44.7754 12.3255 44.707 12.4102 44.5703 12.4688V12.6738C45.0391 12.6738 45.6576 12.9473 46.4258 13.4941C47.0182 14.0866 47.4284 14.6855 47.6562 15.291C47.9427 16.1764 48.0859 16.9023 48.0859 17.4688C48.0729 17.5794 48.0664 17.6999 48.0664 17.8301C48.0664 17.8691 48.0729 17.9049 48.0859 17.9375C48.0859 18.5495 47.8809 19.2754 47.4707 20.1152C46.7415 21.2611 45.6641 21.834 44.2383 21.834C43.6523 21.834 43.0208 21.6289 42.3438 21.2188C42.3112 21.1992 42.2689 21.1895 42.2168 21.1895C42.1322 21.2871 42.0898 21.349 42.0898 21.375C42.0898 21.388 42.0964 21.3945 42.1094 21.3945L42.0898 21.5801V21.5996L42.7344 25.3203C42.7344 25.6393 42.3861 25.7988 41.6895 25.7988C41.2988 25.8704 41.0059 25.9062 40.8105 25.9062H40.791C40.5371 25.9062 40.3906 25.7272 40.3516 25.3691L38.6719 13.9043C38.6719 13.6309 38.9551 13.4779 39.5215 13.4453C39.5996 13.4453 39.9414 13.403 40.5469 13.3184C40.7422 13.3184 40.9049 13.5137 41.0352 13.9043L41.1621 13.9336C41.2663 13.9336 41.4453 13.7871 41.6992 13.4941C42.3112 12.9993 42.8581 12.752 43.3398 12.752C43.3398 12.6999 43.5872 12.6641 44.082 12.6445H44.2969V12.4395C44.2057 12.3548 44.1602 12.2799 44.1602 12.2148V12.1562C44.1602 12.0846 44.2057 12 44.2969 11.9023V0.476562C44.2969 0.450521 44.3294 0.417969 44.3945 0.378906ZM44.0137 13.5723C44.0137 13.8197 44.1667 13.9661 44.4727 14.0117C44.7266 13.9531 44.8535 13.7969 44.8535 13.543C44.7884 13.3086 44.694 13.1914 44.5703 13.1914V13.3184C44.5703 13.3444 44.5378 13.377 44.4727 13.416H44.3945C44.3685 13.416 44.3359 13.3835 44.2969 13.3184V13.1914H44.2676C44.0983 13.2826 44.0137 13.4095 44.0137 13.5723ZM41.4453 17.0586C41.4453 18.1849 41.7773 19.0768 42.4414 19.7344C42.8711 20.0078 43.2129 20.1445 43.4668 20.1445C44.4694 20.1445 45.1302 19.7669 45.4492 19.0117C45.599 18.7122 45.6738 18.2923 45.6738 17.752C45.6413 16.2155 45.1823 15.2064 44.2969 14.7246C44.0299 14.6074 43.7533 14.5488 43.4668 14.5488C42.4512 14.5488 41.8099 15.0534 41.543 16.0625C41.4779 16.3164 41.4453 16.6484 41.4453 17.0586ZM49.3555 13.6797C49.4076 13.9531 49.5605 14.0898 49.8145 14.0898C50.0163 14.0898 50.1465 13.9531 50.2051 13.6797C50.2051 13.5234 50.127 13.3932 49.9707 13.2891C49.9707 13.4128 49.9382 13.4746 49.873 13.4746H49.7949C49.7493 13.4746 49.707 13.4062 49.668 13.2695C49.4596 13.3607 49.3555 13.4974 49.3555 13.6797ZM51.0449 19.9785C51.0775 20.1283 51.39 20.1771 51.9824 20.125C52.2233 20.1445 52.4902 20.138 52.7832 20.1055L53.0371 20.0664C53.623 20.0013 53.9518 19.7734 54.0234 19.3828C54.0299 19.2982 54.0267 19.2331 54.0137 19.1875L53.9746 19.0801C53.877 18.7285 53.5156 18.5202 52.8906 18.4551C52.7083 18.4225 52.207 18.4128 51.3867 18.4258L51.3477 18.4355H51.2695C51.0742 18.4616 50.9831 18.5918 50.9961 18.8262C51.0026 19.5293 51.0189 19.9134 51.0449 19.9785ZM49.9316 12.752L50.5469 12.7324C50.8724 12.7129 51.0417 12.8854 51.0547 13.25V14.3828C51.0612 14.474 51.0645 14.5781 51.0645 14.6953C51.0384 15.4961 51.0482 15.9941 51.0938 16.1895C51.1263 16.3457 51.2142 16.4368 51.3574 16.4629C52.0215 16.3978 52.3893 16.3815 52.4609 16.4141C53.0794 16.4271 53.5775 16.4792 53.9551 16.5703C54.3392 16.6615 54.8177 16.8698 55.3906 17.1953C55.9896 17.6055 56.3477 18.0905 56.4648 18.6504L56.4844 18.7383C56.6732 19.6628 56.416 20.457 55.7129 21.1211C55.153 21.5312 54.5736 21.7852 53.9746 21.8828L53.6523 21.9414C53.3529 21.9935 53.1445 22.0033 53.0273 21.9707C53.0013 21.9967 52.9818 22.013 52.9688 22.0195C50.5078 22.0195 49.1374 22.0163 48.8574 22.0098C48.7077 21.9707 48.6198 21.8893 48.5938 21.7656L48.584 21.7559C48.5775 21.6908 48.5742 19.2559 48.5742 14.4512L48.5352 13.25C48.5221 12.9505 48.7044 12.7943 49.082 12.7812L49.6289 12.7617V12.6641C49.5117 12.6641 49.4303 12.5729 49.3848 12.3906V12.332C49.4303 12.1367 49.5117 12.0391 49.6289 12.0391V0.574219C49.6289 0.548177 49.668 0.51237 49.7461 0.466797H49.8242C49.8503 0.466797 49.8861 0.502604 49.9316 0.574219V11.0625C50.0684 10.9583 50.1953 10.7956 50.3125 10.5742C50.3776 10.5221 50.4395 10.4961 50.498 10.4961H50.5566C50.752 10.5221 50.8496 10.6198 50.8496 10.7891V10.9258C50.778 11.069 50.6901 11.1406 50.5859 11.1406H50.498C50.4329 11.1406 50.3516 11.1048 50.2539 11.0332C50.0391 11.3132 49.9316 11.541 49.9316 11.7168V12.0879C50.0033 12.166 50.0391 12.2409 50.0391 12.3125V12.3906C50.0391 12.4557 50.0033 12.5273 49.9316 12.6055V12.752ZM58.3691 0.408203C58.291 0.453776 58.252 0.489583 58.252 0.515625L58.2812 11.2969V11.8633L58.2324 11.8438L58.252 11.707V11.6484C58.252 11.4792 58.1543 11.3815 57.959 11.3555H57.9004C57.7051 11.401 57.6074 11.4987 57.6074 11.6484V11.707C57.6074 11.9023 57.7246 12 57.959 12C58.1217 12 58.2031 12.1172 58.2031 12.3516C58.0729 12.4492 58.0078 12.5501 58.0078 12.6543V12.7617H57.793C57.4154 12.7617 57.2266 12.9147 57.2266 13.2207V21.4629C57.2266 21.821 57.4251 22 57.8223 22H59.2578C59.5833 22 59.7461 21.8014 59.7461 21.4043V13.2988C59.7461 12.9408 59.5833 12.7617 59.2578 12.7617H58.6621V12.625C58.6621 12.5664 58.6361 12.5046 58.584 12.4395V11.2969L58.5547 0.515625C58.5091 0.44401 58.4733 0.408203 58.4473 0.408203H58.3691ZM57.9883 13.6797C57.9883 13.5104 58.0762 13.377 58.252 13.2793C58.3301 13.3704 58.3757 13.416 58.3887 13.416H58.4961C58.5547 13.416 58.584 13.3704 58.584 13.2793H58.6328C58.7956 13.3835 58.877 13.5169 58.877 13.6797C58.8184 13.9727 58.6849 14.1191 58.4766 14.1191C58.2031 14.1191 58.0404 13.9727 57.9883 13.6797Z" fill="black"/>
</svg>
