<svg width="149" height="26" viewBox="0 0 149 26" fill="none" xmlns="http://www.w3.org/2000/svg">
<path d="M2.8125 11.9316C2.86458 12.2051 3.01758 12.3418 3.27148 12.3418C3.47331 12.3418 3.60352 12.2051 3.66211 11.9316C3.66211 11.7754 3.58398 11.6452 3.42773 11.541C3.42773 11.6647 3.39518 11.7266 3.33008 11.7266H3.25195C3.20638 11.7266 3.16406 11.6582 3.125 11.5215C2.91667 11.6126 2.8125 11.7493 2.8125 11.9316ZM2.98828 20.5742C2.98828 20.8607 3.53841 21.056 4.63867 21.1602C5.30273 21.3164 5.81055 21.3945 6.16211 21.3945H6.49414C7.23633 21.3945 7.7181 21.0267 7.93945 20.291C7.97852 20.1283 7.99805 19.998 7.99805 19.9004V19.6953C7.99805 18.9857 7.62695 18.4941 6.88477 18.2207C6.67643 18.1361 5.70638 17.9408 3.97461 17.6348L3.91602 17.6543L3.81836 17.6348C3.57096 17.6348 3.41471 17.8659 3.34961 18.3281C3.10872 19.6888 2.98828 20.4375 2.98828 20.5742ZM4.38477 13.1719C4.24805 13.3021 4.17969 13.543 4.17969 13.8945C4.00391 14.6628 3.91602 15.1706 3.91602 15.418C3.91602 15.6263 3.99414 15.763 4.15039 15.8281C5.73242 16.1536 6.77083 16.388 7.26562 16.5312C8.51562 16.9284 9.36849 17.4069 9.82422 17.9668C10.3581 18.5462 10.625 19.207 10.625 19.9492V20.0566C10.625 21.2806 10.153 22.2441 9.20898 22.9473C8.48633 23.3574 7.77995 23.5625 7.08984 23.5625H6.70898C6.36393 23.5625 6.12956 23.5365 6.00586 23.4844C5.97331 23.5039 5.94727 23.5137 5.92773 23.5137C2.44466 22.8757 0.546875 22.5208 0.234375 22.4492C0.078125 22.3711 0 22.2507 0 22.0879V22.0684C0 21.9772 0.680339 18.2109 2.04102 10.7695C2.13867 10.6133 2.26562 10.5352 2.42188 10.5352C2.53255 10.5352 2.70508 10.5612 2.93945 10.6133L2.91016 10.4863V10.457C2.94922 10.2878 3.01107 10.2031 3.0957 10.2031C3.0957 9.83854 2.95898 9.51302 2.68555 9.22656C2.65299 9.29167 2.59115 9.32422 2.5 9.32422H2.34375C2.20703 9.2526 2.13867 9.1582 2.13867 9.04102V8.99219C2.13867 8.84896 2.23307 8.75456 2.42188 8.70898H2.48047C2.63672 8.70898 2.73763 8.81966 2.7832 9.04102C2.88086 9.04102 2.99479 9.1875 3.125 9.48047H3.14453V0.710938C3.14453 0.684896 3.18034 0.649089 3.25195 0.603516H3.33008C3.35612 0.603516 3.38867 0.639323 3.42773 0.710938V10.2324C3.49935 10.304 3.53516 10.3724 3.53516 10.4375V10.5156C3.53516 10.5742 3.50911 10.6328 3.45703 10.6914V10.7207H3.48633C3.73372 10.7663 3.97786 10.8086 4.21875 10.8477C8.15104 11.4336 10.2474 11.7721 10.5078 11.8633C10.5924 11.9544 10.6348 12.0553 10.6348 12.166C10.5566 13.3184 10.3841 13.8945 10.1172 13.8945H10.0684C9.99674 13.8945 8.22917 13.6309 4.76562 13.1035H4.59961C4.51497 13.1035 4.44336 13.1263 4.38477 13.1719ZM16.7773 0.359375H16.8457C16.8717 0.359375 16.9076 0.391927 16.9531 0.457031V12.2441C17.0182 12.3158 17.0508 12.3841 17.0508 12.4492V12.5273C17.0508 12.5859 17.0182 12.651 16.9531 12.7227V12.752C17.4609 12.8952 17.8743 13.2402 18.1934 13.7871C18.3757 14.3665 18.7565 16.1667 19.3359 19.1875C19.6029 19.9753 19.7363 20.3984 19.7363 20.457C19.7363 20.6523 19.3066 20.8021 18.4473 20.9062C18.2845 20.9779 18.0827 21.0137 17.8418 21.0137C17.7116 21.0137 17.5163 20.8867 17.2559 20.6328H17.0801C16.123 21.5443 14.9805 22 13.6523 22H13.5059C12.946 22 12.4056 21.7721 11.8848 21.3164C11.3965 20.6979 11.1523 20.0827 11.1523 19.4707C11.1523 18.1686 12.0475 17.2637 13.8379 16.7559C14.4954 16.5345 15.0781 16.3132 15.5859 16.0918C15.9375 15.8444 16.1133 15.61 16.1133 15.3887C16.1133 14.8548 15.8854 14.4902 15.4297 14.2949C15.2799 14.2624 15.1693 14.2461 15.0977 14.2461H14.873C14.3457 14.2461 13.8737 14.4056 13.457 14.7246C13.2487 14.8874 13.0957 15.2357 12.998 15.7695C12.998 15.9128 12.347 16.082 11.0449 16.2773C10.8757 16.2773 10.7747 16.1569 10.7422 15.916C10.7422 14.7051 11.3932 13.8034 12.6953 13.2109C13.7305 12.7682 14.7526 12.5469 15.7617 12.5469C15.8724 12.5469 16.1068 12.5632 16.4648 12.5957L16.4453 12.5469V12.4688C16.4779 12.2995 16.5365 12.2148 16.6211 12.2148C16.6211 11.8698 16.4844 11.5508 16.2109 11.2578C16.1458 11.3229 16.0807 11.3555 16.0156 11.3555H15.9375C15.8073 11.3555 15.7129 11.2643 15.6543 11.082C15.6934 10.8607 15.7975 10.75 15.9668 10.75H15.9863C16.1296 10.75 16.2467 10.8672 16.3379 11.1016C16.4876 11.1992 16.5918 11.3359 16.6504 11.5117H16.6699V0.457031C16.6699 0.43099 16.7057 0.398438 16.7773 0.359375ZM16.3965 13.8652C16.3965 14.1126 16.5462 14.2559 16.8457 14.2949C17.0996 14.2428 17.2266 14.0931 17.2266 13.8457C17.1615 13.6048 17.0703 13.4844 16.9531 13.4844V13.6113C16.9531 13.6374 16.9173 13.6732 16.8457 13.7188H16.7773C16.7448 13.7188 16.709 13.6829 16.6699 13.6113V13.4844H16.6504C16.4811 13.582 16.3965 13.709 16.3965 13.8652ZM13.5059 19.0117V19.1582C13.584 19.8678 13.8867 20.2227 14.4141 20.2227C14.4141 20.2422 14.4922 20.252 14.6484 20.252H14.9023C15.4036 20.252 15.9017 20.0241 16.3965 19.5684C16.6113 19.1973 16.7188 18.8587 16.7188 18.5527C16.7188 18.0059 16.6341 17.5924 16.4648 17.3125C16.3997 17.2799 16.3411 17.2637 16.2891 17.2637C15.1953 17.6478 14.4368 17.9603 14.0137 18.2012C13.6751 18.5137 13.5059 18.7839 13.5059 19.0117ZM23.125 12.8789C23.125 13.1198 23.2747 13.263 23.5742 13.3086C23.8281 13.2565 23.9551 13.1035 23.9551 12.8496C23.89 12.6152 23.7988 12.498 23.6816 12.498V12.625C23.6816 12.651 23.6458 12.6836 23.5742 12.7227H23.5059C23.4798 12.7227 23.444 12.6901 23.3984 12.625V12.498H23.3789C23.2096 12.5957 23.125 12.7227 23.125 12.8789ZM23.7012 12.0684C23.8965 12.0618 24.0332 12.0586 24.1113 12.0586C25.5566 12.0586 26.6992 12.5241 27.5391 13.4551C27.793 13.8848 27.9199 14.2656 27.9199 14.5977V14.6367C27.9199 15.2812 27.6725 15.7891 27.1777 16.1602C27.1777 16.1797 27.028 16.2708 26.7285 16.4336C26.6309 16.4922 26.582 16.528 26.582 16.541V16.5898C26.582 16.6745 26.8066 16.8438 27.2559 17.0977C27.6986 17.5208 27.9199 17.9342 27.9199 18.3379C27.9395 18.3379 27.959 18.416 27.9785 18.5723C27.959 18.6569 27.9395 18.6992 27.9199 18.6992L27.9492 18.7969V18.8066C27.9492 19.2754 27.6921 19.8158 27.1777 20.4277C26.3639 21.1504 25.2474 21.5117 23.8281 21.5117H23.7988C23.3691 21.5117 22.7767 21.4141 22.0215 21.2188C20.5046 20.6458 19.7461 19.6921 19.7461 18.3574C19.7461 18.097 19.8893 17.9668 20.1758 17.9668C21.2956 17.9668 21.8555 18.0742 21.8555 18.2891C21.9987 18.9401 22.2005 19.3568 22.4609 19.5391C22.8516 19.7148 23.2975 19.8027 23.7988 19.8027H23.8477C24.6615 19.8027 25.2148 19.5651 25.5078 19.0898C25.5859 18.901 25.625 18.7611 25.625 18.6699V18.6016C25.625 18.0221 25.3581 17.6348 24.8242 17.4395C24.694 17.3483 24.2708 17.2604 23.5547 17.1758C23.3789 17.1758 23.2682 17.0586 23.2227 16.8242C23.2617 16.2448 23.3431 15.9551 23.4668 15.9551C23.4668 15.9225 23.8184 15.8965 24.5215 15.877C25.1009 15.7402 25.3906 15.6296 25.3906 15.5449C25.6576 15.3236 25.791 15.0729 25.791 14.793C25.791 14.3047 25.4004 13.9759 24.6191 13.8066C24.4759 13.7806 24.3717 13.7676 24.3066 13.7676H24.1602C23.2682 13.8132 22.6921 14.194 22.4316 14.9102C22.3665 15.0013 22.2656 15.0469 22.1289 15.0469H22.0508C21.0091 15.0273 20.4883 14.9688 20.4883 14.8711C20.4297 14.7995 20.4004 14.7279 20.4004 14.6562C20.5566 14.0052 20.8496 13.4714 21.2793 13.0547C21.9043 12.5273 22.5358 12.2214 23.1738 12.1367L23.3105 12.1074C23.2194 12.0098 23.1738 11.9154 23.1738 11.8242C23.2064 11.6549 23.265 11.5703 23.3496 11.5703C23.3496 11.2188 23.2161 10.8997 22.9492 10.6133C22.8776 10.6784 22.8092 10.7109 22.7441 10.7109H22.666C22.5423 10.7109 22.4512 10.6198 22.3926 10.4375C22.4251 10.2161 22.526 10.1055 22.6953 10.1055H22.7246C22.8613 10.1055 22.9785 10.2227 23.0762 10.457C23.2194 10.5547 23.3203 10.6882 23.3789 10.8574H23.3984V0.505859C23.3984 0.479818 23.4342 0.447266 23.5059 0.408203H23.5742C23.6003 0.408203 23.6361 0.440755 23.6816 0.505859V11.5898C23.7467 11.6615 23.7793 11.7298 23.7793 11.7949V11.873C23.7793 11.9186 23.7533 11.9837 23.7012 12.0684ZM34.2188 0.359375H34.2871C34.3132 0.359375 34.349 0.391927 34.3945 0.457031V12.2441C34.4596 12.3158 34.4922 12.3841 34.4922 12.4492V12.5273C34.4922 12.5859 34.4596 12.651 34.3945 12.7227V12.752C34.9023 12.8952 35.3158 13.2402 35.6348 13.7871C35.8171 14.3665 36.1979 16.1667 36.7773 19.1875C37.0443 19.9753 37.1777 20.3984 37.1777 20.457C37.1777 20.6523 36.748 20.8021 35.8887 20.9062C35.7259 20.9779 35.5241 21.0137 35.2832 21.0137C35.153 21.0137 34.9577 20.8867 34.6973 20.6328H34.5215C33.5645 21.5443 32.4219 22 31.0938 22H30.9473C30.3874 22 29.847 21.7721 29.3262 21.3164C28.8379 20.6979 28.5938 20.0827 28.5938 19.4707C28.5938 18.1686 29.4889 17.2637 31.2793 16.7559C31.9368 16.5345 32.5195 16.3132 33.0273 16.0918C33.3789 15.8444 33.5547 15.61 33.5547 15.3887C33.5547 14.8548 33.3268 14.4902 32.8711 14.2949C32.7214 14.2624 32.6107 14.2461 32.5391 14.2461H32.3145C31.7871 14.2461 31.3151 14.4056 30.8984 14.7246C30.6901 14.8874 30.5371 15.2357 30.4395 15.7695C30.4395 15.9128 29.7884 16.082 28.4863 16.2773C28.3171 16.2773 28.2161 16.1569 28.1836 15.916C28.1836 14.7051 28.8346 13.8034 30.1367 13.2109C31.1719 12.7682 32.194 12.5469 33.2031 12.5469C33.3138 12.5469 33.5482 12.5632 33.9062 12.5957L33.8867 12.5469V12.4688C33.9193 12.2995 33.9779 12.2148 34.0625 12.2148C34.0625 11.8698 33.9258 11.5508 33.6523 11.2578C33.5872 11.3229 33.5221 11.3555 33.457 11.3555H33.3789C33.2487 11.3555 33.1543 11.2643 33.0957 11.082C33.1348 10.8607 33.2389 10.75 33.4082 10.75H33.4277C33.571 10.75 33.6882 10.8672 33.7793 11.1016C33.929 11.1992 34.0332 11.3359 34.0918 11.5117H34.1113V0.457031C34.1113 0.43099 34.1471 0.398438 34.2188 0.359375ZM33.8379 13.8652C33.8379 14.1126 33.9876 14.2559 34.2871 14.2949C34.541 14.2428 34.668 14.0931 34.668 13.8457C34.6029 13.6048 34.5117 13.4844 34.3945 13.4844V13.6113C34.3945 13.6374 34.3587 13.6732 34.2871 13.7188H34.2188C34.1862 13.7188 34.1504 13.6829 34.1113 13.6113V13.4844H34.0918C33.9225 13.582 33.8379 13.709 33.8379 13.8652ZM30.9473 19.0117V19.1582C31.0254 19.8678 31.3281 20.2227 31.8555 20.2227C31.8555 20.2422 31.9336 20.252 32.0898 20.252H32.3438C32.8451 20.252 33.3431 20.0241 33.8379 19.5684C34.0527 19.1973 34.1602 18.8587 34.1602 18.5527C34.1602 18.0059 34.0755 17.5924 33.9062 17.3125C33.8411 17.2799 33.7826 17.2637 33.7305 17.2637C32.6367 17.6478 31.8783 17.9603 31.4551 18.2012C31.1165 18.5137 30.9473 18.7839 30.9473 19.0117ZM44.502 13.0156L44.4434 12.9082V12.8594C44.4759 12.6836 44.5475 12.5957 44.6582 12.5957V0.603516C44.6582 0.577474 44.6908 0.544922 44.7559 0.505859H44.834C44.86 0.505859 44.8926 0.538411 44.9316 0.603516V11.707C45.0553 11.6159 45.1693 11.4694 45.2734 11.2676C45.332 11.2155 45.3906 11.1895 45.4492 11.1895H45.498C45.6738 11.2155 45.7617 11.3066 45.7617 11.4629V11.5801C45.6966 11.7168 45.6152 11.7852 45.5176 11.7852H45.4492C45.3841 11.7852 45.3092 11.7526 45.2246 11.6875C45.0293 11.9349 44.9316 12.1367 44.9316 12.293V12.6445C44.9967 12.7096 45.0293 12.7747 45.0293 12.8398V12.9082C45.0293 12.9668 44.9967 13.0319 44.9316 13.1035L44.9219 13.123C45.6641 13.2533 46.0352 13.4225 46.0352 13.6309V13.7285C46.0352 13.8197 45.9603 14.1712 45.8105 14.7832C45.5957 15.5514 45.4883 16.0234 45.4883 16.1992C45.4883 16.2839 45.5273 16.349 45.6055 16.3945H45.6836C45.8333 16.3945 46.3802 16.069 47.3242 15.418C47.8581 15.099 48.291 14.8288 48.623 14.6074C48.7858 14.5423 48.9258 14.5098 49.043 14.5098C50.4362 14.7767 51.1328 14.9818 51.1328 15.125C51.1328 15.3008 50.804 15.5547 50.1465 15.8867C48.8053 16.668 48.0697 17.1172 47.9395 17.2344C47.8743 17.306 47.8418 17.3711 47.8418 17.4297V17.6055C47.8743 17.7422 48.4961 19.474 49.707 22.8008C49.707 22.8398 49.7168 22.8724 49.7363 22.8984C49.6908 23.0807 49.6387 23.1719 49.5801 23.1719H49.3359C47.9297 22.8659 47.2266 22.6543 47.2266 22.5371C47.1484 22.5371 46.9108 21.8828 46.5137 20.5742C46.2012 19.6172 45.9831 18.9954 45.8594 18.709C45.8008 18.6764 45.7487 18.6602 45.7031 18.6602H45.6543C45.2246 18.7773 44.9154 18.9792 44.7266 19.2656C44.401 20.6328 44.2057 21.4108 44.1406 21.5996C44.1406 21.7103 44.0072 21.7754 43.7402 21.7949C43.5579 21.7949 43.0111 21.6647 42.0996 21.4043C42.002 21.3066 41.9531 21.209 41.9531 21.1113C41.9531 21.0267 42.5684 18.4193 43.7988 13.2891C43.89 13.0742 44.0039 12.9668 44.1406 12.9668H44.248L44.4141 12.9961L44.502 13.0156ZM55.6152 0.359375H55.6934C55.7194 0.359375 55.7552 0.395182 55.8008 0.466797V11.7754H55.8301C55.8301 11.6712 55.944 11.5182 56.1719 11.3164C56.224 11.1081 56.3314 11.0039 56.4941 11.0039H56.5234C56.6992 11.0039 56.8034 11.1178 56.8359 11.3457C56.7839 11.541 56.6862 11.6387 56.543 11.6387H56.4648C56.3997 11.6387 56.3281 11.6029 56.25 11.5312C55.9896 11.8242 55.8594 12.1367 55.8594 12.4688V12.5176C55.9635 12.6283 56.0156 12.7161 56.0156 12.7812V12.8594C56.0156 12.9831 55.944 13.0742 55.8008 13.1328V13.3965C56.9531 13.3965 57.9557 13.7773 58.8086 14.5391C59.4271 15.1966 59.834 15.8704 60.0293 16.5605C60.1921 17.1139 60.2734 17.5664 60.2734 17.918C60.293 18.2435 60.3027 18.4583 60.3027 18.5625C60.3027 20.112 59.6094 21.3359 58.2227 22.2344C57.4935 22.625 56.9694 22.8203 56.6504 22.8203C56.5007 22.8854 56.1458 22.9375 55.5859 22.9766C53.5156 22.9766 52.0801 22.0456 51.2793 20.1836C51.0124 19.4674 50.8789 18.7057 50.8789 17.8984V17.7324C50.8789 16.9186 51.1523 16.0951 51.6992 15.2617C52.3307 14.513 52.7507 14.1387 52.959 14.1387C53.7923 13.6439 54.6419 13.3965 55.5078 13.3965V13.1035C55.4232 13.0124 55.3809 12.931 55.3809 12.8594V12.8105C55.3809 12.7324 55.4232 12.6445 55.5078 12.5469V0.466797C55.5078 0.440755 55.5436 0.404948 55.6152 0.359375ZM55.2148 14.2754C55.2148 14.5293 55.3743 14.679 55.6934 14.7246C55.9603 14.6725 56.0938 14.513 56.0938 14.2461C56.0286 13.9987 55.931 13.875 55.8008 13.875V14.0117C55.8008 14.0378 55.765 14.0736 55.6934 14.1191H55.6152C55.5892 14.1191 55.5534 14.0833 55.5078 14.0117V13.875H55.4785C55.3027 13.9727 55.2148 14.1061 55.2148 14.2754ZM53.3496 17.8105C53.3496 19.0215 53.6979 19.972 54.3945 20.6621C54.7982 20.9486 55.1693 21.0918 55.5078 21.0918H55.8301C56.3639 21.0918 56.8685 20.8314 57.3438 20.3105C57.6628 19.8939 57.8223 19.3275 57.8223 18.6113C57.8223 17.0293 57.3275 15.9648 56.3379 15.418C56.1165 15.3464 55.8398 15.2943 55.5078 15.2617C55.0521 15.2617 54.5833 15.431 54.1016 15.7695C53.6003 16.2188 53.3496 16.8991 53.3496 17.8105ZM61.582 13.6797C61.6341 13.9727 61.7969 14.1191 62.0703 14.1191C62.2786 14.1191 62.4121 13.9727 62.4707 13.6797C62.4707 13.5169 62.3893 13.3835 62.2266 13.2793H62.1777C62.1777 13.3704 62.1484 13.416 62.0898 13.416H61.9824C61.9694 13.416 61.9238 13.3704 61.8457 13.2793C61.6699 13.377 61.582 13.5104 61.582 13.6797ZM67.207 13.6797C67.2591 13.9727 67.4219 14.1191 67.6953 14.1191C67.9036 14.1191 68.0371 13.9727 68.0957 13.6797C68.0957 13.5169 68.0143 13.3835 67.8516 13.2793H67.8027C67.8027 13.3704 67.7734 13.416 67.7148 13.416H67.6074C67.5944 13.416 67.5488 13.3704 67.4707 13.2793C67.2949 13.377 67.207 13.5104 67.207 13.6797ZM63.3398 18.2402V21.4043C63.3398 21.8014 63.1771 22 62.8516 22H61.416C61.0189 22 60.8203 21.821 60.8203 21.4629V13.2207C60.8203 12.9147 61.0091 12.7617 61.3867 12.7617H61.6016V12.6543C61.6016 12.5501 61.6667 12.4492 61.7969 12.3516C61.7969 12.1172 61.7155 12 61.5527 12C61.3184 12 61.2012 11.9023 61.2012 11.707V11.6484C61.2012 11.4987 61.2988 11.401 61.4941 11.3555H61.5527C61.748 11.3815 61.8457 11.4792 61.8457 11.6484V11.707L61.8262 11.8438L61.875 11.8633V11.2969L61.8457 0.515625C61.8457 0.489583 61.8848 0.453776 61.9629 0.408203H62.041C62.0671 0.408203 62.1029 0.44401 62.1484 0.515625L62.1777 11.2969V12.4395C62.2298 12.5046 62.2559 12.5664 62.2559 12.625V12.7617H62.8516C63.1771 12.7617 63.3398 12.9408 63.3398 13.2988V16.4629H66.4551L66.4453 13.2207C66.4453 12.9147 66.6341 12.7617 67.0117 12.7617H67.2266V12.6543C67.2266 12.5501 67.2917 12.4492 67.4219 12.3516C67.4219 12.1172 67.3405 12 67.1777 12C66.9434 12 66.8262 11.9023 66.8262 11.707V11.6484C66.8262 11.4987 66.9238 11.401 67.1191 11.3555H67.1777C67.373 11.3815 67.4707 11.4792 67.4707 11.6484V11.707L67.4512 11.8438L67.5 11.8633V11.2969L67.4707 0.515625C67.4707 0.489583 67.5098 0.453776 67.5879 0.408203H67.666C67.6921 0.408203 67.7279 0.44401 67.7734 0.515625L67.8027 11.2969V12.4395C67.8548 12.5046 67.8809 12.5664 67.8809 12.625V12.7617H68.4766C68.8021 12.7617 68.9648 12.9408 68.9648 13.2988V21.4043C68.9648 21.8014 68.8021 22 68.4766 22H67.041C66.6439 22 66.4453 21.821 66.4453 21.4629V18.2402H63.3398ZM80.2832 0.359375H80.3613C80.3874 0.359375 80.4199 0.391927 80.459 0.457031V11.3652H80.4785C80.4785 11.3197 80.5599 11.2285 80.7227 11.0918C80.7422 10.916 80.8333 10.8281 80.9961 10.8281H81.0156C81.1784 10.8281 81.276 10.9323 81.3086 11.1406C81.2565 11.3229 81.1686 11.4141 81.0449 11.4141H80.9668C80.9082 11.4141 80.8431 11.3815 80.7715 11.3164C80.5697 11.5378 80.4655 11.7396 80.459 11.9219V12.2637C80.5241 12.3548 80.5566 12.4297 80.5566 12.4883V12.6055L80.459 12.752V12.8301L80.8691 13.0449C81.8132 13.5007 82.2852 14.5749 82.2852 16.2676C82.2982 16.3132 82.4186 17.7357 82.6465 20.5352C82.6465 20.8802 82.4512 21.0527 82.0605 21.0527C81.5267 21.0983 81.1133 21.1211 80.8203 21.1211H80.752C80.4915 21.1211 80.3613 20.8444 80.3613 20.291C80.1074 16.9772 79.9186 15.3203 79.7949 15.3203C79.7038 15.0599 79.5345 14.8548 79.2871 14.7051C79.1439 14.6074 78.8509 14.5586 78.4082 14.5586C78.1673 14.5846 77.8906 14.6986 77.5781 14.9004C77.2656 15.265 77.1094 15.6393 77.1094 16.0234V16.5605C77.1094 16.9577 77.2233 18.4714 77.4512 21.1016C77.4512 21.3229 77.2331 21.4531 76.7969 21.4922C76.2044 21.5378 75.7878 21.5605 75.5469 21.5605C75.293 21.5605 75.166 21.3099 75.166 20.8086C74.9316 17.8789 74.7591 16.196 74.6484 15.7598C74.401 15.252 74.0267 14.998 73.5254 14.998H73.3105C72.985 14.998 72.6497 15.1608 72.3047 15.4863C72.0312 15.7858 71.8945 16.1667 71.8945 16.6289V16.873C71.8945 17.0944 72.0085 18.6504 72.2363 21.541C72.2363 21.8145 71.8522 21.9512 71.084 21.9512C70.8105 21.9837 70.5599 22 70.332 22C70.0846 22 69.9609 21.7721 69.9609 21.3164C69.9284 21.0951 69.7266 18.696 69.3555 14.1191C69.3555 13.8132 69.6484 13.6602 70.2344 13.6602V13.6309C70.1237 13.6309 70.0488 13.5495 70.0098 13.3867V13.3379C70.0488 13.1621 70.1237 13.0742 70.2344 13.0742V0.525391C70.2344 0.499349 70.2669 0.466797 70.332 0.427734H70.4004C70.4264 0.427734 70.459 0.460286 70.498 0.525391V12.1953C70.6217 12.1042 70.7357 11.9577 70.8398 11.7559C70.9049 11.7038 70.9635 11.6777 71.0156 11.6777H71.0645C71.2402 11.7038 71.3281 11.7949 71.3281 11.9512V12.0684C71.263 12.1986 71.1816 12.2637 71.084 12.2637H71.0156C70.957 12.2637 70.8822 12.2311 70.791 12.166C70.5957 12.4199 70.498 12.625 70.498 12.7812V13.123C70.5632 13.1882 70.5957 13.2533 70.5957 13.3184V13.3867C70.5957 13.4453 70.5632 13.5104 70.498 13.582V13.6309C70.7454 13.6178 70.9245 13.6113 71.0352 13.6113C71.3281 13.6113 71.4746 13.7318 71.4746 13.9727C71.5462 14.181 71.6048 14.2884 71.6504 14.2949H71.6992C71.8229 14.2949 71.9857 14.1712 72.1875 13.9238C72.806 13.39 73.5124 13.123 74.3066 13.123H74.4043C75.2116 13.123 75.8691 13.416 76.377 14.002C76.4746 14.0475 76.5332 14.0703 76.5527 14.0703C76.6569 14.0703 76.901 13.8587 77.2852 13.4355C77.8841 12.9473 78.5189 12.7031 79.1895 12.7031H79.209C79.6387 12.7031 79.9316 12.7292 80.0879 12.7812H80.1172V12.752C80.0391 12.752 79.9902 12.6803 79.9707 12.5371V12.4883C79.9707 12.4036 80.0423 12.306 80.1855 12.1953V0.457031C80.1855 0.43099 80.2181 0.398438 80.2832 0.359375ZM79.9219 13.8555C79.9674 14.1159 80.1139 14.2461 80.3613 14.2461C80.5436 14.2461 80.6641 14.1159 80.7227 13.8555C80.7227 13.7057 80.651 13.582 80.5078 13.4844H80.459C80.459 13.6146 80.4264 13.6797 80.3613 13.6797H80.2832C80.2441 13.6797 80.2051 13.6146 80.166 13.4844C80.0033 13.5755 79.9219 13.6992 79.9219 13.8555ZM69.9609 14.6855C69.9609 14.9199 70.1074 15.0566 70.4004 15.0957C70.6478 15.0436 70.7715 14.8971 70.7715 14.6562C70.7064 14.4284 70.6152 14.3145 70.498 14.3145V14.4414C70.498 14.4674 70.4655 14.5 70.4004 14.5391H70.332C70.306 14.5391 70.2734 14.5065 70.2344 14.4414V14.3145H70.2051C70.0423 14.4056 69.9609 14.5293 69.9609 14.6855ZM87.4121 0.349609H87.4902C87.5163 0.349609 87.5521 0.385417 87.5977 0.457031V10.8281C87.7279 10.7305 87.8516 10.5742 87.9688 10.3594C88.0273 10.3073 88.0859 10.2812 88.1445 10.2812H88.2031C88.3919 10.3073 88.4863 10.4017 88.4863 10.5645V10.7012C88.4147 10.8379 88.3301 10.9062 88.2324 10.9062H88.1445C88.0859 10.9062 88.0078 10.8704 87.9102 10.7988C87.7018 11.0723 87.5977 11.2936 87.5977 11.4629V11.834C87.6693 11.9056 87.7051 11.974 87.7051 12.0391V12.1172C87.7051 12.1823 87.6693 12.2539 87.5977 12.332V12.5176C88.1901 12.5176 88.8737 12.7552 89.6484 13.2305C90.3451 13.8164 90.8301 14.4023 91.1035 14.9883C91.2663 15.2096 91.4323 15.6751 91.6016 16.3848V16.4434C91.6016 16.6973 91.11 16.9154 90.127 17.0977C87.4772 17.8008 86.0026 18.2044 85.7031 18.3086C85.612 18.4062 85.5664 18.5137 85.5664 18.6309V18.709C85.7617 19.2559 86.0677 19.6497 86.4844 19.8906C86.7643 20.0339 86.9954 20.1055 87.1777 20.1055H87.3535C88.3887 20.1055 89.1439 19.6758 89.6191 18.8164C89.7754 18.4128 90.0326 18.2109 90.3906 18.2109C90.7747 18.0872 91.1165 17.9993 91.416 17.9473C91.6439 17.9473 91.7578 18.0612 91.7578 18.2891C91.7578 18.8099 91.5299 19.4414 91.0742 20.1836C90.5339 20.9128 89.7689 21.4206 88.7793 21.707C88.2454 21.9023 87.6562 22 87.0117 22C86.3411 21.9349 85.8236 21.821 85.459 21.6582C84.4889 21.209 83.7793 20.5156 83.3301 19.5781C82.9264 18.8099 82.7246 17.9473 82.7246 16.9902V16.9121C82.7246 16.873 82.7148 16.8405 82.6953 16.8145C82.7734 15.9355 83.0469 15.1445 83.5156 14.4414C84.0885 13.6081 84.9121 13.0286 85.9863 12.7031C86.4811 12.5599 86.9206 12.4883 87.3047 12.4883V12.3809C87.1875 12.3809 87.1094 12.293 87.0703 12.1172V12.0684C87.1094 11.873 87.1875 11.7754 87.3047 11.7754V0.457031C87.3047 0.43099 87.3405 0.395182 87.4121 0.349609ZM87.0117 13.5137C87.0117 13.7676 87.1712 13.9173 87.4902 13.9629C87.7507 13.9108 87.8809 13.7546 87.8809 13.4941C87.8158 13.2467 87.7214 13.123 87.5977 13.123V13.25C87.5977 13.2826 87.5618 13.3184 87.4902 13.3574H87.4121C87.3861 13.3574 87.3503 13.3216 87.3047 13.25V13.123H87.2754C87.0996 13.2207 87.0117 13.3509 87.0117 13.5137ZM84.9902 16.3066C84.9902 16.4954 85.0684 16.6354 85.2246 16.7266H85.3516C85.5729 16.7266 86.6536 16.4466 88.5938 15.8867C88.6849 15.7956 88.7305 15.7174 88.7305 15.6523V15.5742C88.7305 15.3073 88.457 14.9818 87.9102 14.5977C87.6497 14.4544 87.3861 14.3828 87.1191 14.3828C86.2728 14.3828 85.625 14.7539 85.1758 15.4961C85.0521 15.8151 84.9902 16.0853 84.9902 16.3066ZM98.2324 13.2891C98.2324 13.5365 98.3854 13.6797 98.6914 13.7188C98.9388 13.6667 99.0625 13.5169 99.0625 13.2695C98.9974 13.0286 98.9062 12.9082 98.7891 12.9082V13.0352C98.7891 13.0612 98.7565 13.097 98.6914 13.1426H98.6133C98.5872 13.1426 98.5514 13.1068 98.5059 13.0352V12.9082H98.4863C98.3171 13.0059 98.2324 13.1328 98.2324 13.2891ZM92.832 13.25C92.6693 13.3411 92.5879 13.4648 92.5879 13.6211C92.5879 13.8555 92.7344 13.9922 93.0273 14.0312C93.2747 13.9792 93.3984 13.8327 93.3984 13.5918C93.3333 13.3639 93.2422 13.25 93.125 13.25V13.377C93.125 13.403 93.0924 13.4355 93.0273 13.4746H92.959C92.9329 13.4746 92.9004 13.4421 92.8613 13.377V13.25H92.832ZM93.1152 12.7031C93.2194 12.6901 93.4473 12.6836 93.7988 12.6836H93.8184C94.1048 12.6836 94.248 13.1198 94.248 13.9922C94.4824 17.2214 94.7038 18.8359 94.9121 18.8359C95.1595 19.2591 95.5013 19.4707 95.9375 19.4707H96.2402C96.7611 19.4707 97.2168 19.2266 97.6074 18.7383C97.7767 18.4714 97.8613 18.084 97.8613 17.5762V17.4785C97.8613 16.9512 97.7507 15.3789 97.5293 12.7617C97.5293 12.4557 97.7669 12.3027 98.2422 12.3027C98.3268 12.2897 98.4147 12.2799 98.5059 12.2734V12.2441C98.4277 12.153 98.3887 12.0749 98.3887 12.0098V11.9609C98.3887 11.8893 98.4277 11.8047 98.5059 11.707V0.496094C98.5059 0.470052 98.5417 0.4375 98.6133 0.398438H98.6914C98.7174 0.398438 98.75 0.43099 98.7891 0.496094V10.9746H98.8086C98.8086 10.877 98.9193 10.737 99.1406 10.5547C99.1862 10.3529 99.2871 10.252 99.4434 10.252H99.4727C99.6354 10.252 99.7363 10.3594 99.7754 10.5742C99.7168 10.763 99.6224 10.8574 99.4922 10.8574H99.4141C99.3555 10.8574 99.2904 10.8216 99.2188 10.75C98.9648 11.0299 98.8379 11.3262 98.8379 11.6387V11.6875C98.9421 11.7852 98.9941 11.8698 98.9941 11.9414V12.0098C98.9941 12.0749 98.9518 12.153 98.8672 12.2441C99.056 12.2246 99.2578 12.2116 99.4727 12.2051C99.7786 12.2051 99.9316 12.5501 99.9316 13.2402C99.9316 13.3379 100.124 15.7077 100.508 20.3496C100.508 20.6686 100.215 20.8281 99.6289 20.8281C99.2318 20.8672 98.9095 20.8867 98.6621 20.8867H98.6426C98.4277 20.8867 98.2943 20.6849 98.2422 20.2812C98.1836 20.1966 98.1152 20.1543 98.0371 20.1543C97.9655 20.1543 97.7702 20.3203 97.4512 20.6523C96.8717 21.0755 96.4193 21.2871 96.0938 21.2871C95.9115 21.3522 95.7194 21.3848 95.5176 21.3848V21.4043L95.1562 21.4141C93.8802 21.4141 93.0241 20.877 92.5879 19.8027C92.3861 19.5293 92.2168 18.2663 92.0801 16.0137C91.9303 14.4707 91.8555 13.5039 91.8555 13.1133C91.8555 12.8789 92.1875 12.752 92.8516 12.7324V12.7227C92.7409 12.7227 92.666 12.6413 92.627 12.4785V12.4297C92.666 12.2539 92.7409 12.166 92.8516 12.166V0.496094C92.8516 0.470052 92.8841 0.4375 92.9492 0.398438H93.0176C93.0436 0.398438 93.0762 0.43099 93.1152 0.496094V11.2871C93.2389 11.196 93.3529 11.0495 93.457 10.8477C93.5221 10.7956 93.5807 10.7695 93.6328 10.7695H93.6816C93.8574 10.7956 93.9453 10.8867 93.9453 11.043V11.1602C93.8802 11.2904 93.7988 11.3555 93.7012 11.3555H93.6328C93.5742 11.3555 93.4993 11.3229 93.4082 11.2578C93.2129 11.5117 93.1152 11.7168 93.1152 11.873V12.2148C93.1803 12.2799 93.2129 12.3451 93.2129 12.4102V12.4785C93.2129 12.5371 93.1803 12.6022 93.1152 12.6738V12.7031ZM95.9668 0.427734C95.8952 0.473307 95.8594 0.509115 95.8594 0.535156V8.66992H95.8398C95.7096 8.37695 95.599 8.23047 95.5078 8.23047C95.4622 8.01562 95.3613 7.9082 95.2051 7.9082H95.1465C94.9642 7.95378 94.873 8.04492 94.873 8.18164V8.23047C94.873 8.34766 94.9414 8.44206 95.0781 8.51367H95.2246C95.3158 8.51367 95.3743 8.48112 95.4004 8.41602C95.6738 8.69596 95.8105 9.01823 95.8105 9.38281C95.7259 9.38281 95.6673 9.46745 95.6348 9.63672C95.6543 9.83854 95.7292 9.93945 95.8594 9.93945V10.0371H94.7656C94.4922 10.0371 94.3555 10.2161 94.3555 10.5742V11.3359C94.3555 11.5898 94.4987 11.7331 94.7852 11.7656C95.1628 11.7526 95.4688 11.7461 95.7031 11.7461H95.7422H97.2266C97.5651 11.7461 97.7344 11.5833 97.7344 11.2578V11.0137C97.7344 10.7923 97.7246 10.6198 97.7051 10.4961C97.7051 10.1901 97.5358 10.0371 97.1973 10.0371H96.1426V9.89062C96.2077 9.8125 96.2402 9.74414 96.2402 9.68555V9.60742C96.2402 9.54232 96.2077 9.47396 96.1426 9.40234V0.535156C96.1035 0.463542 96.071 0.427734 96.0449 0.427734H95.9668ZM95.5859 10.8379C95.5859 10.6816 95.6706 10.5547 95.8398 10.457H95.8594V10.584C95.9049 10.6491 95.9408 10.6816 95.9668 10.6816H96.0449C96.11 10.6426 96.1426 10.61 96.1426 10.584V10.457C96.2663 10.457 96.3607 10.5775 96.4258 10.8184C96.4258 11.0658 96.2988 11.2155 96.0449 11.2676C95.7389 11.2285 95.5859 11.0853 95.5859 10.8379ZM101.953 13.6797C102.005 13.9727 102.168 14.1191 102.441 14.1191C102.65 14.1191 102.783 13.9727 102.842 13.6797C102.842 13.5169 102.76 13.3835 102.598 13.2793H102.549C102.549 13.3704 102.52 13.416 102.461 13.416H102.354C102.34 13.416 102.295 13.3704 102.217 13.2793C102.041 13.377 101.953 13.5104 101.953 13.6797ZM107.578 13.6797C107.63 13.9727 107.793 14.1191 108.066 14.1191C108.275 14.1191 108.408 13.9727 108.467 13.6797C108.467 13.5169 108.385 13.3835 108.223 13.2793H108.174C108.174 13.3704 108.145 13.416 108.086 13.416H107.979C107.965 13.416 107.92 13.3704 107.842 13.2793C107.666 13.377 107.578 13.5104 107.578 13.6797ZM103.711 18.2402V21.4043C103.711 21.8014 103.548 22 103.223 22H101.787C101.39 22 101.191 21.821 101.191 21.4629V13.2207C101.191 12.9147 101.38 12.7617 101.758 12.7617H101.973V12.6543C101.973 12.5501 102.038 12.4492 102.168 12.3516C102.168 12.1172 102.087 12 101.924 12C101.689 12 101.572 11.9023 101.572 11.707V11.6484C101.572 11.4987 101.67 11.401 101.865 11.3555H101.924C102.119 11.3815 102.217 11.4792 102.217 11.6484V11.707L102.197 11.8438L102.246 11.8633V11.2969L102.217 0.515625C102.217 0.489583 102.256 0.453776 102.334 0.408203H102.412C102.438 0.408203 102.474 0.44401 102.52 0.515625L102.549 11.2969V12.4395C102.601 12.5046 102.627 12.5664 102.627 12.625V12.7617H103.223C103.548 12.7617 103.711 12.9408 103.711 13.2988V16.4629H106.826L106.816 13.2207C106.816 12.9147 107.005 12.7617 107.383 12.7617H107.598V12.6543C107.598 12.5501 107.663 12.4492 107.793 12.3516C107.793 12.1172 107.712 12 107.549 12C107.314 12 107.197 11.9023 107.197 11.707V11.6484C107.197 11.4987 107.295 11.401 107.49 11.3555H107.549C107.744 11.3815 107.842 11.4792 107.842 11.6484V11.707L107.822 11.8438L107.871 11.8633V11.2969L107.842 0.515625C107.842 0.489583 107.881 0.453776 107.959 0.408203H108.037C108.063 0.408203 108.099 0.44401 108.145 0.515625L108.174 11.2969V12.4395C108.226 12.5046 108.252 12.5664 108.252 12.625V12.7617H108.848C109.173 12.7617 109.336 12.9408 109.336 13.2988V21.4043C109.336 21.8014 109.173 22 108.848 22H107.412C107.015 22 106.816 21.821 106.816 21.4629V18.2402H103.711ZM114.443 0.349609H114.521C114.548 0.349609 114.583 0.385417 114.629 0.457031V10.8281C114.759 10.7305 114.883 10.5742 115 10.3594C115.059 10.3073 115.117 10.2812 115.176 10.2812H115.234C115.423 10.3073 115.518 10.4017 115.518 10.5645V10.7012C115.446 10.8379 115.361 10.9062 115.264 10.9062H115.176C115.117 10.9062 115.039 10.8704 114.941 10.7988C114.733 11.0723 114.629 11.2936 114.629 11.4629V11.834C114.701 11.9056 114.736 11.974 114.736 12.0391V12.1172C114.736 12.1823 114.701 12.2539 114.629 12.332V12.5176C115.221 12.5176 115.905 12.7552 116.68 13.2305C117.376 13.8164 117.861 14.4023 118.135 14.9883C118.298 15.2096 118.464 15.6751 118.633 16.3848V16.4434C118.633 16.6973 118.141 16.9154 117.158 17.0977C114.508 17.8008 113.034 18.2044 112.734 18.3086C112.643 18.4062 112.598 18.5137 112.598 18.6309V18.709C112.793 19.2559 113.099 19.6497 113.516 19.8906C113.796 20.0339 114.027 20.1055 114.209 20.1055H114.385C115.42 20.1055 116.175 19.6758 116.65 18.8164C116.807 18.4128 117.064 18.2109 117.422 18.2109C117.806 18.0872 118.148 17.9993 118.447 17.9473C118.675 17.9473 118.789 18.0612 118.789 18.2891C118.789 18.8099 118.561 19.4414 118.105 20.1836C117.565 20.9128 116.8 21.4206 115.811 21.707C115.277 21.9023 114.688 22 114.043 22C113.372 21.9349 112.855 21.821 112.49 21.6582C111.52 21.209 110.811 20.5156 110.361 19.5781C109.958 18.8099 109.756 17.9473 109.756 16.9902V16.9121C109.756 16.873 109.746 16.8405 109.727 16.8145C109.805 15.9355 110.078 15.1445 110.547 14.4414C111.12 13.6081 111.943 13.0286 113.018 12.7031C113.512 12.5599 113.952 12.4883 114.336 12.4883V12.3809C114.219 12.3809 114.141 12.293 114.102 12.1172V12.0684C114.141 11.873 114.219 11.7754 114.336 11.7754V0.457031C114.336 0.43099 114.372 0.395182 114.443 0.349609ZM114.043 13.5137C114.043 13.7676 114.202 13.9173 114.521 13.9629C114.782 13.9108 114.912 13.7546 114.912 13.4941C114.847 13.2467 114.753 13.123 114.629 13.123V13.25C114.629 13.2826 114.593 13.3184 114.521 13.3574H114.443C114.417 13.3574 114.382 13.3216 114.336 13.25V13.123H114.307C114.131 13.2207 114.043 13.3509 114.043 13.5137ZM112.021 16.3066C112.021 16.4954 112.1 16.6354 112.256 16.7266H112.383C112.604 16.7266 113.685 16.4466 115.625 15.8867C115.716 15.7956 115.762 15.7174 115.762 15.6523V15.5742C115.762 15.3073 115.488 14.9818 114.941 14.5977C114.681 14.4544 114.417 14.3828 114.15 14.3828C113.304 14.3828 112.656 14.7539 112.207 15.4961C112.083 15.8151 112.021 16.0853 112.021 16.3066ZM124.609 0.378906H124.688C124.714 0.378906 124.746 0.411458 124.785 0.476562V11.1602H124.814C124.814 11.0625 124.925 10.916 125.146 10.7207C125.199 10.5189 125.303 10.418 125.459 10.418H125.479C125.654 10.418 125.758 10.5286 125.791 10.75C125.739 10.9388 125.645 11.0332 125.508 11.0332H125.43C125.371 11.0332 125.303 10.9974 125.225 10.9258C124.971 11.2122 124.844 11.5117 124.844 11.8242V11.873C124.941 11.9772 124.99 12.0651 124.99 12.1367V12.2148C124.99 12.3255 124.922 12.4102 124.785 12.4688V12.6738C125.254 12.6738 125.872 12.9473 126.641 13.4941C127.233 14.0866 127.643 14.6855 127.871 15.291C128.158 16.1764 128.301 16.9023 128.301 17.4688C128.288 17.5794 128.281 17.6999 128.281 17.8301C128.281 17.8691 128.288 17.9049 128.301 17.9375C128.301 18.5495 128.096 19.2754 127.686 20.1152C126.956 21.2611 125.879 21.834 124.453 21.834C123.867 21.834 123.236 21.6289 122.559 21.2188C122.526 21.1992 122.484 21.1895 122.432 21.1895C122.347 21.2871 122.305 21.349 122.305 21.375C122.305 21.388 122.311 21.3945 122.324 21.3945L122.305 21.5801V21.5996L122.949 25.3203C122.949 25.6393 122.601 25.7988 121.904 25.7988C121.514 25.8704 121.221 25.9062 121.025 25.9062H121.006C120.752 25.9062 120.605 25.7272 120.566 25.3691L118.887 13.9043C118.887 13.6309 119.17 13.4779 119.736 13.4453C119.814 13.4453 120.156 13.403 120.762 13.3184C120.957 13.3184 121.12 13.5137 121.25 13.9043L121.377 13.9336C121.481 13.9336 121.66 13.7871 121.914 13.4941C122.526 12.9993 123.073 12.752 123.555 12.752C123.555 12.6999 123.802 12.6641 124.297 12.6445H124.512V12.4395C124.421 12.3548 124.375 12.2799 124.375 12.2148V12.1562C124.375 12.0846 124.421 12 124.512 11.9023V0.476562C124.512 0.450521 124.544 0.417969 124.609 0.378906ZM124.229 13.5723C124.229 13.8197 124.382 13.9661 124.688 14.0117C124.941 13.9531 125.068 13.7969 125.068 13.543C125.003 13.3086 124.909 13.1914 124.785 13.1914V13.3184C124.785 13.3444 124.753 13.377 124.688 13.416H124.609C124.583 13.416 124.551 13.3835 124.512 13.3184V13.1914H124.482C124.313 13.2826 124.229 13.4095 124.229 13.5723ZM121.66 17.0586C121.66 18.1849 121.992 19.0768 122.656 19.7344C123.086 20.0078 123.428 20.1445 123.682 20.1445C124.684 20.1445 125.345 19.7669 125.664 19.0117C125.814 18.7122 125.889 18.2923 125.889 17.752C125.856 16.2155 125.397 15.2064 124.512 14.7246C124.245 14.6074 123.968 14.5488 123.682 14.5488C122.666 14.5488 122.025 15.0534 121.758 16.0625C121.693 16.3164 121.66 16.6484 121.66 17.0586ZM133.271 0.359375H133.35C133.376 0.359375 133.411 0.395182 133.457 0.466797V11.7754H133.486C133.486 11.6712 133.6 11.5182 133.828 11.3164C133.88 11.1081 133.988 11.0039 134.15 11.0039H134.18C134.355 11.0039 134.46 11.1178 134.492 11.3457C134.44 11.541 134.342 11.6387 134.199 11.6387H134.121C134.056 11.6387 133.984 11.6029 133.906 11.5312C133.646 11.8242 133.516 12.1367 133.516 12.4688V12.5176C133.62 12.6283 133.672 12.7161 133.672 12.7812V12.8594C133.672 12.9831 133.6 13.0742 133.457 13.1328V13.3965C134.609 13.3965 135.612 13.7773 136.465 14.5391C137.083 15.1966 137.49 15.8704 137.686 16.5605C137.848 17.1139 137.93 17.5664 137.93 17.918C137.949 18.2435 137.959 18.4583 137.959 18.5625C137.959 20.112 137.266 21.3359 135.879 22.2344C135.15 22.625 134.626 22.8203 134.307 22.8203C134.157 22.8854 133.802 22.9375 133.242 22.9766C131.172 22.9766 129.736 22.0456 128.936 20.1836C128.669 19.4674 128.535 18.7057 128.535 17.8984V17.7324C128.535 16.9186 128.809 16.0951 129.355 15.2617C129.987 14.513 130.407 14.1387 130.615 14.1387C131.449 13.6439 132.298 13.3965 133.164 13.3965V13.1035C133.079 13.0124 133.037 12.931 133.037 12.8594V12.8105C133.037 12.7324 133.079 12.6445 133.164 12.5469V0.466797C133.164 0.440755 133.2 0.404948 133.271 0.359375ZM132.871 14.2754C132.871 14.5293 133.031 14.679 133.35 14.7246C133.617 14.6725 133.75 14.513 133.75 14.2461C133.685 13.9987 133.587 13.875 133.457 13.875V14.0117C133.457 14.0378 133.421 14.0736 133.35 14.1191H133.271C133.245 14.1191 133.21 14.0833 133.164 14.0117V13.875H133.135C132.959 13.9727 132.871 14.1061 132.871 14.2754ZM131.006 17.8105C131.006 19.0215 131.354 19.972 132.051 20.6621C132.454 20.9486 132.826 21.0918 133.164 21.0918H133.486C134.02 21.0918 134.525 20.8314 135 20.3105C135.319 19.8939 135.479 19.3275 135.479 18.6113C135.479 17.0293 134.984 15.9648 133.994 15.418C133.773 15.3464 133.496 15.2943 133.164 15.2617C132.708 15.2617 132.24 15.431 131.758 15.7695C131.257 16.2188 131.006 16.8991 131.006 17.8105ZM141.641 12.6152C141.693 12.8887 141.846 13.0254 142.1 13.0254C142.301 13.0254 142.432 12.8887 142.49 12.6152C142.49 12.459 142.412 12.3288 142.256 12.2246C142.256 12.3483 142.223 12.4102 142.158 12.4102H142.08C142.035 12.4102 141.992 12.3418 141.953 12.2051C141.745 12.2962 141.641 12.4329 141.641 12.6152ZM142.383 15.3984C142.363 15.5417 142.419 15.6491 142.549 15.7207C143.467 16.0723 144.062 16.2741 144.336 16.3262C144.759 16.3978 145.12 16.3099 145.42 16.0625C145.563 15.8542 145.645 15.6556 145.664 15.4668C145.723 14.9329 145.244 14.5065 144.229 14.1875L143.271 13.8555C143.037 13.8294 142.858 13.9987 142.734 14.3633C142.52 14.8711 142.402 15.2161 142.383 15.3984ZM140.84 19.207C140.801 19.4089 141.195 19.6237 142.021 19.8516C142.262 19.9622 142.536 20.0469 142.842 20.1055L143.125 20.1445C143.763 20.2682 144.222 20.0859 144.502 19.5977C144.548 19.4935 144.577 19.4089 144.59 19.3438L144.609 19.1973C144.694 18.696 144.434 18.2956 143.828 17.9961C143.659 17.8984 143.057 17.6673 142.021 17.3027H141.973L141.895 17.2734C141.68 17.2344 141.517 17.3711 141.406 17.6836C141.042 18.6016 140.853 19.1094 140.84 19.207ZM142.236 11.7266L142.422 11.7949C144.596 12.5762 145.96 13.097 146.514 13.3574C146.82 13.5267 147.168 13.7839 147.559 14.1289C147.884 14.5326 148.05 14.8906 148.057 15.2031C148.083 15.457 148.089 15.61 148.076 15.6621C147.913 16.7298 147.337 17.3581 146.348 17.5469C146.257 17.599 146.201 17.6543 146.182 17.7129C146.169 17.804 146.302 17.9831 146.582 18.25C146.973 18.7839 147.126 19.334 147.041 19.9004L147.031 19.9883C146.882 20.9193 146.361 21.5736 145.469 21.9512C144.805 22.14 144.173 22.1758 143.574 22.0586L143.252 22C142.952 21.9414 142.754 21.8796 142.656 21.8145C142.624 21.8275 142.601 21.834 142.588 21.834C139.977 20.8639 138.542 20.3268 138.281 20.2227C138.151 20.1315 138.096 20.0241 138.115 19.9004V19.8906C138.128 19.819 139.154 17.0586 141.191 11.6094C141.296 11.5117 141.416 11.4759 141.553 11.502C141.605 11.5085 141.673 11.5247 141.758 11.5508L141.738 11.4629V11.4336C141.777 11.2643 141.839 11.1797 141.924 11.1797C141.924 10.8151 141.787 10.4896 141.514 10.2031C141.481 10.2682 141.419 10.3008 141.328 10.3008H141.172C141.035 10.2292 140.967 10.1348 140.967 10.0176V9.96875C140.967 9.82552 141.061 9.73112 141.25 9.68555H141.309C141.465 9.68555 141.566 9.79622 141.611 10.0176C141.709 10.0176 141.823 10.1641 141.953 10.457H141.973V0.710938C141.973 0.684896 142.008 0.649089 142.08 0.603516H142.158C142.184 0.603516 142.217 0.639323 142.256 0.710938V11.209C142.327 11.2806 142.363 11.349 142.363 11.4141V11.4922C142.363 11.5508 142.321 11.6224 142.236 11.707V11.7266Z" fill="black"/>
</svg>
