<svg width="100" height="26" viewBox="0 0 100 26" fill="none" xmlns="http://www.w3.org/2000/svg">
<path d="M2.64648 0.4375H2.72461C2.75065 0.4375 2.7832 0.470052 2.82227 0.535156V9.96875C2.89388 10.0404 2.92969 10.1087 2.92969 10.1738V10.252C2.92969 10.3105 2.89388 10.3757 2.82227 10.4473V10.5547C5.75846 10.8542 7.30143 11.0299 7.45117 11.082C7.83529 11.1732 8.30078 11.349 8.84766 11.6094C9.94141 12.3516 10.4883 13.3737 10.4883 14.6758C10.4883 16.2969 9.85677 17.4688 8.59375 18.1914C8.02734 18.4779 7.30143 18.6211 6.41602 18.6211L3.58398 18.3184C3.26497 18.3184 3.10547 18.6211 3.10547 19.2266L2.75391 22.2344C2.63672 22.4036 2.47396 22.4883 2.26562 22.4883C0.950521 22.3451 0.292969 22.2344 0.292969 22.1562C0.227865 22.0651 0.195312 21.9902 0.195312 21.9316C0.214844 21.554 0.61849 17.8268 1.40625 10.75C1.47786 10.5482 1.62109 10.4473 1.83594 10.4473C1.98568 10.4473 2.19727 10.4635 2.4707 10.4961C2.37305 10.4049 2.32422 10.304 2.32422 10.1934C2.35677 10.0306 2.41536 9.94922 2.5 9.94922C2.5 9.59115 2.36328 9.26888 2.08984 8.98242C2.0638 9.04753 2.00521 9.08008 1.91406 9.08008H1.76758C1.63086 9.00846 1.5625 8.91732 1.5625 8.80664V8.75781C1.5625 8.61458 1.65365 8.52018 1.83594 8.47461H1.89453C2.04427 8.47461 2.14518 8.58529 2.19727 8.80664C2.28841 8.80664 2.39583 8.94987 2.51953 9.23633H2.54883V0.535156C2.54883 0.509115 2.58138 0.476562 2.64648 0.4375ZM2.26562 11.5898C2.26562 11.8307 2.41862 11.974 2.72461 12.0195C2.97852 11.9674 3.10547 11.8145 3.10547 11.5605C3.04036 11.3262 2.94596 11.209 2.82227 11.209V11.3359C2.82227 11.362 2.78971 11.3945 2.72461 11.4336H2.64648C2.62044 11.4336 2.58789 11.401 2.54883 11.3359V11.209H2.51953C2.35026 11.3066 2.26562 11.4336 2.26562 11.5898ZM3.48633 15.9355C3.48633 16.2415 3.90625 16.3945 4.74609 16.3945C5.14323 16.4596 5.68359 16.4922 6.36719 16.4922C7.22005 16.4922 7.74089 16.0202 7.92969 15.0762C7.94922 14.9785 7.95898 14.8451 7.95898 14.6758V14.627C7.95898 13.8848 7.56185 13.377 6.76758 13.1035C5.79102 12.8691 4.91536 12.752 4.14062 12.752H4.11133C3.90299 12.752 3.78581 12.9375 3.75977 13.3086C3.57747 14.7539 3.48633 15.6296 3.48633 15.9355ZM16.7188 0.359375H16.7871C16.8132 0.359375 16.849 0.391927 16.8945 0.457031V12.2441C16.9596 12.3158 16.9922 12.3841 16.9922 12.4492V12.5273C16.9922 12.5859 16.9596 12.651 16.8945 12.7227V12.752C17.4023 12.8952 17.8158 13.2402 18.1348 13.7871C18.3171 14.3665 18.6979 16.1667 19.2773 19.1875C19.5443 19.9753 19.6777 20.3984 19.6777 20.457C19.6777 20.6523 19.248 20.8021 18.3887 20.9062C18.2259 20.9779 18.0241 21.0137 17.7832 21.0137C17.653 21.0137 17.4577 20.8867 17.1973 20.6328H17.0215C16.0645 21.5443 14.9219 22 13.5938 22H13.4473C12.8874 22 12.347 21.7721 11.8262 21.3164C11.3379 20.6979 11.0938 20.0827 11.0938 19.4707C11.0938 18.1686 11.9889 17.2637 13.7793 16.7559C14.4368 16.5345 15.0195 16.3132 15.5273 16.0918C15.8789 15.8444 16.0547 15.61 16.0547 15.3887C16.0547 14.8548 15.8268 14.4902 15.3711 14.2949C15.2214 14.2624 15.1107 14.2461 15.0391 14.2461H14.8145C14.2871 14.2461 13.8151 14.4056 13.3984 14.7246C13.1901 14.8874 13.0371 15.2357 12.9395 15.7695C12.9395 15.9128 12.2884 16.082 10.9863 16.2773C10.8171 16.2773 10.7161 16.1569 10.6836 15.916C10.6836 14.7051 11.3346 13.8034 12.6367 13.2109C13.6719 12.7682 14.694 12.5469 15.7031 12.5469C15.8138 12.5469 16.0482 12.5632 16.4062 12.5957L16.3867 12.5469V12.4688C16.4193 12.2995 16.4779 12.2148 16.5625 12.2148C16.5625 11.8698 16.4258 11.5508 16.1523 11.2578C16.0872 11.3229 16.0221 11.3555 15.957 11.3555H15.8789C15.7487 11.3555 15.6543 11.2643 15.5957 11.082C15.6348 10.8607 15.7389 10.75 15.9082 10.75H15.9277C16.071 10.75 16.1882 10.8672 16.2793 11.1016C16.429 11.1992 16.5332 11.3359 16.5918 11.5117H16.6113V0.457031C16.6113 0.43099 16.6471 0.398438 16.7188 0.359375ZM16.3379 13.8652C16.3379 14.1126 16.4876 14.2559 16.7871 14.2949C17.041 14.2428 17.168 14.0931 17.168 13.8457C17.1029 13.6048 17.0117 13.4844 16.8945 13.4844V13.6113C16.8945 13.6374 16.8587 13.6732 16.7871 13.7188H16.7188C16.6862 13.7188 16.6504 13.6829 16.6113 13.6113V13.4844H16.5918C16.4225 13.582 16.3379 13.709 16.3379 13.8652ZM13.4473 19.0117V19.1582C13.5254 19.8678 13.8281 20.2227 14.3555 20.2227C14.3555 20.2422 14.4336 20.252 14.5898 20.252H14.8438C15.3451 20.252 15.8431 20.0241 16.3379 19.5684C16.5527 19.1973 16.6602 18.8587 16.6602 18.5527C16.6602 18.0059 16.5755 17.5924 16.4062 17.3125C16.3411 17.2799 16.2826 17.2637 16.2305 17.2637C15.1367 17.6478 14.3783 17.9603 13.9551 18.2012C13.6165 18.5137 13.4473 18.7839 13.4473 19.0117ZM24.541 0.349609H24.6191C24.6452 0.349609 24.681 0.385417 24.7266 0.457031V10.5254C24.8503 10.4277 24.9674 10.2747 25.0781 10.0664C25.1432 10.0143 25.2051 9.98828 25.2637 9.98828H25.3125C25.5013 10.0143 25.5957 10.1087 25.5957 10.2715V10.3984C25.5241 10.5352 25.4395 10.6035 25.3418 10.6035H25.2637C25.1986 10.6035 25.1204 10.571 25.0293 10.5059C24.8275 10.7663 24.7266 10.9779 24.7266 11.1406V11.502C24.7917 11.5736 24.8242 11.6419 24.8242 11.707V11.7754C24.8242 11.8405 24.7917 11.9089 24.7266 11.9805V12.0586C25.2214 12.0586 25.8268 12.2734 26.543 12.7031C27.1224 13.1458 27.487 13.6146 27.6367 14.1094V14.207C27.6367 14.4154 27.2298 14.5944 26.416 14.7441C26.1165 14.8483 25.9017 14.9004 25.7715 14.9004C25.5762 14.9004 25.4069 14.7734 25.2637 14.5195C24.9056 14.1224 24.5052 13.9238 24.0625 13.9238C23.1706 13.9238 22.5488 14.3177 22.1973 15.1055C22.0736 15.4245 22.0117 15.7142 22.0117 15.9746C22.0117 17.459 22.4967 18.5592 23.4668 19.2754C23.7858 19.4056 24.0332 19.4707 24.209 19.4707C25.2376 19.4707 25.8952 19.0052 26.1816 18.0742C26.2142 17.4557 26.3249 17.1465 26.5137 17.1465C27.373 16.873 27.9199 16.7363 28.1543 16.7363H28.2031C28.3724 16.834 28.457 16.9707 28.457 17.1465C28.457 18.9629 27.6204 20.2161 25.9473 20.9062C25.3092 21.1797 24.6191 21.3164 23.877 21.3164C22.9199 21.3164 22.0247 20.9583 21.1914 20.2422C20.6706 19.7083 20.3385 19.2396 20.1953 18.8359C19.8568 18.2109 19.6875 17.3092 19.6875 16.1309V16.0234C19.6875 15.4505 19.9349 14.7507 20.4297 13.9238C20.9896 13.1556 21.8001 12.612 22.8613 12.293C23.3757 12.1367 23.903 12.0586 24.4434 12.0586V12.0391C24.3262 12.0391 24.248 11.9512 24.209 11.7754V11.7266C24.248 11.5378 24.3262 11.4434 24.4434 11.4434V0.457031C24.4434 0.43099 24.4759 0.395182 24.541 0.349609ZM24.1602 13.1328C24.1602 13.3802 24.3132 13.5267 24.6191 13.5723C24.8796 13.5202 25.0098 13.3672 25.0098 13.1133C24.9447 12.8724 24.8503 12.752 24.7266 12.752V12.8789C24.7266 12.9049 24.6908 12.9408 24.6191 12.9863H24.541C24.515 12.9863 24.4824 12.9505 24.4434 12.8789V12.752H24.4141C24.2448 12.8496 24.1602 12.9766 24.1602 13.1328ZM33.6328 0.398438H33.7109C33.737 0.398438 33.7695 0.43099 33.8086 0.496094V10.916H33.8281C33.8281 10.8184 33.9388 10.6784 34.1602 10.4961C34.2057 10.2943 34.3066 10.1934 34.4629 10.1934H34.4922C34.6549 10.1934 34.7559 10.3008 34.7949 10.5156C34.7363 10.7044 34.6419 10.7988 34.5117 10.7988H34.4336C34.375 10.7988 34.3099 10.763 34.2383 10.6914C33.9844 10.9714 33.8574 11.2676 33.8574 11.5801V11.6289C33.9616 11.7266 34.0137 11.8112 34.0137 11.8828V11.9512C34.0137 12.0228 33.9616 12.1074 33.8574 12.2051H33.8867C35.1628 12.2051 36.0189 12.7422 36.4551 13.8164C36.6569 14.0898 36.8262 15.3529 36.9629 17.6055C37.1126 19.1484 37.1875 20.1152 37.1875 20.5059C37.1875 20.7598 36.7936 20.8867 36.0059 20.8867C36.0059 20.9193 35.752 20.9355 35.2441 20.9355H35.2246C34.9382 20.9355 34.7949 20.4993 34.7949 19.627C34.5605 16.3978 34.3392 14.7832 34.1309 14.7832C33.8835 14.36 33.5417 14.1484 33.1055 14.1484H32.8027C32.2819 14.1484 31.8262 14.3926 31.4355 14.8809C31.2663 15.1478 31.1816 15.5352 31.1816 16.043V16.1406C31.1816 16.668 31.2923 18.2402 31.5137 20.8574C31.5137 21.1634 31.276 21.3164 30.8008 21.3164C30.4492 21.362 30.0391 21.3945 29.5703 21.4141C29.2643 21.4141 29.1113 21.069 29.1113 20.3789C29.1113 20.2812 28.9193 17.9115 28.5352 13.2695C28.5352 12.9505 28.8281 12.791 29.4141 12.791C29.8112 12.752 30.1335 12.7324 30.3809 12.7324H30.4004C30.6152 12.7324 30.7487 12.9342 30.8008 13.3379C30.8594 13.4225 30.9277 13.4648 31.0059 13.4648C31.0775 13.4648 31.2728 13.2988 31.5918 12.9668C32.1712 12.5436 32.6237 12.332 32.9492 12.332C33.1315 12.2669 33.3236 12.2344 33.5254 12.2344V12.1855C33.4473 12.0944 33.4082 12.0163 33.4082 11.9512V11.9023C33.4082 11.8307 33.4473 11.7461 33.5254 11.6484V0.496094C33.5254 0.470052 33.5612 0.4375 33.6328 0.398438ZM33.252 13.2891C33.252 13.5365 33.4049 13.6797 33.7109 13.7188C33.9583 13.6667 34.082 13.5169 34.082 13.2695C34.0169 13.0286 33.9258 12.9082 33.8086 12.9082V13.0352C33.8086 13.0612 33.776 13.097 33.7109 13.1426H33.6328C33.6068 13.1426 33.571 13.1068 33.5254 13.0352V12.9082H33.5059C33.3366 13.0059 33.252 13.1328 33.252 13.2891ZM43.2422 0.378906H43.3203C43.3464 0.378906 43.3789 0.411458 43.418 0.476562V11.1602H43.4473C43.4473 11.0625 43.5579 10.916 43.7793 10.7207C43.8314 10.5189 43.9355 10.418 44.0918 10.418H44.1113C44.2871 10.418 44.3913 10.5286 44.4238 10.75C44.3717 10.9388 44.2773 11.0332 44.1406 11.0332H44.0625C44.0039 11.0332 43.9355 10.9974 43.8574 10.9258C43.6035 11.2122 43.4766 11.5117 43.4766 11.8242V11.873C43.5742 11.9772 43.623 12.0651 43.623 12.1367V12.2148C43.623 12.3255 43.5547 12.4102 43.418 12.4688V12.6738C43.8867 12.6738 44.5052 12.9473 45.2734 13.4941C45.8659 14.0866 46.276 14.6855 46.5039 15.291C46.7904 16.1764 46.9336 16.9023 46.9336 17.4688C46.9206 17.5794 46.9141 17.6999 46.9141 17.8301C46.9141 17.8691 46.9206 17.9049 46.9336 17.9375C46.9336 18.5495 46.7285 19.2754 46.3184 20.1152C45.5892 21.2611 44.5117 21.834 43.0859 21.834C42.5 21.834 41.8685 21.6289 41.1914 21.2188C41.1589 21.1992 41.1165 21.1895 41.0645 21.1895C40.9798 21.2871 40.9375 21.349 40.9375 21.375C40.9375 21.388 40.944 21.3945 40.957 21.3945L40.9375 21.5801V21.5996L41.582 25.3203C41.582 25.6393 41.2337 25.7988 40.5371 25.7988C40.1465 25.8704 39.8535 25.9062 39.6582 25.9062H39.6387C39.3848 25.9062 39.2383 25.7272 39.1992 25.3691L37.5195 13.9043C37.5195 13.6309 37.8027 13.4779 38.3691 13.4453C38.4473 13.4453 38.7891 13.403 39.3945 13.3184C39.5898 13.3184 39.7526 13.5137 39.8828 13.9043L40.0098 13.9336C40.1139 13.9336 40.293 13.7871 40.5469 13.4941C41.1589 12.9993 41.7057 12.752 42.1875 12.752C42.1875 12.6999 42.4349 12.6641 42.9297 12.6445H43.1445V12.4395C43.0534 12.3548 43.0078 12.2799 43.0078 12.2148V12.1562C43.0078 12.0846 43.0534 12 43.1445 11.9023V0.476562C43.1445 0.450521 43.1771 0.417969 43.2422 0.378906ZM42.8613 13.5723C42.8613 13.8197 43.0143 13.9661 43.3203 14.0117C43.5742 13.9531 43.7012 13.7969 43.7012 13.543C43.6361 13.3086 43.5417 13.1914 43.418 13.1914V13.3184C43.418 13.3444 43.3854 13.377 43.3203 13.416H43.2422C43.2161 13.416 43.1836 13.3835 43.1445 13.3184V13.1914H43.1152C42.946 13.2826 42.8613 13.4095 42.8613 13.5723ZM40.293 17.0586C40.293 18.1849 40.625 19.0768 41.2891 19.7344C41.7188 20.0078 42.0605 20.1445 42.3145 20.1445C43.3171 20.1445 43.9779 19.7669 44.2969 19.0117C44.4466 18.7122 44.5215 18.2923 44.5215 17.752C44.4889 16.2155 44.0299 15.2064 43.1445 14.7246C42.8776 14.6074 42.6009 14.5488 42.3145 14.5488C41.2988 14.5488 40.6576 15.0534 40.3906 16.0625C40.3255 16.3164 40.293 16.6484 40.293 17.0586ZM51.9043 0.359375H51.9824C52.0085 0.359375 52.0443 0.395182 52.0898 0.466797V11.7754H52.1191C52.1191 11.6712 52.2331 11.5182 52.4609 11.3164C52.513 11.1081 52.6204 11.0039 52.7832 11.0039H52.8125C52.9883 11.0039 53.0924 11.1178 53.125 11.3457C53.0729 11.541 52.9753 11.6387 52.832 11.6387H52.7539C52.6888 11.6387 52.6172 11.6029 52.5391 11.5312C52.2786 11.8242 52.1484 12.1367 52.1484 12.4688V12.5176C52.2526 12.6283 52.3047 12.7161 52.3047 12.7812V12.8594C52.3047 12.9831 52.2331 13.0742 52.0898 13.1328V13.3965C53.2422 13.3965 54.2448 13.7773 55.0977 14.5391C55.7161 15.1966 56.123 15.8704 56.3184 16.5605C56.4811 17.1139 56.5625 17.5664 56.5625 17.918C56.582 18.2435 56.5918 18.4583 56.5918 18.5625C56.5918 20.112 55.8984 21.3359 54.5117 22.2344C53.7826 22.625 53.2585 22.8203 52.9395 22.8203C52.7897 22.8854 52.4349 22.9375 51.875 22.9766C49.8047 22.9766 48.3691 22.0456 47.5684 20.1836C47.3014 19.4674 47.168 18.7057 47.168 17.8984V17.7324C47.168 16.9186 47.4414 16.0951 47.9883 15.2617C48.6198 14.513 49.0397 14.1387 49.248 14.1387C50.0814 13.6439 50.931 13.3965 51.7969 13.3965V13.1035C51.7122 13.0124 51.6699 12.931 51.6699 12.8594V12.8105C51.6699 12.7324 51.7122 12.6445 51.7969 12.5469V0.466797C51.7969 0.440755 51.8327 0.404948 51.9043 0.359375ZM51.5039 14.2754C51.5039 14.5293 51.6634 14.679 51.9824 14.7246C52.2493 14.6725 52.3828 14.513 52.3828 14.2461C52.3177 13.9987 52.2201 13.875 52.0898 13.875V14.0117C52.0898 14.0378 52.054 14.0736 51.9824 14.1191H51.9043C51.8783 14.1191 51.8424 14.0833 51.7969 14.0117V13.875H51.7676C51.5918 13.9727 51.5039 14.1061 51.5039 14.2754ZM49.6387 17.8105C49.6387 19.0215 49.987 19.972 50.6836 20.6621C51.0872 20.9486 51.4583 21.0918 51.7969 21.0918H52.1191C52.653 21.0918 53.1576 20.8314 53.6328 20.3105C53.9518 19.8939 54.1113 19.3275 54.1113 18.6113C54.1113 17.0293 53.6165 15.9648 52.627 15.418C52.4056 15.3464 52.1289 15.2943 51.7969 15.2617C51.3411 15.2617 50.8724 15.431 50.3906 15.7695C49.8893 16.2188 49.6387 16.8991 49.6387 17.8105ZM61.084 0.320312H61.1719C61.1979 0.320312 61.2337 0.35612 61.2793 0.427734V10.7695C61.416 10.6654 61.543 10.4993 61.6602 10.2715C61.7318 10.2129 61.7969 10.1836 61.8555 10.1836H61.9141C62.1159 10.2161 62.2168 10.3171 62.2168 10.4863V10.623C62.1387 10.7728 62.0443 10.8477 61.9336 10.8477H61.8555C61.7904 10.8477 61.709 10.8118 61.6113 10.7402C61.39 11.0202 61.2793 11.248 61.2793 11.4238V11.8145C61.3509 11.8861 61.3867 11.9577 61.3867 12.0293V12.1172C61.3867 12.1823 61.3509 12.2539 61.2793 12.332V12.4199C61.377 12.3809 61.569 12.3613 61.8555 12.3613H62.1582C62.5358 12.3613 63.0957 12.5176 63.8379 12.8301C64.3848 13.123 64.834 13.6081 65.1855 14.2852C65.2572 14.3372 65.3125 14.3633 65.3516 14.3633C65.4492 14.3633 65.5859 14.2168 65.7617 13.9238C65.8398 13.8522 65.9115 13.8164 65.9766 13.8164H66.0645C67.3275 14.1484 67.959 14.4056 67.959 14.5879V14.6953C67.959 14.8971 67.2168 17.179 65.7324 21.541C65.3939 22.7454 65.0456 23.6081 64.6875 24.1289C63.9388 25.1185 62.959 25.6133 61.748 25.6133H61.6602C60.5013 25.6133 59.3197 25.2747 58.1152 24.5977C56.9238 23.7578 56.3281 22.804 56.3281 21.7363C56.3281 21.4303 56.4486 21.2578 56.6895 21.2188H56.7676C56.9694 21.2188 57.5749 21.4108 58.584 21.7949C58.7207 21.8861 58.8672 22.2051 59.0234 22.752C59.2773 23.1947 59.7819 23.5332 60.5371 23.7676C60.6022 23.7676 60.7943 23.7871 61.1133 23.8262C61.6667 23.8262 62.1712 23.5234 62.627 22.918C62.9525 22.3125 63.1152 21.8079 63.1152 21.4043L63.0078 21.3262H62.8711C62.2786 21.5475 61.8197 21.6582 61.4941 21.6582C60.1009 21.6582 58.9648 21.069 58.0859 19.8906C57.7018 19.2135 57.5098 18.5169 57.5098 17.8008C57.5098 16.8177 57.7572 15.8184 58.252 14.8027C58.7988 13.7936 59.5052 13.0905 60.3711 12.6934C60.4883 12.6152 60.6901 12.5404 60.9766 12.4688V12.3906C60.8529 12.3906 60.7682 12.2995 60.7227 12.1172V12.0586C60.7682 11.8568 60.8529 11.7559 60.9766 11.7559V0.427734C60.9766 0.401693 61.0124 0.365885 61.084 0.320312ZM60.6738 13.5723C60.6738 13.8327 60.8398 13.9889 61.1719 14.041C61.4453 13.9824 61.582 13.8164 61.582 13.543C61.5104 13.2891 61.4095 13.1621 61.2793 13.1621V13.2988C61.2793 13.3249 61.2435 13.3607 61.1719 13.4062H61.084C61.0579 13.4062 61.0221 13.3704 60.9766 13.2988V13.1621H60.9473C60.765 13.2598 60.6738 13.3965 60.6738 13.5723ZM60.0977 17.7812V17.8301C60.0977 18.9368 60.6283 19.6172 61.6895 19.8711C61.9173 19.9036 62.054 19.9199 62.0996 19.9199C63.2715 19.9199 64.0788 19.0866 64.5215 17.4199C64.5605 17.1074 64.5801 16.8958 64.5801 16.7852V16.5898C64.5801 15.5612 64.0658 14.8841 63.0371 14.5586C62.7897 14.5195 62.6335 14.5 62.5684 14.5H62.3535C61.722 14.5 61.1328 14.9427 60.5859 15.8281C60.2604 16.5182 60.0977 17.1693 60.0977 17.7812ZM74.1992 0.359375H74.2676C74.2936 0.359375 74.3294 0.391927 74.375 0.457031V12.2441C74.4401 12.3158 74.4727 12.3841 74.4727 12.4492V12.5273C74.4727 12.5859 74.4401 12.651 74.375 12.7227V12.752C74.8828 12.8952 75.2962 13.2402 75.6152 13.7871C75.7975 14.3665 76.1784 16.1667 76.7578 19.1875C77.0247 19.9753 77.1582 20.3984 77.1582 20.457C77.1582 20.6523 76.7285 20.8021 75.8691 20.9062C75.7064 20.9779 75.5046 21.0137 75.2637 21.0137C75.1335 21.0137 74.9382 20.8867 74.6777 20.6328H74.502C73.5449 21.5443 72.4023 22 71.0742 22H70.9277C70.3678 22 69.8275 21.7721 69.3066 21.3164C68.8184 20.6979 68.5742 20.0827 68.5742 19.4707C68.5742 18.1686 69.4694 17.2637 71.2598 16.7559C71.9173 16.5345 72.5 16.3132 73.0078 16.0918C73.3594 15.8444 73.5352 15.61 73.5352 15.3887C73.5352 14.8548 73.3073 14.4902 72.8516 14.2949C72.7018 14.2624 72.5911 14.2461 72.5195 14.2461H72.2949C71.7676 14.2461 71.2956 14.4056 70.8789 14.7246C70.6706 14.8874 70.5176 15.2357 70.4199 15.7695C70.4199 15.9128 69.7689 16.082 68.4668 16.2773C68.2975 16.2773 68.1966 16.1569 68.1641 15.916C68.1641 14.7051 68.8151 13.8034 70.1172 13.2109C71.1523 12.7682 72.1745 12.5469 73.1836 12.5469C73.2943 12.5469 73.5286 12.5632 73.8867 12.5957L73.8672 12.5469V12.4688C73.8997 12.2995 73.9583 12.2148 74.043 12.2148C74.043 11.8698 73.9062 11.5508 73.6328 11.2578C73.5677 11.3229 73.5026 11.3555 73.4375 11.3555H73.3594C73.2292 11.3555 73.1348 11.2643 73.0762 11.082C73.1152 10.8607 73.2194 10.75 73.3887 10.75H73.4082C73.5514 10.75 73.6686 10.8672 73.7598 11.1016C73.9095 11.1992 74.0137 11.3359 74.0723 11.5117H74.0918V0.457031C74.0918 0.43099 74.1276 0.398438 74.1992 0.359375ZM73.8184 13.8652C73.8184 14.1126 73.9681 14.2559 74.2676 14.2949C74.5215 14.2428 74.6484 14.0931 74.6484 13.8457C74.5833 13.6048 74.4922 13.4844 74.375 13.4844V13.6113C74.375 13.6374 74.3392 13.6732 74.2676 13.7188H74.1992C74.1667 13.7188 74.1309 13.6829 74.0918 13.6113V13.4844H74.0723C73.903 13.582 73.8184 13.709 73.8184 13.8652ZM70.9277 19.0117V19.1582C71.0059 19.8678 71.3086 20.2227 71.8359 20.2227C71.8359 20.2422 71.9141 20.252 72.0703 20.252H72.3242C72.8255 20.252 73.3236 20.0241 73.8184 19.5684C74.0332 19.1973 74.1406 18.8587 74.1406 18.5527C74.1406 18.0059 74.056 17.5924 73.8867 17.3125C73.8216 17.2799 73.763 17.2637 73.7109 17.2637C72.6172 17.6478 71.8587 17.9603 71.4355 18.2012C71.097 18.5137 70.9277 18.7839 70.9277 19.0117ZM83.6035 14.6465C83.6035 14.8939 83.7565 15.0404 84.0625 15.0859C84.3164 15.0339 84.4434 14.8809 84.4434 14.627C84.3783 14.3861 84.2871 14.2656 84.1699 14.2656V14.3926C84.1699 14.4186 84.1341 14.4544 84.0625 14.5H83.9844C83.9583 14.5 83.9258 14.4642 83.8867 14.3926V14.2656H83.8574C83.6882 14.3633 83.6035 14.4902 83.6035 14.6465ZM83.8379 13.6895V13.6797C83.7533 13.5885 83.7109 13.5104 83.7109 13.4453V13.3965C83.7109 13.3249 83.7533 13.2402 83.8379 13.1426V0.447266C83.8379 0.421224 83.8704 0.388672 83.9355 0.349609H84.0137C84.0397 0.349609 84.0755 0.382161 84.1211 0.447266V12.4004H84.1406C84.1406 12.2962 84.2513 12.1497 84.4727 11.9609C84.5247 11.7591 84.6289 11.6582 84.7852 11.6582H84.8047C84.9805 11.6582 85.0846 11.7689 85.1172 11.9902C85.0651 12.179 84.9707 12.2734 84.834 12.2734H84.7559C84.6973 12.2734 84.6289 12.2376 84.5508 12.166C84.2969 12.4525 84.1699 12.752 84.1699 13.0645V13.1133C84.2741 13.2174 84.3262 13.3021 84.3262 13.3672V13.4453C84.3262 13.5169 84.2773 13.5983 84.1797 13.6895H84.248C84.7949 13.6504 85.0911 13.7318 85.1367 13.9336L85.166 14.0312C85.1855 14.1224 85.1921 14.4805 85.1855 15.1055C85.153 15.9062 85.1595 16.3913 85.2051 16.5605C85.2246 16.6452 85.2767 16.7005 85.3613 16.7266L85.4395 16.707C85.5827 16.6745 86.0384 16.2318 86.8066 15.3789C87.2559 14.9427 87.6139 14.5781 87.8809 14.2852C88.0241 14.1875 88.1543 14.1257 88.2715 14.0996C89.6842 14.0345 90.4102 14.0736 90.4492 14.2168C90.4883 14.3861 90.2246 14.7083 89.6582 15.1836C88.5384 16.2513 87.9264 16.8568 87.8223 17C87.7767 17.0846 87.7604 17.1562 87.7734 17.2148L87.8125 17.3906C87.8776 17.5143 88.8835 19.054 90.8301 22.0098C90.8431 22.0488 90.8594 22.0781 90.8789 22.0977C90.8789 22.2865 90.8496 22.3874 90.791 22.4004L90.5566 22.459C89.1178 22.485 88.3854 22.4395 88.3594 22.3223C88.2812 22.3418 87.8971 21.7624 87.207 20.584C86.6862 19.7246 86.3314 19.168 86.1426 18.9141C86.0775 18.901 86.0221 18.8978 85.9766 18.9043L85.9277 18.9141C85.5371 19.1289 85.2832 19.3991 85.166 19.7246C85.166 21.1309 85.1562 21.9316 85.1367 22.127C85.1628 22.2376 85.0488 22.332 84.7949 22.4102C84.6191 22.4492 84.056 22.4492 83.1055 22.4102C82.9883 22.3385 82.9199 22.2539 82.9004 22.1562C82.8874 22.1107 82.8809 21.2969 82.8809 19.7148C82.7637 19.3893 82.5098 19.1191 82.1191 18.9043L82.0703 18.8945C82.0247 18.888 81.9694 18.8913 81.9043 18.9043C81.722 19.1582 81.3672 19.7148 80.8398 20.5742C80.1497 21.7526 79.7656 22.332 79.6875 22.3125C79.6615 22.4297 78.929 22.4753 77.4902 22.4492L77.2559 22.3906C77.1973 22.3776 77.168 22.2767 77.168 22.0879C77.194 22.0684 77.2103 22.0391 77.2168 22C79.1634 19.0443 80.1693 17.5046 80.2344 17.3809L80.2734 17.2051C80.2865 17.1465 80.2702 17.0749 80.2246 16.9902C80.127 16.847 79.515 16.2415 78.3887 15.1738C77.8223 14.6986 77.5618 14.3763 77.6074 14.207C77.64 14.0638 78.3626 14.0247 79.7754 14.0898C79.8926 14.1159 80.0228 14.1777 80.166 14.2754C80.4395 14.5684 80.7975 14.9329 81.2402 15.3691C82.0085 16.222 82.4674 16.6647 82.6172 16.6973L82.6855 16.7168C82.7767 16.6908 82.832 16.6354 82.8516 16.5508C82.8646 16.4922 82.8743 16.3978 82.8809 16.2676V14.1191C82.9199 13.8913 83.0078 13.7611 83.1445 13.7285L83.252 13.6992L83.418 13.6895H83.8379ZM96.9141 0.359375H96.9824C97.0085 0.359375 97.0443 0.391927 97.0898 0.457031V12.2441C97.1549 12.3158 97.1875 12.3841 97.1875 12.4492V12.5273C97.1875 12.5859 97.1549 12.651 97.0898 12.7227V12.752C97.5977 12.8952 98.0111 13.2402 98.3301 13.7871C98.5124 14.3665 98.8932 16.1667 99.4727 19.1875C99.7396 19.9753 99.873 20.3984 99.873 20.457C99.873 20.6523 99.4434 20.8021 98.584 20.9062C98.4212 20.9779 98.2194 21.0137 97.9785 21.0137C97.8483 21.0137 97.653 20.8867 97.3926 20.6328H97.2168C96.2598 21.5443 95.1172 22 93.7891 22H93.6426C93.0827 22 92.5423 21.7721 92.0215 21.3164C91.5332 20.6979 91.2891 20.0827 91.2891 19.4707C91.2891 18.1686 92.1842 17.2637 93.9746 16.7559C94.6322 16.5345 95.2148 16.3132 95.7227 16.0918C96.0742 15.8444 96.25 15.61 96.25 15.3887C96.25 14.8548 96.0221 14.4902 95.5664 14.2949C95.4167 14.2624 95.306 14.2461 95.2344 14.2461H95.0098C94.4824 14.2461 94.0104 14.4056 93.5938 14.7246C93.3854 14.8874 93.2324 15.2357 93.1348 15.7695C93.1348 15.9128 92.4837 16.082 91.1816 16.2773C91.0124 16.2773 90.9115 16.1569 90.8789 15.916C90.8789 14.7051 91.5299 13.8034 92.832 13.2109C93.8672 12.7682 94.8893 12.5469 95.8984 12.5469C96.0091 12.5469 96.2435 12.5632 96.6016 12.5957L96.582 12.5469V12.4688C96.6146 12.2995 96.6732 12.2148 96.7578 12.2148C96.7578 11.8698 96.6211 11.5508 96.3477 11.2578C96.2826 11.3229 96.2174 11.3555 96.1523 11.3555H96.0742C95.944 11.3555 95.8496 11.2643 95.791 11.082C95.8301 10.8607 95.9342 10.75 96.1035 10.75H96.123C96.2663 10.75 96.3835 10.8672 96.4746 11.1016C96.6243 11.1992 96.7285 11.3359 96.7871 11.5117H96.8066V0.457031C96.8066 0.43099 96.8424 0.398438 96.9141 0.359375ZM96.5332 13.8652C96.5332 14.1126 96.6829 14.2559 96.9824 14.2949C97.2363 14.2428 97.3633 14.0931 97.3633 13.8457C97.2982 13.6048 97.207 13.4844 97.0898 13.4844V13.6113C97.0898 13.6374 97.054 13.6732 96.9824 13.7188H96.9141C96.8815 13.7188 96.8457 13.6829 96.8066 13.6113V13.4844H96.7871C96.6178 13.582 96.5332 13.709 96.5332 13.8652ZM93.6426 19.0117V19.1582C93.7207 19.8678 94.0234 20.2227 94.5508 20.2227C94.5508 20.2422 94.6289 20.252 94.7852 20.252H95.0391C95.5404 20.252 96.0384 20.0241 96.5332 19.5684C96.748 19.1973 96.8555 18.8587 96.8555 18.5527C96.8555 18.0059 96.7708 17.5924 96.6016 17.3125C96.5365 17.2799 96.4779 17.2637 96.4258 17.2637C95.332 17.6478 94.5736 17.9603 94.1504 18.2012C93.8118 18.5137 93.6426 18.7839 93.6426 19.0117Z" fill="black"/>
</svg>
